<?xml version="1.0" encoding="UTF-8"?>
<svg width="320px" height="210px" viewBox="0 0 320 210" version="1.1" xmlns="http://www.w3.org/2000/svg" xmlns:xlink="http://www.w3.org/1999/xlink">
    <!-- Generator: Sketch 47 (45396) - http://www.bohemiancoding.com/sketch -->
    <title>Logo</title>
    <desc>Created with Sketch.</desc>
    <defs>
        <polygon id="path-1" points="40.15209 53 0.270663918 53 0.270663918 0.309499816 40.15209 0.309499816 40.15209 53"></polygon>
    </defs>
    <g id="Why-Cloud-Foundry?" stroke="none" stroke-width="1" fill="none" fill-rule="evenodd">
        <g id="Desktop---Why-CF?" transform="translate(-159.000000, -1011.000000)">
            <g id="BOSH" transform="translate(159.000000, 995.000000)">
                <g id="Logo" transform="translate(0.000000, 16.000000)">
                    <polygon id="graphic" fill="#7FB7DD" opacity="0.2" transform="translate(160.000000, 104.844720) scale(-1, 1) translate(-160.000000, -104.844720) " points="181.504627 0 0 209.689441 144.238489 209.689441 320 0"></polygon>
                    <g id="Page-1" transform="translate(73.000000, 58.000000)">
                        <path d="M0,4.40435308 C0.334963759,4.23798422 0.221172243,3.89914121 0.293293626,3.64577211 C1.25330938,0.275657877 5.5725789,-1.12092479 8.48788549,1.02050197 C8.69303076,1.17160763 9.22031821,1.28150266 8.86932747,1.72108278 C8.55840418,2.10876802 8.30678068,1.80045141 8.03592482,1.62492463 C6.35309254,0.529026973 4.18945103,0.492395297 2.69573705,1.5226612 C1.19080418,2.5605587 0.584984555,4.51577443 1.18279069,6.40077945 C1.99215288,8.9573652 5.2007531,10.0227365 7.72179613,8.56815364 C7.89168205,8.47046917 8.06637607,8.36667942 8.21061884,8.23694223 C8.46063963,8.00646793 8.67860648,8.05531017 8.88375175,8.27662655 C9.18025077,8.59715372 8.83727353,8.71315403 8.65616872,8.86425969 C6.0037045,11.094213 1.424798,9.8716308 0.376633892,6.66788542 C0.274061257,6.35651617 0.347785338,5.96425197 0,5.73988295 L0,4.40435308 Z" id="Fill-1" fill="#08BDE8"></path>
                        <path d="M30.0440732,42.7425648 C30.4621635,43.104928 30.9750623,43.0336942 31.4195747,43.1389963 C37.7437727,44.6132261 41.6589005,50.2004331 40.9082031,56.5448864 C40.2367719,62.2234585 36.8065667,65.5590583 31.6076376,67.4575937 C28.7758143,68.4904837 25.8274231,68.9674404 22.8153081,68.9767318 C15.8367755,68.996863 8.8582429,68.9705375 1.87971027,68.9999602 C1.16009767,69.0030573 0.998456821,68.8265214 1.00001106,68.1281205 C1.0217704,52.0494146 1.02021617,35.9707088 1.0015653,19.8951001 C1.00001106,19.218379 1.12590441,18.9969348 1.87193908,19.000032 C8.34068135,19.0310032 14.8078694,18.9860949 21.2766116,19.0310032 C24.4348251,19.052683 27.5619537,19.3871721 30.5771772,20.4185136 C36.5905274,22.4765508 38.8752586,26.8868517 38.5504227,32.5205155 C38.2784309,37.2699512 35.6020315,40.3655241 31.2936813,42.2392825 C31.090076,42.3260019 30.875591,42.3910415 30.6688773,42.4715666 C30.4699347,42.5520918 30.2741006,42.6434569 30.0440732,42.7425648 M12.2666888,53.9742756 C12.2666888,55.6033615 12.2900024,57.2324473 12.2527006,58.8599846 C12.2387125,59.4499863 12.378594,59.6605905 13.0282658,59.6559448 C16.2113471,59.6187794 19.3959826,59.6528477 22.5790638,59.6327164 C23.9250347,59.6234251 25.2352581,59.391141 26.4631068,58.8166249 C28.754055,57.7450209 29.8031662,55.9502391 29.7005864,53.4663477 C29.6182118,51.5074184 28.39658,49.9867318 26.1569218,49.1628975 C25.6222636,48.9677788 25.072063,48.7757573 24.5140913,48.6859408 C20.5896381,48.0572251 16.6356543,48.4861764 12.6956587,48.360743 C12.170326,48.3437089 12.268243,48.7014264 12.2666888,48.9941044 C12.2635803,50.65571 12.2666888,52.3173156 12.2666888,53.9742756 M12.2666888,33.5983138 C12.2666888,35.1313889 12.2837854,36.6675611 12.2558091,38.2006362 C12.2464837,38.7255983 12.313316,38.9780137 12.9614336,38.9687223 C15.6051939,38.9300083 18.2474,38.9671738 20.8911604,38.9470425 C22.176516,38.934654 23.4183528,38.6713987 24.5700439,38.0891398 C26.4910831,37.1212894 27.4003129,35.5216262 27.3567942,33.4357149 C27.3117213,31.2987011 26.1678014,29.8693796 24.1737129,29.0842593 C23.4338952,28.7900328 22.6661012,28.591817 21.8703309,28.5112918 C18.851999,28.1984826 15.8243416,28.4431552 12.8044554,28.3533387 C12.2775685,28.337853 12.2589176,28.6103997 12.2620261,28.9928942 C12.2713515,30.5275179 12.2666888,32.0621416 12.2666888,33.5983138" id="Fill-3" fill="#15201F"></path>
                        <path d="M182.983108,44.0022629 C182.983108,52.0250137 182.972387,60.0446676 182.999955,68.0643215 C183.003018,68.782823 182.849863,69.0058063 182.099401,68.9965153 C179.062326,68.945415 176.02372,68.939221 172.988176,68.9996123 C172.162668,69.0120003 172.050864,68.7286257 172.050864,67.9899938 C172.078432,61.4739282 172.050864,54.9547657 172.08609,48.4402486 C172.090685,47.6319344 171.917619,47.3903692 171.078326,47.3950147 C164.659577,47.436824 158.24389,47.4337271 151.829736,47.3981117 C151.063958,47.3919177 150.942965,47.6443223 150.944496,48.3380479 C150.969001,54.9191503 150.944496,61.4987041 150.976659,68.0767095 C150.978191,68.810696 150.797467,69.0042578 150.068447,68.9949668 C146.97011,68.948512 143.870241,68.9562545 140.771904,68.9903213 C140.153156,68.9965153 140,68.8168899 140.001532,68.2052345 C140.013784,52.0699201 140.013784,35.9361541 140,19.7992912 C140,19.1798933 140.163876,19.0018165 140.771904,19.0064619 C143.900872,19.0327863 147.034435,19.0389803 150.161871,19.0033649 C150.828098,18.997171 150.976659,19.1938298 150.975128,19.8395521 C150.94756,25.4481998 150.975128,31.0583959 150.942965,36.6639466 C150.936839,37.4087726 151.062426,37.6596287 151.874151,37.6565317 C158.288306,37.6178194 164.703992,37.6209163 171.122742,37.6534347 C171.911493,37.6580802 172.090685,37.4273545 172.08609,36.6608496 C172.050864,31.0847203 172.083027,25.5070426 172.050864,19.9293648 C172.044738,19.1736994 172.257624,18.9956225 172.980519,19.0018165 C176.017593,19.0436258 179.0562,19.0467228 182.093274,19.000268 C182.843737,18.990977 183.003018,19.2217027 182.999955,19.9417527 C182.972387,27.9629551 182.983108,35.9810605 182.983108,44.0022629" id="Fill-5" fill="#162120"></path>
                        <g id="Group-9" transform="translate(95.000000, 17.000000)">
                            <mask id="mask-2" fill="white">
                                <use xlink:href="#path-1"></use>
                            </mask>
                            <g id="Clip-8"></g>
                            <path d="M5.75842222,35.0295714 L9.48086667,35.0295714 C11.2262,35.0295714 11.2262,35.0295714 11.2355333,36.7251714 C11.2557556,40.0376857 13.0010889,42.4090571 16.1930889,43.3995714 C16.9195333,43.6232857 17.6724222,43.793 18.4284222,43.8763143 C20.7493111,44.1308857 23.0608667,44.1000286 25.2946444,43.2946571 C28.2766444,42.2239143 29.5522,39.8355714 28.8102,36.8038571 C28.4710889,35.4168286 27.5424222,34.5158 26.3446444,33.8477429 C23.8744222,32.4638 21.1630889,31.6522571 18.4782,30.8098571 C15.3950889,29.8440286 12.2466444,29.0803143 9.30508889,27.7118 C5.78175556,26.0732857 2.74842222,23.9163714 1.62375556,19.9913429 C-0.508911111,12.5532286 2.11997778,5.23545714 10.2275333,2.17134286 C16.8604222,-0.3358 23.6426444,-0.2602 30.2910889,2.09265714 C36.1882,4.18168571 39.4082,8.98614286 39.5030889,15.1606571 C39.5388667,17.4024286 39.5388667,17.4024286 37.2584222,17.4024286 C34.5859778,17.4024286 31.9104222,17.3900857 29.2379778,17.4147714 C28.6950889,17.4209429 28.5193111,17.2651143 28.5457556,16.7297429 C28.7588667,12.1675143 26.0210889,9.9782 22.1259778,9.45362857 C19.8393111,9.14814286 17.5557556,9.16048571 15.3733111,10.0738571 C13.5859778,10.8236857 12.3726444,12.0502571 12.1424222,14.0312857 C11.8904222,16.2128857 12.6806444,17.8930571 14.6422,18.9962 C17.5355333,20.6208286 20.7073111,21.5357429 23.8542,22.5015714 C27.0959778,23.4998 30.3190889,24.5211714 33.3399778,26.1010571 C38.4748667,28.7840857 40.4302,33.1102571 40.1206444,38.6336857 C39.7753111,44.8298 36.4479778,48.9723714 30.7017556,51.0737429 C23.5306444,53.7012286 16.2242,53.6333429 9.07797778,50.921 C3.43286667,48.7795143 0.296866667,43.9318571 0.284422222,37.9532857 C0.284422222,37.1988286 0.318644444,36.4443714 0.273533333,35.6960857 C0.242422222,35.1391143 0.463311111,35.0095143 0.984422222,35.0203143 C2.57731111,35.0496286 4.16708889,35.0295714 5.75842222,35.0295714" id="Fill-7" fill="#15201F" mask="url(#mask-2)"></path>
                        </g>
                        <path d="M89.4203323,42.9958842 C88.3949497,42.9958842 87.3664972,43.0051447 86.3411146,42.9958842 C85.2328419,42.9850804 85.0225463,42.7566555 84.902816,41.6361388 C84.1429891,34.5950963 80.475865,29.6283986 73.8860936,27.1188117 C63.5340278,23.1769391 52.4850703,30.0682708 51.1143119,41.1360736 C50.9838365,42.1794196 50.6108306,42.338391 49.7235984,41.7040489 C47.7802836,40.3103485 45.8661338,38.8718891 43.8921189,37.5214042 C43.0202367,36.9256474 42.8206862,36.2635239 43.149177,35.3019787 C46.366545,25.9272981 52.7183909,19.8215629 62.39659,17.6499831 C76.873211,14.4011022 90.6959205,23.6523098 93.5725176,38.2390905 C93.7828132,39.2994141 93.8841234,40.3890625 93.9808287,41.4694504 C94.0852089,42.6748547 93.7828132,42.9819935 92.5916502,42.9958842 C91.5355676,43.0051447 90.4764149,42.9958842 89.4203323,42.9958842" id="Fill-10" fill="#02BCE7"></path>
                        <path d="M46.5520341,43.0129776 C47.6112449,43.0129776 48.6673855,43.0441665 49.7235262,43.0020615 C50.6415089,42.9661942 50.9945792,43.3981607 51.0575178,44.3135553 C51.5426056,51.4137114 56.1309841,57.4955495 62.6658544,59.7442702 C72.8388835,63.2452257 83.7287989,55.9828872 84.8217816,44.966963 C84.9307729,43.8597566 85.3053344,43.6710637 86.1834048,44.322912 C88.1053352,45.7482453 90.0149848,47.1844948 91.9261696,48.6176253 C93.1204682,49.5127472 93.1941524,49.6952023 92.7489768,51.1127384 C90.6888885,57.6561724 86.8557734,62.7867487 81.1237543,66.2502775 C66.1059869,75.3340486 47.2366834,67.1750288 42.7864628,49.732629 C42.3320767,47.9486232 42.0910679,46.1349878 42.0035679,44.2948419 C41.9605854,43.402839 42.3029101,42.9786698 43.1963314,43.0051804 C44.3154106,43.0379287 45.4329548,43.0129776 46.5520341,43.0129776" id="Fill-12" fill="#15201F"></path>
                        <path d="M68.0132092,31 C73.4109859,31.2883555 77.6113518,33.6970642 79.83489,38.7448525 C82.0191432,43.7001791 81.0763001,48.2981955 77.4762109,52.3947241 C76.8492203,53.1077771 76.2788002,53.200239 75.4883834,52.6219608 C73.8274082,51.4089872 72.1192908,50.2634009 70.4347445,49.0864717 C69.6128997,48.5097607 69.6144711,48.3514786 70.4206019,47.8280507 C72.406858,46.5398538 73.2287029,44.4069635 72.5451416,42.3210876 C71.875723,40.2775247 69.8643245,38.9203733 67.6407862,39.0049993 C65.4156765,39.095894 63.5614185,40.6207304 63.0837113,42.8492169 C62.8998569,43.7001791 62.5902901,43.6390602 61.9915848,43.2112284 C60.2928958,41.9998219 58.5659216,40.8228927 56.8546614,39.6271577 C55.8489621,38.928209 55.7829631,38.718211 56.3848113,37.6932953 C58.9163449,33.3867686 62.7741445,31.2382067 68.0132092,31" id="Fill-14" fill="#2361AE"></path>
                        <path d="M121,9.90926349 C119.595937,10.0364972 118.438708,10.1814845 117.643713,9.00383273 C117.244613,8.41056846 116.625928,7.9341817 116.109823,7.40157537 C115.915883,7.201848 115.723546,7.04354556 115.385352,7.01247686 C114.035785,6.88820205 113.950836,6.94738053 113.950836,8.16793669 C113.950836,8.46087017 113.902752,8.76120096 113.955645,9.04673713 C114.106309,9.87819478 113.652713,10.026141 112.83528,9.99655175 C112.206978,9.97435982 111.992201,9.8426877 112.000215,9.24794397 C112.03708,6.75209154 112.030669,4.25623912 112.005024,1.76186617 C111.997009,1.21594468 112.125234,0.979230759 112.806429,1.00142269 C114.250562,1.05024494 115.699503,0.980710221 117.142033,1.03249139 C119.470918,1.11534126 120.903831,2.90401084 120.285146,4.8998051 C120.044725,5.6750432 119.544647,6.29345832 118.674321,6.56715879 C117.978701,6.78463971 118.116543,7.01395632 118.507629,7.39417806 C119.321857,8.17977239 120.09922,8.9934765 121,9.90926349 M115.70912,2.63622822 C113.950836,2.63622822 113.950836,2.63622822 113.950836,4.18818387 C113.950836,4.45448703 113.952439,4.71931074 113.950836,4.98265497 C113.950836,5.26079383 114.067842,5.42797304 114.40924,5.42501412 C115.297198,5.41613734 116.189964,5.46939798 117.069907,5.39542488 C117.975495,5.31997231 118.483586,4.71783127 118.438708,3.94259318 C118.398637,3.17475239 117.828037,2.68652993 116.893598,2.6406666 C116.500909,2.62291306 116.106617,2.63770768 115.70912,2.63622822" id="Fill-16" fill="#08BDE8"></path>
                        <path d="M96.9097431,5.79428699 C96.9097431,4.1258278 96.9530142,2.47873954 96.8841011,0.834704267 C96.8568563,0.0455062776 97.2639245,0.0271883358 97.8953609,0.0348208116 C98.5380157,0.0409267921 99.0043812,0.00887039411 98.9803418,0.872866646 C98.9194418,3.57171006 98.9691233,6.27207997 98.9482891,8.97397638 C98.9450839,9.3128583 99.2079153,9.81965469 98.5780815,9.94330079 C98.0395976,10.048629 97.5988743,9.93719481 97.2190508,9.46703431 C95.8600202,7.77567769 94.4448974,6.12095695 93.0474036,4.45249776 C92.8150222,4.17314915 92.5762303,3.89532703 92.1258911,3.36715971 L92.1258911,7.17271211 C92.1258911,7.72682984 92.056978,8.28858006 92.1403148,8.83048583 C92.2893594,9.80591623 91.8678676,10.0440495 90.8774419,9.99367513 C90.1370267,9.95856574 90.0392662,9.69448208 90.0440741,9.11136094 C90.0681135,6.44304743 90.0440741,3.77320742 90.0681135,1.1064204 C90.0713188,0.7614325 89.7908585,0.192049811 90.3453686,0.101986598 C90.9431498,0.00429090868 91.6306783,-0.181941499 92.1579437,0.463765947 C93.4656902,2.07116533 94.8231182,3.63887585 96.1741357,5.21269234 C96.355233,5.42640166 96.4529935,5.74391265 96.9097431,5.79428699" id="Fill-18" fill="#08BDE8"></path>
                        <path d="M101.017295,5.42888366 C101.017295,4.19360821 101.052553,2.95833276 101.001268,1.72601605 C100.980434,1.12834985 101.214422,0.977453924 101.844267,1.00260324 C102.898817,1.04402566 103.959777,1.00556199 105.019135,1.01591759 C108.025724,1.04550503 109.942505,2.71275704 109.998598,5.33716261 C110.057897,8.09767039 108.232468,9.86699906 105.164977,9.97943132 C104.041513,10.0208537 102.916446,9.96019948 101.792982,9.99866315 C101.19519,10.0164156 100.983639,9.86108157 101.001268,9.30927589 C101.049348,8.01778431 101.017295,6.72333399 101.017295,5.42888366 M104.46782,8.28702998 C106.860591,8.28702998 108.03534,7.37869569 108.054572,5.52504283 C108.070599,3.62996756 106.841359,2.64026783 104.46782,2.63730908 C104.270693,2.63730908 104.065553,2.66393777 103.871631,2.63139159 C103.047864,2.50564499 102.885996,2.86661171 102.916446,3.51901467 C102.967731,4.66552782 102.929267,5.81352033 102.929267,6.96151285 C102.929267,8.28702998 102.929267,8.28702998 104.46782,8.28702998" id="Fill-20" fill="#08BDE8"></path>
                        <path d="M71.0503684,1.39575334e-05 C74.0031042,0.00768854122 76.0030948,2.01075488 75.9999964,4.96086485 C75.9984472,7.98311591 74.0000059,10.0030663 71.0116389,9.99999651 C67.998485,9.99692667 65.9891994,7.98465083 66.0000437,4.98388861 C66.0108879,2.01382472 68.0573539,-0.00612570942 71.0503684,1.39575334e-05 M67.8699032,4.96853944 C67.8745507,6.95318678 69.1340335,8.29009926 71.003893,8.29316909 C72.8629082,8.29470401 74.1518254,6.95318678 74.1781615,4.99002827 C74.2044975,3.05142843 72.912482,1.70377154 71.0240323,1.70377154 C69.1045991,1.70223662 67.8637064,2.98542701 67.8699032,4.96853944" id="Fill-22" fill="#08BDE8"></path>
                        <path d="M86.9708259,4.4777834 C86.9708259,5.37529534 87.00769,6.27433367 86.9644147,7.17184561 C86.8618362,9.40036167 85.2670612,10.8809511 82.8981391,10.9923769 C80.316046,11.112961 78.4471941,9.79569431 78.1394586,7.55801997 C77.8701901,5.57983038 78.0849638,3.58637698 78.0240578,1.5990291 C78.0016188,0.744255819 78.6651734,1.06632218 79.0883097,1.03121542 C79.5402962,0.990003137 80.0211329,0.899946666 80.0018994,1.64634691 C79.9570213,3.31162842 79.9570213,4.98301546 79.997091,6.64982336 C80.0451747,8.58832705 81.5197406,9.67816298 83.3292893,9.1668254 C84.3694994,8.87070751 84.9689424,8.09683241 84.9865731,6.91541363 C85.0122177,5.21655173 85.0490819,3.5131107 84.9753536,1.81577518 C84.9336811,0.939632569 85.4417652,1.0251099 86.0267832,1.01137247 C86.6150067,0.997635041 87.0605821,0.986950375 86.9932649,1.78524756 C86.9147283,2.67665399 86.9756342,3.58179783 86.9756342,4.4777834 L86.9708259,4.4777834 Z" id="Fill-24" fill="#08BDE8"></path>
                        <path d="M56.0235087,5.48366526 C56.0235087,4.19087714 56.0417919,2.89808903 56.0135361,1.60530091 C56.0035635,1.14528134 56.1548149,0.997365079 56.65677,1.00328173 C58.5548916,1.02546917 60.4563374,1.03730247 62.3561212,1.0003234 C63.1722137,0.985531778 62.966113,1.48105125 62.9893824,1.88782097 C63.0159761,2.31677812 63.047556,2.69988124 62.3411622,2.67473547 C61.1078818,2.63036059 59.8712772,2.68804794 58.6363346,2.65106887 C58.0479502,2.63183976 57.8933746,2.81969341 57.8867262,3.35219195 C57.8684431,5.07245805 57.8451736,5.07245805 59.7083911,5.07245805 C60.4380543,5.07245805 61.1693796,5.11387461 61.8940565,5.06210392 C62.5721946,5.01181239 62.756688,5.23960343 62.7384049,5.85049758 C62.7201217,6.40074607 62.6685965,6.72172436 61.9306228,6.68326613 C60.8569043,6.62409963 59.7765373,6.69657859 58.7011567,6.65812037 C58.1027996,6.63741209 57.8335389,6.77645337 57.8900504,7.37847255 C57.9432377,7.96422095 57.8418494,8.56032347 57.916644,9.14015522 C58.0163702,9.9122781 57.6041687,9.98919455 56.9276928,9.99954869 C56.2578652,10.0084237 55.963673,9.89156982 56.0035635,9.18748842 C56.0717097,7.95682513 56.0218466,6.71876603 56.0235087,5.48366526" id="Fill-26" fill="#08BDE8"></path>
                        <path d="M131,0.172583759 C129.94196,1.80279868 128.993423,3.41011733 127.89247,4.89074324 C127.22953,5.7882773 127.29464,6.73160391 127.288721,7.71614383 C127.285761,8.07027291 127.288721,8.42592841 127.288721,8.7800575 C127.288721,9.83633908 126.778198,10.2148909 125.814864,9.88365805 C125.659487,9.8302334 125.542585,9.7554389 125.517428,9.5737951 C125.502631,9.48068357 125.481914,9.37688712 125.499671,9.28682843 C126.090102,6.31183884 124.57925,4.12448117 123.055081,1.93407067 C122.679217,1.39219211 122.355146,0.812153097 122,0.24127259 C123.481256,-0.239549227 124.021375,-0.0441676633 124.759783,1.21360115 C125.289543,2.11266163 125.814864,3.01324853 126.405294,4.02221113 C126.96169,3.12620349 127.577277,2.36146784 127.939822,1.47919797 C128.540612,0.0153626569 129.563137,-0.154069793 131,0.172583759" id="Fill-28" fill="#08BDE8"></path>
                        <path d="M43.0101359,5.46013526 C43.0101359,4.19532123 43.0309739,2.9290279 43.0005183,1.66569319 C42.9892979,1.17604004 43.1576049,0.980770512 43.7635104,1.00148092 C44.7300739,1.03846378 45.6998432,1.00296023 46.6696125,1.01331543 C49.8257708,1.0502983 51.8887346,2.74559288 51.9961305,5.38912815 C52.1003206,7.91283894 50.0918562,9.78121333 47.0094325,9.97056561 C45.9082233,10.0371348 44.7957938,9.96612766 43.6881729,9.99275533 C43.1063114,10.0075485 42.9989154,9.76494087 43.0053271,9.3433362 C43.0213564,8.04893588 43.0101359,6.75453557 43.0101359,5.46013526 M43.9398321,5.42759033 L43.9398321,6.66281806 C43.9398321,9.52233327 43.9398321,9.52233327 47.3043706,9.20575994 C49.6959339,8.98090411 51.1642127,7.40691333 51.0664343,5.17462753 C50.9846852,3.25595644 49.2887911,1.80918671 47.0094325,1.73226235 C46.2496463,1.707114 45.4818454,1.76332796 44.726868,1.71451058 C44.0504339,1.67013114 43.9077736,1.90830079 43.9286116,2.42606092 C43.9702876,3.4245983 43.941435,4.42609432 43.9398321,5.42759033" id="Fill-30" fill="#08BDE8"></path>
                        <path d="M25.0167624,3.15403283e-05 C27.9562892,0.00918877683 29.9846542,2.01309736 29.9999165,4.92967719 C30.0151788,7.85846667 27.9364481,9.96920968 25.0060788,9.9997338 C22.1001292,10.0272055 20.0107149,7.92561973 20.0000312,4.96783234 C19.9908738,1.97646842 21.9963453,-0.00912569617 25.0167624,3.15403283e-05 M24.8916113,9.20458043 C27.3702153,9.25189282 29.1070696,7.57764475 29.2001699,5.04872127 C29.2902177,2.6479991 27.5533634,0.804342147 25.1449661,0.744820109 C22.5931028,0.68224566 20.8730371,2.31223376 20.8211451,4.83657862 C20.7723056,7.37465934 22.431322,9.15574184 24.8916113,9.20458043" id="Fill-32" fill="#08BDE8"></path>
                        <path d="M39.9856413,4.63448261 C39.9856413,5.54264981 40.0020958,6.45081701 39.9796579,7.35745789 C39.9362778,9.3828997 38.621413,10.8802308 36.8114171,10.991653 C34.7920002,11.1168122 33.2078798,9.82553582 33.0747478,7.71767211 C32.9446076,5.65101934 33.0268802,3.56757693 33.0134174,1.49329251 C33.0104257,1.20176321 33.050814,0.991129467 33.3948628,1.00028746 C33.8211842,1.01402444 33.756862,1.33913303 33.7583579,1.61539902 C33.7613496,3.43325976 33.7463909,5.24959417 33.7643413,7.06592858 C33.7807958,8.73726151 34.6184799,9.91864204 35.9378323,10.18575 C37.7568034,10.5535959 39.2242464,9.23942455 39.2586512,7.15750847 C39.2885685,5.33964773 39.2586512,3.52331332 39.272114,1.70697891 C39.2736099,1.42766026 39.1165441,1.00181379 39.6281297,1.00639278 C40.1382195,1.01249811 39.9736744,1.43681825 39.978162,1.7161369 C39.9961124,2.68841002 39.9856413,3.65915682 39.9856413,4.63448261" id="Fill-34" fill="#08BDE8"></path>
                        <path d="M12.0419934,1.74434587 C12.0469791,1.4677395 11.7993568,1.0151109 12.4524813,1.00031912 C13.195348,0.985527332 12.9194736,1.488448 12.9227974,1.78280451 C12.9427401,3.99269709 12.9626828,6.20406885 12.9144879,8.41396143 C12.9011927,9.07219583 13.1305342,9.28519753 13.9332291,9.25709314 C15.3558106,9.20532189 16.780054,9.23490546 18.2042974,9.24821807 C18.5134097,9.2526556 18.9671069,9.10030022 18.9986829,9.59138746 C19.0269351,10.0780372 18.5948426,9.9863281 18.2641256,9.9863281 C16.449337,9.99224482 14.6328866,9.9730155 12.8197599,9.99964071 C12.2198161,10.0085158 12.0054317,9.85468122 12.0187269,9.34732302 C12.0552886,8.05008353 12.032022,6.75284405 12.032022,5.45708374 C12.032022,4.21901139 12.017065,2.98093904 12.0419934,1.74434587" id="Fill-36" fill="#08BDE8"></path>
                    </g>
                </g>
            </g>
        </g>
    </g>
</svg>