<?xml version="1.0" encoding="utf-8"?>
<!-- Generator: Adobe Illustrator 16.0.0, SVG Export Plug-In . SVG Version: 6.00 Build 0)  -->
<!DOCTYPE svg PUBLIC "-//W3C//DTD SVG 1.1//EN" "http://www.w3.org/Graphics/SVG/1.1/DTD/svg11.dtd">
<svg version="1.1"
	 id="svg2" xmlns:rdf="http://www.w3.org/1999/02/22-rdf-syntax-ns#" xmlns:cc="http://creativecommons.org/ns#" xmlns:svg="http://www.w3.org/2000/svg" xmlns:sodipodi="http://sodipodi.sourceforge.net/DTD/sodipodi-0.dtd" xmlns:dc="http://purl.org/dc/elements/1.1/" xmlns:inkscape="http://www.inkscape.org/namespaces/inkscape" sodipodi:docname="BOSH_logo (1).svg" inkscape:version="0.91 r13725"
	 xmlns="http://www.w3.org/2000/svg" xmlns:xlink="http://www.w3.org/1999/xlink" x="0px" y="0px" width="140px" height="100px"
	 viewBox="0 0 140 100" enable-background="new 0 0 140 100" xml:space="preserve">
<sodipodi:namedview  id="namedview20" inkscape:cx="185.20977" objecttolerance="10" borderopacity="1" showgrid="false" inkscape:zoom="3.2891056" inkscape:cy="46.673908" guidetolerance="10" gridtolerance="10" pagecolor="#ffffff" bordercolor="#666666" inkscape:pageshadow="2" inkscape:pageopacity="0" inkscape:window-width="1536" inkscape:current-layer="svg2" inkscape:window-y="-8" inkscape:window-height="801" inkscape:window-maximized="1" inkscape:window-x="-8">
	</sodipodi:namedview>
<g id="Page-1">
	<g>
		<path id="Fill-1" fill="#08BDE8" d="M10,25.322c0.209-0.109,0.138-0.331,0.183-0.497c0.599-2.208,3.294-3.123,5.113-1.72
			c0.128,0.099,0.457,0.171,0.238,0.459c-0.193,0.254-0.351,0.052-0.52-0.063c-1.05-0.718-2.399-0.742-3.332-0.066
			c-0.938,0.68-1.317,1.96-0.944,3.195c0.505,1.675,2.507,2.373,4.08,1.42c0.106-0.064,0.215-0.132,0.305-0.217
			c0.157-0.151,0.292-0.119,0.42,0.026c0.185,0.209-0.029,0.286-0.142,0.385c-1.655,1.461-4.513,0.66-5.167-1.438
			c-0.063-0.204-0.018-0.461-0.235-0.609V25.322z"/>
		<path id="Fill-3" fill="#15201F" d="M17.718,44.03c0,0.99,0.011,1.982-0.007,2.973c-0.005,0.339,0.038,0.502,0.455,0.496
			c1.701-0.026,3.401-0.002,5.102-0.015c0.827-0.008,1.626-0.178,2.367-0.554c1.236-0.625,1.821-1.658,1.793-3.005
			c-0.029-1.38-0.765-2.303-2.048-2.811c-0.476-0.189-0.97-0.317-1.482-0.37c-1.942-0.201-3.89-0.044-5.833-0.101
			c-0.339-0.01-0.351,0.165-0.349,0.413C17.721,42.048,17.718,43.039,17.718,44.03 M17.718,57.188c0,1.052,0.015,2.104-0.009,3.155
			c-0.008,0.381,0.082,0.517,0.5,0.514c2.048-0.023,4.097-0.002,6.145-0.015c0.866-0.006,1.708-0.156,2.499-0.527
			c1.475-0.691,2.149-1.851,2.083-3.455c-0.053-1.265-0.838-2.247-2.28-2.778c-0.344-0.127-0.697-0.25-1.057-0.309
			c-2.524-0.406-5.069-0.129-7.604-0.21c-0.338-0.011-0.275,0.22-0.275,0.409C17.716,55.046,17.718,56.118,17.718,57.188
			 M29.156,49.936c0.269,0.234,0.599,0.188,0.885,0.256c4.068,0.952,6.587,4.561,6.104,8.657c-0.432,3.667-2.639,5.821-5.984,7.047
			c-1.822,0.667-3.719,0.975-5.657,0.981c-4.49,0.013-8.979-0.004-13.469,0.015c-0.463,0.002-0.567-0.112-0.567-0.563
			c0.014-10.383,0.013-20.766,0.001-31.146c-0.001-0.438,0.08-0.581,0.56-0.578c4.162,0.021,8.323-0.009,12.485,0.021
			c2.032,0.014,4.044,0.229,5.984,0.896c3.869,1.329,5.339,4.177,5.13,7.815c-0.175,3.066-1.897,5.065-4.669,6.275
			c-0.13,0.057-0.269,0.099-0.401,0.15C29.43,49.812,29.304,49.871,29.156,49.936"/>
		<path id="Fill-5" fill="#162120" d="M128.378,50.749c0,5.181-0.007,10.36,0.011,15.539c0.002,0.464-0.098,0.608-0.588,0.602
			c-1.982-0.032-3.967-0.036-5.949,0.002c-0.539,0.009-0.611-0.175-0.611-0.651c0.018-4.208,0-8.418,0.022-12.625
			c0.003-0.522-0.109-0.678-0.658-0.675c-4.19,0.026-8.38,0.024-12.567,0.002c-0.5-0.004-0.579,0.158-0.578,0.606
			c0.016,4.25,0,8.499,0.021,12.747c0.001,0.474-0.116,0.599-0.593,0.593c-2.022-0.029-4.047-0.024-6.069-0.003
			c-0.404,0.004-0.505-0.111-0.504-0.507c0.009-10.42,0.009-20.839-0.001-31.26c0-0.4,0.107-0.515,0.505-0.512
			c2.043,0.017,4.089,0.021,6.131-0.002c0.435-0.005,0.531,0.123,0.53,0.54c-0.018,3.622,0,7.244-0.021,10.864
			c-0.004,0.481,0.078,0.644,0.608,0.641c4.188-0.025,8.377-0.023,12.567-0.002c0.516,0.003,0.632-0.146,0.629-0.641
			c-0.022-3.601-0.002-7.203-0.022-10.805c-0.004-0.488,0.135-0.604,0.606-0.599c1.983,0.026,3.967,0.028,5.95-0.001
			c0.49-0.007,0.594,0.143,0.592,0.607C128.371,40.391,128.378,45.569,128.378,50.749"/>
		<g id="Group-9" transform="translate(132.000000, 24.000000)">
			<g id="Clip-8">
			</g>
			<defs>
				<filter id="Adobe_OpacityMaskFilter" filterUnits="userSpaceOnUse" x="-60.184" y="9.676" width="25.639" height="34.151">
					<feColorMatrix  type="matrix" values="1 0 0 0 0  0 1 0 0 0  0 0 1 0 0  0 0 0 1 0"/>
				</filter>
			</defs>
			<mask maskUnits="userSpaceOnUse" x="-60.184" y="9.676" width="25.639" height="34.151" id="mask-2_2_">
				<g filter="url(#Adobe_OpacityMaskFilter)">
					<polygon id="path-1_2_" fill="#FFFFFF" points="-34.545,43.826 -60.184,43.826 -60.184,9.676 -34.545,9.676 					"/>
				</g>
			</mask>
			<path id="Fill-7" mask="url(#mask-2_2_)" fill="#15201F" d="M-56.655,32.18h2.393c1.122,0,1.122,0,1.129,1.099
				c0.013,2.147,1.135,3.685,3.187,4.326c0.467,0.146,0.951,0.255,1.437,0.31c1.492,0.165,2.979,0.145,4.414-0.377
				c1.917-0.694,2.737-2.242,2.261-4.207c-0.219-0.899-0.815-1.483-1.585-1.916c-1.589-0.897-3.331-1.424-5.058-1.97
				c-1.981-0.626-4.006-1.121-5.896-2.008c-2.266-1.062-4.215-2.46-4.938-5.003c-1.371-4.822,0.319-9.564,5.531-11.55
				c4.264-1.625,8.624-1.576,12.897-0.051c3.791,1.354,5.861,4.468,5.923,8.47c0.022,1.453,0.022,1.453-1.443,1.453
				c-1.718,0-3.438-0.008-5.156,0.008c-0.349,0.004-0.462-0.097-0.444-0.444c0.137-2.957-1.623-4.376-4.127-4.715
				c-1.471-0.199-2.938-0.19-4.342,0.402c-1.148,0.485-1.929,1.281-2.076,2.564c-0.162,1.414,0.346,2.503,1.606,3.219
				c1.86,1.053,3.899,1.646,5.922,2.271c2.084,0.647,4.156,1.309,6.099,2.333c3.301,1.739,4.558,4.543,4.358,8.123
				c-0.222,4.016-2.36,6.701-6.055,8.063c-4.61,1.702-9.308,1.658-13.901-0.1c-3.629-1.388-5.645-4.53-5.652-8.405
				c0-0.488,0.021-0.978-0.008-1.463c-0.02-0.36,0.122-0.444,0.457-0.438C-58.7,32.192-57.679,32.18-56.655,32.18"/>
		</g>
		<path id="Fill-10" fill="#02BCE7" d="M67.85,50.511c-0.668,0-1.338,0.006-2.006,0c-0.721-0.007-0.859-0.155-0.937-0.881
			c-0.495-4.562-2.884-7.78-7.177-9.406c-6.744-2.555-13.941,1.91-14.835,9.082c-0.084,0.676-0.328,0.779-0.906,0.368
			c-1.266-0.903-2.513-1.835-3.799-2.71c-0.567-0.386-0.698-0.815-0.483-1.438c2.095-6.073,6.234-10.03,12.538-11.437
			c9.431-2.105,18.437,3.889,20.311,13.34c0.137,0.688,0.203,1.393,0.266,2.093c0.068,0.781-0.129,0.98-0.904,0.989
			C69.228,50.517,68.538,50.511,67.85,50.511"/>
		<path id="Fill-12" fill="#15201F" d="M40.106,50.521c0.69,0,1.378,0.02,2.066-0.007c0.597-0.023,0.827,0.254,0.868,0.841
			c0.316,4.553,3.306,8.453,7.562,9.896c6.627,2.244,13.722-2.412,14.434-9.477c0.071-0.71,0.315-0.831,0.887-0.413
			c1.251,0.914,2.496,1.835,3.741,2.754c0.778,0.574,0.826,0.691,0.536,1.601c-1.342,4.195-3.839,7.485-7.573,9.707
			c-9.783,5.824-22.075,0.593-24.974-10.593c-0.296-1.144-0.453-2.307-0.511-3.486c-0.028-0.572,0.195-0.845,0.777-0.827
			C38.649,50.537,39.377,50.521,40.106,50.521"/>
		<path id="Fill-14" fill="#2361AE" d="M54.145,42.559c3.435,0.184,6.108,1.721,7.523,4.942c1.39,3.162,0.791,6.096-1.501,8.71
			c-0.399,0.455-0.762,0.514-1.265,0.145c-1.057-0.773-2.144-1.505-3.216-2.256c-0.523-0.368-0.522-0.469-0.009-0.803
			c1.264-0.822,1.787-2.184,1.352-3.515c-0.426-1.304-1.707-2.17-3.121-2.115c-1.417,0.058-2.596,1.031-2.9,2.452
			c-0.117,0.544-0.313,0.505-0.695,0.231c-1.081-0.773-2.18-1.524-3.269-2.287c-0.64-0.446-0.682-0.58-0.299-1.233
			C48.355,44.082,50.811,42.711,54.145,42.559"/>
		<path id="Fill-16" fill="#08BDE8" d="M84.846,24.011c-1.098,0-1.098,0-1.098,1.049c0,0.18,0.001,0.358,0,0.537
			c0,0.188,0.073,0.3,0.286,0.298c0.555-0.005,1.111,0.03,1.66-0.02c0.565-0.051,0.882-0.458,0.854-0.982
			c-0.025-0.519-0.382-0.849-0.964-0.88C85.34,24.001,85.094,24.012,84.846,24.011 M88.146,28.926
			c-0.876,0.086-1.598,0.184-2.094-0.612c-0.249-0.401-0.635-0.724-0.957-1.083c-0.121-0.135-0.241-0.243-0.452-0.263
			c-0.842-0.084-0.896-0.045-0.896,0.78c0,0.198-0.029,0.401,0.004,0.595c0.094,0.562-0.189,0.661-0.699,0.642
			c-0.393-0.015-0.526-0.104-0.521-0.506c0.023-1.688,0.02-3.374,0.003-5.061c-0.005-0.369,0.075-0.528,0.5-0.514
			c0.901,0.033,1.806-0.014,2.705,0.021c1.453,0.056,2.348,1.265,1.961,2.614c-0.149,0.524-0.462,0.942-1.005,1.126
			c-0.434,0.147-0.348,0.303-0.104,0.559C87.1,27.757,87.584,28.308,88.146,28.926"/>
		<path id="Fill-18" fill="#08BDE8" d="M72.336,26.232c0-1.093,0.027-2.172-0.016-3.249c-0.018-0.517,0.236-0.529,0.631-0.524
			c0.4,0.004,0.691-0.016,0.677,0.55c-0.038,1.768-0.007,3.537-0.02,5.307c-0.003,0.222,0.161,0.554-0.231,0.635
			c-0.336,0.069-0.611-0.004-0.848-0.312c-0.849-1.108-1.731-2.192-2.604-3.285c-0.145-0.184-0.294-0.365-0.575-0.711v2.493
			c0,0.363-0.043,0.731,0.009,1.086c0.093,0.639-0.17,0.794-0.788,0.762c-0.462-0.023-0.523-0.196-0.52-0.578
			c0.015-1.748,0-3.497,0.015-5.244c0.002-0.226-0.173-0.599,0.172-0.657c0.374-0.064,0.802-0.186,1.131,0.236
			c0.816,1.053,1.664,2.08,2.506,3.111C71.99,25.991,72.051,26.199,72.336,26.232"/>
		<path id="Fill-20" fill="#08BDE8" d="M77.208,27.831c1.493,0,2.226-0.614,2.237-1.867c0.011-1.281-0.757-1.951-2.237-1.952
			c-0.123,0-0.251,0.018-0.372-0.004c-0.515-0.085-0.615,0.158-0.597,0.6c0.032,0.774,0.009,1.551,0.009,2.326
			C76.248,27.831,76.248,27.831,77.208,27.831 M75.055,25.898c0-0.835,0.022-1.67-0.01-2.503c-0.014-0.404,0.133-0.505,0.525-0.489
			c0.658,0.028,1.32,0.002,1.981,0.009c1.876,0.021,3.072,1.147,3.106,2.922c0.037,1.866-1.102,3.061-3.016,3.138
			c-0.701,0.027-1.403-0.013-2.104,0.013c-0.373,0.012-0.505-0.093-0.494-0.466C75.074,27.648,75.055,26.773,75.055,25.898"/>
		<g id="Group-24" transform="translate(91.000000, 0.000000)">
			<g id="Clip-23">
			</g>
			<defs>
				<filter id="Adobe_OpacityMaskFilter_1_" filterUnits="userSpaceOnUse" x="-38.361" y="22.455" width="6.456" height="6.515">
					<feColorMatrix  type="matrix" values="1 0 0 0 0  0 1 0 0 0  0 0 1 0 0  0 0 0 1 0"/>
				</filter>
			</defs>
			<mask maskUnits="userSpaceOnUse" x="-38.361" y="22.455" width="6.456" height="6.515" id="mask-4_2_">
				<g filter="url(#Adobe_OpacityMaskFilter_1_)">
					<polygon id="path-3_2_" fill="#FFFFFF" points="-38.361,22.455 -31.906,22.455 -31.906,28.97 -38.361,28.97 					"/>
				</g>
			</mask>
			<path id="Fill-22" mask="url(#mask-4_2_)" fill="#08BDE8" d="M-37.154,25.692c0.003,1.293,0.816,2.164,2.023,2.166
				c1.201,0.001,2.033-0.873,2.049-2.152c0.017-1.263-0.817-2.141-2.036-2.141C-36.357,23.564-37.158,24.4-37.154,25.692
				 M-35.101,22.455c1.906,0.005,3.197,1.31,3.195,3.232c-0.001,1.969-1.292,3.284-3.221,3.282
				c-1.944-0.002-3.241-1.313-3.235-3.268C-38.354,23.767-37.033,22.451-35.101,22.455"/>
		</g>
		<path id="Fill-25" fill="#08BDE8" d="M66.135,25.183c0,0.588,0.023,1.177-0.004,1.765c-0.064,1.46-1.06,2.43-2.537,2.503
			c-1.611,0.079-2.777-0.784-2.969-2.25c-0.167-1.296-0.034-2.602-0.071-3.904c-0.015-0.56,0.399-0.349,0.664-0.372
			c0.282-0.026,0.582-0.085,0.57,0.403c-0.029,1.091-0.029,2.186-0.003,3.278c0.03,1.27,0.949,1.984,2.078,1.649
			c0.65-0.193,1.023-0.701,1.035-1.475c0.016-1.113,0.039-2.229-0.007-3.341c-0.026-0.575,0.291-0.518,0.656-0.527
			c0.367-0.009,0.645-0.016,0.603,0.507c-0.048,0.584-0.01,1.177-0.01,1.764H66.135z"/>
		<path id="Fill-27" fill="#08BDE8" d="M46.514,25.936c0-0.874,0.011-1.748-0.006-2.622c-0.006-0.311,0.085-0.411,0.387-0.408
			c1.143,0.016,2.287,0.023,3.429-0.002c0.491-0.01,0.367,0.326,0.381,0.601c0.016,0.29,0.035,0.548-0.39,0.531
			c-0.742-0.029-1.486,0.01-2.229-0.016c-0.354-0.013-0.446,0.114-0.451,0.474c-0.011,1.164-0.025,1.164,1.096,1.164
			c0.438,0,0.879,0.028,1.314-0.007c0.409-0.034,0.52,0.12,0.508,0.533c-0.011,0.372-0.042,0.589-0.486,0.562
			c-0.646-0.039-1.296,0.01-1.943-0.017c-0.359-0.014-0.522,0.08-0.488,0.487c0.033,0.396-0.029,0.799,0.016,1.19
			c0.06,0.522-0.188,0.574-0.595,0.581c-0.403,0.006-0.58-0.072-0.556-0.549C46.542,27.607,46.513,26.771,46.514,25.936"/>
		<path id="Fill-29" fill="#08BDE8" d="M95.164,22.55c-0.715,1.068-1.356,2.121-2.1,3.091c-0.448,0.587-0.404,1.206-0.408,1.851
			c-0.002,0.231,0,0.464,0,0.696c0,0.692-0.345,0.94-0.996,0.724c-0.105-0.035-0.184-0.084-0.201-0.203
			c-0.01-0.062-0.024-0.129-0.012-0.188c0.398-1.948-0.622-3.382-1.652-4.817c-0.254-0.355-0.473-0.735-0.713-1.109
			c1.001-0.315,1.366-0.187,1.865,0.637c0.357,0.588,0.713,1.179,1.111,1.84c0.376-0.588,0.793-1.089,1.037-1.667
			C93.502,22.447,94.193,22.336,95.164,22.55"/>
		<path id="Fill-31" fill="#08BDE8" d="M38.663,25.897v0.835c0,1.933,0,1.933,2.099,1.718c1.492-0.152,2.408-1.215,2.348-2.725
			c-0.051-1.297-1.11-2.274-2.531-2.326c-0.475-0.018-0.953,0.021-1.424-0.013c-0.421-0.03-0.511,0.131-0.498,0.481
			C38.682,24.543,38.664,25.22,38.663,25.897 M38.083,25.919c0-0.855,0.013-1.711-0.006-2.565c-0.007-0.331,0.098-0.463,0.476-0.448
			c0.604,0.025,1.208,0.001,1.813,0.008c1.969,0.024,3.256,1.171,3.324,2.958c0.064,1.706-1.188,2.969-3.111,3.097
			c-0.687,0.045-1.381-0.003-2.072,0.016c-0.364,0.01-0.43-0.154-0.427-0.439C38.09,27.669,38.083,26.794,38.083,25.919"/>
		<path id="Fill-33" fill="#08BDE8" d="M26.307,28.467c1.624,0.031,2.762-1.066,2.823-2.723c0.059-1.572-1.08-2.78-2.657-2.819
			c-1.672-0.042-2.799,1.026-2.833,2.681C23.608,27.269,24.695,28.436,26.307,28.467 M26.389,22.437
			c1.926,0.006,3.255,1.319,3.265,3.23c0.01,1.919-1.353,3.302-3.272,3.321c-1.904,0.018-3.273-1.358-3.28-3.297
			C23.096,23.731,24.41,22.431,26.389,22.437"/>
		<path id="Fill-35" fill="#08BDE8" d="M35.728,25.285c0,0.595,0.011,1.19-0.004,1.784c-0.029,1.327-0.908,2.308-2.118,2.381
			c-1.35,0.082-2.409-0.764-2.498-2.146c-0.086-1.354-0.032-2.719-0.041-4.077c-0.002-0.191,0.025-0.329,0.255-0.323
			c0.285,0.009,0.242,0.222,0.243,0.403c0.002,1.19-0.008,2.381,0.004,3.57c0.01,1.096,0.571,1.869,1.453,2.044
			c1.216,0.242,2.197-0.62,2.22-1.984c0.021-1.191,0-2.38,0.009-3.571c0.001-0.183-0.104-0.462,0.238-0.459
			c0.34,0.004,0.231,0.282,0.234,0.465C35.734,24.01,35.728,24.646,35.728,25.285"/>
		<path id="Fill-37" fill="#08BDE8" d="M17.512,23.407c0.003-0.187-0.146-0.493,0.247-0.503c0.447-0.01,0.281,0.33,0.283,0.529
			c0.012,1.494,0.024,2.989-0.004,4.483c-0.008,0.445,0.13,0.589,0.613,0.57c0.855-0.035,1.713-0.015,2.569-0.006
			c0.186,0.003,0.46-0.101,0.478,0.231c0.017,0.329-0.242,0.267-0.442,0.267c-1.092,0.004-2.185-0.008-3.275,0.009
			c-0.361,0.006-0.49-0.098-0.482-0.441c0.021-0.877,0.007-1.754,0.007-2.63C17.506,25.08,17.497,24.243,17.512,23.407z"/>
	</g>
</g>
</svg>
