<?xml version="1.0" encoding="UTF-8"?>
<svg width="320px" height="210px" viewBox="0 0 320 210" version="1.1" xmlns="http://www.w3.org/2000/svg" xmlns:xlink="http://www.w3.org/1999/xlink">
    <!-- Generator: Sketch 46.2 (44496) - http://www.bohemiancoding.com/sketch -->
    <title>Logo</title>
    <desc>Created with Sketch.</desc>
    <defs></defs>
    <g id="why-cloud-native?" stroke="none" stroke-width="1" fill="none" fill-rule="evenodd">
        <g id="Desktop---why-cn?" transform="translate(-719.000000, -1361.000000)">
            <g id="Concourse" transform="translate(159.000000, 1345.000000)">
                <g id="Logo" transform="translate(560.000000, 16.000000)">
                    <polygon id="graphic" fill="#7FB7DD" opacity="0.2" points="181.504627 0 0 209.689441 144.238489 209.689441 320 0"></polygon>
                    <g id="concourse_logo" transform="translate(34.637587, 58.000000)" fill-rule="nonzero" fill="#379ADC">
                        <path d="M20.4317861,63.5748668 C22.1878017,64.2607543 23.7792282,65.3095357 25.1017262,66.6531809 L22.7865068,69.626956 C20.5231579,67.4475974 17.4823502,66.2635537 14.3409935,66.3383669 C12.5185438,66.3064466 10.7204333,66.7603134 9.13160029,67.6536828 C7.61339095,68.522713 6.37248922,69.8045127 5.55333448,71.3504528 C3.83442624,74.7729076 3.83442624,78.8068357 5.55333448,82.2294901 C6.38166631,83.7750312 7.61977501,85.0626163 9.1317998,85.9511977 C10.7124532,86.8691059 12.5137558,87.3373368 14.341193,87.3062146 C16.0628943,87.3325488 17.772426,87.0105528 19.366446,86.3589796 C20.8184207,85.7558854 22.1076019,84.8182265 23.1286526,83.6228112 L25.5492089,86.2273084 C24.230302,87.7866151 22.5690498,89.0203347 20.6949291,89.8319084 C18.6392616,90.7153028 16.4204017,91.1546059 14.1831875,91.1212891 C11.6379425,91.1693691 9.12441823,90.5481202 6.89478516,89.3191886 C4.78884325,88.1345464 3.06055842,86.3789298 1.90903354,84.2546337 C0.678106908,81.9597635 0.057456543,79.3869872 0.107132512,76.7828891 C0.0564590335,74.179589 0.686485987,71.6082092 1.93516829,69.3237131 C3.11981048,67.191437 4.88520267,65.4398104 7.0262569,64.2719264 C9.28661326,63.0491793 11.8234792,62.4287285 14.3930635,62.4698258 C16.4585065,62.4462846 18.5087874,62.8215477 20.4317861,63.5748668 Z" id="Shape"></path>
                        <path d="M49.6711814,64.2719264 C51.8224102,65.4412069 53.597179,67.197821 54.7886043,69.3366807 C56.0384836,71.5978351 56.6736976,74.1468707 56.6306052,76.7300211 C56.6798821,79.3387078 56.0446681,81.9150751 54.7886043,84.2019652 C53.593189,86.3446155 51.8200162,88.1086111 49.6711814,89.2930538 C47.3936679,90.5355516 44.8326622,91.165379 42.2385392,91.1210896 C39.6404261,91.1643815 37.0754304,90.5345541 34.7927298,89.2930538 C32.6401045,88.1137982 30.8657347,86.3486055 29.6755064,84.2019652 C28.4278216,81.9120826 27.7979942,79.3371117 27.8474707,76.7300211 C27.8009867,74.1438782 28.4310137,71.5908525 29.6755064,69.3237131 C30.8649367,67.1866489 32.6405035,65.4338254 34.7927298,64.2721259 C37.0806174,63.0469848 39.6436181,62.4267334 42.2385392,62.4700253 C44.8294701,62.4253369 47.3882813,63.0461868 49.6711814,64.2719264 Z M36.9764774,67.6265506 C35.4377194,68.4981743 34.178663,69.78955 33.3457426,71.3496548 C32.4651413,73.0232761 32.0216486,74.8920102 32.0561624,76.7824901 C32.0206511,78.6859376 32.4641438,80.5676394 33.3457426,82.2550263 C34.177466,83.8227121 35.4363229,85.1226664 36.9764774,86.0040657 C40.2518994,87.8109543 44.2249794,87.8109543 47.5006009,86.0040657 C49.0405559,85.1226664 50.2994128,83.8227121 51.1313357,82.2550263 C52.0129345,80.5676394 52.4564272,78.6859376 52.4209159,76.7824901 C52.4584222,74.8872222 52.0149295,73.013301 51.1313357,71.3362881 C50.2930288,69.7791759 49.0291843,68.4925883 47.4874338,67.6263511 C44.2122113,65.8376172 40.2516999,65.8376172 36.9764774,67.6265506 Z" id="Shape"></path>
                        <path d="M84.865309,64.976567 C86.8617243,67.1822599 87.8901566,70.0967829 87.7199815,73.0667675 L87.7199815,90.5894171 L83.5102922,90.5894171 L83.5102922,74.1983422 C83.6383724,72.0327492 82.8672976,69.9102487 81.379213,68.3317897 C79.7808039,66.8608623 77.6543133,66.1011592 75.4857278,66.2260473 C73.0158945,66.1438526 70.6168843,67.0587682 68.8293474,68.7651078 C67.1110377,70.5368841 66.0842015,72.8658691 65.9351736,75.3295179 L65.9351736,90.5894171 L61.7518186,90.5894171 L61.7518186,62.2016953 L65.9349741,62.2016953 L65.9349741,68.4365282 C67.881913,64.2270385 71.5477601,62.0957598 76.9325155,62.0430913 C79.8701808,61.8729162 82.745402,62.9362613 84.865309,64.976567 Z" id="Shape"></path>
                        <path d="M113.046347,63.2008008 C114.802362,63.8866882 116.393789,64.9354696 117.716287,66.2791148 L115.401068,69.2520919 C113.137519,67.0725338 110.096711,65.8884902 106.955554,65.9631039 C105.133105,65.9315826 103.334994,66.3854493 101.746161,67.2786193 C100.227952,68.1476495 98.9870499,69.4294491 98.1678952,70.9751897 C96.448987,74.3978441 96.448987,78.4317722 98.1678952,81.8544265 C98.9960275,83.4003666 100.233937,84.6885503 101.746161,85.5773312 C103.326814,86.4950399 105.128117,86.9636698 106.955554,86.9321485 C108.677256,86.9586823 110.386787,86.6364867 111.980807,85.9849136 C113.432782,85.3820189 114.721963,84.4441605 115.743213,83.2487452 L118.16377,85.8534418 C116.844863,87.4125491 115.18361,88.6462687 113.30949,89.4578424 C111.253822,90.3412367 109.034962,90.7807394 106.797748,90.7474226 C104.252503,90.795303 101.739378,90.1738546 99.5097449,88.9451225 C97.4040025,87.7604803 95.6759171,86.0048638 94.5243923,83.8803682 C93.2932661,81.5852985 92.6726158,79.0125222 92.7222917,76.4084241 C92.6716183,73.8053235 93.3016452,71.2341432 94.5503275,68.9496471 C95.7347702,66.8173709 97.5003619,65.0657444 99.6414161,63.8978603 C101.901972,62.6751133 104.439037,62.0544629 107.008622,62.0957598 C109.073466,62.0720191 111.123548,62.4472821 113.046347,63.2008008 Z" id="Shape"></path>
                        <path d="M141.911277,63.8978603 C144.062506,65.0671409 145.837275,66.823755 147.0287,68.9626147 C148.27838,71.2235696 148.913394,73.7728047 148.870501,76.3559551 C148.919978,78.9646417 148.284764,81.5408096 147.0287,83.8278992 C145.833085,85.9705494 144.060112,87.7345451 141.911277,88.9187883 C137.251312,91.3572998 131.692392,91.3572998 127.032426,88.9187883 C124.880001,87.7397321 123.10603,85.9745395 121.915802,83.8278992 C120.668117,81.538216 120.03809,78.9630457 120.087766,76.3559551 C120.041282,73.7702111 120.671508,71.2167865 121.915802,68.9498466 C123.105232,66.8125829 124.880799,65.0599588 127.033025,63.8980598 C131.701369,61.4948601 137.242933,61.4948601 141.911277,63.8978603 Z M129.216573,67.2524845 C127.678015,68.1241083 126.418759,69.415484 125.585838,70.9755887 C124.705237,72.6490105 124.261744,74.5179442 124.296258,76.4084241 C124.260747,78.3118716 124.704239,80.1935733 125.585838,81.8809603 C126.417562,83.4484466 127.676419,84.7486004 129.216573,85.6299997 C132.491995,87.4368883 136.465075,87.4368883 139.740697,85.6299997 C141.280851,84.7486004 142.539509,83.4484466 143.371431,81.8809603 C144.25303,80.1935733 144.696523,78.3118716 144.661012,76.4084241 C144.698518,74.5131562 144.255025,72.6392349 143.371431,70.9622221 C142.533324,69.4051099 141.26948,68.1185222 139.727928,67.252285 C136.452706,65.4633516 132.491995,65.4633516 129.216573,67.2524845 Z" id="Shape"></path>
                        <path d="M179.340225,90.5894171 L175.15687,90.5894171 L175.15687,84.1702444 C173.332824,88.4852707 169.737002,90.6777964 164.369803,90.7478216 C161.476227,90.9054281 158.65148,89.8299134 156.595214,87.7878121 C154.619747,85.5713462 153.602886,82.6624092 153.766876,79.6976116 L153.766876,62.2016953 L157.950231,62.2016953 L157.950231,78.5658375 C157.821552,80.7264429 158.582253,82.8461504 160.055176,84.4323899 C161.606702,85.8927437 163.689302,86.6536439 165.816989,86.5371348 C168.425277,86.6338932 170.940198,85.55778 172.670877,83.6040581 C174.389186,81.5082908 175.274376,78.8527212 175.15687,76.1452811 L175.15687,62.2014958 L179.340225,62.2014958 L179.340225,90.5894171 L179.340225,90.5894171 Z" id="Shape"></path>
                        <path d="M193.515632,63.7400543 C195.375987,62.6038911 197.518837,62.0155601 199.698395,62.0430913 L199.698395,66.2789153 C197.097489,66.1211093 194.540872,67.0062992 192.594731,68.7387736 C190.751733,70.5287045 189.652477,72.9482634 189.516417,75.5136581 L189.516417,90.5892176 L185.333062,90.5892176 L185.333062,62.2014958 L189.516417,62.2014958 L189.516417,68.4889972 C190.354524,66.5478439 191.745651,64.8965668 193.515632,63.7400543 Z" id="Shape"></path>
                        <path d="M219.074217,62.7142157 C220.548736,63.1128204 221.945249,63.7576105 223.204904,64.6216532 L221.599911,67.9629108 C220.450581,67.2235568 219.201499,66.6521834 217.890373,66.2659477 C216.594808,65.8649489 215.247372,65.6564695 213.890959,65.6476914 C212.476291,65.5828533 211.070601,65.9058468 209.826108,66.5815597 C208.823611,67.1613122 208.229295,68.253186 208.286951,69.4100974 C208.266203,70.2182796 208.580418,70.9991299 209.155183,71.5675108 C209.768452,72.1692085 210.492045,72.6470155 211.286262,72.9749966 C212.436191,73.43824 213.613651,73.8290642 214.811859,74.1456737 C216.462139,74.60373 218.07591,75.1842805 219.639805,75.8821381 C220.877515,76.4618906 221.963204,77.3221427 222.810289,78.3946648 C223.730192,79.6247935 224.195231,81.1356212 224.125805,82.6701897 C224.25987,85.0676039 223.1263,87.3598806 221.139461,88.7083138 C218.93676,90.1283682 216.352214,90.8399914 213.733153,90.7474226 C211.69185,90.7492181 209.665708,90.3931072 207.747498,89.6950501 C205.930235,89.0658212 204.260404,88.0719028 202.840749,86.7747415 L204.472076,83.5910904 C205.73612,84.7396228 207.210239,85.6329922 208.813237,86.2221213 C210.431796,86.8553403 212.152898,87.1853164 213.891158,87.195491 C215.420939,87.2605286 216.938151,86.8958392 218.271621,86.1431186 C219.369281,85.503316 220.022649,84.3082997 219.968584,83.0384702 C220.038609,81.7995635 219.408582,80.6258939 218.337457,79.999857 C216.749621,79.1414004 215.061636,78.4828447 213.312204,78.039751 C211.70382,77.5637395 210.126358,76.9881765 208.589595,76.3164537 C207.40615,75.768023 206.369339,74.9472723 205.56395,73.9216331 C204.671179,72.7300083 204.220504,71.265066 204.288534,69.7777794 C204.147287,67.4876973 205.208836,65.2895855 207.090538,63.9766636 C209.190295,62.6210483 211.657336,61.9457344 214.1547,62.0428918 C215.817947,62.0373058 217.473614,62.2633414 219.074217,62.7142157 Z" id="Shape"></path>
                        <path d="M252.090782,66.3710852 C254.353333,69.2213686 255.370593,73.1108574 255.142762,78.039751 L231.98977,78.039751 C232.224584,80.5824025 233.413814,82.9421108 235.318259,84.6432634 C237.251233,86.298331 239.733435,87.1711518 242.277284,87.090154 C243.944322,87.1065132 245.598392,86.7936942 247.144532,86.1690538 C248.616656,85.5677551 249.950326,84.6727897 251.064544,83.5384219 L253.379963,86.0114473 C251.995819,87.5310532 250.293469,88.72587 248.394012,89.5109099 C246.354504,90.3516108 244.166766,90.7721608 241.960874,90.7472231 C239.390292,90.7970985 236.851032,90.1760492 234.593668,88.9451225 C232.480145,87.7702559 230.749267,86.0122453 229.608116,83.8803682 C228.393549,81.5803109 227.782674,79.0093301 227.832151,76.4084241 C227.781477,73.808715 228.402127,71.2397292 229.634451,68.9496471 C230.798943,66.8203635 232.546979,65.0679389 234.672871,63.8978603 C236.922653,62.6731183 239.451739,62.0524679 242.013144,62.0957598 C246.468819,62.0957598 249.828031,63.5206023 252.090782,66.3710852 Z M248.604885,68.0943825 C246.771663,66.4518835 244.368064,65.5920303 241.908804,65.6995619 C239.433385,65.6177661 237.019611,66.4836043 235.160453,68.1201182 C233.327829,69.8027171 232.196055,72.113348 231.990169,74.5925579 L251.380356,74.5925579 C251.363996,72.1416772 250.363694,69.8003231 248.604486,68.0943825 L248.604885,68.0943825 Z" id="Shape"></path>
                        <circle id="Oval" cx="130.742763" cy="25.1561902" r="3.34824014"></circle>
                        <path d="M134.921529,28.4457768 C134.199133,29.2433854 133.305165,29.8668287 132.307057,30.2690245 L132.299276,30.2913688 C133.055987,33.2015028 134.240829,35.983357 135.814898,38.5453603 C134.438335,39.2769337 132.939478,39.7511497 131.39254,39.944467 L131.173886,39.9727962 L130.913935,39.9925469 L130.393036,40.0324473 C130.073035,40.0324473 129.760016,40.0617741 129.425252,40.0422229 C128.10834,40.0144921 126.8028,39.7916485 125.551324,39.3808742 C124.966185,39.1937414 124.395211,38.9653117 123.84279,38.6967822 C123.34224,38.4567814 122.856852,38.1864564 122.38922,37.8876025 C121.990615,37.6338361 121.606175,37.358723 121.237495,37.0630612 C120.898342,36.8078983 120.632805,36.5495434 120.402181,36.347847 C119.961681,35.924903 119.718687,35.6695406 119.718687,35.6695406 C119.718687,35.6695406 119.923177,35.9536313 120.306619,36.4374233 C120.508914,36.669444 120.741933,36.9663028 121.047968,37.2707427 C121.382134,37.6228635 121.735452,37.9564307 122.105927,38.2700477 C122.546826,38.6447122 123.010069,38.9922445 123.493263,39.31045 C124.03531,39.6715484 124.602494,39.9935444 125.190226,40.2740441 C125.822647,40.58008 126.476215,40.8406294 127.145744,41.053498 C127.8442,41.2735485 128.558217,41.4419281 129.281411,41.5574397 C129.641712,41.6274649 130.031139,41.6506071 130.4074,41.6968915 L130.930494,41.7280138 L131.190644,41.743176 L131.489498,41.747964 C132.212692,41.7553456 132.935887,41.7104577 133.652697,41.6134998 C134.882427,41.4443222 136.08662,41.1255181 137.238943,40.6640703 C137.677847,41.2609799 138.138497,41.8413309 138.621092,42.4053227 L138.554458,42.4466196 L137.978496,42.80293 L137.899095,42.8520075 L137.878945,42.8643766 L137.873758,42.8675686 C137.777,42.9158481 138.000242,42.805324 137.975105,42.8176931 L137.964531,42.8230797 L137.922037,42.8448254 L137.747274,42.9336037 L137.378794,43.1207365 L137.185476,43.2188914 L137.086124,43.2691659 L137.03605,43.2945026 L137.02368,43.3008867 L137.017296,43.3040787 C136.99994,43.3114603 137.146773,43.2510112 137.081536,43.277944 L137.055601,43.2893156 L136.628268,43.4768474 L136.17879,43.6743542 L136.121134,43.699691 L136.113952,43.702883 C136.213104,43.6673717 136.137493,43.6947034 136.157443,43.6875214 L136.143079,43.6941049 L136.113553,43.705676 L135.99445,43.7523595 L135.752255,43.8471229 C133.553545,44.6932104 131.207203,45.0890221 128.852682,45.0108174 L128.546646,44.9998448 L128.200909,44.972513 L127.50744,44.916852 C127.077115,44.8488218 126.647188,44.819096 126.205691,44.7223376 C124.460847,44.4067256 122.772263,43.8347537 121.194802,43.0249756 C120.812357,42.8338528 120.443079,42.6329544 120.093152,42.4146993 C119.732852,42.2120054 119.402078,41.9811817 119.075294,41.7601336 C118.464219,41.3381871 117.87908,40.8797318 117.323268,40.3869622 C116.850249,39.9690057 116.400372,39.5257125 115.975633,39.0590776 C115.582016,38.6516948 115.285755,38.256681 115.024208,37.9434631 C114.769844,37.6250581 114.593883,37.3569275 114.462012,37.1819644 L114.265303,36.9094448 L114.434281,37.2003185 C114.547598,37.3874513 114.696227,37.674335 114.918472,38.0190743 C115.147501,38.359225 115.406255,38.7875555 115.76037,39.2386293 C116.143215,39.7565362 116.554188,40.2532959 116.990898,40.7265144 C117.509802,41.2905062 118.062223,41.8225777 118.645367,42.3197364 C118.958785,42.5822809 119.278786,42.856995 119.630508,43.1055744 C119.972055,43.3695153 120.335547,43.6184937 120.714601,43.859492 C121.492658,44.3630347 122.305628,44.8105175 123.147526,45.1981496 C124.023938,45.5989489 124.92848,45.9349101 125.853969,46.2034396 C126.313621,46.3536645 126.811777,46.4458344 127.29118,46.5675306 L127.977068,46.6934163 L128.318216,46.7556608 L128.699265,46.8101249 C129.63832,46.9370081 130.585156,46.9960606 131.53259,46.9868835 C133.233145,46.9675318 134.924522,46.7315211 136.565425,46.2840384 L136.815999,46.2144122 L136.939291,46.1802974 L137.111461,46.1254344 L137.579094,45.974611 L138.022985,45.8311691 L138.504782,45.6452334 L138.89022,45.4964049 L139.072964,45.4255818 L139.117652,45.4084246 L139.128824,45.4042351 L139.246131,45.34618 L139.267279,45.3358059 L139.351269,45.2951075 L139.960548,44.9992462 L140.721647,44.6293698 C141.238756,45.1243339 141.771825,45.604535 142.324844,46.0633893 C142.324844,46.0633893 144.959666,48.7764154 146.410643,47.6606014 C147.775036,46.6120195 146.203361,43.3230314 146.203361,43.3230314 C144.091434,37.3056555 140.145885,32.1024469 134.921529,28.4457768 Z" id="Shape"></path>
                        <path d="M125.730876,23.9869097 L125.715515,23.9685555 C122.856653,23.12566 119.889461,22.7083021 116.908903,22.7296488 C116.997282,21.108297 117.393692,19.518666 118.076787,18.045544 L118.168757,17.8452441 L118.289256,17.614221 L118.531452,17.1513766 C118.700829,16.880054 118.841877,16.5987564 119.035792,16.3250398 C119.756992,15.2229914 120.637793,14.233861 121.649267,13.389968 C122.117897,12.9929593 122.614058,12.6298659 123.134359,12.3034808 C123.603189,12.0064225 124.089574,11.7380924 124.590922,11.5000867 C125.017457,11.2963953 125.454566,11.116245 125.900453,10.9600351 C126.297262,10.8080146 126.656365,10.7190368 126.949035,10.6306575 C127.541156,10.479834 127.887093,10.4090109 127.887093,10.4090109 C127.887093,10.4090109 127.537765,10.4319536 126.924296,10.5007817 C126.620455,10.5492607 126.245392,10.5895601 125.824842,10.6879145 C125.34903,10.7850719 124.879003,10.9081646 124.416757,11.0563945 C123.865334,11.2319561 123.325282,11.4408346 122.799196,11.6818329 C122.205877,11.9505619 121.632509,12.2607874 121.08328,12.6107137 C120.488565,12.9847797 119.921182,13.4009406 119.385719,13.8560044 C118.828909,14.3320159 118.30801,14.8483268 117.82701,15.400548 C117.576636,15.6690776 117.350799,15.9870836 117.112395,16.2815484 L116.808952,16.7088814 L116.658328,16.9213509 L116.495934,17.1723243 C116.106506,17.782002 115.761567,18.4188121 115.46411,19.0781658 C114.929645,20.2665985 114.549793,21.5184729 114.333333,22.8034645 L114.324755,22.855335 C113.598169,22.9219686 112.874376,23.0149365 112.153376,23.1342386 L112.155172,22.7553845 L112.158164,22.0780756 L112.158164,21.9847088 L112.158164,21.9555815 C112.168539,21.8478505 112.144,22.0956318 112.146793,22.067901 L112.14779,22.0561304 L112.15198,22.0084495 L112.169337,21.8133366 L112.205646,21.4023628 L112.224798,21.1863022 L112.234574,21.0757782 L112.239561,21.0199176 L112.240758,21.005753 L112.241357,20.9987704 C112.24415,20.9800173 112.217616,21.1366262 112.229387,21.0670001 L112.233377,21.0386708 L112.300609,20.5770235 L112.371432,20.0910369 L112.38041,20.0285928 L112.381607,20.0208122 C112.358664,20.1241542 112.37602,20.0447524 112.371432,20.0660991 L112.374424,20.050538 L112.38021,20.0194157 L112.403951,19.8937295 L112.45223,19.6387661 C112.899314,17.3257412 113.806848,15.1258339 115.120568,13.1703165 L115.29214,12.9165501 L115.498424,12.6378459 L115.912989,12.0792406 C116.198477,11.7504615 116.451445,11.4013332 116.767456,11.0781402 C117.95948,9.76541778 119.339035,8.63643661 120.861434,7.72750603 C121.226124,7.50466242 121.59221,7.29777896 121.962485,7.11643175 C122.325578,6.91792737 122.696652,6.75992188 123.056952,6.59972187 C123.73865,6.30485808 124.437505,6.05149069 125.149727,5.8412157 C125.754816,5.661664 126.369083,5.51503012 126.990132,5.40191255 C127.544149,5.28400693 128.03612,5.24191204 128.440511,5.18585201 C128.845899,5.13777205 129.166498,5.13058998 129.384155,5.11163731 L129.719717,5.08929309 L129.384155,5.07732298 C129.165501,5.07393145 128.843305,5.04899371 128.433329,5.05398126 C128.02415,5.06814589 127.523201,5.06056482 126.952825,5.1220114 C126.310629,5.17228588 125.671824,5.25747318 125.038804,5.37697481 C124.285685,5.51822215 123.541742,5.70495591 122.811166,5.9359791 C122.422536,6.0634608 122.019942,6.18874798 121.622733,6.35533206 C121.217944,6.50515797 120.814152,6.68111864 120.409163,6.87523397 C119.569859,7.26825269 118.759682,7.72092246 117.984816,8.22945277 C117.180425,8.76052679 116.416133,9.34985536 115.698126,9.99265043 C115.327451,10.3026764 114.985306,10.6765429 114.627998,11.0188881 L114.157971,11.5338025 L113.924355,11.7905614 L113.676374,12.0848267 C113.071085,12.8140061 112.519462,13.5858789 112.025296,14.3946595 C111.140705,15.8472328 110.445042,17.4069385 109.955464,19.0356719 L109.881449,19.2850492 L109.84514,19.4077429 L109.800451,19.5827061 L109.68055,20.0591166 L109.567034,20.5115868 C109.533717,20.6859515 109.500999,20.8551291 109.469477,21.0191196 L109.391472,21.4249065 L109.354365,21.6172263 L109.345387,21.6641092 L109.343193,21.6758798 L109.330225,21.8059551 L109.327632,21.8294963 L109.317856,21.9222647 L109.246035,22.5955835 C109.1802,23.2132414 109.13611,23.6284048 109.118554,23.7929938 C108.417903,23.9833186 107.72204,24.1959877 107.033759,24.4369859 C107.033759,24.4369859 103.351353,25.2976371 103.560032,27.1162963 C103.756342,28.8262269 107.384483,29.1731607 107.384483,29.1731607 C113.62969,30.4633394 120.12228,29.7620903 125.947735,27.1679672 C125.635514,26.1373405 125.561499,25.0498557 125.730876,23.9869097 Z" id="Shape"></path>
                        <path d="M151.664126,22.011043 C151.58233,21.0508404 151.43031,20.0978199 151.209062,19.1597621 C151.114299,18.6857456 150.949311,18.2065421 150.819834,17.7285355 L150.593001,17.0693813 L150.479883,16.7415997 L150.340232,16.3828953 C149.989108,15.502693 149.575341,14.6492239 149.101525,13.8284732 C148.249053,12.3569473 147.212042,11.000135 146.016028,9.79095403 L145.831888,9.60681379 L145.741514,9.51623993 L145.608845,9.39414478 L145.247747,9.06117613 L144.904803,8.74496564 L144.505799,8.41638604 L144.186796,8.15384155 L144.035773,8.02935238 L143.999064,7.99882859 L143.989688,7.99144702 L143.881558,7.91783082 L143.862007,7.9042647 L143.785398,7.85119719 L143.22799,7.46635806 L142.480855,6.95004718 C142.673574,6.18256343 142.836766,5.40650109 142.970034,4.62245868 C143.169934,3.44599606 143.998067,0.983145291 142.305493,0.286285205 C140.714066,-0.368878986 138.655406,2.63861194 138.655406,2.63861194 C134.505169,7.48052269 131.978278,13.5020881 131.430845,19.8556246 C132.483017,20.0812613 133.470352,20.5425096 134.318435,21.2050554 L134.341777,21.2004668 C136.409414,19.1589641 138.17321,16.8311761 139.5793,14.288325 C140.928531,15.1348115 142.107587,16.2256878 143.056418,17.5050934 L143.188089,17.6818521 L143.333327,17.8981121 L143.624001,18.3322282 C143.781208,18.6107329 143.96076,18.8690878 144.108391,19.1703357 C144.731436,20.3306386 145.178719,21.5771264 145.435877,22.8689011 C145.560366,23.4705988 145.641763,24.0802766 145.679469,24.6935454 C145.716377,25.2471631 145.719569,25.8027758 145.689045,26.3569921 C145.663908,26.828814 145.613234,27.29904 145.537024,27.7654754 C145.480366,28.1864244 145.386799,28.5447297 145.324555,28.8441821 C145.172734,29.4357052 145.069392,29.7728634 145.069392,29.7728634 C145.069392,29.7728634 145.216425,29.4550569 145.449044,28.883484 C145.551987,28.5932087 145.695828,28.2446789 145.810541,27.8283185 C145.952786,27.3642771 146.069694,26.8926546 146.160867,26.4158451 C146.270393,25.8476638 146.345406,25.2732978 146.385306,24.6961389 C146.433187,24.0467602 146.434982,23.3945886 146.390493,22.7448109 C146.346403,22.0433623 146.252239,21.3461032 146.108398,20.6582207 C145.956776,19.9418095 145.752686,19.2371688 145.497523,18.5506828 C145.381612,18.202552 145.21024,17.8520272 145.065601,17.5021009 L144.835376,17.0312764 L144.720663,16.7972607 L144.578218,16.5347163 C144.22909,15.9012978 143.834475,15.2938145 143.397965,14.7170546 C142.624895,13.7001935 141.727137,12.7842803 140.726036,11.9912603 C141.036262,11.2993878 141.320352,10.5963431 141.578508,9.88232589 L141.695217,9.94516898 L142.288535,10.2709556 L142.370331,10.316043 L142.391079,10.3274146 L142.396266,10.3302076 C142.485843,10.3906567 142.280156,10.2510054 142.302899,10.2665665 L142.312675,10.2731501 L142.352575,10.2994843 L142.515768,10.4080134 L142.85931,10.637241 L143.040059,10.7573412 L143.132428,10.8187877 L143.179112,10.84991 L143.190882,10.8576906 L143.196867,10.8616806 C143.21183,10.8730523 143.087141,10.7748973 143.142403,10.8191867 L143.165146,10.8361444 L143.539412,11.1152475 L143.93263,11.4097123 L143.983104,11.4476177 L143.989488,11.4524057 C143.909687,11.3829791 143.970935,11.4358471 143.954575,11.4218819 L143.966944,11.431857 L143.991683,11.4520067 L144.090835,11.532805 L144.292532,11.6971945 C146.109994,13.1962517 147.607854,15.0450357 148.696935,17.1342194 L148.837584,17.40634 L148.983619,17.7209545 L149.276288,18.3523779 C149.428508,18.7603593 149.613845,19.1495875 149.746514,19.5817085 C150.329259,21.2563274 150.661031,23.0081534 150.731056,24.7799297 C150.752403,25.2066642 150.759385,25.6272142 150.741231,26.0391856 C150.741231,26.452354 150.703126,26.8543503 150.671405,27.247369 C150.604372,27.9869225 150.492651,28.7218874 150.336242,29.4480743 C150.20477,30.0653331 150.039782,30.6750109 149.842076,31.274514 C149.680678,31.8175582 149.482374,32.269829 149.338333,32.6514761 C149.185914,33.0295321 149.038681,33.3144208 148.9511,33.5157182 L148.810451,33.8207566 L148.981025,33.5318779 C149.088557,33.3413536 149.264717,33.070829 149.456438,32.7081346 C149.639182,32.3418491 149.885966,31.905738 150.10462,31.375462 C150.367364,30.7873304 150.598188,30.1854333 150.795695,29.572364 C151.032104,28.8433841 151.223826,28.1008381 151.37026,27.3487159 C151.444874,26.9467196 151.526071,26.5329527 151.57056,26.1046222 C151.632804,25.6774887 151.670909,25.2385845 151.694251,24.7901043 C151.750511,23.8632185 151.740136,22.9349362 151.664126,22.011043 Z" id="Shape"></path>
                    </g>
                </g>
            </g>
        </g>
    </g>
</svg>