<?xml version="1.0" encoding="UTF-8" standalone="no"?>
<!-- Generator: Adobe Illustrator 16.0.0, SVG Export Plug-In . SVG Version: 6.00 Build 0)  -->

<svg
   xmlns:dc="http://purl.org/dc/elements/1.1/"
   xmlns:cc="http://creativecommons.org/ns#"
   xmlns:rdf="http://www.w3.org/1999/02/22-rdf-syntax-ns#"
   xmlns:svg="http://www.w3.org/2000/svg"
   xmlns="http://www.w3.org/2000/svg"
   xmlns:sodipodi="http://sodipodi.sourceforge.net/DTD/sodipodi-0.dtd"
   xmlns:inkscape="http://www.inkscape.org/namespaces/inkscape"
   version="1.1"
   id="Layer_1"
   x="0px"
   y="0px"
   width="140"
   height="100"
   viewBox="0 0 139.99999 100"
   enable-background="new 0 0 4251.971 4592.129"
   xml:space="preserve"
   inkscape:version="0.91 r13725"
   sodipodi:docname="concourse-logo.svg"><metadata
     id="metadata35"><rdf:RDF><cc:Work
         rdf:about=""><dc:format>image/svg+xml</dc:format><dc:type
           rdf:resource="http://purl.org/dc/dcmitype/StillImage" /><dc:title>concourse_white</dc:title></cc:Work></rdf:RDF></metadata><defs
     id="defs33" /><sodipodi:namedview
     pagecolor="#ffffff"
     bordercolor="#666666"
     borderopacity="1"
     objecttolerance="10"
     gridtolerance="10"
     guidetolerance="10"
     inkscape:pageopacity="0"
     inkscape:pageshadow="2"
     inkscape:window-width="1536"
     inkscape:window-height="801"
     id="namedview31"
     showgrid="false"
     inkscape:zoom="3.2891063"
     inkscape:cx="100.5084"
     inkscape:cy="39.168283"
     inkscape:window-x="-8"
     inkscape:window-y="-8"
     inkscape:window-maximized="1"
     inkscape:current-layer="Layer_1" /><title
     id="title3">concourse_white</title><path
     d="m 15.537709,56.507464 c 0.896892,0.350318 1.709718,0.885989 2.385189,1.572263 l -1.182507,1.51887 c -1.156013,-1.113122 -2.709117,-1.717878 -4.313576,-1.679667 -0.930823,-0.01633 -1.849214,0.215512 -2.6607158,0.671806 -0.7754306,0.44386 -1.4092255,1.098547 -1.8276123,1.888137 -0.8779385,1.748029 -0.8779385,3.80838 0,5.556507 0.4230738,0.789394 1.0554423,1.447026 1.827714,1.900874 0.8073241,0.468826 1.7273461,0.707983 2.6607161,0.692086 0.879365,0.01348 1.752514,-0.151015 2.566666,-0.483803 0.741601,-0.308037 1.400055,-0.786948 1.92156,-1.397515 l 1.236308,1.330259 c -0.673636,0.796419 -1.522127,1.426551 -2.47934,1.841063 -1.04994,0.451197 -2.183231,0.675573 -3.325896,0.658551 C 11.046222,70.601441 9.7624307,70.284148 8.6236379,69.656471 7.5480207,69.051412 6.6652927,68.154721 6.0771477,67.069733 5.4484477,65.89762 5.1314476,64.583561 5.15682,63.253507 c -0.025885,-1.329643 0.2959067,-2.642979 0.9336762,-3.809799 0.6050601,-1.089067 1.5067402,-1.983714 2.600291,-2.580213 1.1544852,-0.624527 2.4501988,-0.941427 3.7626228,-0.920433 1.054933,-0.01205 2.10212,0.179648 3.084299,0.564402 z"
     id="path5"
     inkscape:connector-curvature="0"
     style="fill:#379adc" /><path
     d="m 30.471834,56.863495 c 1.098747,0.597213 2.005217,1.494404 2.613742,2.586836 0.63838,1.154895 0.962818,2.456824 0.940808,3.776176 0.02517,1.332401 -0.299269,2.64829 -0.940808,3.816324 -0.610563,1.094369 -1.516217,1.995335 -2.613742,2.600287 -1.163248,0.634613 -2.471291,0.956297 -3.796248,0.933679 -1.326996,0.02214 -2.637077,-0.299575 -3.802974,-0.933679 -1.099461,-0.60231 -2.005726,-1.503883 -2.61364,-2.600287 -0.637259,-1.169569 -0.958946,-2.484744 -0.933675,-3.816324 -0.02374,-1.320878 0.298046,-2.624851 0.933675,-3.782799 0.607506,-1.091513 1.514382,-1.986775 2.61364,-2.580115 1.168547,-0.62574 2.477609,-0.942542 3.802974,-0.920424 1.323327,-0.02285 2.630248,0.294273 3.796248,0.920326 z m -6.483865,1.713379 c -0.785927,0.44519 -1.428993,1.104768 -1.854411,1.901597 -0.44977,0.854802 -0.676285,1.809269 -0.658658,2.77484 -0.01814,0.972185 0.208378,1.933274 0.658658,2.79511 0.424806,0.800703 1.067771,1.464663 1.854411,1.914843 1.672933,0.92287 3.702198,0.92287 5.375233,0 0.786538,-0.45018 1.429503,-1.11414 1.854411,-1.914843 0.45028,-0.861836 0.676795,-1.822925 0.658658,-2.79511 0.01915,-0.968016 -0.207359,-1.925134 -0.658658,-2.781668 -0.428168,-0.795303 -1.073681,-1.452435 -1.861136,-1.894867 -1.672831,-0.913605 -3.695677,-0.913605 -5.368508,0 z"
     id="path7"
     inkscape:connector-curvature="0"
     style="fill:#379adc" /><path
     d="m 48.44736,57.22339 c 1.019676,1.126565 1.544951,2.615167 1.458034,4.1321 l 0,8.94975 -2.150114,0 0,-8.371799 c 0.06542,-1.10608 -0.328412,-2.190158 -1.088456,-2.996359 -0.816393,-0.751281 -1.902506,-1.139301 -3.010119,-1.075518 -1.261476,-0.04195 -2.486779,0.425321 -3.39977,1.296832 -0.877632,0.904947 -1.402093,2.094483 -1.478209,3.352801 l 0,7.794043 -2.136664,0 0,-14.499126 2.136562,0 0,3.18446 c 0.994406,-2.15001 2.86675,-3.238568 5.617033,-3.26547 1.500423,-0.08694 2.968953,0.456195 4.051703,1.498286 z"
     id="path9"
     inkscape:connector-curvature="0"
     style="fill:#379adc" /><path
     d="m 62.840924,56.316408 c 0.896892,0.350318 1.709719,0.885989 2.38519,1.572264 l -1.182507,1.518458 c -1.156116,-1.11322 -2.709219,-1.717976 -4.313576,-1.679863 -0.930823,-0.01607 -1.849215,0.215718 -2.660716,0.671904 -0.775431,0.44386 -1.409226,1.098547 -1.827612,1.888039 -0.877939,1.748128 -0.877939,3.808469 0,5.556606 0.422971,0.789599 1.055238,1.447543 1.827612,1.90149 0.807324,0.468718 1.727346,0.708071 2.660716,0.691978 0.879365,0.01357 1.752514,-0.151015 2.566666,-0.483803 0.741601,-0.307939 1.400055,-0.786948 1.921662,-1.397515 l 1.236308,1.330358 c -0.673636,0.79632 -1.522127,1.426452 -2.479341,1.840964 -1.04994,0.451197 -2.18323,0.675671 -3.325895,0.658659 -1.299994,0.02446 -2.583581,-0.292953 -3.722374,-0.920532 -1.075515,-0.605059 -1.95814,-1.50175 -2.546286,-2.586845 -0.628802,-1.172211 -0.945801,-2.48627 -0.92043,-3.816315 -0.02589,-1.329545 0.295907,-2.642783 0.933676,-3.809603 0.604959,-1.089067 1.506741,-1.983714 2.600291,-2.580213 1.154587,-0.624526 2.450403,-0.941525 3.762827,-0.920433 1.054627,-0.01214 2.101713,0.179541 3.083789,0.564402 z"
     id="path11"
     inkscape:connector-curvature="0"
     style="fill:#379adc" /><path
     d="m 77.58379,56.672439 c 1.098752,0.597213 2.005216,1.494413 2.613738,2.586836 0.638281,1.154797 0.962616,2.456824 0.940713,3.776176 0.02526,1.332401 -0.299174,2.648183 -0.940713,3.816324 -0.610664,1.094369 -1.516209,1.995335 -2.613738,2.600189 -2.380089,1.245483 -5.219332,1.245483 -7.599425,0 -1.099359,-0.602203 -2.005422,-1.503785 -2.613335,-2.600189 -0.63726,-1.169462 -0.959047,-2.484744 -0.933676,-3.816324 -0.02374,-1.320673 0.298149,-2.624851 0.933676,-3.782692 0.607506,-1.09162 1.514383,-1.986775 2.61364,-2.580222 2.384373,-1.227443 5.214746,-1.227443 7.59912,0 z m -6.483865,1.713379 c -0.785824,0.44519 -1.428994,1.104768 -1.854411,1.901597 -0.449769,0.854704 -0.676285,1.809269 -0.658657,2.77484 -0.01814,0.972185 0.208378,1.933275 0.658657,2.79511 0.424806,0.800605 1.067772,1.464663 1.854411,1.914843 1.672934,0.92287 3.702197,0.92287 5.375232,0 0.786645,-0.45018 1.429505,-1.114238 1.854415,-1.914843 0.450278,-0.861835 0.676796,-1.822925 0.658659,-2.79511 0.01919,-0.968016 -0.207363,-1.925134 -0.658659,-2.781668 -0.42807,-0.795303 -1.073581,-1.452435 -1.860931,-1.894867 -1.672839,-0.913703 -3.695782,-0.913703 -5.368716,0 z"
     id="path13"
     inkscape:connector-curvature="0"
     style="fill:#379adc" /><path
     d="m 96.700757,70.30524 -2.136657,0 0,-3.27861 c -0.931644,2.203913 -2.768219,3.323756 -5.509542,3.359522 -1.4779,0.08051 -2.920651,-0.468826 -3.970891,-1.511836 -1.008977,-1.132072 -1.528349,-2.617818 -1.44459,-4.132099 l 0,-8.936103 2.136666,0 0,8.358044 c -0.06569,1.103536 0.322809,2.186186 1.075108,2.996359 0.792446,0.745881 1.856147,1.134517 2.942867,1.075009 1.332196,0.04945 2.616694,-0.500208 3.500648,-1.498081 0.877634,-1.070422 1.32975,-2.426762 1.269734,-3.809594 l 0,-7.121835 2.136657,0 0,14.499224 0,0 z"
     id="path15"
     inkscape:connector-curvature="0"
     style="fill:#379adc" /><path
     d="m 103.9409,56.591839 c 0.95018,-0.580299 2.04465,-0.880793 3.15787,-0.866735 l 0,2.16346 c -1.32842,-0.0806 -2.63423,0.371517 -3.62823,1.25639 -0.94131,0.914212 -1.50276,2.15001 -1.57225,3.460293 l 0,7.699895 -2.136668,0 0,-14.499126 2.136668,0 0,3.211362 c 0.42806,-0.991455 1.13858,-1.83485 2.04261,-2.425539 z"
     id="path17"
     inkscape:connector-curvature="0"
     style="fill:#379adc" /><path
     d="m 116.99504,56.067888 c 0.75312,0.203588 1.46639,0.532913 2.10976,0.974229 l -0.81975,1.70656 c -0.58703,-0.377631 -1.225,-0.669458 -1.89466,-0.866735 -0.66172,-0.204811 -1.34993,-0.311286 -2.04272,-0.315776 -0.72254,-0.03311 -1.44051,0.13186 -2.07614,0.476984 -0.51202,0.296103 -0.81557,0.853784 -0.78612,1.444678 -0.0106,0.412781 0.14989,0.81161 0.44345,1.101912 0.31323,0.307314 0.68281,0.551362 1.08846,0.71888 0.58732,0.236595 1.18871,0.436211 1.80071,0.597928 0.84288,0.233953 1.66712,0.530467 2.46589,0.886899 0.63216,0.296112 1.18668,0.735491 1.61933,1.283283 0.46985,0.628293 0.70736,1.399952 0.6719,2.18374 0.0685,1.224489 -0.5105,2.395281 -1.52528,3.083992 -1.12504,0.725298 -2.4451,1.088764 -3.7828,1.041485 -1.0426,8.92e-4 -2.07746,-0.18097 -3.05719,-0.537501 -0.92817,-0.321381 -1.78105,-0.829033 -2.50614,-1.491565 l 0.8332,-1.626059 c 0.64562,0.586619 1.39853,1.042912 2.21727,1.343808 0.82668,0.323425 1.70574,0.491961 2.59356,0.497156 0.78135,0.0332 1.55626,-0.15305 2.23734,-0.537509 0.56064,-0.326781 0.89434,-0.937133 0.86673,-1.585705 0.0358,-0.632774 -0.28602,-1.232237 -0.83311,-1.551984 -0.81099,-0.43846 -1.67313,-0.774819 -2.56666,-1.001131 -0.82149,-0.24312 -1.62718,-0.537099 -2.41209,-0.880178 -0.60445,-0.280117 -1.13401,-0.699315 -1.54536,-1.223168 -0.45599,-0.608621 -0.68617,-1.356849 -0.65142,-2.116485 -0.0721,-1.169667 0.47005,-2.292358 1.43113,-2.962941 1.07246,-0.692389 2.33251,-1.037307 3.60805,-0.98768 0.84951,-0.0027 1.69515,0.112599 2.51266,0.342883 z"
     id="path19"
     inkscape:connector-curvature="0"
     style="fill:#379adc" /><path
     d="m 133.85836,57.935648 c 1.15561,1.455791 1.67518,3.442361 1.55882,5.959809 l -11.82547,0 c 0.11992,1.298671 0.72733,2.503898 1.70003,3.372767 0.98727,0.845332 2.25507,1.291129 3.55435,1.249758 0.85144,0.008 1.69626,-0.151417 2.48596,-0.47045 0.75189,-0.307118 1.43307,-0.764224 2.00217,-1.343612 l 1.1826,1.26311 c -0.70696,0.77614 -1.57644,1.386403 -2.54659,1.787366 -1.04168,0.429391 -2.15908,0.64418 -3.28575,0.631443 -1.31294,0.02544 -2.60987,-0.29172 -3.76283,-0.920424 -1.07949,-0.60007 -1.96354,-1.497974 -2.54638,-2.586845 -0.62035,-1.174755 -0.93236,-2.487894 -0.90708,-3.816315 -0.0259,-1.327814 0.29111,-2.639936 0.92053,-3.809603 0.59477,-1.087541 1.48758,-1.982598 2.57338,-2.580213 1.14909,-0.625544 2.44083,-0.942542 3.74907,-0.920433 2.27576,0 3.99149,0.727744 5.14719,2.183642 z m -1.78043,0.880178 c -0.93633,-0.838914 -2.16397,-1.278088 -3.42004,-1.223168 -1.26434,-0.04177 -2.49718,0.400454 -3.44675,1.236315 -0.93601,0.85939 -1.51407,2.039554 -1.61924,3.305816 l 9.90361,0 c -0.008,-1.251793 -0.51926,-2.447649 -1.41778,-3.318963 l 0,0 z"
     id="path21"
     inkscape:connector-curvature="0"
     style="fill:#379adc" /><circle
     cx="71.879433"
     cy="36.884991"
     r="1.7101257"
     id="circle23"
     style="fill:#379adc" /><path
     d="m 74.013752,38.565158 c -0.368967,0.407382 -0.825564,0.725808 -1.335351,0.931231 l -0.004,0.01142 c 0.386493,1.486361 0.991655,2.907203 1.795612,4.215755 -0.70308,0.373654 -1.468627,0.615861 -2.258731,0.714599 l -0.111678,0.01447 -0.132771,0.01009 -0.266051,0.02038 c -0.163442,0 -0.323317,0.01498 -0.494299,0.005 -0.672618,-0.01416 -1.339427,-0.127982 -1.978623,-0.337786 -0.298861,-0.09558 -0.590489,-0.21225 -0.872639,-0.349402 -0.255658,-0.122581 -0.503572,-0.260651 -0.742417,-0.413291 -0.203588,-0.129613 -0.399943,-0.270128 -0.588247,-0.421138 -0.173224,-0.130325 -0.308848,-0.262281 -0.42664,-0.365298 -0.224987,-0.216021 -0.349096,-0.346448 -0.349096,-0.346448 0,0 0.104443,0.1451 0.300288,0.392199 0.103323,0.118506 0.222338,0.270127 0.378647,0.42562 0.170675,0.179847 0.351134,0.350219 0.540355,0.510399 0.225191,0.191362 0.461795,0.368865 0.708588,0.531389 0.276852,0.184433 0.566542,0.348894 0.866729,0.492159 0.323012,0.15631 0.656823,0.289386 0.998788,0.39811 0.356738,0.112391 0.721425,0.198392 1.0908,0.25739 0.184024,0.03576 0.382926,0.04758 0.575102,0.07123 l 0.267173,0.0159 0.132872,0.0078 0.152641,0.0024 c 0.369374,0.0037 0.738748,-0.01916 1.104862,-0.06868 0.628088,-0.08641 1.243134,-0.249238 1.831689,-0.484924 0.224171,0.304873 0.459445,0.60129 0.705938,0.889351 l -0.03401,0.02109 -0.294175,0.181987 -0.04052,0.02506 -0.01026,0.0063 -0.0027,0.0016 c -0.04945,0.02466 0.06462,-0.03179 0.05177,-0.02547 l -0.0054,0.0028 -0.02169,0.0111 -0.08926,0.04534 -0.188209,0.09558 -0.09874,0.05014 -0.05079,0.02568 -0.02553,0.01294 -0.0062,0.0033 -0.0036,0.0016 c -0.0089,0.0037 0.06614,-0.02711 0.03285,-0.01334 l -0.01321,0.0058 -0.218261,0.09578 -0.229571,0.100877 -0.02945,0.01294 -0.0036,0.0016 c 0.05061,-0.01814 0.01205,-0.0042 0.02223,-0.0079 l -0.0071,0.0034 -0.01508,0.0059 -0.06087,0.02384 -0.123702,0.04841 c -1.123,0.432142 -2.321402,0.634304 -3.523983,0.594361 l -0.156308,-0.0056 -0.176587,-0.01396 -0.354191,-0.02843 c -0.219962,-0.03473 -0.439549,-0.04991 -0.665045,-0.09933 -0.891186,-0.1612 -1.753636,-0.453337 -2.55933,-0.866934 -0.195335,-0.09762 -0.383945,-0.200226 -0.562671,-0.311701 -0.184025,-0.103526 -0.352969,-0.22142 -0.519875,-0.334321 -0.312108,-0.215511 -0.61097,-0.449668 -0.894853,-0.701352 -0.241596,-0.213473 -0.471373,-0.439887 -0.68831,-0.678222 -0.201041,-0.208072 -0.352358,-0.409827 -0.485943,-0.569805 -0.129918,-0.162626 -0.219791,-0.299575 -0.287144,-0.388938 l -0.10047,-0.13919 0.0863,0.148565 c 0.05788,0.09558 0.13379,0.242106 0.247303,0.418182 0.116977,0.173733 0.249136,0.392505 0.430003,0.622893 0.195538,0.264522 0.405445,0.518244 0.628496,0.759942 0.265032,0.288061 0.547183,0.559818 0.845026,0.813744 0.160079,0.134096 0.32352,0.274407 0.503163,0.40137 0.174447,0.134808 0.360102,0.261975 0.553705,0.385066 0.397396,0.257186 0.812623,0.485739 1.242626,0.683723 0.44763,0.20471 0.909627,0.376303 1.382325,0.513456 0.234768,0.07673 0.489203,0.123804 0.73406,0.185961 l 0.35032,0.06429 0.174242,0.03179 0.194622,0.02782 c 0.479627,0.0648 0.963226,0.09497 1.447132,0.09028 0.868564,-0.0099 1.732441,-0.130426 2.570534,-0.35898 l 0.127986,-0.03556 0.06293,-0.01742 0.08792,-0.02802 0.238844,-0.07704 0.226723,-0.07326 0.246074,-0.09497 0.196867,-0.07601 0.09334,-0.03618 0.02285,-0.0087 0.0054,-0.0021 0.05989,-0.02965 0.0108,-0.0053 0.04293,-0.02079 0.311196,-0.151112 0.388735,-0.188915 c 0.264113,0.252804 0.536376,0.498069 0.818831,0.73243 0,0 1.345746,1.385688 2.086842,0.815782 0.69687,-0.535567 -0.105868,-2.21543 -0.105868,-2.21543 -1.078678,-3.073396 -3.093882,-5.730953 -5.76224,-7.598611 z"
     id="path25"
     inkscape:connector-curvature="0"
     style="fill:#379adc" /><path
     d="m 69.319593,36.287776 -0.0079,-0.0094 C 67.85152,35.847864 66.336016,35.634697 64.813685,35.6456 c 0.04514,-0.828112 0.247608,-1.640021 0.596501,-2.392423 l 0.04698,-0.102304 0.06154,-0.117996 0.123702,-0.2364 c 0.08651,-0.138578 0.15855,-0.282252 0.257594,-0.422054 0.368354,-0.562876 0.818227,-1.068077 1.334841,-1.499098 0.239355,-0.202774 0.49277,-0.388225 0.758516,-0.554927 0.239457,-0.151724 0.487879,-0.288774 0.743945,-0.410337 0.217854,-0.104036 0.441109,-0.196049 0.668847,-0.275833 0.202672,-0.07765 0.386086,-0.123091 0.535567,-0.168231 0.302429,-0.07703 0.479117,-0.113207 0.479117,-0.113207 0,0 -0.178421,0.01172 -0.491752,0.04687 -0.155188,0.02476 -0.346754,0.04534 -0.56155,0.09558 -0.243024,0.04963 -0.483091,0.112494 -0.719184,0.188203 -0.281642,0.08967 -0.557475,0.196354 -0.826175,0.319444 -0.303041,0.137255 -0.59589,0.295704 -0.876411,0.47443 -0.303752,0.191055 -0.593546,0.403612 -0.867035,0.636036 -0.284393,0.243126 -0.550444,0.506833 -0.796116,0.788882 -0.12788,0.137152 -0.243226,0.299575 -0.364993,0.449974 l -0.154984,0.218262 -0.07693,0.108519 -0.08295,0.128186 c -0.198901,0.311395 -0.37508,0.636648 -0.527008,0.973415 -0.27298,0.606996 -0.46699,1.246396 -0.577548,1.902709 l -0.0044,0.02649 c -0.371106,0.03403 -0.740786,0.08152 -1.109039,0.142451 l 9.81e-4,-0.193501 0.0015,-0.345938 0,-0.04769 0,-0.01488 c 0.0053,-0.05503 -0.0072,0.07153 -0.0058,0.05737 l 0,-0.006 0.0021,-0.02435 0.0088,-0.09965 0.01855,-0.209906 0.0098,-0.110354 0.005,-0.05645 0.0026,-0.02853 9.82e-4,-0.0072 0,-0.0036 c 0.0014,-0.0096 -0.01213,0.07041 -0.0062,0.03485 l 0.0021,-0.01447 0.03434,-0.235787 0.03618,-0.24822 0.0046,-0.03189 9.81e-4,-0.004 c -0.01172,0.05279 -0.0029,0.01223 -0.0052,0.02313 l 0.0015,-0.0079 0.0029,-0.0159 0.01213,-0.06419 0.02466,-0.130223 c 0.22835,-1.181386 0.691876,-2.304996 1.362863,-3.303784 l 0.08763,-0.129612 0.10536,-0.14235 0.211741,-0.285309 c 0.145814,-0.167925 0.275017,-0.346243 0.436422,-0.511315 0.60883,-0.670478 1.313443,-1.247109 2.091013,-1.711348 0.186267,-0.113819 0.373247,-0.219486 0.562367,-0.312109 0.18545,-0.101387 0.374978,-0.182089 0.559002,-0.263912 0.34818,-0.150602 0.705122,-0.280011 1.068893,-0.38741 0.309051,-0.09171 0.62279,-0.1666 0.939992,-0.224375 0.282967,-0.06022 0.534243,-0.08172 0.740787,-0.110354 0.207053,-0.02456 0.370801,-0.02822 0.481969,-0.03791 l 0.17139,-0.01142 -0.17139,-0.0062 c -0.111678,-0.0017 -0.27624,-0.01447 -0.485638,-0.01192 -0.208988,0.0072 -0.464851,0.0034 -0.756172,0.03475 -0.328004,0.02568 -0.654276,0.06918 -0.977593,0.130224 -0.384658,0.07215 -0.764629,0.167517 -1.137774,0.285512 -0.198494,0.06511 -0.40412,0.129103 -0.606997,0.214187 -0.206747,0.07652 -0.412985,0.166396 -0.619834,0.265542 -0.428678,0.200736 -0.842479,0.431938 -1.238244,0.691672 -0.410846,0.271247 -0.801211,0.572249 -1.167936,0.900559 -0.189323,0.158347 -0.364075,0.3493 -0.546571,0.524154 l -0.240068,0.262995 -0.11932,0.131141 -0.126658,0.150296 c -0.309153,0.372432 -0.590897,0.766668 -0.843293,1.179756 -0.451808,0.741906 -0.807121,1.538532 -1.057175,2.370414 l -0.0378,0.12737 -0.01855,0.06267 -0.02282,0.08936 -0.06124,0.243328 -0.05798,0.231101 c -0.01701,0.08906 -0.03373,0.175465 -0.04982,0.259224 l -0.03984,0.207257 -0.01895,0.09823 -0.0046,0.02395 -0.0012,0.006 -0.0066,0.06644 -0.0013,0.01202 -0.005,0.04738 -0.03668,0.3439 c -0.03362,0.315471 -0.05614,0.527517 -0.06511,0.611582 -0.35786,0.09721 -0.713275,0.20583 -1.064816,0.328921 0,0 -1.880802,0.43958 -1.774219,1.368467 0.100266,0.873353 1.953352,1.050551 1.953352,1.050551 3.189762,0.658963 6.505875,0.300798 9.481246,-1.02416 -0.159467,-0.526396 -0.19727,-1.081833 -0.110761,-1.624737 z"
     id="path27"
     inkscape:connector-curvature="0"
     style="fill:#379adc" /><path
     d="m 82.565094,35.278595 c -0.04177,-0.490427 -0.119426,-0.977185 -0.232426,-1.456302 -0.04838,-0.242105 -0.132673,-0.486859 -0.198804,-0.731003 l -0.115856,-0.336665 -0.05775,-0.167416 -0.07132,-0.18321 c -0.179337,-0.449567 -0.390672,-0.885478 -0.632667,-1.30468 -0.435408,-0.751587 -0.965062,-1.444584 -1.575932,-2.062177 l -0.09405,-0.09405 -0.04615,-0.04626 -0.06775,-0.06236 -0.184433,-0.170065 -0.175159,-0.161506 -0.203793,-0.167824 -0.162931,-0.134095 -0.07712,-0.06359 -0.01874,-0.01559 -0.0045,-0.0037 -0.05525,-0.03759 -0.01,-0.007 -0.0391,-0.02711 -0.284696,-0.196558 -0.381603,-0.263708 c 0.09843,-0.391995 0.181782,-0.788372 0.24985,-1.188824 0.102102,-0.600882 0.525067,-1.858792 -0.33942,-2.214716 -0.812824,-0.334628 -1.864296,1.20146 -1.864296,1.20146 -2.119746,2.473023 -3.410365,5.548559 -3.689968,8.79365 0.537401,0.115244 1.041686,0.350829 1.474847,0.689226 l 0.01192,-0.0023 c 1.056052,-1.042705 1.956919,-2.231631 2.675086,-3.530401 0.689122,0.432346 1.291325,0.989515 1.775949,1.642976 l 0.06721,0.09028 0.07417,0.110456 0.148462,0.221726 c 0.08033,0.142247 0.171999,0.274202 0.247404,0.428066 0.318221,0.592629 0.546676,1.229277 0.678019,1.889056 0.06355,0.307319 0.105163,0.618714 0.124416,0.931943 0.01883,0.282762 0.02044,0.566543 0.0045,0.849611 -0.01285,0.240985 -0.03874,0.481155 -0.07765,0.719388 -0.02892,0.215002 -0.07676,0.398007 -0.10852,0.550954 -0.07756,0.302123 -0.130325,0.474327 -0.130325,0.474327 0,0 0.07507,-0.162321 0.193912,-0.454254 0.05257,-0.148259 0.126041,-0.326272 0.18463,-0.538929 0.07265,-0.237011 0.132369,-0.477894 0.178934,-0.721426 0.05597,-0.290201 0.09426,-0.58356 0.114634,-0.878346 0.02446,-0.331673 0.02535,-0.664772 0.0027,-0.996648 -0.02249,-0.358268 -0.0706,-0.714395 -0.14408,-1.065733 -0.07748,-0.36591 -0.181684,-0.725808 -0.312009,-1.076433 -0.05918,-0.177809 -0.14673,-0.35684 -0.220609,-0.535567 l -0.117588,-0.240475 -0.05855,-0.119524 -0.07274,-0.134096 c -0.178318,-0.32352 -0.379871,-0.633795 -0.602819,-0.928377 -0.394848,-0.519366 -0.853382,-0.987171 -1.364694,-1.392209 0.15845,-0.353377 0.303547,-0.712459 0.435398,-1.077146 l 0.05962,0.0321 0.303039,0.166397 0.04177,0.02303 0.01062,0.0058 0.0027,0.0014 c 0.04579,0.03088 -0.05927,-0.04045 -0.04766,-0.03251 l 0.0054,0.0034 0.02035,0.01345 0.08337,0.05543 0.175462,0.117079 0.09232,0.06134 0.04713,0.03138 0.02383,0.0159 0.0062,0.004 0.0027,0.0021 c 0.008,0.0058 -0.05605,-0.04433 -0.02785,-0.02171 l 0.0116,0.0087 0.191154,0.142554 0.200838,0.150398 0.0258,0.01936 0.0036,0.0024 c -0.04079,-0.03546 -0.0095,-0.0085 -0.01785,-0.01559 l 0.0062,0.0051 0.01267,0.01029 0.05061,0.04127 0.103013,0.08397 c 0.928278,0.765649 1.693314,1.709921 2.249567,2.77698 l 0.07185,0.138986 0.07462,0.160691 0.14948,0.322501 c 0.07774,0.208378 0.17241,0.407178 0.240165,0.627885 0.297638,0.855318 0.467094,1.750069 0.502859,2.65501 0.01089,0.217957 0.01446,0.432753 0.0054,0.64317 0,0.211027 -0.01946,0.416348 -0.0357,0.617083 -0.03427,0.37773 -0.0913,0.753116 -0.171187,1.124018 -0.06712,0.315268 -0.151417,0.626662 -0.252394,0.932861 -0.08247,0.277362 -0.183719,0.508361 -0.257294,0.703288 -0.07783,0.193094 -0.15305,0.338602 -0.197777,0.441415 l -0.07185,0.1558 0.08711,-0.147546 c 0.05489,-0.09731 0.144901,-0.235482 0.242825,-0.42073 0.09334,-0.187082 0.219378,-0.409827 0.331057,-0.680667 0.134199,-0.300391 0.25209,-0.607812 0.352969,-0.920939 0.120748,-0.372329 0.218672,-0.751587 0.293461,-1.135736 0.03811,-0.205321 0.07962,-0.416654 0.102307,-0.635426 0.03178,-0.218159 0.05123,-0.442332 0.06319,-0.671394 0.02874,-0.473411 0.02339,-0.947534 -0.01535,-1.419416 z"
     id="path29"
     inkscape:connector-curvature="0"
     style="fill:#379adc" /></svg>