<?xml version="1.0" encoding="utf-8"?>
<!-- Generator: Adobe Illustrator 21.0.2, SVG Export Plug-In . SVG Version: 6.00 Build 0)  -->
<svg version="1.1" id="Layer_1" xmlns="http://www.w3.org/2000/svg" xmlns:xlink="http://www.w3.org/1999/xlink" x="0px" y="0px"
	 viewBox="0 0 356 89" style="enable-background:new 0 0 356 89;" xml:space="preserve">
<style type="text/css">
	.st0{fill:#5F6368;}
	.st1{fill:#61656A;}
	.st2{fill:#4284F3;}
	.st3{fill:#FABB05;}
	.st4{fill:#E94335;}
	.st5{fill:#34A753;}
	.st6{fill:#FEFEFE;}
	.st7{fill:#FAFAFA;}
</style>
<path class="st0" d="M254.5,74.5c2.5,0.1,12.8,0,15.5,0c1,0,1.5-0.2,1.5-1.4c0-4.7-1.4-8.8-5.7-11.2c-4.5-2.5-9.2-2.3-13.4,0.7
	c-4.1,2.9-6.1,8.6-4.8,13.8c1.2,5,4.3,8.3,9.3,9.4c5.3,1.1,9.9-0.2,13.3-4.7c0.3-0.5,1.3-1.1,0.6-1.6c-1.1-0.8-2.4-1.5-3.7-2
	c-1-0.4-1.3,0.9-1.8,1.4c-3.8,3.9-10.2,2.6-12-2.5C252.7,75.1,252.7,74.4,254.5,74.5z"/>
<path class="st0" d="M226.5,64.3c2.9-3.6,6.6-4.6,10.8-3.6c3.5,0.9,5.9,3.9,6,8c0.2,5.1,0,10.2,0.1,15.2c0,1.2-0.4,1.5-1.6,1.6
	c-4,0.2-4,0.2-4-3.7c0-3.6,0-7.2,0-10.7c0-3.3-1.2-5-3.9-5.5c-2.7-0.5-5.4,0.8-6.6,3.4c-0.8,1.7-0.9,3.5-0.9,5.4
	c0,3.2-0.2,6.3,0,9.5c0.1,1.7-0.5,1.5-2.7,1.6c-2,0.1-2.7,0.1-2.7-1.6c0.1-6.8,0.1-13.7,0-20.5c0-1.6,0.3-2.5,2.2-2.3
	c1.6,0.2,3.6-0.5,3.1,2.3C226.3,63.6,226.4,63.8,226.5,64.3z"/>
<path class="st0" d="M153.8,14.6c3.2,0,3.2,0,3.1,3.1c-0.3,9.5-11,15-19.9,10.2c-7-3.8-9.5-13-5.2-19.9c4.2-6.7,13.4-8.6,19.7-4.1
	c1.5,1,2.1,1.8,0.4,3.3c-1.1,0.9-1.4,0.1-2-0.3c-4.3-3.3-10.6-2.6-14.2,1.6c-3.6,4.3-3.2,11.2,0.8,15c4.1,3.8,10.7,3.7,14.5-0.1
	c0.5-0.5,0.9-1,1.2-1.6c0.6-1.1,1.4-2.4,0.9-3.5c-0.5-1-6-0.5-7.5-0.4c-1.3,0.1-2-0.2-2-1.7c0-1.7,0.9-1.7,2.1-1.6
	C147.3,14.6,152.6,14.6,153.8,14.6z"/>
<path class="st0" d="M206.2,69.3c0.3-2.4-0.2-3.8-3.1-3.3c-1.7,0.3-1.5-2-1.5-2s-0.7-3,1.4-2.8c3.2,0.3,3.1-1.3,3.1-3.6
	c0-3.9,0-3.9,4.7-3.9c0.4,0.2,0.6,0.5,0.7,0.9c0,0.5-0.6,5,0.4,6.1c0.9,1.1,2.8,0.3,4.3,0.4c2.2,0.1,1.6,2.8,1.6,2.8
	c0-0.1,0.2,2.2-1.6,2.2c-1.4,0-3.5-0.7-4.2,0.4c-0.7,1.1-0.4,8.8-0.3,10.8c0.2,2.9,1.2,3.7,4.1,3.6c2.4,0,1.4,4.9,0.7,5
	c-6.5,1.4-10.3-1.7-10.3-8.4C206.1,76.2,206,70.7,206.2,69.3z"/>
<path class="st0" d="M258.3,13.6c0.1-4,2.7-8.4,7.9-10.8c5.1-2.3,10.1-1.9,14.5,1.8c0.6,0.5,1.7,1.1,0.5,2.1
	c-0.8,0.7-1.3,1.7-2.7,0.4c-3.9-3.4-9.8-3-13.6,0.6c-3.8,3.6-4.2,10.5-0.9,14.7c3.1,4,9.1,5.1,13.5,2.5c0.6-0.4,1.3-0.8,1.8-1.3
	c1.2-1.4,1.8-0.5,2.7,0.3c1.3,1.2,0.1,1.7-0.5,2.3c-4.5,3.8-9.6,4.4-15,2.3C261.2,26.3,258.2,21.3,258.3,13.6z"/>
<path class="st0" d="M188.9,65.2c2-3.1,4.5-4.3,7.5-4.6c2-0.2,2.5,0.7,2.3,2.5c-0.2,1.3,0.9,3.2-2.1,3c-4.7-0.3-7.3,2.3-7.4,7.1
	c-0.1,3.6-0.1,7.2,0,10.7c0,1.7,0,1.7-3.1,1.8c-2.4,0.1-2.4-0.1-2.4-2c0.1-6.7,0.1-13.5,0-20.2c0-2,0-2,2.4-2.1
	c2.9-0.1,2.9-0.1,2.9,2C188.9,63.8,188.9,64.2,188.9,65.2z"/>
<path class="st0" d="M280.4,64.8c2.5-3.3,5.2-4.8,8.9-4.3c1.4,0.2,2,0.7,1.5,2.3c-0.7,1.8-0.7,3.7-3.8,3.1c-3-0.6-5.7,2.2-6.2,5.5
	c-0.6,4-0.3,8.1-0.2,12.2c-0.1,2-0.5,1.8-2.7,1.9c-2,0.1-2.8,0-2.8-1.9c0.1-6.7,0.1-13.5,0-20.2c0-1.9,0.5-2.4,2.4-2.4
	c1.5,0.1,2.9-0.3,2.9,2.3C280.3,63.6,280.4,63.9,280.4,64.8z"/>
<path class="st1" d="M327.4,26.7c-1.2,0.9-2,1.5-2.8,2c-4.6,2.6-9.9-0.2-10.2-5.5c-0.2-3.7,0-7.5-0.1-11.2c0-1.4,0.7-1.4,1.7-1.4
	c1,0,1.8,0,1.8,1.4c-0.1,3.1-0.1,6.2,0,9.2c0.1,3.5,1.3,5,4,5.2c2.7,0.2,5-1.8,5.2-4.9c0.2-3,0.1-6,0.1-9c0-1.2,0.1-2,1.7-2
	c1.6,0,1.7,0.7,1.7,2c0,4.7,0,9.5,0,14.2c0,0.9,0.6,2.3-1.3,2.3C327.7,29.1,327.2,28.7,327.4,26.7z"/>
<path class="st1" d="M289.4,27.3c0,1.3-0.3,1.7-1.7,1.7c-1.2,0-1.8-0.2-1.8-1.6c0.1-7.9,0.1-15.8,0-23.7c0-1.3,0.4-1.7,1.7-1.7
	c1.5-0.1,1.8,0.6,1.8,1.9C289.3,7.8,289.3,23.4,289.4,27.3z"/>
<path class="st1" d="M227.4,27.2c0,1.4-0.3,1.9-1.8,1.9c-1.6,0-1.7-0.7-1.7-2c0-7.7,0-15.4,0-23.2c0-1.4,0.4-1.9,1.8-1.9
	c1.6,0,1.7,0.8,1.7,2C227.3,7.9,227.3,23.3,227.4,27.2z"/>
<g>
	<path class="st2" d="M73.9,19.3c5,4.2,8.3,9.4,10.4,15.5c0.5,1.4,1.2,2.6,2.4,3.6c8.5,6.9,11.8,18,8.7,28.5
		c-3.1,10.3-12.2,17.6-22.9,18.7c-5.7,0.5-11.5,0.2-17.2,0.2c-9.2,0-18.5-0.1-27.7-0.1c0.8-1.2,2.1-0.9,3.2-1c4.7-0.1,9.3,0,14,0
		c3.8,0,3.8,0,3.8-3.9c0-2.7,0-5.3,0-8c0-1.8-0.7-2.5-2.5-2.5c-4.7,0-9.5,0-14.2,0c-1.2,0-2.5,0.2-3.5-0.8c0.7-1.7,2.2-1.1,3.4-1.1
		c12.6-0.1,25.1,0,37.7,0c2.4,0,4.6-0.4,6.5-2.1c2.9-2.5,3.8-5.7,3-9.2c-0.7-3.5-3-6-6.5-6.8c-2.5-0.6-3.3-1.9-3.3-4.4
		c-0.2-5.6-3-10.1-6.6-14.2c-0.5-0.8-0.2-1.5,0.3-2c3.3-3.4,6.5-6.8,10-10C73.1,19.3,73.5,19.3,73.9,19.3z"/>
	<path class="st3" d="M12.9,80.2C-0.5,70.4-1.3,50,11.2,39.2c0.9-0.8,1.8-1.5,2.7-2.2c0.6-1.1,1.5-1.8,2.5-2.3
		c5.8-2.8,11.9-3.6,18.2-2.4c5.3,1.4,10.1,3.8,13.9,7.9c2.1,2.3,2.2,3,0.1,5.2c-2.6,2.7-5.3,5.3-7.9,7.9c-2.1,2-2.4,2-4.4-0.1
		c-3.5-3.6-7.9-4.5-11.7-2.5c-6.1,3.2-6.9,11.3-1.6,15.7c0.7,0.6,1.6,0.9,2,1.8c0,0.7-0.5,1.2-1,1.7c-3.1,3.1-6.2,6.2-9.3,9.3
		C14.2,79.7,13.7,80.2,12.9,80.2z"/>
	<path class="st4" d="M34.7,32.9c-7.4-1.4-14.4-0.1-20.8,4c7.6-27.2,40.6-35.4,60-17.7C70,23.1,66.1,27,62.2,30.8
		c-1,0.5-1.5-0.3-2.2-0.7c-8.1-4.5-16.1-4-23.4,1.8C36,32.3,35.4,32.7,34.7,32.9z"/>
	<path class="st5" d="M24.8,68.4L24.8,68.4c-4,3.9-7.9,7.9-11.9,11.8c4.3,3.5,9.3,5.1,14.7,5.5c6.6,0,13.1-0.1,19.7,0
		c1.6,0,2.2-0.5,2.2-2.1c-0.1-3.9-0.1-7.8,0-11.7c0.1-2-0.6-2.5-2.5-2.5c-6.1,0.1-12.3,0-18.4-0.1C27.2,69,26,68.7,24.8,68.4
		C24.8,68.4,24.8,68.4,24.8,68.4z"/>
</g>
<path class="st6" d="M80,58.4c-0.3-4.6-3.6-8.4-8.3-9.4c-1.2-0.2-2-0.3-1.9-1.9c0.2-6.7-2.7-12.1-7.6-16.4c-1-0.6-1.9-1.3-3-1.9
	c-8.1-4.6-18.8-2.8-24.6,4c5.6,1.4,10.5,4.2,14.4,8.5c1,1.1,1,1.8-0.1,2.9c-3.1,2.9-6.1,5.9-9,9c-1.2,1.3-1.8,1.3-2.9-0.2
	c-2.4-3.4-6-4.8-10.1-4c-4.1,0.8-6.8,3.4-7.9,7.5c-1.2,4.6,0.7,8.7,5.6,11.8c0,0,0,0,0,0c1.2,0.3,2.5,0.6,3.7,0.8
	c13.3,0,26.7,0,40-0.1c1.5,0,3,0,4.5-0.4C77.4,67.3,80.3,63.2,80,58.4z"/>
<path class="st0" d="M143.1,49.9c-3.6-0.1-7.2,0.1-10.7-0.1c-1.8-0.1-2,0.7-2,2.2c0.1,5.2,0,25.2,0,30c0,3.9,0,3.5,3.6,3.5
	c1.5,0,2.1-0.3,2-1.9c-0.1-3.2,0.1-6.3-0.1-9.5c-0.1-2.1,0.7-2.6,2.6-2.5c1.6,0.1,3.2,0.1,4.7,0c6.5-0.2,11.1-4.8,11-11.1
	C154.3,54.6,149.6,50.1,143.1,49.9z M143.9,66.3c-0.7,0.1-1.5,0.1-2.2,0.1c-5.7,0-5.7,0-5.7-5.7c0-5.5,0-5.5,5.4-5.5
	c0.9,0,1.8,0,2.7,0.2c2.8,0.6,4.6,2.8,4.6,5.4C148.8,63.6,146.8,65.8,143.9,66.3z"/>
<path class="st7" d="M259.5,70.3c-1.7,0-3.3,0-5,0c-1.2,0-1.5-0.4-0.9-1.5c1.2-2.3,3.1-3.7,5.7-3.7c2.6-0.1,4.7,0.8,6.1,3.1
	c0.7,1.3,0.8,2.2-1.2,2.1C262.7,70.3,261.1,70.3,259.5,70.3z"/>
<path class="st0" d="M178.4,82.7c0.1-3.9,0-7.8,0-11.7c0-5.1-2-8.3-6.2-9.8c-4.8-1.8-11.7-0.4-14.4,2.9c-0.3,0.4-0.9,0.9-0.5,1.2
	c1.1,0.9,2.2,1.7,3.5,2.4c0.9,0.5,1.2-0.7,1.7-1.1c2.3-1.7,4.9-2.1,7.5-0.9c2.1,0.9,3.1,2.6,2.9,5.1c-3.8-1.3-7.5-1.8-11.3-0.4
	c-3.5,1.3-5.4,3.9-5.5,7.2c-0.1,3.6,1.9,6.6,5.5,7.8c4.2,1.5,8,0.8,11.2-3.2c0.3,3.3,0.3,3.2,3.7,3.2
	C179.2,85.6,178.4,83.9,178.4,82.7z M172.2,78.3c-1.3,2.2-3.2,3.3-5.2,3.3c-3,0-5-1.5-5.2-3.4c-0.2-1.9,1.5-3.8,3.9-4.2
	c1.6-0.3,3.3-0.3,4.9,0.3C173.2,75.1,173.6,75.9,172.2,78.3z"/>
<path class="st0" d="M219.9,12.1c0-1.2-0.5-1.4-1.6-1.6c-1.8-0.2-1.5,1.2-1.8,2.3c-4.9-3.7-9.1-3.6-12.4-0.1
	c-3.5,3.7-3.6,10-0.3,13.9c3.3,3.8,7.5,3.9,12.8,0.1c-0.1,3.2-0.4,6.1-3.7,7.3c-3,1.1-5.5,0.4-7.4-2.3c-0.9-1.3-1.8,0-2.6,0.3
	c-1.3,0.4-0.4,1.2,0,1.8c2,3.2,6,4.6,10.1,3.6c4-1,6.6-4.1,6.7-8.3C219.9,23.4,219.8,17.8,219.9,12.1z M210.7,26.5
	c-3.3,0-5.9-2.9-5.9-6.7c0-3.8,2.6-6.6,6-6.6c2.1,0,5.8,2.9,5.7,6.6C216.6,23.6,214,26.5,210.7,26.5z"/>
<path class="st0" d="M351.8,26.7c0.1-7.7,0-15.3,0.1-23c0-1.4-0.5-1.7-1.7-1.7c-1.2,0-1.9,0.1-1.8,1.6c0.1,2.9,0,5.8,0,9
	c-4.6-3.5-9-3.4-12.2,0c-3.5,3.7-3.7,10-0.3,13.9c3.3,3.8,7.6,3.9,12.8,0.2c-0.2,1.5,0.2,2.4,1.9,2.3
	C352.5,28.9,351.8,27.6,351.8,26.7z M342.8,26.5c-3.3,0.1-6-2.8-6-6.6c0-3.8,2.5-6.7,5.9-6.7c3.3,0,5.8,2.8,5.9,6.5
	C348.6,23.5,346.2,26.4,342.8,26.5z"/>
<path class="st0" d="M235.3,20.5c1.9,0.1,8.7,0,11,0.1c2,0.1,2.2-0.7,2-2.3c-0.4-4.1-3.1-7.2-7-8c-4.1-0.8-7.8,1-9.8,4.7
	c-2.4,4.6-1.1,10.5,2.9,13.1c3.9,2.6,9.2,1.9,12-1.5c0.5-0.6,1.6-1.4,0.6-2.2c-0.8-0.6-1.9-1.7-3.1,0c-1.3,1.9-3.4,2.4-5.6,1.9
	c-2.2-0.5-3.6-1.9-4.3-4.1C233.7,21,233.8,20.4,235.3,20.5z M235.5,14.9c2.5-2.7,6.7-2.3,8.5,0.7c0.7,1.2,1,2.2-1,2
	c-1.2-0.1-5.5,0-6.4,0c-1.5,0-1.7,0.1-2.1-0.5C233.9,16.3,234.9,15.5,235.5,14.9z"/>
<path class="st0" d="M168.3,10c-5.4,0-9.4,4.3-9.4,9.9c0,5.6,4.1,9.7,9.6,9.7c5.4,0,9.5-4.3,9.4-9.9C177.8,14.1,173.7,10,168.3,10z
	 M168.3,26.5c-3.3,0-6-2.9-6-6.6c0-3.8,2.8-6.9,6.1-6.8c3.3,0.1,5.9,3.1,5.9,6.8C174.3,23.6,171.7,26.5,168.3,26.5z"/>
<path class="st0" d="M189.3,10c-5.4,0-9.5,4.2-9.5,9.8c0,5.6,4.1,9.8,9.5,9.8c5.4,0,9.5-4.2,9.5-9.8C198.8,14.2,194.7,10,189.3,10z
	 M189.3,26.5c-3.3,0-5.9-2.9-6-6.7c0-3.7,2.6-6.7,5.9-6.7c3.4-0.1,6.1,3,6.1,6.8C195.3,23.6,192.6,26.5,189.3,26.5z"/>
<path class="st0" d="M301.8,10c-5.4,0-9.5,4.2-9.5,9.8c0,5.6,4.1,9.8,9.5,9.7c5.4,0,9.5-4.2,9.5-9.8C311.3,14.2,307.2,10,301.8,10z
	 M302,26.5c-3.3,0.1-6.1-2.8-6.1-6.5c-0.1-3.8,2.6-6.9,6-6.9c3.3,0,6,3,6,6.6C307.9,23.5,305.3,26.4,302,26.5z"/>
</svg>
