<?xml version="1.0" encoding="UTF-8" standalone="no"?>
<!-- Generator: Adobe Illustrator 21.0.2, SVG Export Plug-In . SVG Version: 6.00 Build 0)  -->

<svg
   xmlns:dc="http://purl.org/dc/elements/1.1/"
   xmlns:cc="http://creativecommons.org/ns#"
   xmlns:rdf="http://www.w3.org/1999/02/22-rdf-syntax-ns#"
   xmlns:svg="http://www.w3.org/2000/svg"
   xmlns="http://www.w3.org/2000/svg"
   xmlns:sodipodi="http://sodipodi.sourceforge.net/DTD/sodipodi-0.dtd"
   xmlns:inkscape="http://www.inkscape.org/namespaces/inkscape"
   version="1.1"
   id="Layer_1"
   x="0px"
   y="0px"
   viewBox="0 0 410.03262 102.30395"
   xml:space="preserve"
   sodipodi:docname="gcp-logo.svg"
   width="410.03262"
   height="102.30395"
   inkscape:version="0.92.2 (5c3e80d, 2017-08-06)"><metadata
     id="metadata99"><rdf:RDF><cc:Work
         rdf:about=""><dc:format>image/svg+xml</dc:format><dc:type
           rdf:resource="http://purl.org/dc/dcmitype/StillImage" /><dc:title></dc:title></cc:Work></rdf:RDF></metadata><defs
     id="defs97" /><sodipodi:namedview
     pagecolor="#ffffff"
     bordercolor="#666666"
     borderopacity="1"
     objecttolerance="10"
     gridtolerance="10"
     guidetolerance="10"
     inkscape:pageopacity="0"
     inkscape:pageshadow="2"
     inkscape:window-width="1920"
     inkscape:window-height="1001"
     id="namedview95"
     showgrid="false"
     fit-margin-top="0"
     fit-margin-left="0"
     fit-margin-right="0"
     fit-margin-bottom="0"
     inkscape:zoom="0.472"
     inkscape:cx="204.175"
     inkscape:cy="41.6"
     inkscape:window-x="-9"
     inkscape:window-y="-9"
     inkscape:window-maximized="1"
     inkscape:current-layer="Layer_1" /><style
     type="text/css"
     id="style2">
	.st0{fill:#757D80;}
	.st1{fill:#767E81;}
	.st2{fill:#FEFEFE;}
	.st3{fill:#DD4525;}
	.st4{fill:#F4B400;}
	.st5{fill:#4F7ABE;}
	.st6{fill:#D09C14;}
	.st7{fill:#4E6FA9;}
	.st8{fill:#C34227;}
	.st9{fill:#FEFDFD;}
	.st10{fill:#FEFDFC;}
	.st11{fill:#FEFEFD;}
	.st12{fill:#FDFDFE;}
	.st13{fill:#4C76BC;}
	.st14{fill:#CDCCC8;}
	.st15{fill:#C9C7C6;}
	.st16{fill:#CAC8C7;}
</style><path
     class="st0"
     d="m 293.675,68.903946 c 2.6,-3.2 5.7,-4.8 9.7,-4.2 5,0.7 8,3.9 8.2,8.9 0.2,5.5 0.1,11 0.1,16.5 0,0.7 -0.2,0.9 -1,1 -3.8,0.2 -3.8,0.2 -3.8,-3.6 -0.1,-4.4 0.3,-8.9 -0.2,-13.3 -0.3,-2.8 -1.7,-4.5 -4.1,-5 -2.7,-0.6 -5.1,-0.1 -6.9,2.2 -1.5,1.9 -1.9,4.1 -1.9,6.4 0,4 0,7.9 0,11.9 0,1 -0.2,1.4 -1.3,1.4 -3.4,0 -3.4,0 -3.4,-3.5 0,-6.9 0,-13.8 0,-20.7 0,-1.2 0.2,-1.7 1.5,-1.5 1,0.2 2.3,-0.5 2.9,0.3 0.4,0.7 0.2,1.9 0.2,3.2 z"
     id="path4"
     inkscape:connector-curvature="0"
     style="fill:#757d80" /><path
     class="st0"
     d="m 273.575,77.203946 c 0,-2.1 -0.1,-4.1 0,-6.2 0,-1.1 -0.4,-1.4 -1.4,-1.4 -3.4,0 -3.4,-0.1 -3.1,-3.5 0.1,-0.7 0.3,-0.8 1,-0.9 1.1,-0.1 2.6,0.5 3.3,-0.3 0.7,-0.9 0.2,-2.4 0.2,-3.6 0,-0.2 0,-0.3 0,-0.5 0,-3.9 0,-3.9 3.9,-3.6 0.7,0 1,0.3 1,1 0,1.9 0,3.8 0,5.7 0,0.9 0.2,1.3 1.2,1.2 1.3,-0.1 2.6,0 3.9,0 1,-0.1 1.2,0.3 1.2,1.2 0,3.2 0.1,3.2 -3.1,3.2 -3.1,0 -3.1,0 -3.1,3.1 0,3.3 0,6.6 0,9.9 0,3.4 1.4,4.5 4.7,4 0.7,-0.1 1.1,0 1.3,0.7 0.1,0.4 0.3,0.8 0.5,1.1 0.9,2.3 0.9,2.4 -1.6,2.7 -2.2,0.2 -4.4,0.1 -6.4,-1.2 -2.5,-1.5 -3.2,-4 -3.3,-6.7 -0.2,-1.7 -0.2,-3.8 -0.2,-5.9 0,0 0,0 0,0 z"
     id="path6"
     inkscape:connector-curvature="0"
     style="fill:#757d80" /><path
     class="st0"
     d="m 149.975,27.203946 c -0.1,4.3 -2,7.7 -6,9.5 -4.5,2 -8.8,1.4 -12.7,-1.5 -5.2,-4 -6.1,-11.3 -2.2,-16.5 3.9,-5.1 11.4,-6.3 16.4,-2.6 0.5,0.3 1.7,0.5 0.9,1.7 -1.1,1.6 -1.7,1.8 -2.8,1 -3.7,-2.5 -8.6,-1.8 -11.3,1.5 -2.9,3.5 -2.7,8.8 0.5,11.9 3.1,3 8.1,3.2 11.4,0.5 1.1,-0.9 1.7,-2 2.1,-3.4 0.3,-0.9 0.1,-1.3 -1,-1.3 -1.8,0.1 -3.6,-0.1 -5.4,0 -1.3,0.1 -1.3,-0.6 -1.2,-1.5 0,-0.9 -0.3,-1.9 1.3,-1.8 2.8,0.1 5.6,0 8.3,0 1.8,0.1 1.8,0.1 1.7,2.5 z"
     id="path8"
     inkscape:connector-curvature="0"
     style="fill:#757d80" /><path
     class="st0"
     d="m 345.675,69.603946 c 2.4,-4 5.6,-5.3 9.7,-4.7 1.1,0.1 1.8,0.5 1.1,1.8 -0.1,0.2 -0.2,0.5 -0.3,0.7 -0.5,1.6 -1.1,2.5 -3.2,2.2 -3.8,-0.4 -6.9,2.8 -6.9,6.8 -0.1,4.4 -0.1,8.7 0,13.1 0,1.2 -0.4,1.6 -1.6,1.5 -3.4,-0.1 -3.4,0 -3.4,-3.4 0,-6.9 0,-13.9 0,-20.8 0,-1.2 0.3,-1.5 1.5,-1.5 3.2,0 3.2,0 3.2,3.1 -0.1,0.3 -0.1,0.5 -0.1,1.2 z"
     id="path10"
     inkscape:connector-curvature="0"
     style="fill:#757d80" /><path
     class="st0"
     d="m 254.175,69.503946 c 2.3,-3.7 5.4,-5.1 9.4,-4.7 1.8,0.2 1.9,0.3 1.2,2.1 -0.1,0.2 -0.2,0.4 -0.2,0.6 -0.4,1.6 -1,2.3 -3,2.1 -3.8,-0.4 -7,2.7 -7.1,6.7 -0.1,4.4 -0.1,8.8 0,13.1 0,1.3 -0.3,1.7 -1.6,1.7 -3.3,-0.1 -3.3,0 -3.3,-3.3 0,-7 0,-13.9 0,-20.9 0,-1.2 0.3,-1.6 1.5,-1.6 3.1,0.1 3.1,0 3.1,3.2 -0.1,0.2 -0.1,0.5 0,1 z"
     id="path12"
     inkscape:connector-curvature="0"
     style="fill:#757d80" /><path
     class="st0"
     d="m 391.075,24.803946 c 1.6,-1.6 3.3,-2.5 5.5,-2.1 1.2,0.2 2.2,0.6 2.8,1.6 0.5,0.7 0.7,0.8 1.3,0.1 0.9,-1.1 2.2,-1.6 3.6,-1.8 2.9,-0.3 5.1,1.2 5.5,4.1 0.5,3.2 0.1,6.5 0.2,9.7 0,1.3 -0.9,0.8 -1.6,0.9 -0.6,0.1 -1.2,0.1 -1.2,-0.9 0,-2.6 0.1,-5.3 0,-7.9 -0.1,-2.1 -0.9,-3.1 -2.5,-3.4 -1.7,-0.3 -3.2,0.6 -3.9,2.3 -0.3,0.7 -0.4,1.5 -0.4,2.3 0,2.1 -0.1,4.2 0,6.3 0.1,1.2 -0.5,1.3 -1.4,1.3 -0.9,0 -1.4,-0.2 -1.3,-1.3 0.1,-2.5 0,-5 0,-7.6 0,-2.1 -0.7,-3 -2.3,-3.4 -1.7,-0.3 -3.2,0.4 -4,2.1 -0.4,0.8 -0.5,1.7 -0.5,2.5 0,2.2 0,4.3 0,6.5 0,1.1 -0.6,1 -1.3,1 -0.7,0 -1.5,0.3 -1.5,-1 0,-4.1 0,-8.2 0,-12.4 0,-0.9 0.5,-1 1.2,-0.9 0.6,0.1 1.6,-0.4 1.5,0.9 0.2,0.5 0.3,0.7 0.3,1.1 z"
     id="path14"
     inkscape:connector-curvature="0"
     style="fill:#757d80" /><path
     class="st0"
     d="m 227.775,26.903946 c 0.2,-4.4 2,-7.9 6.1,-9.8 3.9,-1.8 7.7,-1.5 11.2,1.1 1.4,1.1 1.3,1.2 0,2.4 -0.6,0.5 -0.9,0.4 -1.4,-0.1 -2.6,-2.3 -6.5,-2.6 -9.5,-0.7 -3,1.8 -4.4,5.7 -3.4,9.3 0.9,3.5 3.6,5.8 7.1,6 2.4,0.1 4.5,-0.5 6.2,-2.2 1.1,-1.2 1.5,-0.1 2.1,0.4 1,0.8 0.1,1.3 -0.4,1.6 -3.6,3 -7.6,3.6 -11.8,1.7 -4.2,-1.6 -6,-5.2 -6.2,-9.7 z"
     id="path16"
     inkscape:connector-curvature="0"
     style="fill:#757d80" /><path
     class="st0"
     d="m 361.275,30.103946 c 0,-4.4 3.1,-7.5 7.3,-7.6 4.3,0 7.4,3.3 7.3,7.8 0,4.3 -3.2,7.5 -7.4,7.5 -4.1,0 -7.2,-3.2 -7.2,-7.7 z"
     id="path18"
     inkscape:connector-curvature="0"
     style="fill:#757d80" /><path
     class="st0"
     d="m 280.475,35.703946 c -1.8,1.6 -3.5,2.4 -5.7,2 -2.6,-0.5 -4.2,-2.2 -4.3,-4.9 -0.1,-2.9 0,-5.9 -0.1,-8.8 0,-1.1 0.6,-1 1.3,-1 0.7,0 1.5,-0.3 1.5,1 -0.1,2.4 0,4.7 0,7.1 0,2.9 1.1,4.2 3.3,4.2 2.1,0 3.8,-1.8 3.8,-4.2 0.1,-2.3 0.1,-4.6 0,-6.9 -0.1,-1.2 0.6,-1.1 1.4,-1.2 0.9,0 1.4,0.1 1.4,1.2 -0.1,3.9 0,7.7 0,11.6 0,0.8 0.2,1.6 -1.1,1.5 -0.9,0 -2,0.2 -1.5,-1.6 z"
     id="path20"
     inkscape:connector-curvature="0"
     style="fill:#757d80" /><path
     class="st0"
     d="m 201.875,26.003946 c 0,-3.3 0.1,-6.7 0,-10 0,-1.4 0.7,-1.3 1.6,-1.3 0.8,0.1 1.9,-0.5 1.8,1.2 -0.1,6.7 -0.1,13.5 0,20.2 0,1.6 -1,1.1 -1.8,1.2 -0.9,0.1 -1.7,0.1 -1.6,-1.3 0.1,-3.3 0,-6.6 0,-10 z"
     id="path22"
     inkscape:connector-curvature="0"
     style="fill:#757d80" /><path
     class="st0"
     d="m 354.175,31.403946 c 0,-1.6 0,-3.2 0,-4.8 0,-0.9 -0.3,-1.2 -1.2,-1.1 -0.9,0.1 -1.6,0.1 -1.6,-1.3 0,-1.3 0.7,-1.3 1.5,-1.2 1.5,0.2 1.2,-0.8 1.2,-1.7 0.1,-3.5 2.6,-5.7 6,-5 0.4,0.1 1.3,-0.2 1,0.7 -0.3,0.6 0,1.8 -1.3,1.7 -2.3,-0.1 -3.1,0.9 -3.1,3.1 0,0.8 0.3,1.1 1.1,1 0.4,0 0.8,0 1.2,0 1,-0.1 1.5,0.1 1.5,1.3 0,1.2 -0.5,1.2 -1.4,1.2 -2.3,0 -2.3,0 -2.3,2.4 0,2.8 0,5.6 0,8.3 0,1.1 -0.5,1.1 -1.3,1.1 -0.8,0 -1.4,-0.1 -1.3,-1.1 0.1,-1.4 0,-3 0,-4.6 z"
     id="path24"
     inkscape:connector-curvature="0"
     style="fill:#757d80" /><path
     class="st0"
     d="m 343.975,30.003946 c 0,-0.8 0,-1.7 0,-2.5 0.1,-1.3 0,-2.3 -1.8,-2.1 -1.1,0.2 -0.7,-0.8 -0.8,-1.4 -0.1,-0.7 0.1,-1.1 0.9,-1 1.6,0.3 1.8,-0.6 1.7,-1.8 0,-0.4 0,-0.8 0,-1.2 -0.1,-1 0.3,-1.3 1.3,-1.3 0.9,0 1.5,0.1 1.3,1.2 0,0.2 0,0.3 0,0.5 0,2.5 0,2.6 2.5,2.6 1,0 1.1,0.4 1.1,1.2 0,0.8 -0.1,1.3 -1.1,1.3 -2.4,0 -2.4,0.1 -2.4,2.6 0,1.5 0,3 0,4.5 0.1,1.9 0.6,2.4 2.5,2.5 1.3,0 1.2,1 1.4,1.7 0.2,0.8 -0.7,0.7 -1.2,0.8 -3.3,0.4 -5.2,-1.3 -5.3,-4.6 -0.1,-1 -0.1,-2 -0.1,-3 z"
     id="path26"
     inkscape:connector-curvature="0"
     style="fill:#757d80" /><path
     class="st1"
     d="m 251.675,26.903946 c 0,3 0,6.1 0,9.1 0,1.1 -0.4,1.4 -1.4,1.4 -0.9,0 -1.4,-0.2 -1.4,-1.3 0,-6.1 0.1,-12.2 0,-18.3 0,-1.2 0.6,-1.2 1.5,-1.3 1.1,0 1.3,0.4 1.3,1.3 0,3.1 0,6.1 0,9.1 z"
     id="path28"
     inkscape:connector-curvature="0"
     style="fill:#767e81" /><path
     class="st1"
     d="m 325.175,27.003946 c 0,3 -0.1,6.1 0,9.1 0,1.2 -0.6,1.2 -1.5,1.3 -1,0.1 -1.3,-0.3 -1.3,-1.3 0,-6.1 0,-12.1 0,-18.2 0,-1.1 0.4,-1.4 1.4,-1.4 1.1,0 1.4,0.3 1.4,1.4 -0.1,3 0,6.1 0,9.1 z"
     id="path30"
     inkscape:connector-curvature="0"
     style="fill:#767e81" /><path
     class="st0"
     d="m 380.875,24.903946 c 1.3,-1.5 2.8,-2.4 4.7,-2.2 0.5,0.1 1.3,0 1.2,0.6 -0.2,0.8 -0.1,2 -1.3,2.1 -3.7,0.4 -4.6,1.3 -4.6,5 0,1.9 -0.1,3.8 0,5.7 0,1.1 -0.5,1.2 -1.3,1.1 -0.8,0 -1.5,0.2 -1.5,-1.1 0.1,-3.9 0,-7.8 0,-11.7 0,-0.8 -0.1,-1.5 1.1,-1.5 1,0 1.7,0.1 1.5,1.4 0.1,0.2 0.1,0.3 0.2,0.6 z"
     id="path32"
     inkscape:connector-curvature="0"
     style="fill:#757d80" /><path
     class="st0"
     d="m 210.975,53.703946 c -4.4,-0.5 -8.7,-0.1 -13.1,-0.2 -1.2,0 -1.5,0.4 -1.5,1.5 0.1,5.8 0,11.5 0,17.3 0,5.1 0,10.3 0,15.4 0,3.4 0,3.3 3.4,3.4 1.2,0 1.5,-0.3 1.5,-1.5 -0.1,-4.2 0,-8.3 0,-12.5 0,-0.9 0.3,-1.2 1.2,-1.2 2.7,0 5.3,0.1 8,-0.1 5.9,-0.6 10.4,-5.1 10.5,-10.8 0.1,-5.8 -4.2,-10.6 -10,-11.3 z m -1.2,17.4 c -2.5,0.2 -5,0.1 -7.5,0.1 -0.9,0 -1,-0.5 -1,-1.2 0,-1.8 0,-3.6 0,-5.4 0,-1.8 0.1,-3.6 0,-5.4 0,-1 0.3,-1.2 1.2,-1.2 2.3,0.1 4.5,0 6.8,0 3.8,0.1 6.7,2.9 6.8,6.4 0,3.5 -2.6,6.4 -6.3,6.7 z"
     id="path34"
     inkscape:connector-curvature="0"
     style="fill:#757d80" /><path
     class="st0"
     d="m 244.775,74.203946 c -0.2,-4.1 -2.3,-7.1 -6.1,-8.7 -3.1,-1.3 -6.3,-1.4 -9.5,-0.3 -2.4,0.8 -4.3,2.3 -5.5,4.4 -0.2,0.3 -0.7,0.9 -0.3,1.1 1.3,0.7 2.6,1.2 3.9,1.8 0.3,0.1 0.4,-0.4 0.6,-0.6 1.2,-2 3.1,-2.8 5.3,-3 4.2,-0.3 7.5,2.8 6.9,6.7 -0.4,-0.1 -0.8,-0.3 -1.2,-0.4 -4.4,-1.4 -8.7,-1.5 -12.8,1 -2.8,1.7 -4.1,4.2 -4,7.5 0.2,3.6 2.1,6.1 5.4,7.4 3.8,1.4 9,1.2 12.6,-3.5 0.4,3.7 0.4,3.7 3.7,3.5 0.8,0 1,-0.3 1,-1.1 0.1,-5.3 0.2,-10.6 0,-15.8 z m -4.6,6.7 c -0.5,4.8 -7.1,8.1 -11.2,5.5 -2.5,-1.5 -2.5,-4.9 0,-6.7 1.6,-1.2 3.5,-1.5 5.5,-1.4 1.6,0 3.3,0.3 4.8,1 0.8,0.4 1,0.9 0.9,1.6 z"
     id="path36"
     inkscape:connector-curvature="0"
     style="fill:#757d80" /><path
     class="st0"
     d="m 321.675,79.303946 c 4.6,0.1 9.2,0 13.7,0.1 1.3,0 1.7,-0.4 1.6,-1.6 -0.1,-1.5 0,-3 -0.3,-4.5 -0.8,-4 -2.7,-7.2 -6.9,-8.3 -4.3,-1.1 -8.3,-0.3 -11.1,3.4 -3.9,5.2 -4,11 -1.4,16.8 1.2,2.8 3.6,4.6 6.6,5.3 3.9,1 7.7,0.5 11.4,-1.1 0.5,-0.2 0.7,-0.5 0.7,-1 0,-1.2 0,-2.4 0,-3.8 -0.9,0.3 -1.6,0.6 -2.3,0.9 -2.1,0.9 -4.4,1.2 -6.6,1.1 -3.7,-0.2 -6,-2.3 -6.5,-5.9 -0.2,-1.1 0,-1.4 1.1,-1.4 z m -0.8,-5.4 c 0.9,-3.5 3.8,-5.5 7.1,-4.8 2.3,0.5 4.1,2.8 4.1,5.1 0,0.8 -0.4,0.8 -1,0.8 -1.6,0 -3.2,0 -4.8,0 -1.5,0 -3.1,-0.1 -4.6,0 -1,0.1 -1,-0.3 -0.8,-1.1 z"
     id="path38"
     inkscape:connector-curvature="0"
     style="fill:#757d80" /><path
     class="st0"
     d="m 198.975,22.903946 c -1,0 -2.3,-0.7 -2.8,1 -3,-2.1 -6.2,-1.9 -8.7,0.5 -2.7,2.5 -3.3,6.5 -1.5,9.6 1,1.8 2.6,3 4.6,3.6 2.1,0.6 4,0 5.8,-1.2 0.2,2.8 -0.5,4.3 -2.2,5 -1.6,0.7 -3.7,0.4 -4.6,-1 -1,-1.5 -1.8,-1.1 -3,-0.6 -0.9,0.4 -0.8,0.8 -0.4,1.5 1.6,2.7 4.8,4 8,3.3 3.5,-0.8 5.5,-3.4 5.6,-7.5 0.1,-4.2 0,-8.4 0,-12.7 -0.1,-0.5 0.3,-1.5 -0.8,-1.5 z m -6.4,11.9 c -2.4,0 -4.3,-2.1 -4.3,-4.7 0,-2.6 2,-4.6 4.4,-4.6 2.3,0 4,2 4,4.7 -0.1,2.6 -1.9,4.6 -4.1,4.6 z"
     id="path40"
     inkscape:connector-curvature="0"
     style="fill:#757d80" /><path
     class="st0"
     d="m 299.575,35.603946 c 0,-6 0,-11.9 0,-17.9 0,-1.1 -0.4,-1.3 -1.4,-1.2 -0.8,0 -1.5,0 -1.4,1.2 0.1,2.3 -0.1,4.6 0.2,7.1 -3.7,-2.8 -7.1,-2.8 -9.6,-0.2 -2.7,2.8 -2.9,7.6 -0.4,10.6 1.1,1.4 2.6,2.2 4.3,2.5 2.2,0.3 4.1,-0.6 5.8,-2.4 -0.4,1.6 0.2,2 1.5,2 1.5,0 1,-1 1,-1.7 z m -7.1,-0.2 c -2.6,0 -4.6,-2.3 -4.6,-5.2 0,-2.9 2.1,-5.2 4.7,-5.1 2.5,0.1 4.5,2.3 4.5,5.1 -0.1,2.9 -2.1,5.2 -4.6,5.2 z"
     id="path42"
     inkscape:connector-curvature="0"
     style="fill:#757d80" /><path
     class="st0"
     d="m 158.975,22.403946 c -4.4,0 -7.8,3.3 -7.8,7.7 0,4.3 3.5,7.8 7.8,7.7 4.3,0 7.7,-3.4 7.7,-7.6 0,-4.4 -3.3,-7.7 -7.7,-7.8 z m -0.1,12.4 c -2.4,0 -4.3,-2.2 -4.3,-4.8 0,-2.5 1.9,-4.5 4.3,-4.5 2.5,0 4.3,2 4.3,4.6 0,2.7 -1.9,4.7 -4.3,4.7 z"
     id="path44"
     inkscape:connector-curvature="0"
     style="fill:#757d80" /><path
     class="st0"
     d="m 175.875,22.403946 c -4.5,0 -7.8,3.2 -7.8,7.6 0,4.4 3.4,7.8 7.7,7.8 4.3,0 7.8,-3.5 7.8,-7.8 -0.1,-4.2 -3.4,-7.5 -7.7,-7.6 z m -0.2,12.4 c -2.4,-0.1 -4.2,-2.1 -4.2,-4.8 0,-2.7 1.9,-4.6 4.4,-4.5 2.4,0.1 4.2,2.1 4.2,4.6 0,2.6 -2,4.8 -4.4,4.7 z"
     id="path46"
     inkscape:connector-curvature="0"
     style="fill:#757d80" /><path
     class="st0"
     d="m 218.675,32.903946 c -0.6,-0.3 -0.8,0.5 -1.1,0.8 -1.8,1.5 -4.4,1.5 -5.9,-0.2 -0.6,-0.7 -0.7,-1.1 0.3,-1.5 2.7,-1 5.3,-2.2 8,-3.3 1,-0.4 1.2,-0.8 0.8,-1.8 -1.5,-3.3 -4.5,-5.1 -7.8,-4.4 -3.5,0.7 -5.8,3.6 -5.9,7.4 0,3.4 1.7,6.1 4.7,7.3 2.9,1.2 6.4,0.4 8.5,-1.8 0.3,-0.3 0.9,-0.7 0.6,-1.1 -0.7,-0.6 -1.5,-1.1 -2.2,-1.4 z m -6.2,-6.9 c 1.2,-0.7 2.6,-0.7 3.8,0 0.7,0.4 1.1,1 -0.1,1.4 -1.9,0.7 -3.7,1.5 -5.8,2.4 0,-1.9 0.8,-3 2.1,-3.8 z"
     id="path48"
     inkscape:connector-curvature="0"
     style="fill:#757d80" /><path
     class="st0"
     d="m 314.075,16.503946 c -2,0 -3.9,0.1 -5.9,0 -1.1,-0.1 -1.4,0.4 -1.3,1.4 0.1,3 0,6 0,8.9 0,3 0,6 0,8.9 0,1 0.1,1.6 1.4,1.6 1.2,0 1.3,-0.5 1.3,-1.5 -0.1,-1.8 0.1,-3.7 0,-5.6 -0.1,-1.2 0.4,-1.5 1.5,-1.4 1.1,0.1 2.2,0.1 3.2,0 3.6,-0.2 6.3,-2.9 6.3,-6.3 -0.1,-3.3 -2.8,-5.9 -6.5,-6 z m 3,8.3 c -0.6,0.8 -1.4,1.4 -2.4,1.5 -0.5,0 -1,0.1 -1.5,0.1 -3.6,0 -3.6,0 -3.6,-3.8 0.3,-0.9 -0.6,-2.9 0.4,-3.2 1.8,-0.5 4,-0.6 5.9,0.2 1.9,0.8 2.4,3.3 1.2,5.2 z"
     id="path50"
     inkscape:connector-curvature="0"
     style="fill:#757d80" /><path
     class="st0"
     d="m 340.075,28.303946 c -0.1,-2.7 -1.7,-4.7 -4.3,-5.4 -2.9,-0.8 -6,0.2 -7.3,2.3 -0.2,0.3 -0.9,0.8 -0.1,1.1 0.8,0.3 1.7,1.4 2.7,0 0.9,-1.2 2.9,-1.4 4.4,-0.7 1.4,0.6 2.1,1.7 2,3.4 -2.6,-0.9 -5.1,-1.2 -7.6,0.1 -1.8,1 -2.8,2.8 -2.5,4.7 0.3,2 1.5,3.3 3.5,3.9 2.5,0.7 4.7,0.1 6.6,-2.1 0.1,0.4 0.1,0.6 0.1,0.7 -0.2,1.1 0.5,1.2 1.3,1.2 1,0 1.2,-0.3 1.2,-1.2 -0.1,-2.8 0,-5.4 0,-8 z m -2.8,4.1 c -0.6,1.7 -2.5,3.1 -4.2,3 -1.5,0 -2.7,-1 -2.9,-2.1 -0.1,-1.2 0.8,-2.4 2.2,-2.8 1.4,-0.4 2.8,-0.3 4.2,0.2 0.9,0.3 1,0.8 0.7,1.7 z"
     id="path52"
     inkscape:connector-curvature="0"
     style="fill:#757d80" /><path
     class="st2"
     d="m 373.175,30.203946 c 0,3 -1.9,5.1 -4.6,5.2 -2.6,0 -4.7,-2.3 -4.7,-5.2 0,-2.9 2.1,-5.1 4.7,-5.1 2.7,0 4.6,2.2 4.6,5.1 z"
     id="path54"
     inkscape:connector-curvature="0"
     style="fill:#fefefe" /><path
     class="st0"
     d="m 261.075,22.603946 c -4.2,0 -7.3,3.2 -7.3,7.5 0,4.5 3,7.7 7.2,7.8 4.2,0.1 7.3,-3.1 7.4,-7.4 0,-4.6 -3,-7.9 -7.3,-7.9 z m 0,12.8 c -2.6,0 -4.8,-2.3 -4.7,-5.2 0,-2.8 2.1,-5.1 4.7,-5.1 2.6,0 4.6,2.2 4.6,5.2 0,2.9 -1.9,5.1 -4.6,5.1 z"
     id="path56"
     inkscape:connector-curvature="0"
     style="fill:#757d80" /><g
     id="g92"
     transform="translate(-45.825,-189.29605)"><path
       class="st3"
       d="m 145.7,211.8 c 4.7,8.2 9.5,16.4 14.2,24.6 1.5,2.7 1.5,5.6 -0.1,8.3 -8.2,14.2 -16.4,28.4 -24.6,42.6 -1.4,2.5 -3.7,3.8 -6.5,4.1 -6.7,0.1 -13.4,0 -20,0.1 0,-0.3 0,-0.5 0.1,-0.6 3.9,-4.5 6.1,-10.1 9.2,-15.1 0.9,-1.5 1.8,-3.1 2.7,-4.7 5.5,-9.8 11.1,-19.5 16.6,-29.3 0.7,-1.2 0.5,-2 -0.1,-3.1 -3.4,-6 -6.8,-12 -10.2,-18 -0.3,-0.5 -0.7,-1 -0.5,-1.7 0.3,-0.6 0.8,-0.8 1.3,-0.9 5.7,-1.9 11.3,-3.9 17,-5.9 0.2,-0.4 0.5,-0.5 0.9,-0.4 z"
       id="path58"
       inkscape:connector-curvature="0"
       style="fill:#dd4525" /><path
       class="st4"
       d="m 77.9,291.3 c -3,-0.2 -5.2,-1.8 -6.6,-4.4 -6.4,-11.2 -12.9,-22.3 -19.3,-33.5 -1.6,-2.8 -3.3,-5.7 -4.9,-8.5 -1.7,-2.9 -1.7,-5.9 0,-8.8 3.3,-5.7 6.6,-11.4 9.9,-17 0.8,1.5 0.9,3.2 1.7,4.7 3.2,5.4 6.3,10.8 9.5,16.2 5.6,9.6 11.3,19.3 16.9,28.9 0.7,1.3 1.6,1.7 3,1.7 6.7,0 13.4,0 20.1,0 0.8,0 1.7,-0.2 2.3,0.6 0.3,0.7 0.2,1.3 0,2 -1.1,5.4 -2.1,10.8 -3.1,16.2 -0.4,2.1 -0.5,2.2 -2.6,2.2 -8.4,0 -16.9,0 -25.3,0 -0.6,-0.2 -1.1,-0.2 -1.6,-0.3 z"
       id="path60"
       inkscape:connector-curvature="0"
       style="fill:#f4b400" /><path
       class="st5"
       d="m 57.6,217.6 c 4.6,-8.1 9.3,-16.2 14,-24.2 1.8,-3.1 4.8,-4.1 8.3,-4.1 9,0 18,0 27,0 6.5,0 13.1,0.1 19.6,0 4.4,-0.1 7.4,1.7 9.5,5.5 2.8,5.3 5.9,10.5 8.9,15.7 -0.1,0.1 -0.3,0.2 -0.4,0.1 -4.7,-1.1 -9.4,-0.4 -14.1,-0.6 -3,-0.1 -6,0 -8.9,-0.1 -11.1,0 -22.2,0 -33.3,0 -1.8,0 -2.9,0.5 -3.8,2.2 -3.2,5.7 -6.5,11.3 -9.8,17 -0.3,0.5 -0.6,1.1 -1.1,1.5 -0.8,0.4 -1.3,-0.1 -1.8,-0.5 -4.6,-4.1 -9.2,-8 -13.8,-12.1 -0.1,-0.1 -0.2,-0.2 -0.3,-0.4 z"
       id="path62"
       inkscape:connector-curvature="0"
       style="fill:#4f7abe" /><path
       class="st6"
       d="m 77.9,291.3 c 8.9,0 17.8,0 26.7,0 1.3,0 1.9,-0.3 2.1,-1.7 1,-5.7 2.2,-11.5 3.3,-17.2 0.1,-0.5 0.1,-1 0.1,-1.5 0.4,-0.4 0.9,-0.5 1.4,-0.5 2.7,0 5.3,0 8,0 0.5,0 1,0.1 1.4,0.5 -1.5,2.7 -3,5.5 -4.5,8.2 -1.5,2.7 -3.1,5.4 -4.6,8.2 -0.8,1.5 -1.7,2.8 -3.4,4.1 7,0 13.6,0 20.2,0 -0.5,0 -0.9,0.1 -1.4,0.1 -15.9,0 -31.9,0 -47.8,0 -0.5,-0.1 -1,0 -1.5,-0.2 z"
       id="path64"
       inkscape:connector-curvature="0"
       style="fill:#d09c14" /><path
       class="st7"
       d="m 57.6,217.6 c 1.2,0.6 2.1,1.5 3.1,2.4 4.1,3.5 8,7.3 12.3,10.6 0.3,0.5 0,1 -0.2,1.4 -1.3,2.4 -2.7,4.7 -4,7.1 -0.2,0.4 -0.4,0.8 -1,0.8 -3.3,-5.7 -6.7,-11.4 -10,-17.1 -0.7,-1.2 -0.8,-2.5 -0.9,-3.8 0.1,-0.5 0.3,-1 0.7,-1.4 z"
       id="path66"
       inkscape:connector-curvature="0"
       style="fill:#4e6fa9" /><path
       class="st8"
       d="m 121.1,209.6 c 6.7,0 13.4,0 20.1,0 1.3,0 2.5,0.6 3.7,1 0.3,0.4 0.7,0.7 0.7,1.2 -1.1,0.9 -2.5,1.1 -3.8,1.6 -4.6,1.6 -9.3,3.2 -13.9,4.8 -0.5,0.2 -1.1,0.2 -1.5,0.8 -0.5,0.1 -0.8,-0.3 -1,-0.6 -1.5,-2.5 -2.9,-5 -4.2,-7.5 -0.1,-0.5 -0.3,-0.9 -0.1,-1.3 z"
       id="path68"
       inkscape:connector-curvature="0"
       style="fill:#c34227" /><path
       class="st9"
       d="m 150.3,243.1 c -1.5,0 -2.8,-1.3 -2.8,-2.8 0,-1.5 1.4,-2.9 2.9,-2.8 1.5,0 2.8,1.4 2.7,3 0,1.5 -1.2,2.6 -2.8,2.6 z"
       id="path70"
       inkscape:connector-curvature="0"
       style="fill:#fefdfd" /><path
       class="st9"
       d="m 129.6,280.9 c 0,1.5 -1.4,2.9 -2.9,2.8 -1.5,-0.1 -2.7,-1.3 -2.7,-2.8 0,-1.6 1.3,-2.8 2.9,-2.8 1.4,0 2.7,1.3 2.7,2.8 z"
       id="path72"
       inkscape:connector-curvature="0"
       style="fill:#fefdfd" /><path
       class="st10"
       d="m 58.8,240.2 c 0,1.5 -1.1,2.8 -2.7,2.8 -1.6,0.1 -2.9,-1.1 -2.9,-2.7 0,-1.6 1.3,-2.9 2.8,-2.9 1.5,0.1 2.7,1.4 2.8,2.8 z"
       id="path74"
       inkscape:connector-curvature="0"
       style="fill:#fefdfc" /><path
       class="st11"
       d="m 79.7,283.7 c -1.5,0 -2.8,-1.4 -2.8,-2.9 0,-1.5 1.3,-2.7 2.8,-2.7 1.5,0 2.8,1.3 2.8,2.7 0.1,1.5 -1.3,2.9 -2.8,2.9 z"
       id="path76"
       inkscape:connector-curvature="0"
       style="fill:#fefefd" /><path
       class="st12"
       d="m 129.3,199.2 c 0,1.6 -1,2.6 -2.6,2.7 -1.6,0 -2.8,-1.1 -2.8,-2.7 0,-1.4 1.3,-2.6 2.7,-2.6 1.6,0 2.7,1.1 2.7,2.6 z"
       id="path78"
       inkscape:connector-curvature="0"
       style="fill:#fdfdfe" /><path
       class="st13"
       d="m 82.9,199.3 c 0,1.9 -1.4,3.5 -3.2,3.4 -1.5,-0.1 -3.4,-1.2 -3.3,-3.3 0.1,-2 1.4,-3.4 3.3,-3.4 2.1,0 3.2,1.2 3.2,3.3 z"
       id="path80"
       inkscape:connector-curvature="0"
       style="fill:#4c76bc" /><path
       class="st14"
       d="m 137.4,238.2 c -3.7,-6.4 -7.3,-12.9 -10.9,-19.3 -2,-3 -3.7,-6.1 -5.3,-9.3 -11.5,0 -23.1,0 -34.6,0 -0.8,0 -1.3,0.3 -1.7,1 -0.8,1.5 -1.7,3 -2.5,4.4 -3.1,5.2 -6.1,10.5 -9.2,15.7 -1.5,3.2 -3.4,6.3 -5.3,9.3 5.8,10 11.7,20.1 17.5,30.1 0.5,0.8 1.1,0.8 1.8,0.8 7.7,0 15.3,0 23,0 3.6,0 7.2,0 10.8,0 0.4,-0.6 0.7,-1.1 1.1,-1.7 5.1,-9 10.2,-18.1 15.3,-27.1 0.8,-1.4 0.8,-2.4 0,-3.9 z m -33.8,17.9 c -6.6,0.1 -11.6,-3 -14.5,-8.9 -2.8,-5.8 -2,-11.5 1.9,-16.6 0.1,-0.1 0.2,-0.1 0.3,-0.1 0.6,-0.6 1.2,-1.2 1.9,-1.9 1.9,-2.1 4.4,-3.1 7,-3.6 4.6,-1 8.7,0.1 12.6,2.7 0.3,0.2 0.7,0.5 0.8,0.9 0.4,0.6 1,1.1 1.6,1.6 1.6,1.3 2.4,3 3.1,4.9 3.5,10 -3.7,20.7 -14.7,21 z"
       id="path82"
       inkscape:connector-curvature="0"
       style="fill:#cdccc8" /><path
       class="st15"
       d="m 91.3,230.3 c -2.4,3.3 -3.6,6.8 -3.5,10.9 0.2,6.9 6.3,13.6 13.2,14.4 8.3,1 14.6,-3.9 16.7,-9.6 1.8,-4.8 1.5,-9.4 -1.1,-13.8 -0.5,-0.8 -1,-1.5 -1.6,-2.3 1.6,0.4 2.1,2 2.6,3.2 2.4,5.1 2.4,10.2 -0.5,15.2 -2.9,4.9 -7.2,7.6 -12.9,7.9 -6,0.3 -10.6,-2.2 -14.1,-6.9 -3.9,-5.2 -3.6,-14.3 0.6,-18.9 0.1,-0.1 0.3,-0.4 0.6,-0.1 z"
       id="path84"
       inkscape:connector-curvature="0"
       style="fill:#c9c7c6" /><path
       class="st16"
       d="m 113.5,228.5 c -6.4,-4.9 -14,-5 -20.4,0 -0.4,-0.6 0.3,-0.8 0.6,-1 6,-4.3 13.2,-4.3 19.2,0 0.3,0.2 1,0.3 0.6,1 z"
       id="path86"
       inkscape:connector-curvature="0"
       style="fill:#cac8c7" /><path
       class="st12"
       d="m 80.4,196.6 c 2.2,1.4 2.7,3.1 1.3,4.6 -0.8,0.9 -1.9,1.2 -3.1,0.7 -1.2,-0.5 -1.8,-1.4 -1.7,-2.6 0.1,-1.3 0.5,-2.4 1.9,-2.7 0.6,-0.2 1.1,-0.2 1.6,0 z"
       id="path88"
       inkscape:connector-curvature="0"
       style="fill:#fdfdfe" /><path
       class="st5"
       d="m 80.4,196.6 c -0.5,0 -1,0 -1.5,0 0.5,-0.4 1,-0.4 1.5,0 z"
       id="path90"
       inkscape:connector-curvature="0"
       style="fill:#4f7abe" /></g></svg>