<?xml version="1.0" encoding="UTF-8"?>
<svg width="320px" height="210px" viewBox="0 0 320 210" version="1.1" xmlns="http://www.w3.org/2000/svg" xmlns:xlink="http://www.w3.org/1999/xlink">
    <!-- Generator: Sketch 46.2 (44496) - http://www.bohemiancoding.com/sketch -->
    <title>Logo</title>
    <desc>Created with Sketch.</desc>
    <defs>
        <polygon id="path-1" points="1.025 75.215 226.95 75.215 226.95 0.020125 1.025 0.020125"></polygon>
        <polygon id="path-3" points="1.025 0.02 224.45 0.02 224.45 72.715 1.025 72.715"></polygon>
    </defs>
    <g id="Success-stories" stroke="none" stroke-width="1"  >
        <g id="Desktop---Success-stories" transform="translate(-159.000000, -2027.000000)">
            <g id="Gemalto" transform="translate(159.000000, 2021.000000)">
                <g id="Logo" transform="translate(0.000000, 6.000000)">
                    <g transform="translate(160.000000, 105.000000) scale(-1, 1) translate(-160.000000, -105.000000) " id="graphic" fill="#7FB7DD" opacity="0.2">
                        <polygon points="181.504627 0 0 209.689441 144.238489 209.689441 320 0"></polygon>
                    </g>
                    <g id="Gemalto" transform="translate(47.000000, 58.000000)">
                        <g id="g11" transform="translate(115.452500, 39.715000) scale(-1, 1) rotate(-180.000000) translate(-115.452500, -39.715000) translate(0.952500, 0.715000)">
                            <g id="gemalto-logo" transform="translate(0.000000, 0.000000)">
                                <g id="g257-Clipped" transform="translate(0.748257, 0.751743)">
                                    <g id="path249"></g>
                                    <g id="g257">
                                        <g transform="translate(1.250000, 1.250000)" id="g259">
                                            <g>
                                                <g id="g261-Clipped">
                                                    <g id="path253"></g>
                                                    <g id="g261">
                                                        <g transform="translate(7.500000, 0.000000)">
                                                            <g id="g263" stroke-width="1"   transform="translate(60.444000, 2.475125)">
                                                                <path d="M2.5,3.75 C2.54875,2.555 3.645,2.17625 4.8075,2.17625 C5.68375,2.17625 6.87875,2.3625 6.87875,3.39125 C6.87875,4.42625 5.48625,4.6025 4.07375,4.9025 C2.68125,5.2 1.27125,5.64 1.27125,7.20125 C1.27125,8.83875 2.98375,9.51875 4.4725,9.51875 C6.3625,9.51875 7.87,8.95125 7.98625,6.965 L6.5775,6.965 C6.4825,8.00125 5.51625,8.335 4.58625,8.335 C3.74375,8.335 2.7625,8.11875 2.7625,7.295 C2.7625,6.335 4.26,6.17625 5.56875,5.87875 C6.98,5.57875 8.3725,5.1375 8.3725,3.555 C8.3725,1.625 6.4625,0.98875 4.72125,0.98875 C2.8,0.98875 1.17125,1.73375 1.08875,3.75 L2.5,3.75" id="path265" fill="#EF7C00" ></path>
                                                            </g>
                                                            <g id="g267" stroke-width="1"   transform="translate(68.992750, 2.259125)">
                                                                <path d="M7.5,6.25 C7.43625,7.52625 6.42375,8.55125 5.03,8.55125 C3.555,8.55125 2.6725,7.4975 2.57625,6.25 L7.5,6.25 Z M8.85875,3.98 C8.48125,2.1875 7.11875,1.205 5.1975,1.205 C2.46,1.205 1.16375,3.005 1.08125,5.49375 C1.08125,7.9375 2.775,9.735 5.11375,9.735 C8.14625,9.735 9.07875,7.03875 8.99375,5.06875 L2.57625,5.06875 C2.5225,3.6475 3.37,2.3925 5.245,2.3925 C6.40875,2.3925 7.21875,2.9275 7.47125,3.98 L8.85875,3.98 L8.85875,3.98 Z" id="path269" fill="#EF7C00" ></path>
                                                            </g>
                                                            <g id="g271" stroke-width="1"   transform="translate(77.932625, 2.935875)">
                                                                <path d="M7.5,6.25 C7.2875,7.2775 6.5375,7.87375 5.37875,7.87375 C3.335,7.87375 2.70875,6.34625 2.70875,4.69375 C2.70875,3.195 3.42125,1.71625 5.20875,1.71625 C6.5725,1.71625 7.38375,2.47 7.56625,3.7025 L9.0125,3.7025 C8.69625,1.71625 7.38375,0.5275 5.23125,0.5275 C2.60875,0.5275 1.215,2.26375 1.215,4.69375 C1.215,7.135 2.54125,9.05875 5.26375,9.05875 C7.19875,9.05875 8.75875,8.19375 8.95875,6.25 L7.5,6.25" id="path273" fill="#EF7C00" ></path>
                                                            </g>
                                                            <g id="g275" stroke-width="1"   transform="translate(88.280375, 2.410125)">
                                                                <path d="M7.5,1.25 L6.17125,1.25 L6.17125,2.54125 L6.1425,2.54125 C5.54,1.53125 4.58375,1.05375 3.35625,1.05375 C1.1025,1.05375 0.40125,2.285 0.40125,4.04 L0.40125,9.39375 L1.81375,9.39375 L1.81375,3.88125 C1.81375,2.885 2.47625,2.24125 3.5525,2.24125 C5.26125,2.24125 6.08875,3.32375 6.08875,4.7925 L6.08875,9.39375 L7.5,9.39375 L7.5,1.25" id="path277" fill="#EF7C00" ></path>
                                                            </g>
                                                            <g id="g279" stroke-width="1"   transform="translate(98.017000, 3.053250)">
                                                                <path d="M0,8.75 L1.33375,8.75 L1.33375,7.0325 L1.35875,7.0325 C2.03875,8.3425 2.98625,8.985 4.51375,8.94125 L4.51375,7.52375 C2.24125,7.52375 1.4125,6.29125 1.4125,4.23125 L1.4125,0.60625 L0,0.60625 L0,8.75" id="path281" fill="#EF7C00" ></path>
                                                            </g>
                                                            <polygon id="path283" fill="#EF7C00"  points="105.25375 13.27 103.84125 13.27 103.84125 14.91 105.25375 14.91"></polygon>
                                                            <polygon id="path285" fill="#EF7C00"  points="103.84 11.80375 105.2525 11.80375 105.2525 3.66 103.84 3.66"></polygon>
                                                            <g id="g287" stroke-width="1"   transform="translate(105.810750, 3.053250)">
                                                                <path d="M3.75,8.75 L5.455,8.75 L5.455,7.56375 L3.75,7.56375 L3.75,2.5125 C3.75,1.8975 3.9325,1.785 4.81625,1.785 L5.455,1.785 L5.455,0.60625 L4.3825,0.60625 C2.92125,0.60625 2.3425,0.8875 2.3425,2.38375 L2.3425,7.56375 L0.88625,7.56375 L0.88625,8.75 L2.3425,8.75 L2.3425,11.1925 L3.75,11.1925 L3.75,8.75" id="path289" fill="#EF7C00" ></path>
                                                            </g>
                                                            <g id="g291" stroke-width="1"   transform="translate(111.358750, 0.065500)">
                                                                <path d="M5,2.5 C4.3575,0.91125 3.775,0.33375 2.51625,0.33375 C2.185,0.33375 1.85125,0.36625 1.54,0.4725 L1.54,1.6975 C1.8025,1.62125 2.08375,1.51375 2.36875,1.51375 C2.94375,1.51375 3.26125,1.77875 3.52625,2.255 L4.105,3.64375 L0.70625,11.7375 L2.3,11.7375 L4.80375,5.075 L4.8375,5.075 L7.24375,11.7375 L8.73375,11.7375 L5,2.5" id="path293" fill="#EF7C00" ></path>
                                                            </g>
                                                            <g id="g295" stroke-width="1"   transform="translate(124.113750, 3.053250)">
                                                                <path d="M3.75,8.75 L5.45875,8.75 L5.45875,7.56375 L3.75,7.56375 L3.75,2.5125 C3.75,1.8975 3.93125,1.785 4.81625,1.785 L5.45875,1.785 L5.45875,0.60625 L4.3825,0.60625 C2.91875,0.60625 2.3375,0.8875 2.3375,2.38375 L2.3375,7.56375 L0.88,7.56375 L0.88,8.75 L2.3375,8.75 L2.3375,11.1925 L3.75,11.1925 L3.75,8.75" id="path297" fill="#EF7C00" ></path>
                                                            </g>
                                                            <g id="g299" stroke-width="1"   transform="translate(129.995125, 3.401625)">
                                                                <path d="M5,1.25 C6.475,1.25 7.6725,2.35 7.6725,4.31875 C7.6725,6.3075 6.475,7.40875 5,7.40875 C3.5275,7.40875 2.33,6.3075 2.33,4.31875 C2.33,2.35 3.5275,1.25 5,1.25 M5,8.5925 C7.7225,8.5925 9.16375,6.71625 9.16375,4.31875 C9.16375,1.94375 7.7225,0.0625 5,0.0625 C2.2825,0.0625 0.84,1.94375 0.84,4.31875 C0.84,6.71625 2.2825,8.5925 5,8.5925" id="path301" fill="#EF7C00" ></path>
                                                            </g>
                                                            <g id="g303" stroke-width="1"   transform="translate(144.469250, 3.310125)">
                                                                <path d="M5,7.5 C3.11,7.5 2.37625,5.955 2.37625,4.4275 C2.37625,2.82 3.1425,1.34125 5.085,1.34125 C7.00625,1.34125 7.655,2.8975 7.655,4.49125 C7.655,6.02125 6.82375,7.5 5,7.5 M1.01875,11.6 L2.43125,11.6 L2.43125,7.39 L2.4625,7.39 C2.92375,8.285 4.02,8.68375 5.20125,8.68375 C7.835,8.68375 9.145,6.695 9.145,4.3975 C9.145,2.09625 7.8525,0.15375 5.235,0.15375 C4.35125,0.15375 3.09,0.47375 2.4625,1.4325 L2.43125,1.4325 L2.43125,0.35 L1.01875,0.35 L1.01875,11.6" id="path305" fill="#EF7C00" ></path>
                                                            </g>
                                                            <g id="g307" stroke-width="1"   transform="translate(153.893750, 2.259125)">
                                                                <path d="M7.5,6.25 C7.4325,7.52625 6.42,8.55125 5.0275,8.55125 C3.555,8.55125 2.67625,7.4975 2.57625,6.25 L7.5,6.25 Z M8.85875,3.98 C8.4775,2.1875 7.11375,1.205 5.18875,1.205 C2.4575,1.205 1.1625,3.005 1.0775,5.49375 C1.0775,7.9375 2.77375,9.735 5.1075,9.735 C8.1425,9.735 9.075,7.03875 8.99375,5.06875 L2.57625,5.06875 C2.52375,3.6475 3.36875,2.3925 5.245,2.3925 C6.4025,2.3925 7.2175,2.9275 7.46625,3.98 L8.85875,3.98 L8.85875,3.98 Z" id="path309" fill="#EF7C00" ></path>
                                                            </g>
                                                            <g id="g311" stroke-width="1"   transform="translate(167.155125, 3.117250)">
                                                                <path d="M2.5,7.5 L1.05625,7.5 L1.05625,8.68625 L2.5,8.68625 L2.5,9.8975 C2.5,11.22 3.32875,11.91375 4.86875,11.91375 C5.13375,11.91375 5.51625,11.86875 5.7825,11.7925 L5.7825,10.62375 C5.52875,10.69875 5.23625,10.73125 4.9825,10.73125 C4.305,10.73125 3.91125,10.53125 3.91125,9.82125 L3.91125,8.68625 L5.56625,8.68625 L5.56625,7.5 L3.91125,7.5 L3.91125,0.5425 L2.5,0.5425 L2.5,7.5" id="path313" fill="#EF7C00" ></path>
                                                            </g>
                                                            <g id="g315" stroke-width="1"   transform="translate(174.098000, 3.053250)">
                                                                <path d="M0,8.75 L1.32375,8.75 L1.32375,7.0325 L1.35875,7.0325 C2.04125,8.3425 2.9825,8.985 4.50625,8.94125 L4.50625,7.52375 C2.23875,7.52375 1.40875,6.29125 1.40875,4.23125 L1.40875,0.60625 L0,0.60625 L0,8.75" id="path317" fill="#EF7C00" ></path>
                                                            </g>
                                                            <g id="g319" stroke-width="1"   transform="translate(177.988125, 2.259125)">
                                                                <path d="M7.5,6.25 C7.43375,7.52625 6.42375,8.55125 5.03125,8.55125 C3.55875,8.55125 2.67625,7.4975 2.57625,6.25 L7.5,6.25 Z M8.86125,3.98 C8.48375,2.1875 7.12,1.205 5.1925,1.205 C2.46125,1.205 1.16375,3.005 1.085,5.49375 C1.085,7.9375 2.7775,9.735 5.1125,9.735 C8.15125,9.735 9.08125,7.03875 8.9975,5.06875 L2.57625,5.06875 C2.52625,3.6475 3.37125,2.3925 5.24625,2.3925 C6.405,2.3925 7.2225,2.9275 7.46875,3.98 L8.86125,3.98 L8.86125,3.98 Z" id="path321" fill="#EF7C00" ></path>
                                                            </g>
                                                            <g id="g323" stroke-width="1"   transform="translate(187.063000, 2.259125)">
                                                                <path d="M7.5,6.25 C7.43125,7.52625 6.41875,8.55125 5.03125,8.55125 C3.54875,8.55125 2.67,7.4975 2.57625,6.25 L7.5,6.25 Z M8.85625,3.98 C8.48,2.1875 7.12,1.205 5.19,1.205 C2.45625,1.205 1.16375,3.005 1.07875,5.49375 C1.07875,7.9375 2.76875,9.735 5.11375,9.735 C8.14625,9.735 9.07875,7.03875 8.99375,5.06875 L2.57625,5.06875 C2.5225,3.6475 3.37125,2.3925 5.24625,2.3925 C6.40375,2.3925 7.2175,2.9275 7.46875,3.98 L8.85625,3.98 L8.85625,3.98 Z" id="path325" fill="#EF7C00" ></path>
                                                            </g>
                                                            <g id="g327" stroke-width="1"   transform="translate(151.029500, 22.352375)">
                                                                <path d="M15,0 L15,5.3225 L9.95625,5.3225 C7.54375,5.285 7.35625,7.24125 7.35625,9.88375 L7.35625,27.0025 L14.23875,27.0025 L14.23875,32.27125 L7.35625,32.27125 L7.35625,44.42625 L0.2875,44.42625 L0.2875,8.0875 C0.31375,2.6675 1.7725,0.01 8.965,0.00625 L8.965,0 L15,0" id="path329" fill="#000000" ></path>
                                                            </g>
                                                            <g id="g331" stroke-width="1"   transform="translate(193.324125, 50.642500)">
                                                                <path d="M22.5,0 C16.435,5.4325 13.95875,6.40375 11.47125,6.56 C8.985,6.40375 6.50375,5.4325 0.43625,0 C5.8625,6.0725 6.84,8.56125 6.9875,11.04125 C6.84,13.52375 5.8625,16.01 0.43625,22.0725 C6.50375,16.65875 8.985,15.6725 11.47125,15.525 C13.95875,15.6725 16.435,16.65875 22.5,22.0725 C17.07875,16.01 16.1,13.52375 15.94375,11.04125 C16.1,8.56125 17.07875,6.0725 22.5,0" id="path333" fill="#EF7C00" ></path>
                                                            </g>
                                                            <path d="M190.79875,29.4925 L172.6,29.4925 L172.6,47.6875 L190.79875,47.6875 L190.79875,29.4925 Z M181.68375,55.49625 C171.3975,55.49625 165.505,48.4275 165.505,38.62125 C165.505,28.7625 171.3975,21.7025 181.68375,21.7025 C191.98875,21.7025 197.87875,28.7625 197.87875,38.62125 C197.87875,48.4275 191.98875,55.49625 181.68375,55.49625 L181.68375,55.49625 Z" id="path335" fill="#000000" ></path>
                                                            <g id="g337" stroke-width="1"   transform="translate(0.731250, 9.603000)">
                                                                <path d="M128.75,23.75 C128.75,19.28375 123.9225,17.6725 120.81625,17.6725 C118.33625,17.6725 114.3075,18.60375 114.3075,21.765 C114.3075,25.48875 117.04,26.60625 120.075,27.1 C123.175,27.655 126.58875,27.59875 128.75,29.01875 L128.75,23.75 Z M61.22125,23.00875 L54.895,23.00875 C53.655,19.47625 51.17625,17.6725 47.08875,17.6725 C41.18625,17.6725 38.46375,22.13125 38.46375,27.1625 L61.22125,27.1625 L61.22125,23.00875 Z M46.9,40.30625 C51.66375,40.30625 54.7125,36.27875 54.95625,31.81 L38.46375,31.81 C38.6475,36.5875 41.9975,40.30625 46.9,40.30625 L46.9,40.30625 Z M16.31875,18.53875 C10.425,18.53875 7.8875,23.875 7.8875,29.1375 C7.8875,34.47625 10.06,40.30625 16.31875,40.30625 C22.46375,40.30625 24.9375,35.22125 24.9375,29.70375 C24.9375,24.2475 22.58375,18.53875 16.31875,18.53875 L16.31875,18.53875 Z M139.64375,57.175 L139.64375,17.72 L135.775,17.72 L135.775,37.535 C135.18375,43.57875 128.94625,45.89375 122.9875,45.89375 C115.92375,45.89375 108.91625,43.47375 108.4225,35.22125 L115.4875,35.22125 C115.79875,38.69625 118.5925,40.30625 122.55375,40.30625 C125.40875,40.30625 129.18875,39.62625 129.18875,35.97 C129.18875,31.81 124.66375,32.37375 119.58375,31.43625 C114.60625,30.8725 109.3425,29.86125 107.73875,24.8975 L107.73875,35.1025 C107.73875,42.91375 103.7675,45.89375 97.00625,45.89375 C92.3525,45.89375 89.3125,43.8475 86.96125,40.5575 C85.5325,44.215 81.8725,45.89375 77.96625,45.89375 C72.88,45.89375 70.2125,43.72125 68.1125,40.5575 L67.92,40.5575 L67.92,45.02 L61.22125,45.02 L61.22125,35.3375 C59.195,41.36625 54.0175,45.89375 46.9,45.89375 C39.145,45.89375 33.76875,40.74125 32.01125,33.9375 L32.01125,45.02 L24.9375,45.02 L24.9375,40.625 L24.82,40.625 C23.02125,44.215 19.36375,45.89375 15.32875,45.89375 C6.215,45.89375 0.81625,38.44875 0.81625,29.8275 C0.81625,20.65 5.035,12.9525 15.19875,12.9525 C19.1725,12.9525 22.83,15.0675 24.82,18.60375 L24.9375,18.60375 L24.9375,13.69625 C24.9375,8.42875 22.39625,5.515 16.69375,5.515 C13.095,5.515 9.87875,6.20125 9.00125,10.23125 L1.93625,10.23125 C2.55125,2.73 9.81125,0.24125 16.26125,0.24125 C26.36875,0.24125 32.01125,5.0125 32.01125,14.63125 L32.01125,23.6125 C33.73,16.66375 38.97625,12.1 47.08875,12.1 C53.61625,12.1 59.23875,15.4975 61.22125,21.63875 L61.22125,12.9525 L68.29125,12.9525 L68.29125,32 C68.29125,37.33125 71.645,40.30625 75.3,40.30625 C79.57875,40.30625 80.94375,37.94875 80.94375,33.55 L80.94375,12.9525 L88.0125,12.9525 L88.0125,31.7525 C88.0125,37.14625 90.06375,40.30625 94.8325,40.30625 C100.355,40.30625 100.66625,36.7725 100.66625,31.695 L100.66625,12.9525 L107.73875,12.9525 L107.73875,18.33875 C109.16625,14.1575 113.5025,12.1 118.21125,12.1 C121.7625,12.1 125.95375,13.15 128.76375,15.5375 L128.76375,15.51375 L128.7775,15.5375 C128.7775,14.13 129.87125,12.99625 131.25375,12.93 L146.70375,12.93 L146.70375,57.175 L139.64375,57.175 L139.64375,57.175 Z" id="path339" fill="#000000" ></path>
                                                            </g>
                                                        </g>
                                                    </g>
                                                </g>
                                            </g>
                                        </g>
                                    </g>
                                </g>
                            </g>
                        </g>
                    </g>
                </g>
            </g>
        </g>
    </g>
</svg>
