<?xml version="1.0" encoding="utf-8"?>
<!-- Generator: Adobe Illustrator 21.0.2, SVG Export Plug-In . SVG Version: 6.00 Build 0)  -->
<svg version="1.1" id="Layer_1" xmlns="http://www.w3.org/2000/svg" xmlns:xlink="http://www.w3.org/1999/xlink" x="0px" y="0px"
	 viewBox="0 0 320 210" style="enable-background:new 0 0 320 210;" xml:space="preserve">
<style type="text/css">
	.st0{opacity:0.2;}
	.st1{fill:#7FB7DD;}
	.st2{fill:#EF7C00;}
</style>
<title>Logo</title>
<desc>Created with Sketch.</desc>
<g id="Success-stories">
	<g id="Desktop---Success-stories" transform="translate(-159.000000, -2027.000000)">
		<g id="Gemalto_1_" transform="translate(159.000000, 2021.000000)">
			<g id="Logo" transform="translate(0.000000, 6.000000)">
				<g id="graphic" transform="translate(160.000000, 105.000000) scale(-1, 1) translate(-160.000000, -105.000000) " class="st0">
					<polygon class="st1" points="0,0 175.8,209.7 320,209.7 138.5,0 					"/>
				</g>
				<g id="Gemalto" transform="translate(47.000000, 58.000000)">
					
						<g id="g11" transform="translate(115.452500, 39.715000) scale(-1, 1) rotate(-180.000000) translate(-115.452500, -39.715000) translate(0.952500, 0.715000)">
						<g id="gemalto-logo" transform="translate(0.000000, 0.000000)">
							<g id="g257-Clipped" transform="translate(0.748257, 0.751743)">
								<g id="path249">
								</g>
								<g id="g257">
									<g id="g259" transform="translate(1.250000, 1.250000)">
										<g>
											<g id="g261-Clipped">
												<g id="path253">
												</g>
												<g id="g261">
													<g transform="translate(7.500000, 0.000000)">
														<g id="g263" transform="translate(60.444000, 2.475125)">
															<path id="path265" class="st2" d="M2.5,3.8c0-1.2,1.1-1.6,2.3-1.6c0.9,0,2.1,0.2,2.1,1.2c0,1-1.4,1.2-2.8,1.5
																C2.7,5.2,1.3,5.6,1.3,7.2c0,1.6,1.7,2.3,3.2,2.3C6.4,9.5,7.9,9,8,7H6.6c-0.1,1-1.1,1.4-2,1.4c-0.8,0-1.8-0.2-1.8-1
																c0-1,1.5-1.1,2.8-1.4C7,5.6,8.4,5.1,8.4,3.6C8.4,1.6,6.5,1,4.7,1C2.8,1,1.2,1.7,1.1,3.8H2.5"/>
														</g>
														<g id="g267" transform="translate(68.992750, 2.259125)">
															<path id="path269" class="st2" d="M7.5,6.2C7.4,7.5,6.4,8.6,5,8.6c-1.5,0-2.4-1.1-2.5-2.3H7.5z M8.9,4
																C8.5,2.2,7.1,1.2,5.2,1.2c-2.7,0-4,1.8-4.1,4.3c0,2.4,1.7,4.2,4,4.2c3,0,4-2.7,3.9-4.7H2.6C2.5,3.6,3.4,2.4,5.2,2.4
																c1.2,0,2,0.5,2.2,1.6H8.9L8.9,4z"/>
														</g>
														<g id="g271" transform="translate(77.932625, 2.935875)">
															<path id="path273" class="st2" d="M7.5,6.2c-0.2,1-1,1.6-2.1,1.6c-2,0-2.7-1.5-2.7-3.2c0-1.5,0.7-3,2.5-3
																c1.4,0,2.2,0.8,2.4,2H9c-0.3-2-1.6-3.2-3.8-3.2c-2.6,0-4,1.7-4,4.2c0,2.4,1.3,4.4,4,4.4c1.9,0,3.5-0.9,3.7-2.8H7.5"
																/>
														</g>
														<g id="g275" transform="translate(88.280375, 2.410125)">
															<path id="path277" class="st2" d="M7.5,1.3H6.2v1.3h0c-0.6-1-1.6-1.5-2.8-1.5c-2.3,0-3,1.2-3,3v5.4h1.4V3.9
																c0-1,0.7-1.6,1.7-1.6c1.7,0,2.5,1.1,2.5,2.6v4.6h1.4V1.3"/>
														</g>
														<g id="g279" transform="translate(98.017000, 3.053250)">
															<path id="path281" class="st2" d="M0,8.8h1.3V7h0C2,8.3,3,9,4.5,8.9V7.5c-2.3,0-3.1-1.2-3.1-3.3V0.6H0V8.8"/>
														</g>
														<polygon id="path283" class="st2" points="105.3,13.3 103.8,13.3 103.8,14.9 105.3,14.9 														"/>
														<polygon id="path285" class="st2" points="103.8,11.8 105.3,11.8 105.3,3.7 103.8,3.7 														"/>
														<g id="g287" transform="translate(105.810750, 3.053250)">
															<path id="path289" class="st2" d="M3.7,8.8h1.7V7.6H3.7V2.5c0-0.6,0.2-0.7,1.1-0.7h0.6V0.6H4.4c-1.5,0-2,0.3-2,1.8
																v5.2H0.9v1.2h1.5v2.4h1.4V8.8"/>
														</g>
														<g id="g291" transform="translate(111.358750, 0.065500)">
															<path id="path293" class="st2" d="M5,2.5C4.4,0.9,3.8,0.3,2.5,0.3c-0.3,0-0.7,0-1,0.1v1.2c0.3-0.1,0.5-0.2,0.8-0.2
																c0.6,0,0.9,0.3,1.2,0.7l0.6,1.4l-3.4,8.1h1.6l2.5-6.7h0l2.4,6.7h1.5L5,2.5"/>
														</g>
														<g id="g295" transform="translate(124.113750, 3.053250)">
															<path id="path297" class="st2" d="M3.7,8.8h1.7V7.6H3.7V2.5c0-0.6,0.2-0.7,1.1-0.7h0.6V0.6H4.4c-1.5,0-2,0.3-2,1.8
																v5.2H0.9v1.2h1.5v2.4h1.4V8.8"/>
														</g>
														<g id="g299" transform="translate(129.995125, 3.401625)">
															<path id="path301" class="st2" d="M5,1.2c1.5,0,2.7,1.1,2.7,3.1c0,2-1.2,3.1-2.7,3.1c-1.5,0-2.7-1.1-2.7-3.1
																C2.3,2.3,3.5,1.2,5,1.2 M5,8.6c2.7,0,4.2-1.9,4.2-4.3c0-2.4-1.4-4.3-4.2-4.3c-2.7,0-4.2,1.9-4.2,4.3
																C0.8,6.7,2.3,8.6,5,8.6"/>
														</g>
														<g id="g303" transform="translate(144.469250, 3.310125)">
															<path id="path305" class="st2" d="M5,7.5C3.1,7.5,2.4,6,2.4,4.4c0-1.6,0.8-3.1,2.7-3.1c1.9,0,2.6,1.6,2.6,3.2
																C7.7,6,6.8,7.5,5,7.5 M1,11.6h1.4V7.4h0C2.9,8.3,4,8.7,5.2,8.7c2.6,0,3.9-2,3.9-4.3c0-2.3-1.3-4.2-3.9-4.2
																c-0.9,0-2.1,0.3-2.8,1.3h0V0.4H1V11.6"/>
														</g>
														<g id="g307" transform="translate(153.893750, 2.259125)">
															<path id="path309" class="st2" d="M7.5,6.2C7.4,7.5,6.4,8.6,5,8.6c-1.5,0-2.4-1.1-2.5-2.3H7.5z M8.9,4
																C8.5,2.2,7.1,1.2,5.2,1.2c-2.7,0-4,1.8-4.1,4.3c0,2.4,1.7,4.2,4,4.2c3,0,4-2.7,3.9-4.7H2.6C2.5,3.6,3.4,2.4,5.2,2.4
																c1.2,0,2,0.5,2.2,1.6H8.9L8.9,4z"/>
														</g>
														<g id="g311" transform="translate(167.155125, 3.117250)">
															<path id="path313" class="st2" d="M2.5,7.5H1.1v1.2h1.4v1.2c0,1.3,0.8,2,2.4,2c0.3,0,0.6,0,0.9-0.1v-1.2
																c-0.3,0.1-0.5,0.1-0.8,0.1c-0.7,0-1.1-0.2-1.1-0.9V8.7h1.7V7.5H3.9v-7H2.5V7.5"/>
														</g>
														<g id="g315" transform="translate(174.098000, 3.053250)">
															<path id="path317" class="st2" d="M0,8.8h1.3V7h0C2,8.3,3,9,4.5,8.9V7.5c-2.3,0-3.1-1.2-3.1-3.3V0.6H0V8.8"/>
														</g>
														<g id="g319" transform="translate(177.988125, 2.259125)">
															<path id="path321" class="st2" d="M7.5,6.2C7.4,7.5,6.4,8.6,5,8.6c-1.5,0-2.4-1.1-2.5-2.3H7.5z M8.9,4
																C8.5,2.2,7.1,1.2,5.2,1.2c-2.7,0-4,1.8-4.1,4.3c0,2.4,1.7,4.2,4,4.2c3,0,4-2.7,3.9-4.7H2.6C2.5,3.6,3.4,2.4,5.2,2.4
																c1.2,0,2,0.5,2.2,1.6H8.9L8.9,4z"/>
														</g>
														<g id="g323" transform="translate(187.063000, 2.259125)">
															<path id="path325" class="st2" d="M7.5,6.2C7.4,7.5,6.4,8.6,5,8.6c-1.5,0-2.4-1.1-2.5-2.3H7.5z M8.9,4
																C8.5,2.2,7.1,1.2,5.2,1.2c-2.7,0-4,1.8-4.1,4.3c0,2.4,1.7,4.2,4,4.2c3,0,4-2.7,3.9-4.7H2.6C2.5,3.6,3.4,2.4,5.2,2.4
																c1.2,0,2,0.5,2.2,1.6H8.9L8.9,4z"/>
														</g>
														<g id="g327" transform="translate(151.029500, 22.352375)">
															<path id="path329" d="M15,0v5.3h-5c-2.4,0-2.6,1.9-2.6,4.6V27h6.9v5.3H7.4v12.2H0.3V8.1C0.3,2.7,1.8,0,9,0v0H15"/>
														</g>
														<g id="g331" transform="translate(193.324125, 50.642500)">
															<path id="path333" class="st2" d="M22.5,0c-6.1,5.4-8.5,6.4-11,6.6C9,6.4,6.5,5.4,0.4,0C5.9,6.1,6.8,8.6,7,11
																c-0.1,2.5-1.1,5-6.6,11c6.1-5.4,8.5-6.4,11-6.5c2.5,0.1,5,1.1,11,6.5c-5.4-6.1-6.4-8.5-6.6-11
																C16.1,8.6,17.1,6.1,22.5,0"/>
														</g>
														<path id="path335" d="M190.8,29.5h-18.2v18.2h18.2V29.5z M181.7,55.5c-10.3,0-16.2-7.1-16.2-16.9
															c0-9.9,5.9-16.9,16.2-16.9c10.3,0,16.2,7.1,16.2,16.9C197.9,48.4,192,55.5,181.7,55.5L181.7,55.5z"/>
														<g id="g337" transform="translate(0.731250, 9.603000)">
															<path id="path339" d="M128.8,23.8c0-4.5-4.8-6.1-7.9-6.1c-2.5,0-6.5,0.9-6.5,4.1c0,3.7,2.7,4.8,5.8,5.3
																c3.1,0.6,6.5,0.5,8.7,1.9V23.8z M61.2,23h-6.3c-1.2-3.5-3.7-5.3-7.8-5.3c-5.9,0-8.6,4.5-8.6,9.5h22.8V23z M46.9,40.3
																c4.8,0,7.8-4,8.1-8.5H38.5C38.6,36.6,42,40.3,46.9,40.3L46.9,40.3z M16.3,18.5c-5.9,0-8.4,5.3-8.4,10.6
																c0,5.3,2.2,11.2,8.4,11.2c6.1,0,8.6-5.1,8.6-10.6C24.9,24.2,22.6,18.5,16.3,18.5L16.3,18.5z M139.6,57.2V17.7h-3.9
																v19.8c-0.6,6-6.8,8.4-12.8,8.4c-7.1,0-14.1-2.4-14.6-10.7h7.1c0.3,3.5,3.1,5.1,7.1,5.1c2.9,0,6.6-0.7,6.6-4.3
																c0-4.2-4.5-3.6-9.6-4.5c-5-0.6-10.2-1.6-11.8-6.5v10.2c0,7.8-4,10.8-10.7,10.8c-4.7,0-7.7-2-10-5.3
																c-1.4,3.7-5.1,5.3-9,5.3c-5.1,0-7.8-2.2-9.9-5.3h-0.2V45h-6.7v-9.7c-2,6-7.2,10.6-14.3,10.6c-7.8,0-13.1-5.2-14.9-12
																V45h-7.1v-4.4h-0.1c-1.8,3.6-5.5,5.3-9.5,5.3c-9.1,0-14.5-7.4-14.5-16.1C0.8,20.6,5,13,15.2,13c4,0,7.6,2.1,9.6,5.7
																h0.1v-4.9c0-5.3-2.5-8.2-8.2-8.2c-3.6,0-6.8,0.7-7.7,4.7H1.9c0.6-7.5,7.9-10,14.3-10C26.4,0.2,32,5,32,14.6v9
																c1.7-6.9,7-11.5,15.1-11.5c6.5,0,12.2,3.4,14.1,9.5V13h7.1v19c0,5.3,3.4,8.3,7,8.3c4.3,0,5.6-2.4,5.6-6.8V13H88v18.8
																c0,5.4,2.1,8.6,6.8,8.6c5.5,0,5.8-3.5,5.8-8.6V13h7.1v5.4c1.4-4.2,5.8-6.2,10.5-6.2c3.6,0,7.7,1,10.6,3.4v0l0,0
																c0-1.4,1.1-2.5,2.5-2.6h15.4v44.2H139.6L139.6,57.2z"/>
														</g>
													</g>
												</g>
											</g>
										</g>
									</g>
								</g>
							</g>
						</g>
					</g>
				</g>
			</g>
		</g>
	</g>
</g>
</svg>
