<?xml version="1.0" encoding="UTF-8" standalone="no"?>
<svg
   xmlns:dc="http://purl.org/dc/elements/1.1/"
   xmlns:cc="http://creativecommons.org/ns#"
   xmlns:rdf="http://www.w3.org/1999/02/22-rdf-syntax-ns#"
   xmlns:svg="http://www.w3.org/2000/svg"
   xmlns="http://www.w3.org/2000/svg"
   xmlns:sodipodi="http://sodipodi.sourceforge.net/DTD/sodipodi-0.dtd"
   xmlns:inkscape="http://www.inkscape.org/namespaces/inkscape"
   width="220"
   height="186"
   viewBox="0 0 220 186"
   version="1.1"
   id="svg2"
   inkscape:version="0.91 r13725"
   sodipodi:docname="hazelcast-logo-home.svg">
  <metadata
     id="metadata42">
    <rdf:RDF>
      <cc:Work
         rdf:about="">
        <dc:format>image/svg+xml</dc:format>
        <dc:type
           rdf:resource="http://purl.org/dc/dcmitype/StillImage" />
        <dc:title>Logo</dc:title>
      </cc:Work>
    </rdf:RDF>
  </metadata>
  <sodipodi:namedview
     pagecolor="#ffffff"
     bordercolor="#666666"
     borderopacity="1"
     objecttolerance="10"
     gridtolerance="10"
     guidetolerance="10"
     inkscape:pageopacity="0"
     inkscape:pageshadow="2"
     inkscape:window-width="1333"
     inkscape:window-height="656"
     id="namedview40"
     showgrid="false"
     inkscape:zoom="1.5893067"
     inkscape:cx="124.08752"
     inkscape:cy="87.948673"
     inkscape:window-x="0"
     inkscape:window-y="0"
     inkscape:window-maximized="0"
     inkscape:current-layer="Logo" />
  <!-- Generator: Sketch 46.2 (44496) - http://www.bohemiancoding.com/sketch -->
  <title
     id="title4">Logo</title>
  <desc
     id="desc6">Created with Sketch.</desc>
  <defs
     id="defs8" />
  <g
     id="Page-1"
     style="fill:none;fill-rule:evenodd;stroke:none;stroke-width:1"
     transform="translate(0,-24)">
    <g
       id="Logo">
      <g
         id="HazelcastLogo"
         transform="matrix(1.4651061,0,0,1.4651061,5.0980923,29.588362)"
         style="fill-rule:nonzero">
        <g
           id="Group"
           transform="translate(32,0)">
          <path
             d="m 70.638222,0.13605634 -27.821629,0 0,36.83814066 36.903111,0 0,-27.7726477 c 0,-5.0068732 -4.066371,-9.06549296 -9.081482,-9.06549296 z"
             id="Shape"
             inkscape:connector-curvature="0"
             style="fill:#2f7de1" />
          <path
             d="m 70.638222,46.724113 -18.740148,0 c -5.015704,0 -9.081481,4.058619 -9.081481,9.065493 l 0,27.772647 36.903111,0 0,-27.772647 c 0,-5.006874 -4.066371,-9.065493 -9.081482,-9.065493 z"
             id="path16"
             inkscape:connector-curvature="0"
             style="fill:#0b2a35" />
          <path
             d="m 32.017185,83.562253 -22.3922961,0 c -5.0951111,0 -9.22548149,-4.123098 -9.22548149,-9.209239 l 0,-65.0077182 c 0,-5.0861409 4.13037039,-9.20923946 9.22548149,-9.20923946 l 22.3922961,0 0,83.42619666 z"
             id="path18"
             inkscape:connector-curvature="0"
             style="fill:#0b2a35" />
        </g>
        <g
           id="g20"
           transform="translate(0,97)"
           style="fill:#0b2a35">
          <path
             d="m 114.01672,25.837644 -2.29574,0 -1.02747,-1.635111 c -1.77935,1.085645 -3.73161,1.635111 -5.80544,1.635111 -4.51004,0 -6.796922,-1.908977 -6.796922,-5.673777 0,-3.831245 2.582552,-5.774311 7.677442,-5.774311 1.46125,0 2.94374,0.09822 4.41207,0.290622 l 0,-1.312711 c 0,-1.848889 -1.49371,-2.746756 -4.56728,-2.746756 -1.82302,0 -3.72158,0.279645 -5.64256,0.833156 l -0.410754,0.117866 0,-3.1910663 0.230754,-0.066445 C 101.76964,7.7451111 103.72957,7.4568 105.61397,7.4568 c 5.57646,0 8.40334,1.9604 8.40334,5.826311 l 0,12.554533 -5.9e-4,0 z m -8.24754,-8.284755 c -2.58374,0 -3.84079,0.837778 -3.84079,2.560133 0,1.7472 0.94131,2.560134 2.95968,2.560134 2.06616,0 3.84727,-0.527512 5.29318,-1.568089 l 0,-3.255778 c -1.46656,-0.197022 -2.94846,-0.2964 -4.41207,-0.2964 z"
             id="path22"
             inkscape:connector-curvature="0" />
          <path
             d="m 16.386492,25.837644 -3.836066,0 0,-11.5076 c 0,-1.945955 -1.570426,-3.578755 -3.4990817,-3.638844 L 8.8453771,10.6877 c -1.6996722,0 -3.3450492,0.6968 -4.8924591,2.071911 l 0,13.077423 -3.83606554,0 0,-25.30262256 1.97527874,0 c 1.026295,0 1.8607868,0.81697776 1.8607868,1.82173336 l 0,6.6958666 C 5.4478033,7.9918222 7.236,7.4562222 9.2791475,7.4562222 c 4.7165905,0 7.1079345,2.3296 7.1079345,6.9252448 l 0,11.456177 -5.9e-4,0 z"
             id="path24"
             inkscape:connector-curvature="0" />
          <path
             d="m 34.926492,25.837644 -2.295738,0 -1.027475,-1.635111 c -1.779345,1.085645 -3.730427,1.635111 -5.804853,1.635111 -4.510033,0 -6.796918,-1.908977 -6.796918,-5.673777 0,-3.831245 2.583148,-5.774311 7.677443,-5.774311 1.460656,0 2.943147,0.09822 4.411475,0.290622 l 0,-1.312711 c 0,-1.848889 -1.493705,-2.746756 -4.566688,-2.746756 -1.824787,0 -3.722754,0.279645 -5.643148,0.833156 l -0.410754,0.117866 0,-3.1910663 0.230754,-0.066445 C 22.67941,7.7451111 24.639344,7.4568 26.524328,7.4568 c 5.575869,0 8.402754,1.9604 8.402754,5.826311 l 0,12.554533 -5.9e-4,0 z m -8.247541,-8.284755 c -2.584328,0 -3.840787,0.837778 -3.840787,2.560133 0,1.7472 0.940721,2.560134 2.959672,2.560134 2.066754,0 3.846098,-0.527512 5.29259,-1.568089 l 0,-3.255778 c -1.465967,-0.197022 -2.948459,-0.2964 -4.411475,-0.2964 z"
             id="path26"
             inkscape:connector-curvature="0" />
          <polygon
             id="polygon28"
             points="52.758295,10.506311 42.363738,22.843022 52.48623,22.843022 52.48623,25.837644 37.683147,25.837644 37.683147,23.042933 37.758098,22.955689 48.285443,10.620133 38.028984,10.620133 38.028984,7.4562222 52.832066,7.4562222 52.832066,10.419067 " />
          <path
             d="m 64.097115,25.837644 c -6.412131,0 -9.663935,-3.160444 -9.663935,-9.393511 0,-5.963244 2.91482,-8.987333 8.662427,-8.987333 5.346885,0 8.057508,2.625422 8.057508,7.803467 0,0.7228 -0.05253,1.503955 -0.158164,2.322089 l -0.03482,0.275022 -12.683803,0 c 0.120393,3.240178 2.140524,4.816355 6.166623,4.816355 2.021311,0 3.838426,-0.223022 5.40236,-0.665022 l 0.409574,-0.115555 0,3.191066 -0.231934,0.06529 c -1.622361,0.456445 -3.616525,0.688133 -5.925836,0.688133 z m -5.797771,-11.211777 9.126295,0 C 67.265115,11.909733 65.846951,10.5872 63.096197,10.5872 c -2.934886,0 -4.506492,1.322533 -4.796853,4.038667 z"
             id="path30"
             inkscape:connector-curvature="0" />
          <path
             d="m 78.168393,25.837644 -3.837246,0 0,-25.30262178 1.975869,0 c 1.026295,0 1.860787,0.81697778 1.860787,1.82173338 l 0,23.4808884 5.9e-4,0 z"
             id="path32"
             inkscape:connector-curvature="0" />
          <path
             d="m 90.929508,25.837644 c -6.629901,0 -9.992065,-3.205511 -9.992065,-9.528711 0,-5.873689 3.362164,-8.8527108 9.992065,-8.8527108 1.740394,0 3.392262,0.1727556 4.907213,0.5153778 l 0.24964,0.055467 0,3.1824 -0.39364,-0.08956 c -1.465967,-0.331067 -3.127869,-0.4992 -4.936131,-0.4992 -4.024918,0 -5.982492,1.861022 -5.982492,5.6888 0,4.282489 1.957574,6.3648 5.982492,6.3648 1.808262,0 3.469574,-0.168133 4.936131,-0.4992 l 0.39364,-0.08956 0,3.1824 -0.24964,0.05547 c -1.514951,0.341467 -3.166229,0.514222 -4.907213,0.514222 z"
             id="path34"
             inkscape:connector-curvature="0" />
          <path
             d="m 124.44256,25.837644 c -2.19305,0 -4.39436,-0.288311 -6.54374,-0.856266 l -0.23666,-0.0624 0,-3.377111 0.41961,0.132311 c 2.09036,0.663866 4.22912,0.999555 6.36079,0.999555 4.0137,0 4.0137,-1.673244 4.0137,-2.222711 0,-0.881111 -0.28092,-2.052266 -2.70177,-2.052266 l -2.59023,0 c -4.10872,0 -6.19259,-1.868534 -6.19259,-5.554756 0,-3.5747111 2.64807,-5.3866222 7.86807,-5.3866222 2.18183,0 4.37724,0.2883111 6.52603,0.8562666 l 0.23666,0.0624 0,3.3771116 -0.41961,-0.132312 c -2.08918,-0.663866 -4.22439,-0.999555 -6.34308,-0.999555 -4.20433,0 -4.20433,1.673244 -4.20433,2.222711 0,1.399956 0.80321,2.052267 2.52885,2.052267 l 2.59023,0 c 4.3383,0 6.53843,1.868533 6.53843,5.554755 5.9e-4,3.574711 -2.64099,5.386622 -7.85036,5.386622 z"
             id="path36"
             inkscape:connector-curvature="0" />
          <path
             d="m 143.4122,25.837644 -3.35981,0 c -3.23941,0 -4.88065,-1.714844 -4.88065,-5.098311 l 0,-16.1569774 2.57901,0 0.6905,2.8744444 4.97095,0 0,3.163911 -4.40322,0 0,9.881733 c 0,1.482 0.59548,2.171289 1.872,2.171289 l 2.53122,0 0,3.163911 0,0 z"
             id="path38"
             inkscape:connector-curvature="0" />
        </g>
      </g>
    </g>
  </g>
</svg>
