<?xml version="1.0" encoding="UTF-8"?>
<svg width="320px" height="210px" viewBox="0 0 320 210" version="1.1" xmlns="http://www.w3.org/2000/svg" xmlns:xlink="http://www.w3.org/1999/xlink">
    <!-- Generator: Sketch 46.2 (44496) - http://www.bohemiancoding.com/sketch -->
    <title>Logo</title>
    <desc>Created with Sketch.</desc>
    <defs></defs>
    <g id="Page-1" stroke="none" stroke-width="1" fill="none" fill-rule="evenodd">
        <g id="Logo">
            <polygon id="graphic" fill="#7FB7DD" opacity="0.2" points="181.504627 0 0 209.689441 144.238489 209.689441 320 0"></polygon>
            <g id="HazelcastLogo" transform="translate(91.000000, 39.000000)" fill-rule="nonzero">
                <g id="Group" transform="translate(32.000000, 0.000000)">
                    <path d="M70.6382222,0.136056338 L42.8165926,0.136056338 L42.8165926,36.9741972 L79.7197037,36.9741972 L79.7197037,9.2015493 C79.7197037,4.19467606 75.6533333,0.136056338 70.6382222,0.136056338 Z" id="Shape" fill="#2F7DE1"></path>
                    <path d="M70.6382222,46.7241127 L51.8980741,46.7241127 C46.8823704,46.7241127 42.8165926,50.7827324 42.8165926,55.7896056 L42.8165926,83.5622535 L79.7197037,83.5622535 L79.7197037,55.7896056 C79.7197037,50.7827324 75.6533333,46.7241127 70.6382222,46.7241127 Z" id="Shape" fill="#0B2A35"></path>
                    <path d="M32.0171852,83.5622535 L9.62488889,83.5622535 C4.52977778,83.5622535 0.399407407,79.4391549 0.399407407,74.3530141 L0.399407407,9.34529577 C0.399407407,4.25915493 4.52977778,0.136056338 9.62488889,0.136056338 L32.0171852,0.136056338 L32.0171852,83.5622535 Z" id="Shape" fill="#0B2A35"></path>
                </g>
                <g id="Group" transform="translate(0.000000, 97.000000)" fill="#0B2A35">
                    <path d="M114.016721,25.8376444 L111.720984,25.8376444 L110.693508,24.2025333 C108.914164,25.2881778 106.961902,25.8376444 104.888066,25.8376444 C100.378033,25.8376444 98.0911475,23.9286667 98.0911475,20.1638667 C98.0911475,16.3326222 100.673705,14.3895556 105.76859,14.3895556 C107.229836,14.3895556 108.712328,14.4877778 110.180656,14.6801778 L110.180656,13.3674667 C110.180656,11.5185778 108.686951,10.6207111 105.613377,10.6207111 C103.790361,10.6207111 101.891803,10.9003556 99.9708197,11.4538667 L99.5600656,11.5717333 L99.5600656,8.38066667 L99.7908197,8.31422222 C101.769639,7.74511111 103.729574,7.4568 105.613967,7.4568 C111.190426,7.4568 114.017311,9.4172 114.017311,13.2831111 L114.017311,25.8376444 L114.016721,25.8376444 Z M105.76918,17.5528889 C103.185443,17.5528889 101.928393,18.3906667 101.928393,20.1130222 C101.928393,21.8602222 102.869705,22.6731556 104.888066,22.6731556 C106.95423,22.6731556 108.735344,22.1456444 110.181246,21.1050667 L110.181246,17.8492889 C108.714689,17.6522667 107.232787,17.5528889 105.76918,17.5528889 Z" id="Shape"></path>
                    <path d="M16.3864918,25.8376444 L12.5504262,25.8376444 L12.5504262,14.3300444 C12.5504262,12.3840889 10.98,10.7512889 9.05134426,10.6912 L8.84537705,10.6877333 C7.14570492,10.6877333 5.50032787,11.3845333 3.95291803,12.7596444 L3.95291803,25.8370667 L0.116852459,25.8370667 L0.116852459,0.534444444 L2.09213115,0.534444444 C3.11842623,0.534444444 3.95291803,1.35142222 3.95291803,2.35617778 L3.95291803,9.05204444 C5.44780328,7.99182222 7.236,7.45622222 9.27914754,7.45622222 C13.9957377,7.45622222 16.387082,9.78582222 16.387082,14.3814667 L16.387082,25.8376444 L16.3864918,25.8376444 Z" id="Shape"></path>
                    <path d="M34.9264918,25.8376444 L32.6307541,25.8376444 L31.6032787,24.2025333 C29.8239344,25.2881778 27.8728525,25.8376444 25.7984262,25.8376444 C21.2883934,25.8376444 19.0015082,23.9286667 19.0015082,20.1638667 C19.0015082,16.3326222 21.5846557,14.3895556 26.6789508,14.3895556 C28.1396066,14.3895556 29.6220984,14.4877778 31.0904262,14.6801778 L31.0904262,13.3674667 C31.0904262,11.5185778 29.5967213,10.6207111 26.5237377,10.6207111 C24.6989508,10.6207111 22.8009836,10.9003556 20.8805902,11.4538667 L20.4698361,11.5717333 L20.4698361,8.38066667 L20.7005902,8.31422222 C22.6794098,7.74511111 24.6393443,7.4568 26.5243279,7.4568 C32.1001967,7.4568 34.927082,9.4172 34.927082,13.2831111 L34.927082,25.8376444 L34.9264918,25.8376444 Z M26.6789508,17.5528889 C24.094623,17.5528889 22.8381639,18.3906667 22.8381639,20.1130222 C22.8381639,21.8602222 23.7788852,22.6731556 25.7978361,22.6731556 C27.8645902,22.6731556 29.6439344,22.1456444 31.0904262,21.1050667 L31.0904262,17.8492889 C29.624459,17.6522667 28.1419672,17.5528889 26.6789508,17.5528889 Z" id="Shape"></path>
                    <polygon id="Shape" points="52.4862295 25.8376444 37.6831475 25.8376444 37.6831475 23.0429333 37.7580984 22.9556889 48.2854426 10.6201333 38.0289836 10.6201333 38.0289836 7.45622222 52.8320656 7.45622222 52.8320656 10.4190667 52.7582951 10.5063111 42.3637377 22.8430222 52.4862295 22.8430222"></polygon>
                    <path d="M64.0971148,25.8376444 C57.6849836,25.8376444 54.4331803,22.6772 54.4331803,16.4441333 C54.4331803,10.4808889 57.348,7.4568 63.0956066,7.4568 C68.4424918,7.4568 71.1531148,10.0822222 71.1531148,15.2602667 C71.1531148,15.9830667 71.1005902,16.7642222 70.9949508,17.5823556 L70.9601311,17.8573778 L58.2763279,17.8573778 C58.3967213,21.0975556 60.4168525,22.6737333 64.4429508,22.6737333 C66.4642623,22.6737333 68.281377,22.4507111 69.8453115,22.0087111 L70.2548852,21.8931556 L70.2548852,25.0842222 L70.0229508,25.1495111 C68.4005902,25.6059556 66.4064262,25.8376444 64.0971148,25.8376444 Z M58.2993443,14.6258667 L67.4256393,14.6258667 C67.2651148,11.9097333 65.8469508,10.5872 63.0961967,10.5872 C60.1613115,10.5872 58.5897049,11.9097333 58.2993443,14.6258667 Z" id="Shape"></path>
                    <path d="M78.1683934,25.8376444 L74.3311475,25.8376444 L74.3311475,0.535022222 L76.3070164,0.535022222 C77.3333115,0.535022222 78.1678033,1.352 78.1678033,2.35675556 L78.1678033,25.8376444 L78.1683934,25.8376444 Z" id="Shape"></path>
                    <path d="M90.9295082,25.8376444 C84.2996066,25.8376444 80.9374426,22.6321333 80.9374426,16.3089333 C80.9374426,10.4352444 84.2996066,7.45622222 90.9295082,7.45622222 C92.6699016,7.45622222 94.3217705,7.62897778 95.8367213,7.9716 L96.0863607,8.02706667 L96.0863607,11.2094667 L95.6927213,11.1199111 C94.2267541,10.7888444 92.5648525,10.6207111 90.7565902,10.6207111 C86.7316721,10.6207111 84.7740984,12.4817333 84.7740984,16.3095111 C84.7740984,20.592 86.7316721,22.6743111 90.7565902,22.6743111 C92.5648525,22.6743111 94.2261639,22.5061778 95.6927213,22.1751111 L96.0863607,22.0855556 L96.0863607,25.2679556 L95.8367213,25.3234222 C94.3217705,25.6648889 92.6704918,25.8376444 90.9295082,25.8376444 Z" id="Shape"></path>
                    <path d="M124.442557,25.8376444 C122.249508,25.8376444 120.048197,25.5493333 117.89882,24.9813778 L117.662164,24.9189778 L117.662164,21.5418667 L118.08177,21.6741778 C120.172131,22.3380444 122.310885,22.6737333 124.442557,22.6737333 C128.456262,22.6737333 128.456262,21.0004889 128.456262,20.4510222 C128.456262,19.5699111 128.175344,18.3987556 125.754492,18.3987556 L123.164262,18.3987556 C119.055541,18.3987556 116.971672,16.5302222 116.971672,12.844 C116.971672,9.26928889 119.619738,7.45737778 124.839738,7.45737778 C127.021574,7.45737778 129.216984,7.74568889 131.36577,8.31364444 L131.602426,8.37604444 L131.602426,11.7531556 L131.18282,11.6208444 C129.093639,10.9569778 126.958426,10.6212889 124.839738,10.6212889 C120.63541,10.6212889 120.63541,12.2945333 120.63541,12.844 C120.63541,14.2439556 121.438623,14.8962667 123.164262,14.8962667 L125.754492,14.8962667 C130.092787,14.8962667 132.292918,16.7648 132.292918,20.4510222 C132.293508,24.0257333 129.651934,25.8376444 124.442557,25.8376444 Z" id="Shape"></path>
                    <path d="M143.412197,25.8376444 L140.052393,25.8376444 C136.812984,25.8376444 135.171738,24.1228 135.171738,20.7393333 L135.171738,4.58235556 L137.750754,4.58235556 L138.441246,7.4568 L143.412197,7.4568 L143.412197,10.6207111 L139.008984,10.6207111 L139.008984,20.5024444 C139.008984,21.9844444 139.604459,22.6737333 140.880984,22.6737333 L143.412197,22.6737333 L143.412197,25.8376444 L143.412197,25.8376444 Z" id="Shape"></path>
                </g>
            </g>
        </g>
    </g>
</svg>