<?xml version="1.0" encoding="utf-8"?>
<!-- Generator: Adobe Illustrator 21.0.2, SVG Export Plug-In . SVG Version: 6.00 Build 0)  -->
<svg version="1.1" id="Layer_1" xmlns="http://www.w3.org/2000/svg" xmlns:xlink="http://www.w3.org/1999/xlink" x="0px" y="0px"
	 viewBox="0 0 636 374" style="enable-background:new 0 0 636 374;" xml:space="preserve">
<style type="text/css">
	.st0{fill:#231F20;}
	.st1{filter:url(#Adobe_OpacityMaskFilter);}
	.st2{fill:#FFFFFF;}
	.st3{fill:url(#SVGID_1_);}
	.st4{fill:url(#SVGID_3_);}
	.st5{fill:url(#SVGID_4_);}
	.st6{mask:url(#SVGID_2_);fill:url(#SVGID_5_);}
</style>
<title>IBM Cloud (KCSP) logo</title>
<g>
	<path id="IBM_Cloud" class="st0" d="M29.8,347.5v-8.7h12.1v-69H29.8v-8.7h34.6v8.7H52.3v69h12.1v8.7H29.8L29.8,347.5z M83.4,261.2
		h35.5c14.2,0,23,8.8,23,22.3c0,12.9-8.3,17.5-14,18.3v0.7c6.2,0.4,17,5.7,17,20c0,14.2-9.5,25-22.3,25H83.4L83.4,261.2L83.4,261.2z
		 M93.8,298.5h23.9c8.2,0,13.1-4.3,13.1-12v-4.2c0-7.7-5-12-13.1-12H93.8V298.5z M93.8,338.4h25.6c8.9,0,14.4-4.7,14.4-13.4v-4.2
		c0-8.7-5.4-13.4-14.4-13.4H93.8V338.4L93.8,338.4z M231.3,274.8h-0.6l-7.3,14.5l-20.7,37.6l-20.5-37.6l-7.3-14.4h-0.6v72.6h-10.1
		v-86.4h13.6l24.8,46.5h0.5l24.9-46.5h13.6v86.4h-10.1L231.3,274.8L231.3,274.8z M283.4,305c0-29.2,15-45.3,38.2-45.3
		c15.8,0,26,6.4,32.3,20.3l-16.2,8.4c-2.2-7.2-6.8-12-16.1-12c-11,0-18.3,7.4-18.3,21v13.9c0,13.6,7.3,21,18.3,21
		c9.3,0,14.6-5.8,17.2-12.9l15.3,8.9c-6.4,13.1-16.7,20.7-32.5,20.7C298.4,349,283.4,334.2,283.4,305L283.4,305z M384.5,347.5
		c-12.5,0-18.2-6.3-18.2-17.8V256h18.3v77.3h8.2v14.2L384.5,347.5L384.5,347.5z M399.7,315c0-20.9,11.4-33.9,30.4-33.9
		c19,0,30.4,13,30.4,33.9s-11.4,34-30.4,34C411.1,349,399.7,335.9,399.7,315z M441.6,321.7v-13.2c0-8.2-4.2-12.9-11.4-12.9
		c-7.2,0-11.4,4.7-11.4,12.9v13.2c0,8.2,4.2,12.9,11.4,12.9C437.4,334.5,441.6,329.8,441.6,321.7z M512,336.7h-0.6
		c-2.2,6.6-7.5,12.4-18.2,12.4c-13.2,0-20.3-9.3-20.3-25.6v-40.8h18.3v39.2c0,7.9,2.6,12.4,9.3,12.4c5.7,0,11.5-3.2,11.5-9.4v-42.2
		h18.3v65H512L512,336.7L512,336.7z M587.2,336.7h-0.6c-1.9,7.1-9,12.4-17.5,12.4c-16.5,0-25-12-25-34c0-22,8.5-33.9,25-33.9
		c8.4,0,15.6,5.2,17.5,12.4h0.6V256h18.3v91.6h-18.3V336.7L587.2,336.7z M587.2,324.6v-19.2c0-5.9-5.1-9.5-12-9.5s-12,5.3-12,13.5
		v11.3c0,8.2,5.1,13.5,12,13.5S587.2,330.6,587.2,324.6z"/>
</g>
<g id="Layer_2">
	<defs>
		<filter id="Adobe_OpacityMaskFilter" filterUnits="userSpaceOnUse" x="205.4" y="24.9" width="224.5" height="198.6">
			<feColorMatrix  type="matrix" values="1 0 0 0 0  0 1 0 0 0  0 0 1 0 0  0 0 0 1 0"/>
		</filter>
	</defs>
	<mask maskUnits="userSpaceOnUse" x="205.4" y="24.9" width="224.5" height="198.6" id="SVGID_2_">
		<g class="st1">
			<path d="M180.4,11.3h271.8v226.8H180.4V11.3z"/>
			<path class="st2" d="M235.2,104.3c-0.7,0-1.5-0.2-2.1-0.6L213,92.1c-1.9-1-2.7-3.2-2.1-5.2c0.8-2.2,3.2-3.4,5.4-2.6
				c0.2,0.1,0.5,0.2,0.7,0.3l20.1,11.6c2,1.1,2.9,3.7,1.9,5.8C238.2,103.4,236.8,104.3,235.2,104.3z M269.9,69.6
				c-1.5,0-2.9-0.8-3.7-2.1l-11.6-20.1c-1.1-1.8-0.8-4.1,0.8-5.6c1.8-1.5,4.5-1.3,6,0.5c0,0,0,0,0,0c0.2,0.2,0.3,0.4,0.4,0.6
				L273.4,63c1.2,1.9,0.7,4.5-1.1,5.8C271.6,69.4,270.7,69.6,269.9,69.6z M313,52.4V29.5c-0.1-2.3,1.7-4.3,4.1-4.5
				c2.3-0.1,4.3,1.7,4.4,4.1v23.6c0,2.3-1.9,4.2-4.2,4.2H317C314.7,56.7,312.9,54.8,313,52.4z M364.6,69.6c-0.9,0-1.7-0.3-2.4-0.8
				c-1.8-1.4-2.3-3.9-1.1-5.8l11.6-20c1.2-2,3.8-2.7,5.8-1.6c0.2,0.1,0.4,0.3,0.6,0.4c1.6,1.4,1.9,3.8,0.8,5.6l-11.6,20.1
				C367.5,68.8,366.1,69.6,364.6,69.6L364.6,69.6z M399.2,104.3c-1.6,0-3-0.9-3.8-2.3c-1-2.1-0.2-4.6,1.9-5.8l19.9-11.5
				c1.8-1.1,4.1-0.8,5.5,0.8c1.5,1.8,1.3,4.5-0.4,6c0,0,0,0,0,0c-0.2,0.2-0.4,0.3-0.6,0.5l-20.3,11.7
				C400.7,104.1,400,104.3,399.2,104.3L399.2,104.3z"/>
			
				<linearGradient id="SVGID_1_" gradientUnits="userSpaceOnUse" x1="-2654.7959" y1="-7047.9976" x2="-2500.6208" y2="-7020.8135" gradientTransform="matrix(-0.4042 -0.4042 0.4042 -0.4042 2100.4641 -3763.4546)">
				<stop  offset="0.195" style="stop-color:#FFFFFF;stop-opacity:0"/>
				<stop  offset="0.287" style="stop-color:#FFFFFF;stop-opacity:3.000000e-02"/>
				<stop  offset="0.501" style="stop-color:#FFFFFF;stop-opacity:0.2"/>
				<stop  offset="0.793" style="stop-color:#FFFFFF;stop-opacity:0.74"/>
				<stop  offset="1" style="stop-color:#FFFFFF"/>
			</linearGradient>
			<path class="st3" d="M263.3,201.3c-29.8-29.8-29.8-78.1,0-107.8c29.8-29.8,78-29.8,107.8,0c2.1,2.2,4.2,4.4,6.1,6.8
				c1.3,1.7,2.6,3.4,3.7,5.1l-7.1,4.7c-1-1.6-2.1-3.1-3.3-4.6c-1.7-2.1-3.5-4.2-5.4-6.1c-26.5-26.4-69.4-26.4-95.8,0
				c-26.5,26.5-26.5,69.3,0,95.8L263.3,201.3L263.3,201.3z"/>
			<path class="st2" d="M371.6,223.6H254.2c-27.2-0.2-49.1-22.4-48.9-49.6v0l8.5,0.1c-0.2,22.5,17.9,40.9,40.4,41.1h117.3
				c27.5,0,49.8-22.2,49.8-49.7c0-12.2-4.5-24.1-12.7-33.2l6.3-5.7c21.4,24,19.4,60.8-4.6,82.2C399.7,218.4,385.9,223.6,371.6,223.6
				z"/>
			
				<linearGradient id="SVGID_3_" gradientUnits="userSpaceOnUse" x1="2137.9465" y1="3523.7102" x2="2228.3088" y2="3471.5388" gradientTransform="matrix(0.5716 0 0 0.5716 -1021.7434 -1848.7952)">
				<stop  offset="8.000000e-02" style="stop-color:#FFFFFF"/>
				<stop  offset="0.753" style="stop-color:#FFFFFF;stop-opacity:7.000000e-02"/>
				<stop  offset="0.875" style="stop-color:#FFFFFF;stop-opacity:0"/>
			</linearGradient>
			<path class="st4" d="M213.8,174.1l-8.5-0.1c0.1-23.9,17.5-44.2,41-48.2l1.4,8.4C228.3,137.5,213.9,154.3,213.8,174.1z"/>
			
				<linearGradient id="SVGID_4_" gradientUnits="userSpaceOnUse" x1="2344.4846" y1="3533.5439" x2="2481.9219" y2="3418.2209" gradientTransform="matrix(0.5716 0 0 0.5716 -1021.7434 -1848.7952)">
				<stop  offset="0.138" style="stop-color:#FFFFFF;stop-opacity:0"/>
				<stop  offset="0.32" style="stop-color:#FFFFFF;stop-opacity:7.000000e-02"/>
				<stop  offset="0.847" style="stop-color:#FFFFFF;stop-opacity:0.764"/>
				<stop  offset="0.947" style="stop-color:#FFFFFF"/>
			</linearGradient>
			<path class="st5" d="M321.8,165l-8.5-0.1c0.2-32.2,26.5-58.1,58.7-57.8c16.4,0.1,32,7.2,43,19.4l-6.3,5.7
				c-18.3-20.5-49.8-22.2-70.2-3.9C327.9,137.7,321.9,151,321.8,165z"/>
		</g>
	</mask>
	
		<linearGradient id="SVGID_5_" gradientUnits="userSpaceOnUse" x1="374.9998" y1="879.5267" x2="261.8322" y2="1075.5391" gradientTransform="matrix(1 0 0 1 0 -840.254)">
		<stop  offset="0" style="stop-color:#50FFD2"/>
		<stop  offset="1" style="stop-color:#0064FF"/>
	</linearGradient>
	<path class="st6" d="M235.3,104.2c-0.7,0-1.5-0.2-2.1-0.6L213.1,92c-1.9-1-2.7-3.2-2.1-5.2c0.8-2.2,3.2-3.4,5.4-2.6
		c0.2,0.1,0.5,0.2,0.7,0.3l20.1,11.6c2,1.1,2.9,3.7,1.9,5.8C238.3,103.3,236.9,104.2,235.3,104.2z M269.9,69.5
		c-1.5,0-2.9-0.8-3.7-2.1l-11.6-20.1c-1.1-1.8-0.8-4.2,0.8-5.6c1.8-1.5,4.5-1.3,6,0.5c0,0,0,0,0,0c0.2,0.2,0.3,0.4,0.4,0.6l11.6,20
		c1.2,1.9,0.7,4.5-1.1,5.8C271.7,69.2,270.8,69.5,269.9,69.5z M313.1,52.3V29.4c-0.1-2.3,1.7-4.3,4.1-4.5c2.3-0.1,4.3,1.7,4.4,4
		c0,0.1,0,0.1,0,0.2v23.4c0,2.3-1.9,4.2-4.2,4.2h-0.2C314.8,56.6,313,54.6,313.1,52.3z M364.7,69.5c-0.9,0-1.7-0.3-2.4-0.8
		c-1.8-1.4-2.3-3.9-1.1-5.8l11.6-20c1.2-2,3.8-2.7,5.8-1.6c0.2,0.1,0.4,0.3,0.6,0.4c1.6,1.4,1.9,3.8,0.8,5.6l-11.6,20.1
		C367.6,68.7,366.2,69.5,364.7,69.5L364.7,69.5z M399.3,104.2c-1.6,0-3-0.9-3.8-2.3c-1-2.1-0.2-4.7,1.9-5.8l19.9-11.5
		c1.8-1.1,4.1-0.8,5.5,0.8c1.5,1.8,1.3,4.5-0.4,6c0,0,0,0,0,0c-0.2,0.2-0.4,0.3-0.6,0.5l-20.3,11.7
		C400.8,104,400.1,104.2,399.3,104.2L399.3,104.2z M263.4,201.2c-29.8-29.8-29.8-78.1,0-107.8c29.8-29.8,78-29.8,107.8,0
		c2.2,2.2,4.2,4.4,6.1,6.8c1.3,1.7,2.6,3.4,3.7,5.1l-7.1,4.7c-1-1.6-2.1-3.1-3.3-4.6c-1.7-2.1-3.5-4.2-5.4-6.1
		c-26.5-26.4-69.4-26.4-95.8,0c-26.5,26.5-26.5,69.3,0,95.8L263.4,201.2L263.4,201.2z M371.7,223.5H254.3
		c-27.2-0.2-49.1-22.4-48.9-49.6v0l8.5,0.1c-0.2,22.5,17.9,40.9,40.4,41.1h117.3c27.5,0,49.8-22.2,49.8-49.7
		c0-12.2-4.5-24.1-12.7-33.2l6.3-5.7c21.5,24,19.4,60.8-4.6,82.2C399.8,218.2,386,223.5,371.7,223.5z M213.9,174l-8.5-0.1
		c0.1-23.9,17.5-44.2,41-48.2l1.4,8.4C228.3,137.4,214,154.2,213.9,174z M321.9,164.9l-8.5-0.1c0.2-32.2,26.5-58.1,58.7-57.8
		c16.4,0.1,32,7.2,43,19.4l-6.3,5.7c-18.3-20.5-49.8-22.2-70.2-3.9C328,137.5,322,150.9,321.9,164.9z"/>
</g>
</svg>
