<svg height="60" viewBox="0 0 120 59.999997" width="120" xmlns="http://www.w3.org/2000/svg"><g transform="matrix(.21594782 0 0 .21594782 2.339411 32.398966)"><path d="m82.77 10a9.81 9.81 0 0 0 -3.77 1l-51 24.35a9.68 9.68 0 0 0 -5.27 6.56l-12.49 54.64a9.6 9.6 0 0 0 1.33 7.45q.26.4.55.77l35.27 43.85a9.77 9.77 0 0 0 7.61 3.59h56.56a9.77 9.77 0 0 0 7.62-3.63l35.25-43.86a9.6 9.6 0 0 0 1.88-8.18l-12.58-54.69a9.68 9.68 0 0 0 -5.27-6.56l-50.96-24.29a9.81 9.81 0 0 0 -4.73-1z" fill="#326ce5" transform="translate(0 -92.210007)"/><path d="m83.28 28.62a3.23 3.23 0 0 0 -3 3.39v.08.78a25.44 25.44 0 0 0 .42 2.9 28.49 28.49 0 0 1 .3 5.54 3.33 3.33 0 0 1 -1 1.58l-.07 1.29a39.69 39.69 0 0 0 -5.51.85 39.23 39.23 0 0 0 -19.94 11.38l-1.1-.78a2.41 2.41 0 0 1 -1.81-.18 28.48 28.48 0 0 1 -4.11-3.71 25.41 25.41 0 0 0 -2-2.13c-.19-.16-.47-.38-.68-.54a3.63 3.63 0 0 0 -2.12-.8 2.94 2.94 0 0 0 -2.43 1.08 3.23 3.23 0 0 0 .75 4.5c.2.16.45.37.63.51a25.42 25.42 0 0 0 2.53 1.48 28.47 28.47 0 0 1 4.57 3.16 3.39 3.39 0 0 1 .61 1.76l1 .87a39.46 39.46 0 0 0 -6.22 27.51l-1.28.37a4.23 4.23 0 0 1 -1.31 1.32 28.48 28.48 0 0 1 -5.47.9 25.52 25.52 0 0 0 -2.93.23l-.81.19h-.09a3.06 3.06 0 1 0 1.36 5.94h.06l.83-.09a25.49 25.49 0 0 0 2.74-1 28.51 28.51 0 0 1 5.32-1.56 3.37 3.37 0 0 1 1.75.62l1.33-.23a39.69 39.69 0 0 0 17.59 22l-.56 1.17a3 3 0 0 1 .27 1.72 29.8 29.8 0 0 1 -2.76 5 25.55 25.55 0 0 0 -1.64 2.44c-.12.23-.27.58-.39.82a3.06 3.06 0 1 0 5.51 2.61c.12-.24.28-.55.38-.78a25.45 25.45 0 0 0 .88-2.8c.81-2 1.25-4.15 2.36-5.48a2.47 2.47 0 0 1 1.31-.64l.69-1.25a39.47 39.47 0 0 0 28.15.07l.61 1.17a2.41 2.41 0 0 1 1.56.94 28.46 28.46 0 0 1 2.09 5.13 25.51 25.51 0 0 0 .89 2.8c.1.23.26.54.38.78a3.06 3.06 0 1 0 5.51-2.61c-.12-.24-.28-.59-.4-.82a25.43 25.43 0 0 0 -1.64-2.43 28.5 28.5 0 0 1 -2.7-4.84 2.39 2.39 0 0 1 .31-1.83 10.48 10.48 0 0 1 -.51-1.23 39.69 39.69 0 0 0 17.51-22.08l1.3.23a2.41 2.41 0 0 1 1.71-.63 28.51 28.51 0 0 1 5.32 1.56 25.49 25.49 0 0 0 2.74 1.06c.22.06.54.11.79.17h.06a3.06 3.06 0 1 0 1.36-5.94c-.26-.06-.63-.16-.89-.21a25.52 25.52 0 0 0 -2.93-.23 28.47 28.47 0 0 1 -5.47-.9 3.42 3.42 0 0 1 -1.32-1.32l-1.23-.36a39.62 39.62 0 0 0 -6.35-27.45l1.08-1a2.41 2.41 0 0 1 .57-1.73 28.47 28.47 0 0 1 4.54-3.19 25.5 25.5 0 0 0 2.53-1.48c.2-.15.46-.37.67-.54a3.07 3.07 0 1 0 -3.8-4.77c-.21.16-.49.38-.68.54a25.52 25.52 0 0 0 -2 2.13 28.56 28.56 0 0 1 -4 3.77 3.4 3.4 0 0 1 -1.85.2l-1.16.83a40 40 0 0 0 -25.35-12.23c0-.41-.06-1.14-.07-1.36a2.41 2.41 0 0 1 -1-1.52 28.54 28.54 0 0 1 .35-5.53 25.44 25.44 0 0 0 .42-2.9c0-.25 0-.6 0-.87a3.23 3.23 0 0 0 -3-3.39zm-3.82 23.66-.91 16h-.07a2.69 2.69 0 0 1 -4.27 2.06l-13.12-9.3a31.42 31.42 0 0 1 15.13-8.24 32.14 32.14 0 0 1 3.24-.52zm7.64 0a31.68 31.68 0 0 1 18.27 8.81l-13 9.24a2.69 2.69 0 0 1 -4.37-2.07zm-30.78 14.78 12 10.71v.07a2.69 2.69 0 0 1 -1.06 4.62v.05l-15.4 4.43a31.41 31.41 0 0 1 4.46-19.88zm53.83 0a32 32 0 0 1 4.59 19.82l-15.42-4.44v-.06a2.69 2.69 0 0 1 -1.06-4.62l11.91-10.66zm-29.33 11.54h4.91l3 3.81-1.09 4.76-4.41 2.12-4.42-2.12-1.04-4.77zm15.73 13a2.68 2.68 0 0 1 .62 0l15.88 2.68a31.45 31.45 0 0 1 -12.71 16l-6.14-14.86a2.7 2.7 0 0 1 2.33-3.75zm-26.67.07a2.69 2.69 0 0 1 2.43 3.75v.06l-6.1 14.74a31.58 31.58 0 0 1 -12.63-15.83l15.74-2.67a2.72 2.72 0 0 1 .53 0zm13.3 6.46a2.71 2.71 0 0 1 2.46 1.41h.06l7.76 14a32.17 32.17 0 0 1 -3.1.87 31.54 31.54 0 0 1 -17.21-.89l7.74-14a2.69 2.69 0 0 1 2.29-1.35z" fill="#fff" stroke="#fff" stroke-width=".25" transform="translate(0 -92.210007)"/><path d="m188.52-8.260007 2.95-3.22q1.52-1.68 2.95-3.32l2.69-3.12q1.26-1.48 2.17-2.58h11.48q-3.44 3.95-6.71 7.53-3.27 3.58-7.16 7.4a44.54 44.54 0 0 1 4 4.19q2.07 2.43 4 5 1.93 2.57 3.56 5.19 1.62 2.6 2.72 4.74h-11.1q-1-1.69-2.36-3.74-1.36-2.05-2.79-4.02-1.49-2-3.14-3.93a26.37 26.37 0 0 0 -3.27-3.18v14.94h-9.66v-48.77l9.66-1.56v28.45z"/><path d="m244.83 12.419993a53.66 53.66 0 0 1 -6.35 1.33 52.21 52.21 0 0 1 -8.16.62 19.39 19.39 0 0 1 -7.23-1.17 11 11 0 0 1 -4.57-3.27 12.75 12.75 0 0 1 -2.4-5 27 27 0 0 1 -.71-6.42v-19h9.66v17.81q0 4.67 1.23 6.74 1.23 2.07 4.6 2.07 1 0 2.2-.1 1.2-.1 2.07-.23v-26.3h9.66z"/><path d="m285.59-3.460007a21.55 21.55 0 0 1 -1.2 7.39 15.61 15.61 0 0 1 -3.47 5.64 15.24 15.24 0 0 1 -5.57 3.6 20.93 20.93 0 0 1 -7.52 1.26q-1.75 0-3.66-.16-1.91-.16-3.76-.42-1.85-.26-3.53-.62-1.68-.36-3-.75v-47.63l9.66-1.56v17a18.12 18.12 0 0 1 3.37-1.1 17.31 17.31 0 0 1 3.76-.39 15.39 15.39 0 0 1 6.42 1.26 12.58 12.58 0 0 1 4.67 3.6 16.16 16.16 0 0 1 2.85 5.61 25.56 25.56 0 0 1 .98 7.27zm-9.85-.26q0-9.33-6.87-9.33a11.4 11.4 0 0 0 -2.95.39 8.39 8.39 0 0 0 -2.37 1v17.53q.71.13 1.81.23 1.1.1 2.4.1a6.94 6.94 0 0 0 6-2.72 11.83 11.83 0 0 0 1.98-7.2z"/><path d="m291.42-3.210007a20.83 20.83 0 0 1 1.39-7.94 17 17 0 0 1 3.66-5.67 15.22 15.22 0 0 1 5.22-3.39 16.33 16.33 0 0 1 6.06-1.17q7.26 0 11.47 4.44 4.21 4.44 4.21 13.06 0 .84-.06 1.85-.06 1.01-.13 1.78h-21.9a6.41 6.41 0 0 0 2.79 4.73 11.2 11.2 0 0 0 6.61 1.75 27.9 27.9 0 0 0 5.22-.49 19.65 19.65 0 0 0 4.18-1.2l1.3 7.84a13.37 13.37 0 0 1 -2.07.78 27.23 27.23 0 0 1 -2.88.68q-1.59.29-3.4.49a34.08 34.08 0 0 1 -3.63.19 21.48 21.48 0 0 1 -8-1.36 15.58 15.58 0 0 1 -5.64-3.73 14.78 14.78 0 0 1 -3.3-5.61 22.2 22.2 0 0 1 -1.1-7.03zm22.68-3.69a10 10 0 0 0 -.42-2.4 6 6 0 0 0 -1.1-2.07 5.88 5.88 0 0 0 -1.88-1.49 6.13 6.13 0 0 0 -2.82-.58 6.49 6.49 0 0 0 -2.79.55 5.77 5.77 0 0 0 -1.94 1.46 6.53 6.53 0 0 0 -1.2 2.11 13.8 13.8 0 0 0 -.62 2.43h12.77z"/><path d="m351.42-11.950007q-1.3-.32-3-.68a18.87 18.87 0 0 0 -3.76-.36 17.53 17.53 0 0 0 -2.17.16 12.8 12.8 0 0 0 -1.91.36v26h-9.66v-32.22a58.13 58.13 0 0 1 6.08-1.71 35.3 35.3 0 0 1 7.87-.81q.78 0 1.88.1 1.1.1 2.2.26 1.1.16 2.2.39a10.45 10.45 0 0 1 1.88.55z"/><path d="m358.23-19.330007a54 54 0 0 1 6.35-1.33 52.25 52.25 0 0 1 8.17-.62 19.9 19.9 0 0 1 7.25 1.14 10.87 10.87 0 0 1 4.57 3.21 12.52 12.52 0 0 1 2.4 4.92 26.24 26.24 0 0 1 .71 6.35v19.25h-9.68v-18.09q0-4.67-1.23-6.61-1.23-1.94-4.6-1.94-1 0-2.2.1-1.2.1-2.07.23v26.31h-9.66v-32.92z"/><path d="m394.77-3.210007a20.84 20.84 0 0 1 1.39-7.94 17 17 0 0 1 3.66-5.67 15.23 15.23 0 0 1 5.18-3.39 16.34 16.34 0 0 1 6.06-1.17q7.26 0 11.47 4.44 4.21 4.44 4.21 13.06 0 .84-.07 1.85-.07 1.01-.13 1.78h-21.9a6.41 6.41 0 0 0 2.79 4.73 11.2 11.2 0 0 0 6.61 1.75 27.91 27.91 0 0 0 5.22-.49 19.66 19.66 0 0 0 4.18-1.2l1.3 7.84a13.38 13.38 0 0 1 -2.07.78 27.22 27.22 0 0 1 -2.88.68q-1.59.29-3.4.49a34.08 34.08 0 0 1 -3.63.19 21.48 21.48 0 0 1 -8-1.36 15.58 15.58 0 0 1 -5.64-3.73 14.78 14.78 0 0 1 -3.28-5.64 22.21 22.21 0 0 1 -1.07-7zm22.68-3.69a10 10 0 0 0 -.42-2.4 6 6 0 0 0 -1.1-2.07 5.88 5.88 0 0 0 -1.88-1.49 6.13 6.13 0 0 0 -2.82-.58 6.48 6.48 0 0 0 -2.79.55 5.77 5.77 0 0 0 -1.94 1.46 6.52 6.52 0 0 0 -1.2 2.11 13.75 13.75 0 0 0 -.62 2.43h12.77z"/><path d="m433.91-28.990007 9.66-1.56v10h11.6v8h-11.6v12a9.54 9.54 0 0 0 1.07 4.86q1.07 1.81 4.31 1.81a18.46 18.46 0 0 0 3.21-.29 16.5 16.5 0 0 0 3-.81l1.36 7.52a27.34 27.34 0 0 1 -3.89 1.23 22.68 22.68 0 0 1 -5.25.52 17.28 17.28 0 0 1 -6.54-1.07 10.26 10.26 0 0 1 -4.15-3 11.08 11.08 0 0 1 -2.17-4.63 27.33 27.33 0 0 1 -.62-6v-28.58z"/><path d="m460.29-3.210007a20.84 20.84 0 0 1 1.39-7.94 17 17 0 0 1 3.66-5.67 15.23 15.23 0 0 1 5.22-3.39 16.34 16.34 0 0 1 6.06-1.17q7.26 0 11.47 4.44 4.21 4.44 4.21 13.03 0 .84-.07 1.85-.07 1.01-.13 1.78h-21.9a6.41 6.41 0 0 0 2.8 4.73 11.2 11.2 0 0 0 6.61 1.75 27.91 27.91 0 0 0 5.22-.49 19.66 19.66 0 0 0 4.18-1.2l1.3 7.84a13.38 13.38 0 0 1 -2.07.78 27.22 27.22 0 0 1 -2.88.68q-1.59.29-3.4.49a34.08 34.08 0 0 1 -3.63.19 21.48 21.48 0 0 1 -8-1.36 15.58 15.58 0 0 1 -5.64-3.73 14.78 14.78 0 0 1 -3.34-5.61 22.21 22.21 0 0 1 -1.06-7zm22.71-3.68a10 10 0 0 0 -.42-2.4 6 6 0 0 0 -1.1-2.07 5.88 5.88 0 0 0 -1.88-1.49 6.13 6.13 0 0 0 -2.82-.58 6.48 6.48 0 0 0 -2.79.55 5.77 5.77 0 0 0 -1.99 1.45 6.52 6.52 0 0 0 -1.2 2.11 13.75 13.75 0 0 0 -.62 2.43z"/><path d="m509.53 6.649993a9.63 9.63 0 0 0 3.76-.52 2 2 0 0 0 1.1-2 2.46 2.46 0 0 0 -1.43-2 27.15 27.15 0 0 0 -4.34-2 44.1 44.1 0 0 1 -4.12-1.75 12.09 12.09 0 0 1 -3.14-2.17 8.77 8.77 0 0 1 -2-3 11.14 11.14 0 0 1 -.71-4.21 9.11 9.11 0 0 1 3.56-7.58q3.56-2.79 9.78-2.79a31.44 31.44 0 0 1 6 .55 27.84 27.84 0 0 1 4.54 1.2l-1.68 7.52a35.56 35.56 0 0 0 -3.66-1 19.94 19.94 0 0 0 -4.44-.45q-4.54 0-4.54 2.53a2.61 2.61 0 0 0 .19 1 2.21 2.21 0 0 0 .78.87 10.91 10.91 0 0 0 1.59.91q1 .49 2.56 1.08a39.64 39.64 0 0 1 5.25 2.32 12.55 12.55 0 0 1 3.27 2.47 7.64 7.64 0 0 1 1.68 2.94 13.05 13.05 0 0 1 .49 3.75 8.64 8.64 0 0 1 -3.79 7.63q-3.79 2.58-10.72 2.59a30.82 30.82 0 0 1 -7.55-.78 30.5 30.5 0 0 1 -4.18-1.3l1.62-7.84a31.57 31.57 0 0 0 5.05 1.52 24.54 24.54 0 0 0 5.08.51z"/></g></svg>