<?xml version="1.0" encoding="UTF-8" standalone="no"?>
<!-- Created with Inkscape (http://www.inkscape.org/) -->
<svg xmlns:dc="http://purl.org/dc/elements/1.1/" xmlns:cc="http://creativecommons.org/ns#" xmlns:rdf="http://www.w3.org/1999/02/22-rdf-syntax-ns#" xmlns:svg="http://www.w3.org/2000/svg" xmlns="http://www.w3.org/2000/svg" xmlns:sodipodi="http://sodipodi.sourceforge.net/DTD/sodipodi-0.dtd" xmlns:inkscape="http://www.inkscape.org/namespaces/inkscape" width="370.96753" height="145.78717" id="svg2" sodipodi:version="0.32" inkscape:version="0.46" version="1.0" sodipodi:docname="Marks &amp; Spencer new logo.svg" inkscape:output_extension="org.inkscape.output.svg.inkscape">
  <defs id="defs4">
    <inkscape:perspective sodipodi:type="inkscape:persp3d" inkscape:vp_x="0 : 526.18109 : 1" inkscape:vp_y="0 : 1000 : 0" inkscape:vp_z="744.09448 : 526.18109 : 1" inkscape:persp3d-origin="372.04724 : 350.78739 : 1" id="perspective10"/>
    <clipPath id="clipPath11572" clipPathUnits="userSpaceOnUse">
      <path id="path11574" d="M 0.029999,841.86 L 595.275,841.86 L 595.275,0 L 0.029999,0 L 0.029999,841.86 z"/>
    </clipPath>
    <clipPath id="clipPath11386" clipPathUnits="userSpaceOnUse">
      <path id="path11388" d="M 380.103,161.337 L 355.084,161.337 L 364.244,218.775 L 389.263,218.775 L 380.103,161.337"/>
    </clipPath>
    <clipPath id="clipPath11374" clipPathUnits="userSpaceOnUse">
      <path id="path11376" d="M 380.523,161.337 L 380.103,161.337 L 389.263,218.775 L 389.683,218.775 L 380.523,161.337 M 355.084,161.337 L 354.756,161.337 L 363.916,218.775 L 364.244,218.775 L 355.084,161.337"/>
    </clipPath>
    <clipPath id="clipPath11362" clipPathUnits="userSpaceOnUse">
      <path id="path11364" d="M 313.83,208.597 L 313.83,218.775 L 315.453,218.775 L 313.83,208.597"/>
    </clipPath>
    <clipPath id="clipPath11350" clipPathUnits="userSpaceOnUse">
      <path id="path11352" d="M 313.83,203.982 L 313.83,208.597 L 315.453,218.775 L 316.189,218.775 L 313.83,203.982"/>
    </clipPath>
    <clipPath id="clipPath11338" clipPathUnits="userSpaceOnUse">
      <path id="path11340" d="M 354.756,161.337 L 313.83,161.337 L 313.83,203.982 L 316.189,218.775 L 363.916,218.775 L 354.756,161.337"/>
    </clipPath>
    <clipPath id="clipPath11326" clipPathUnits="userSpaceOnUse">
      <path id="path11328" d="M 530.811,161.337 L 413.634,161.337 L 422.794,218.775 L 530.811,218.775 L 530.811,161.337"/>
    </clipPath>
    <clipPath id="clipPath11314" clipPathUnits="userSpaceOnUse">
      <path id="path11316" d="M 413.634,161.337 L 411.123,161.337 L 420.283,218.775 L 422.794,218.775 L 413.634,161.337"/>
    </clipPath>
    <clipPath id="clipPath11302" clipPathUnits="userSpaceOnUse">
      <path id="path11304" d="M 403.672,161.337 L 380.523,161.337 L 389.683,218.775 L 412.832,218.775 L 403.672,161.337"/>
    </clipPath>
    <clipPath id="clipPath11290" clipPathUnits="userSpaceOnUse">
      <path id="path11292" d="M 410.195,161.337 L 403.672,161.337 L 412.832,218.775 L 419.355,218.775 L 410.195,161.337"/>
    </clipPath>
    <clipPath id="clipPath11278" clipPathUnits="userSpaceOnUse">
      <path id="path11280" d="M 411.123,161.337 L 410.195,161.337 L 419.355,218.775 L 420.283,218.775 L 411.123,161.337"/>
    </clipPath>
    <clipPath id="clipPath8768" clipPathUnits="userSpaceOnUse">
      <path id="path8770" d="M 375.054,129.684 L 350.035,129.684 L 355.084,161.337 L 380.103,161.337 L 375.054,129.684 M 389.263,218.775 L 364.244,218.775 L 391.35,388.731 L 416.369,388.731 L 389.263,218.775"/>
    </clipPath>
    <linearGradient id="linearGradient8756" spreadMethod="pad" gradientTransform="matrix(383.839, -61.2, -52.845, -331.33, 52.039, 424.408)" gradientUnits="userSpaceOnUse" y2="0" x2="1" y1="0" x1="0">
      <stop id="stop8758" offset="0" style="stop-opacity: 1; stop-color: rgb(245, 242, 219);"/>
      <stop id="stop8760" offset="1" style="stop-opacity: 1; stop-color: rgb(245, 242, 219);"/>
    </linearGradient>
    <clipPath id="clipPath8738" clipPathUnits="userSpaceOnUse">
      <path id="path8740" d="M 301.245,129.684 L 257.297,129.684 L 298.609,388.731 L 342.558,388.731 L 315.453,218.775 L 313.83,218.775 L 313.83,208.597 L 301.245,129.684"/>
    </clipPath>
    <linearGradient id="linearGradient8726" spreadMethod="pad" gradientTransform="matrix(383.839, -61.2, -52.845, -331.33, 52.039, 424.408)" gradientUnits="userSpaceOnUse" y2="0" x2="1" y1="0" x1="0">
      <stop id="stop8728" offset="0" style="stop-opacity: 1; stop-color: rgb(245, 242, 219);"/>
      <stop id="stop8730" offset="1" style="stop-opacity: 1; stop-color: rgb(245, 242, 219);"/>
    </linearGradient>
    <linearGradient id="linearGradient8708" spreadMethod="pad" gradientTransform="matrix(383.839, -61.2, -52.845, -331.33, 52.039, 424.408)" gradientUnits="userSpaceOnUse" y2="0" x2="1" y1="0" x1="0">
      <stop id="stop8710" offset="0" style="stop-opacity: 1; stop-color: rgb(245, 242, 219);"/>
      <stop id="stop8712" offset="1" style="stop-opacity: 1; stop-color: rgb(245, 242, 219);"/>
    </linearGradient>
    <clipPath id="clipPath8690" clipPathUnits="userSpaceOnUse">
      <path id="path8692" d="M 119.171,129.684 L 58.05,129.684 C 54.918,129.684 52.38,132.222 52.38,135.354 L 52.38,383.061 C 52.38,386.193 54.918,388.731 58.05,388.731 L 160.485,388.731 L 119.171,129.684"/>
    </clipPath>
    <linearGradient id="linearGradient8678" spreadMethod="pad" gradientTransform="matrix(383.839, -61.2, -52.845, -331.33, 52.039, 424.408)" gradientUnits="userSpaceOnUse" y2="0" x2="1" y1="0" x1="0">
      <stop id="stop8680" offset="0" style="stop-opacity: 1; stop-color: rgb(245, 242, 219);"/>
      <stop id="stop8682" offset="1" style="stop-opacity: 1; stop-color: rgb(245, 242, 219);"/>
    </linearGradient>
    <linearGradient id="linearGradient8660" spreadMethod="pad" gradientTransform="matrix(383.839, -61.2, -52.845, -331.33, 52.039, 424.408)" gradientUnits="userSpaceOnUse" y2="0" x2="1" y1="0" x1="0">
      <stop id="stop8662" offset="0" style="stop-opacity: 1; stop-color: rgb(245, 242, 219);"/>
      <stop id="stop8664" offset="1" style="stop-opacity: 1; stop-color: rgb(245, 242, 219);"/>
    </linearGradient>
    <linearGradient id="linearGradient8642" spreadMethod="pad" gradientTransform="matrix(184.895, -29.496, -52.851, -331.369, 453.24, 409.716)" gradientUnits="userSpaceOnUse" y2="0" x2="1" y1="0" x1="0">
      <stop id="stop8644" offset="0" style="stop-opacity: 1; stop-color: rgb(245, 242, 219);"/>
      <stop id="stop8646" offset="1" style="stop-opacity: 1; stop-color: rgb(245, 242, 219);"/>
    </linearGradient>
    <linearGradient id="linearGradient8620" spreadMethod="pad" gradientTransform="matrix(383.839, -61.2, -52.845, -331.33, 52.039, 424.408)" gradientUnits="userSpaceOnUse" y2="0" x2="1" y1="0" x1="0">
      <stop id="stop8622" offset="0" style="stop-opacity: 1; stop-color: rgb(245, 242, 219);"/>
      <stop id="stop8624" offset="1" style="stop-opacity: 1; stop-color: rgb(245, 242, 219);"/>
    </linearGradient>
    <clipPath id="clipPath8594" clipPathUnits="userSpaceOnUse">
      <path id="path8596" d="M 373.76,121.566 L 348.741,121.566 L 350.035,129.684 L 375.054,129.684 L 373.76,121.566 M 416.369,388.731 L 391.35,388.731 L 392.44,395.562 L 417.459,395.562 L 416.369,388.731"/>
    </clipPath>
    <clipPath id="clipPath8582" clipPathUnits="userSpaceOnUse">
      <path id="path8584" d="M 374.18,121.566 L 373.76,121.566 L 375.054,129.684 L 375.475,129.684 L 374.18,121.566 M 348.741,121.566 L 348.414,121.566 L 349.708,129.684 L 350.035,129.684 L 348.741,121.566 M 416.788,388.731 L 416.369,388.731 L 417.459,395.562 L 417.877,395.562 L 416.788,388.731 M 391.35,388.731 L 391.021,388.731 L 392.11,395.562 L 392.44,395.562 L 391.35,388.731"/>
    </clipPath>
    <clipPath id="clipPath8570" clipPathUnits="userSpaceOnUse">
      <path id="path8572" d="M 299.95,121.566 L 256.002,121.566 L 257.297,129.684 L 301.245,129.684 L 299.95,121.566 M 342.558,388.731 L 298.609,388.731 L 299.699,395.562 L 343.647,395.562 L 342.558,388.731"/>
    </clipPath>
    <clipPath id="clipPath8558" clipPathUnits="userSpaceOnUse">
      <path id="path8560" d="M 300.686,121.566 L 299.95,121.566 L 301.245,129.684 L 301.981,129.684 L 300.686,121.566 M 256.002,121.566 L 255.419,121.566 L 256.714,129.684 L 257.297,129.684 L 256.002,121.566 M 343.294,388.731 L 342.558,388.731 L 343.647,395.562 L 344.383,395.562 L 343.294,388.731 M 298.609,388.731 L 298.026,388.731 L 299.115,395.562 L 299.699,395.562 L 298.609,388.731"/>
    </clipPath>
    <clipPath id="clipPath8546" clipPathUnits="userSpaceOnUse">
      <path id="path8548" d="M 391.021,388.731 L 343.294,388.731 L 344.383,395.562 L 392.11,395.562 L 391.021,388.731"/>
    </clipPath>
    <clipPath id="clipPath8534" clipPathUnits="userSpaceOnUse">
      <path id="path8536" d="M 117.876,121.566 L 44.622,121.566 L 44.622,377.856 L 47.446,395.562 L 161.575,395.562 L 160.485,388.731 L 58.05,388.731 C 54.918,388.731 52.38,386.193 52.38,383.061 L 52.38,135.354 C 52.38,132.222 54.918,129.684 58.05,129.684 L 119.171,129.684 L 117.876,121.566"/>
    </clipPath>
    <clipPath id="clipPath8522" clipPathUnits="userSpaceOnUse">
      <path id="path8524" d="M 44.622,377.856 L 44.622,395.562 L 47.446,395.562 L 44.622,377.856"/>
    </clipPath>
    <clipPath id="clipPath8510" clipPathUnits="userSpaceOnUse">
      <path id="path8512" d="M 121.018,121.566 L 117.876,121.566 L 119.171,129.684 L 122.313,129.684 L 121.018,121.566 M 163.625,388.731 L 160.485,388.731 L 161.575,395.562 L 164.715,395.562 L 163.625,388.731"/>
    </clipPath>
    <clipPath id="clipPath8498" clipPathUnits="userSpaceOnUse">
      <path id="path8500" d="M 348.414,121.566 L 300.686,121.566 L 301.981,129.684 L 349.708,129.684 L 348.414,121.566 M 255.419,121.566 L 121.018,121.566 L 122.313,129.684 L 256.714,129.684 L 255.419,121.566 M 298.026,388.731 L 163.625,388.731 L 164.715,395.562 L 299.115,395.562 L 298.026,388.731"/>
    </clipPath>
    <clipPath id="clipPath8486" clipPathUnits="userSpaceOnUse">
      <path id="path8488" d="M 557.622,121.566 L 407.291,121.566 L 408.586,129.684 L 544.527,129.684 C 547.659,129.684 550.197,132.222 550.197,135.354 L 550.197,383.061 C 550.197,386.193 547.659,388.731 544.527,388.731 L 449.898,388.731 L 450.987,395.562 L 557.622,395.562 L 557.622,121.566"/>
    </clipPath>
    <clipPath id="clipPath8474" clipPathUnits="userSpaceOnUse">
      <path id="path8476" d="M 407.291,121.566 L 404.78,121.566 L 406.075,129.684 L 408.586,129.684 L 407.291,121.566 M 449.898,388.731 L 447.387,388.731 L 448.476,395.562 L 450.987,395.562 L 449.898,388.731"/>
    </clipPath>
    <clipPath id="clipPath8462" clipPathUnits="userSpaceOnUse">
      <path id="path8464" d="M 397.33,121.566 L 374.18,121.566 L 375.475,129.684 L 398.624,129.684 L 397.33,121.566 M 439.937,388.731 L 416.788,388.731 L 417.877,395.562 L 441.026,395.562 L 439.937,388.731"/>
    </clipPath>
    <clipPath id="clipPath8450" clipPathUnits="userSpaceOnUse">
      <path id="path8452" d="M 403.852,121.566 L 397.33,121.566 L 398.624,129.684 L 405.147,129.684 L 403.852,121.566 M 446.459,388.731 L 439.937,388.731 L 441.026,395.562 L 447.549,395.562 L 446.459,388.731"/>
    </clipPath>
    <clipPath id="clipPath8438" clipPathUnits="userSpaceOnUse">
      <path id="path8440" d="M 404.78,121.566 L 403.852,121.566 L 405.147,129.684 L 406.075,129.684 L 404.78,121.566 M 447.387,388.731 L 446.459,388.731 L 447.549,395.562 L 448.476,395.562 L 447.387,388.731"/>
    </clipPath>
    <clipPath id="clipPath3786" clipPathUnits="userSpaceOnUse">
      <path id="path3788" d="M 439.277,532.362 L 414.258,532.362 L 454.403,784.074 L 479.422,784.074 L 439.277,532.362"/>
    </clipPath>
    <clipPath id="clipPath3780" clipPathUnits="userSpaceOnUse">
      <path id="path3782" d="M 446.921,604.349 L 414.206,604.349 L 414.206,532.278 L 446.921,532.278 L 446.921,604.349 z"/>
    </clipPath>
    <clipPath id="clipPath3768" clipPathUnits="userSpaceOnUse">
      <path id="path3770" d="M 439.277,532.362 L 414.258,532.362 L 454.403,784.074 L 479.422,784.074 L 439.277,532.362"/>
    </clipPath>
    <clipPath id="clipPath3762" clipPathUnits="userSpaceOnUse">
      <path id="path3764" d="M 479.472,640.343 L 446.757,640.343 L 446.757,568.272 L 479.472,568.272 L 479.472,640.343 z"/>
    </clipPath>
    <clipPath id="clipPath3750" clipPathUnits="userSpaceOnUse">
      <path id="path3752" d="M 439.277,532.362 L 414.258,532.362 L 454.403,784.074 L 479.422,784.074 L 439.277,532.362"/>
    </clipPath>
    <clipPath id="clipPath3744" clipPathUnits="userSpaceOnUse">
      <path id="path3746" d="M 446.921,748.162 L 414.206,748.162 L 414.206,604.185 L 446.921,604.185 L 446.921,748.162 z"/>
    </clipPath>
    <clipPath id="clipPath3732" clipPathUnits="userSpaceOnUse">
      <path id="path3734" d="M 439.277,532.362 L 414.258,532.362 L 454.403,784.074 L 479.422,784.074 L 439.277,532.362"/>
    </clipPath>
    <clipPath id="clipPath3726" clipPathUnits="userSpaceOnUse">
      <path id="path3728" d="M 479.472,784.156 L 446.757,784.156 L 446.757,640.179 L 479.472,640.179 L 479.472,784.156 z"/>
    </clipPath>
    <clipPath id="clipPath3714" clipPathUnits="userSpaceOnUse">
      <path id="path3716" d="M 439.694,532.362 L 439.277,532.362 L 479.422,784.074 L 479.836,784.074 L 439.694,532.362 M 414.258,532.362 L 413.927,532.362 L 454.07,784.074 L 454.403,784.074 L 414.258,532.362"/>
    </clipPath>
    <clipPath id="clipPath3708" clipPathUnits="userSpaceOnUse">
      <path id="path3710" d="M 447.003,604.349 L 413.878,604.349 L 413.878,532.278 L 447.003,532.278 L 447.003,604.349 z"/>
    </clipPath>
    <clipPath id="clipPath3696" clipPathUnits="userSpaceOnUse">
      <path id="path3698" d="M 439.694,532.362 L 439.277,532.362 L 479.422,784.074 L 479.836,784.074 L 439.694,532.362 M 414.258,532.362 L 413.927,532.362 L 454.07,784.074 L 454.403,784.074 L 414.258,532.362"/>
    </clipPath>
    <clipPath id="clipPath3690" clipPathUnits="userSpaceOnUse">
      <path id="path3692" d="M 479.882,640.343 L 446.839,640.343 L 446.839,568.272 L 479.882,568.272 L 479.882,640.343 z"/>
    </clipPath>
    <clipPath id="clipPath3678" clipPathUnits="userSpaceOnUse">
      <path id="path3680" d="M 439.694,532.362 L 439.277,532.362 L 479.422,784.074 L 479.836,784.074 L 439.694,532.362 M 414.258,532.362 L 413.927,532.362 L 454.07,784.074 L 454.403,784.074 L 414.258,532.362"/>
    </clipPath>
    <clipPath id="clipPath3672" clipPathUnits="userSpaceOnUse">
      <path id="path3674" d="M 447.003,748.162 L 413.878,748.162 L 413.878,604.185 L 447.003,604.185 L 447.003,748.162 z"/>
    </clipPath>
    <clipPath id="clipPath3660" clipPathUnits="userSpaceOnUse">
      <path id="path3662" d="M 439.694,532.362 L 439.277,532.362 L 479.422,784.074 L 479.836,784.074 L 439.694,532.362 M 414.258,532.362 L 413.927,532.362 L 454.07,784.074 L 454.403,784.074 L 414.258,532.362"/>
    </clipPath>
    <clipPath id="clipPath3654" clipPathUnits="userSpaceOnUse">
      <path id="path3656" d="M 479.882,784.156 L 446.839,784.156 L 446.839,640.179 L 479.882,640.179 L 479.882,784.156 z"/>
    </clipPath>
    <clipPath id="clipPath3642" clipPathUnits="userSpaceOnUse">
      <path id="path3644" d="M 365.464,532.362 L 359.766,532.362 L 359.766,772.204 L 361.659,784.074 L 405.607,784.074 L 365.464,532.362"/>
    </clipPath>
    <clipPath id="clipPath3636" clipPathUnits="userSpaceOnUse">
      <path id="path3638" d="M 382.803,640.343 L 359.682,640.343 L 359.682,532.278 L 382.803,532.278 L 382.803,640.343 z"/>
    </clipPath>
    <clipPath id="clipPath3624" clipPathUnits="userSpaceOnUse">
      <path id="path3626" d="M 365.464,532.362 L 359.766,532.362 L 359.766,772.204 L 361.659,784.074 L 405.607,784.074 L 365.464,532.362"/>
    </clipPath>
    <clipPath id="clipPath3618" clipPathUnits="userSpaceOnUse">
      <path id="path3620" d="M 405.679,676.255 L 359.682,676.255 L 359.682,640.179 L 405.679,640.179 L 405.679,676.255 z"/>
    </clipPath>
    <clipPath id="clipPath3606" clipPathUnits="userSpaceOnUse">
      <path id="path3608" d="M 365.464,532.362 L 359.766,532.362 L 359.766,772.204 L 361.659,784.074 L 405.607,784.074 L 365.464,532.362"/>
    </clipPath>
    <clipPath id="clipPath3600" clipPathUnits="userSpaceOnUse">
      <path id="path3602" d="M 405.679,784.156 L 359.682,784.156 L 359.682,676.091 L 405.679,676.091 L 405.679,784.156 z"/>
    </clipPath>
    <clipPath id="clipPath3588" clipPathUnits="userSpaceOnUse">
      <path id="path3590" d="M 366.2,532.362 L 365.464,532.362 L 405.607,784.074 L 406.342,784.074 L 366.2,532.362 M 359.766,772.204 L 359.766,775.867 L 361.075,784.074 L 361.659,784.074 L 359.766,772.204"/>
    </clipPath>
    <clipPath id="clipPath3582" clipPathUnits="userSpaceOnUse">
      <path id="path3584" d="M 383.131,676.255 L 359.682,676.255 L 359.682,532.278 L 383.131,532.278 L 383.131,676.255 z"/>
    </clipPath>
    <clipPath id="clipPath3570" clipPathUnits="userSpaceOnUse">
      <path id="path3572" d="M 366.2,532.362 L 365.464,532.362 L 405.607,784.074 L 406.342,784.074 L 366.2,532.362 M 359.766,772.204 L 359.766,775.867 L 361.075,784.074 L 361.659,784.074 L 359.766,772.204"/>
    </clipPath>
    <clipPath id="clipPath3564" clipPathUnits="userSpaceOnUse">
      <path id="path3566" d="M 406.417,748.162 L 382.967,748.162 L 382.967,604.185 L 406.417,604.185 L 406.417,748.162 z"/>
    </clipPath>
    <clipPath id="clipPath3552" clipPathUnits="userSpaceOnUse">
      <path id="path3554" d="M 366.2,532.362 L 365.464,532.362 L 405.607,784.074 L 406.342,784.074 L 366.2,532.362 M 359.766,772.204 L 359.766,775.867 L 361.075,784.074 L 361.659,784.074 L 359.766,772.204"/>
    </clipPath>
    <clipPath id="clipPath3546" clipPathUnits="userSpaceOnUse">
      <path id="path3548" d="M 406.417,784.156 L 359.682,784.156 L 359.682,747.998 L 406.417,747.998 L 406.417,784.156 z"/>
    </clipPath>
    <clipPath id="clipPath3534" clipPathUnits="userSpaceOnUse">
      <path id="path3536" d="M 413.927,532.362 L 366.2,532.362 L 406.342,784.074 L 454.07,784.074 L 413.927,532.362 M 359.766,775.867 L 359.766,784.074 L 361.075,784.074 L 359.766,775.867"/>
    </clipPath>
    <clipPath id="clipPath3528" clipPathUnits="userSpaceOnUse">
      <path id="path3530" d="M 422.733,568.436 L 359.682,568.436 L 359.682,532.278 L 422.733,532.278 L 422.733,568.436 z"/>
    </clipPath>
    <clipPath id="clipPath3516" clipPathUnits="userSpaceOnUse">
      <path id="path3518" d="M 413.927,532.362 L 366.2,532.362 L 406.342,784.074 L 454.07,784.074 L 413.927,532.362 M 359.766,775.867 L 359.766,784.074 L 361.075,784.074 L 359.766,775.867"/>
    </clipPath>
    <clipPath id="clipPath3510" clipPathUnits="userSpaceOnUse">
      <path id="path3512" d="M 454.136,604.349 L 391.085,604.349 L 391.085,568.272 L 454.136,568.272 L 454.136,604.349 z"/>
    </clipPath>
    <clipPath id="clipPath3498" clipPathUnits="userSpaceOnUse">
      <path id="path3500" d="M 413.927,532.362 L 366.2,532.362 L 406.342,784.074 L 454.07,784.074 L 413.927,532.362 M 359.766,775.867 L 359.766,784.074 L 361.075,784.074 L 359.766,775.867"/>
    </clipPath>
    <clipPath id="clipPath3492" clipPathUnits="userSpaceOnUse">
      <path id="path3494" d="M 454.136,676.255 L 391.085,676.255 L 391.085,604.185 L 454.136,604.185 L 454.136,676.255 z"/>
    </clipPath>
    <clipPath id="clipPath3480" clipPathUnits="userSpaceOnUse">
      <path id="path3482" d="M 413.927,532.362 L 366.2,532.362 L 406.342,784.074 L 454.07,784.074 L 413.927,532.362 M 359.766,775.867 L 359.766,784.074 L 361.075,784.074 L 359.766,775.867"/>
    </clipPath>
    <clipPath id="clipPath3474" clipPathUnits="userSpaceOnUse">
      <path id="path3476" d="M 391.249,712.25 L 359.682,712.25 L 359.682,568.272 L 391.249,568.272 L 391.249,712.25 z"/>
    </clipPath>
    <clipPath id="clipPath3462" clipPathUnits="userSpaceOnUse">
      <path id="path3464" d="M 413.927,532.362 L 366.2,532.362 L 406.342,784.074 L 454.07,784.074 L 413.927,532.362 M 359.766,775.867 L 359.766,784.074 L 361.075,784.074 L 359.766,775.867"/>
    </clipPath>
    <clipPath id="clipPath3456" clipPathUnits="userSpaceOnUse">
      <path id="path3458" d="M 454.136,748.162 L 391.085,748.162 L 391.085,676.091 L 454.136,676.091 L 454.136,748.162 z"/>
    </clipPath>
    <clipPath id="clipPath3444" clipPathUnits="userSpaceOnUse">
      <path id="path3446" d="M 413.927,532.362 L 366.2,532.362 L 406.342,784.074 L 454.07,784.074 L 413.927,532.362 M 359.766,775.867 L 359.766,784.074 L 361.075,784.074 L 359.766,775.867"/>
    </clipPath>
    <clipPath id="clipPath3438" clipPathUnits="userSpaceOnUse">
      <path id="path3440" d="M 454.136,784.156 L 359.682,784.156 L 359.682,747.998 L 454.136,747.998 L 454.136,784.156 z"/>
    </clipPath>
    <clipPath id="clipPath3426" clipPathUnits="userSpaceOnUse">
      <path id="path3428" d="M 553.428,532.362 L 472.804,532.362 L 512.947,784.074 L 553.428,784.074 L 553.428,532.362"/>
    </clipPath>
    <clipPath id="clipPath3420" clipPathUnits="userSpaceOnUse">
      <path id="path3422" d="M 526.617,568.436 L 472.748,568.436 L 472.748,532.278 L 526.617,532.278 L 526.617,568.436 z"/>
    </clipPath>
    <clipPath id="clipPath3408" clipPathUnits="userSpaceOnUse">
      <path id="path3410" d="M 553.428,532.362 L 472.804,532.362 L 512.947,784.074 L 553.428,784.074 L 553.428,532.362"/>
    </clipPath>
    <clipPath id="clipPath3402" clipPathUnits="userSpaceOnUse">
      <path id="path3404" d="M 526.617,640.343 L 472.748,640.343 L 472.748,568.272 L 526.617,568.272 L 526.617,640.343 z"/>
    </clipPath>
    <clipPath id="clipPath3390" clipPathUnits="userSpaceOnUse">
      <path id="path3392" d="M 553.428,532.362 L 472.804,532.362 L 512.947,784.074 L 553.428,784.074 L 553.428,532.362"/>
    </clipPath>
    <clipPath id="clipPath3384" clipPathUnits="userSpaceOnUse">
      <path id="path3386" d="M 553.51,712.25 L 526.453,712.25 L 526.453,532.278 L 553.51,532.278 L 553.51,712.25 z"/>
    </clipPath>
    <clipPath id="clipPath3372" clipPathUnits="userSpaceOnUse">
      <path id="path3374" d="M 553.428,532.362 L 472.804,532.362 L 512.947,784.074 L 553.428,784.074 L 553.428,532.362"/>
    </clipPath>
    <clipPath id="clipPath3366" clipPathUnits="userSpaceOnUse">
      <path id="path3368" d="M 526.617,712.25 L 472.748,712.25 L 472.748,640.179 L 526.617,640.179 L 526.617,712.25 z"/>
    </clipPath>
    <clipPath id="clipPath3354" clipPathUnits="userSpaceOnUse">
      <path id="path3356" d="M 553.428,532.362 L 472.804,532.362 L 512.947,784.074 L 553.428,784.074 L 553.428,532.362"/>
    </clipPath>
    <clipPath id="clipPath3348" clipPathUnits="userSpaceOnUse">
      <path id="path3350" d="M 553.51,784.156 L 499.642,784.156 L 499.642,712.086 L 553.51,712.086 L 553.51,784.156 z"/>
    </clipPath>
    <clipPath id="clipPath3336" clipPathUnits="userSpaceOnUse">
      <path id="path3338" d="M 472.804,532.362 L 470.293,532.362 L 510.436,784.074 L 512.947,784.074 L 472.804,532.362"/>
    </clipPath>
    <clipPath id="clipPath3330" clipPathUnits="userSpaceOnUse">
      <path id="path3332" d="M 491.688,676.255 L 470.207,676.255 L 470.207,532.278 L 491.688,532.278 L 491.688,676.255 z"/>
    </clipPath>
    <clipPath id="clipPath3318" clipPathUnits="userSpaceOnUse">
      <path id="path3320" d="M 472.804,532.362 L 470.293,532.362 L 510.436,784.074 L 512.947,784.074 L 472.804,532.362"/>
    </clipPath>
    <clipPath id="clipPath3312" clipPathUnits="userSpaceOnUse">
      <path id="path3314" d="M 513.006,784.156 L 491.524,784.156 L 491.524,640.179 L 513.006,640.179 L 513.006,784.156 z"/>
    </clipPath>
    <clipPath id="clipPath3300" clipPathUnits="userSpaceOnUse">
      <path id="path3302" d="M 462.843,532.362 L 439.694,532.362 L 479.836,784.074 L 502.986,784.074 L 462.843,532.362"/>
    </clipPath>
    <clipPath id="clipPath3294" clipPathUnits="userSpaceOnUse">
      <path id="path3296" d="M 471.436,604.349 L 439.624,604.349 L 439.624,532.278 L 471.436,532.278 L 471.436,604.349 z"/>
    </clipPath>
    <clipPath id="clipPath3282" clipPathUnits="userSpaceOnUse">
      <path id="path3284" d="M 462.843,532.362 L 439.694,532.362 L 479.836,784.074 L 502.986,784.074 L 462.843,532.362"/>
    </clipPath>
    <clipPath id="clipPath3276" clipPathUnits="userSpaceOnUse">
      <path id="path3278" d="M 503.085,640.343 L 471.272,640.343 L 471.272,568.272 L 503.085,568.272 L 503.085,640.343 z"/>
    </clipPath>
    <clipPath id="clipPath3264" clipPathUnits="userSpaceOnUse">
      <path id="path3266" d="M 462.843,532.362 L 439.694,532.362 L 479.836,784.074 L 502.986,784.074 L 462.843,532.362"/>
    </clipPath>
    <clipPath id="clipPath3258" clipPathUnits="userSpaceOnUse">
      <path id="path3260" d="M 471.436,748.162 L 439.624,748.162 L 439.624,604.185 L 471.436,604.185 L 471.436,748.162 z"/>
    </clipPath>
    <clipPath id="clipPath3246" clipPathUnits="userSpaceOnUse">
      <path id="path3248" d="M 462.843,532.362 L 439.694,532.362 L 479.836,784.074 L 502.986,784.074 L 462.843,532.362"/>
    </clipPath>
    <clipPath id="clipPath3240" clipPathUnits="userSpaceOnUse">
      <path id="path3242" d="M 503.085,784.156 L 471.272,784.156 L 471.272,640.179 L 503.085,640.179 L 503.085,784.156 z"/>
    </clipPath>
    <clipPath id="clipPath3228" clipPathUnits="userSpaceOnUse">
      <path id="path3230" d="M 469.365,532.362 L 462.843,532.362 L 502.986,784.074 L 509.508,784.074 L 469.365,532.362"/>
    </clipPath>
    <clipPath id="clipPath3222" clipPathUnits="userSpaceOnUse">
      <path id="path3224" d="M 486.277,712.25 L 462.745,712.25 L 462.745,532.278 L 486.277,532.278 L 486.277,712.25 z"/>
    </clipPath>
    <clipPath id="clipPath3210" clipPathUnits="userSpaceOnUse">
      <path id="path3212" d="M 469.365,532.362 L 462.843,532.362 L 502.986,784.074 L 509.508,784.074 L 469.365,532.362"/>
    </clipPath>
    <clipPath id="clipPath3204" clipPathUnits="userSpaceOnUse">
      <path id="path3206" d="M 509.563,784.156 L 486.113,784.156 L 486.113,604.185 L 509.563,604.185 L 509.563,784.156 z"/>
    </clipPath>
    <clipPath id="clipPath3192" clipPathUnits="userSpaceOnUse">
      <path id="path3194" d="M 470.293,532.362 L 469.365,532.362 L 509.508,784.074 L 510.436,784.074 L 470.293,532.362"/>
    </clipPath>
    <clipPath id="clipPath3186" clipPathUnits="userSpaceOnUse">
      <path id="path3188" d="M 490.048,676.255 L 469.305,676.255 L 469.305,532.278 L 490.048,532.278 L 490.048,676.255 z"/>
    </clipPath>
    <clipPath id="clipPath3174" clipPathUnits="userSpaceOnUse">
      <path id="path3176" d="M 470.293,532.362 L 469.365,532.362 L 509.508,784.074 L 510.436,784.074 L 470.293,532.362"/>
    </clipPath>
    <clipPath id="clipPath3168" clipPathUnits="userSpaceOnUse">
      <path id="path3170" d="M 510.546,784.156 L 489.884,784.156 L 489.884,640.179 L 510.546,640.179 L 510.546,784.156 z"/>
    </clipPath>
    <clipPath id="clipPath3042" clipPathUnits="userSpaceOnUse">
      <path id="path3044" d="M 0.029999,841.86 L 595.275,841.86 L 595.275,0 L 0.029999,0 L 0.029999,841.86 z"/>
    </clipPath>
    <clipPath id="clipPath3030" clipPathUnits="userSpaceOnUse">
      <path id="path3032" d="M 315.927,841.86 L 491.877,841.86 L 491.877,0 L 315.927,0 L 315.927,841.86 z"/>
    </clipPath>
    <clipPath id="clipPath3024" clipPathUnits="userSpaceOnUse">
      <path id="path3026" d="M 479.422,784.074 L 454.403,784.074 L 463.987,844.169 L 488.386,840.278 L 479.422,784.074"/>
    </clipPath>
    <linearGradient id="linearGradient3012" spreadMethod="pad" gradientTransform="matrix(24.41, -3.8949, -52.883, -331.57, 391.567, 390.122)" gradientUnits="userSpaceOnUse" y2="0" x2="1" y1="0" x1="0">
      <stop id="stop3014" offset="0" style="stop-opacity: 1; stop-color: rgb(234, 227, 177);"/>
      <stop id="stop3016" offset="1" style="stop-opacity: 1; stop-color: rgb(234, 227, 177);"/>
    </linearGradient>
    <clipPath id="clipPath3000" clipPathUnits="userSpaceOnUse">
      <path id="path3002" d="M 488.386,840.278 L 463.987,844.169 L 465.417,853.131 L 490.436,853.131 L 488.386,840.278"/>
    </clipPath>
    <clipPath id="clipPath2988" clipPathUnits="userSpaceOnUse">
      <path id="path2990" d="M 315.927,841.86 L 491.877,841.86 L 491.877,0 L 315.927,0 L 315.927,841.86 z"/>
    </clipPath>
    <clipPath id="clipPath2982" clipPathUnits="userSpaceOnUse">
      <path id="path2984" d="M 352.318,-12.876 L 327.299,-12.876 L 348.741,121.566 L 373.76,121.566 L 352.318,-12.876 M 417.459,395.562 L 392.44,395.562 L 414.258,532.362 L 439.277,532.362 L 417.459,395.562"/>
    </clipPath>
    <linearGradient id="linearGradient2970" spreadMethod="pad" gradientTransform="matrix(383.839, -61.2, -52.845, -331.33, 52.039, 424.408)" gradientUnits="userSpaceOnUse" y2="0" x2="1" y1="0" x1="0">
      <stop id="stop2972" offset="0" style="stop-opacity: 1; stop-color: rgb(234, 227, 177);"/>
      <stop id="stop2974" offset="1" style="stop-opacity: 1; stop-color: rgb(234, 227, 177);"/>
    </linearGradient>
    <clipPath id="clipPath2958" clipPathUnits="userSpaceOnUse">
      <path id="path2960" d="M 454.403,784.074 L 454.07,784.074 L 463.662,844.221 L 463.987,844.169 L 454.403,784.074"/>
    </clipPath>
    <linearGradient id="linearGradient2946" spreadMethod="pad" gradientTransform="matrix(383.839, -61.2, -52.845, -331.33, 52.039, 424.408)" gradientUnits="userSpaceOnUse" y2="0" x2="1" y1="0" x1="0">
      <stop id="stop2948" offset="0" style="stop-opacity: 1; stop-color: rgb(234, 227, 177);"/>
      <stop id="stop2950" offset="1" style="stop-opacity: 1; stop-color: rgb(234, 227, 177);"/>
    </linearGradient>
    <clipPath id="clipPath2928" clipPathUnits="userSpaceOnUse">
      <path id="path2930" d="M 315.927,841.86 L 491.877,841.86 L 491.877,0 L 315.927,0 L 315.927,841.86 z"/>
    </clipPath>
    <linearGradient id="linearGradient2916" spreadMethod="pad" gradientTransform="matrix(383.839, -61.2, -52.845, -331.33, 52.039, 424.408)" gradientUnits="userSpaceOnUse" y2="0" x2="1" y1="0" x1="0">
      <stop id="stop2918" offset="0" style="stop-opacity: 1; stop-color: rgb(234, 227, 177);"/>
      <stop id="stop2920" offset="1" style="stop-opacity: 1; stop-color: rgb(234, 227, 177);"/>
    </linearGradient>
    <clipPath id="clipPath2904" clipPathUnits="userSpaceOnUse">
      <path id="path2906" d="M 327.299,-12.876 L 326.973,-12.876 L 348.414,121.566 L 348.741,121.566 L 327.299,-12.876 M 417.877,395.562 L 417.459,395.562 L 439.277,532.362 L 439.694,532.362 L 417.877,395.562 M 392.44,395.562 L 392.11,395.562 L 413.927,532.362 L 414.258,532.362 L 392.44,395.562"/>
    </clipPath>
    <linearGradient id="linearGradient2892" spreadMethod="pad" gradientTransform="matrix(383.839, -61.2, -52.845, -331.33, 52.039, 424.408)" gradientUnits="userSpaceOnUse" y2="0" x2="1" y1="0" x1="0">
      <stop id="stop2894" offset="0" style="stop-opacity: 1; stop-color: rgb(234, 227, 177);"/>
      <stop id="stop2896" offset="1" style="stop-opacity: 1; stop-color: rgb(234, 227, 177);"/>
    </linearGradient>
    <clipPath id="clipPath2880" clipPathUnits="userSpaceOnUse">
      <path id="path2882" d="M 352.74,-12.876 L 352.318,-12.876 L 373.76,121.566 L 374.18,121.566 L 352.74,-12.876"/>
    </clipPath>
    <clipPath id="clipPath2868" clipPathUnits="userSpaceOnUse">
      <path id="path2870" d="M 223.416,841.86 L 418.383,841.86 L 418.383,0 L 223.416,0 L 223.416,841.86 z"/>
    </clipPath>
    <clipPath id="clipPath2862" clipPathUnits="userSpaceOnUse">
      <path id="path2864" d="M 405.607,784.074 L 361.659,784.074 L 372.672,853.131 L 407.792,853.131 L 416.401,851.758 L 405.607,784.074"/>
    </clipPath>
    <clipPath id="clipPath2850" clipPathUnits="userSpaceOnUse">
      <path id="path2852" d="M 223.416,841.86 L 418.383,841.86 L 418.383,0 L 223.416,0 L 223.416,841.86 z"/>
    </clipPath>
    <clipPath id="clipPath2844" clipPathUnits="userSpaceOnUse">
      <path id="path2846" d="M 278.51,-12.876 L 234.561,-12.876 L 256.002,121.566 L 299.95,121.566 L 278.51,-12.876 M 343.647,395.562 L 299.699,395.562 L 359.766,772.204 L 359.766,532.362 L 365.464,532.362 L 343.647,395.562"/>
    </clipPath>
    <linearGradient id="linearGradient2832" spreadMethod="pad" gradientTransform="matrix(383.839, -61.2, -52.845, -331.33, 52.039, 424.408)" gradientUnits="userSpaceOnUse" y2="0" x2="1" y1="0" x1="0">
      <stop id="stop2834" offset="0" style="stop-opacity: 1; stop-color: rgb(234, 227, 177);"/>
      <stop id="stop2836" offset="1" style="stop-opacity: 1; stop-color: rgb(234, 227, 177);"/>
    </linearGradient>
    <clipPath id="clipPath2820" clipPathUnits="userSpaceOnUse">
      <path id="path2822" d="M 361.659,784.074 L 361.075,784.074 L 372.088,853.131 L 372.672,853.131 L 361.659,784.074"/>
    </clipPath>
    <linearGradient id="linearGradient2808" spreadMethod="pad" gradientTransform="matrix(383.839, -61.2, -52.845, -331.33, 52.039, 424.408)" gradientUnits="userSpaceOnUse" y2="0" x2="1" y1="0" x1="0">
      <stop id="stop2810" offset="0" style="stop-opacity: 1; stop-color: rgb(234, 227, 177);"/>
      <stop id="stop2812" offset="1" style="stop-opacity: 1; stop-color: rgb(234, 227, 177);"/>
    </linearGradient>
    <clipPath id="clipPath2796" clipPathUnits="userSpaceOnUse">
      <path id="path2798" d="M 406.342,784.074 L 405.607,784.074 L 416.401,851.758 L 417.118,851.644 L 406.342,784.074"/>
    </clipPath>
    <linearGradient id="linearGradient2784" spreadMethod="pad" gradientTransform="matrix(383.839, -61.2, -52.845, -331.33, 52.039, 424.408)" gradientUnits="userSpaceOnUse" y2="0" x2="1" y1="0" x1="0">
      <stop id="stop2786" offset="0" style="stop-opacity: 1; stop-color: rgb(234, 227, 177);"/>
      <stop id="stop2788" offset="1" style="stop-opacity: 1; stop-color: rgb(234, 227, 177);"/>
    </linearGradient>
    <clipPath id="clipPath2772" clipPathUnits="userSpaceOnUse">
      <path id="path2774" d="M 234.561,-12.876 L 233.978,-12.876 L 255.419,121.566 L 256.002,121.566 L 234.561,-12.876 M 344.383,395.562 L 343.647,395.562 L 365.464,532.362 L 366.2,532.362 L 344.383,395.562 M 299.699,395.562 L 299.115,395.562 L 359.766,775.867 L 359.766,772.204 L 299.699,395.562"/>
    </clipPath>
    <linearGradient id="linearGradient2760" spreadMethod="pad" gradientTransform="matrix(383.839, -61.2, -52.845, -331.33, 52.039, 424.408)" gradientUnits="userSpaceOnUse" y2="0" x2="1" y1="0" x1="0">
      <stop id="stop2762" offset="0" style="stop-opacity: 1; stop-color: rgb(234, 227, 177);"/>
      <stop id="stop2764" offset="1" style="stop-opacity: 1; stop-color: rgb(234, 227, 177);"/>
    </linearGradient>
    <clipPath id="clipPath2748" clipPathUnits="userSpaceOnUse">
      <path id="path2750" d="M 279.246,-12.876 L 278.51,-12.876 L 299.95,121.566 L 300.686,121.566 L 279.246,-12.876"/>
    </clipPath>
    <linearGradient id="linearGradient2736" spreadMethod="pad" gradientTransform="matrix(184.895, -29.496, -52.851, -331.369, 453.24, 409.716)" gradientUnits="userSpaceOnUse" y2="0" x2="1" y1="0" x1="0">
      <stop id="stop2738" offset="0" style="stop-opacity: 1; stop-color: rgb(234, 227, 177);"/>
      <stop id="stop2740" offset="1" style="stop-opacity: 1; stop-color: rgb(234, 227, 177);"/>
    </linearGradient>
    <clipPath id="clipPath2724" clipPathUnits="userSpaceOnUse">
      <path id="path2726" d="M 575.441,-12.876 L 385.85,-12.876 L 407.291,121.566 L 557.622,121.566 L 557.622,395.562 L 450.987,395.562 L 472.804,532.362 L 553.428,532.362 L 553.428,784.074 L 512.947,784.074 L 523.96,853.131 L 609.282,853.131 L 609.282,199.326 L 575.441,-12.876"/>
    </clipPath>
    <clipPath id="clipPath2700" clipPathUnits="userSpaceOnUse">
      <path id="path2702" d="M 375.471,841.86 L 595.275,841.86 L 595.275,0 L 375.471,0 L 375.471,841.86 z"/>
    </clipPath>
    <clipPath id="clipPath2688" clipPathUnits="userSpaceOnUse">
      <path id="path2690" d="M 0.029999,841.86 L 237.69,841.86 L 237.69,0 L 0.029999,0 L 0.029999,841.86 z"/>
    </clipPath>
    <clipPath id="clipPath2682" clipPathUnits="userSpaceOnUse">
      <path id="path2684" d="M 96.434,-12.876 L -14.715,-12.876 L -14.715,5.811 L 44.622,377.856 L 44.622,121.566 L 117.876,121.566 L 96.434,-12.876 M 161.575,395.562 L 47.446,395.562 L 120.423,853.131 L 234.551,853.131 L 161.575,395.562"/>
    </clipPath>
    <clipPath id="clipPath2676" clipPathUnits="userSpaceOnUse">
      <path id="path2678" d="M 128.64,126.21 L 55.68,126.21 L 55.68,-13.47 L 128.64,-13.47 L 128.64,126.21 z"/>
    </clipPath>
    <clipPath id="clipPath2664" clipPathUnits="userSpaceOnUse">
      <path id="path2666" d="M 0.029999,841.86 L 237.69,841.86 L 237.69,0 L 0.029999,0 L 0.029999,841.86 z"/>
    </clipPath>
    <clipPath id="clipPath2658" clipPathUnits="userSpaceOnUse">
      <path id="path2660" d="M 96.434,-12.876 L -14.715,-12.876 L -14.715,5.811 L 44.622,377.856 L 44.622,121.566 L 117.876,121.566 L 96.434,-12.876 M 161.575,395.562 L 47.446,395.562 L 120.423,853.131 L 234.551,853.131 L 161.575,395.562"/>
    </clipPath>
    <clipPath id="clipPath2652" clipPathUnits="userSpaceOnUse">
      <path id="path2654" d="M 21.6,230.37 L -15.36,230.37 L -15.36,-13.47 L 21.6,-13.47 L 21.6,230.37 z"/>
    </clipPath>
    <clipPath id="clipPath2640" clipPathUnits="userSpaceOnUse">
      <path id="path2642" d="M 0.029999,841.86 L 237.69,841.86 L 237.69,0 L 0.029999,0 L 0.029999,841.86 z"/>
    </clipPath>
    <clipPath id="clipPath2634" clipPathUnits="userSpaceOnUse">
      <path id="path2636" d="M 96.434,-12.876 L -14.715,-12.876 L -14.715,5.811 L 44.622,377.856 L 44.622,121.566 L 117.876,121.566 L 96.434,-12.876 M 161.575,395.562 L 47.446,395.562 L 120.423,853.131 L 234.551,853.131 L 161.575,395.562"/>
    </clipPath>
    <clipPath id="clipPath2628" clipPathUnits="userSpaceOnUse">
      <path id="path2630" d="M 164.16,403.65 L 91.2,403.65 L 91.2,367.65 L 164.16,367.65 L 164.16,403.65 z"/>
    </clipPath>
    <clipPath id="clipPath2616" clipPathUnits="userSpaceOnUse">
      <path id="path2618" d="M 0.029999,841.86 L 237.69,841.86 L 237.69,0 L 0.029999,0 L 0.029999,841.86 z"/>
    </clipPath>
    <clipPath id="clipPath2610" clipPathUnits="userSpaceOnUse">
      <path id="path2612" d="M 96.434,-12.876 L -14.715,-12.876 L -14.715,5.811 L 44.622,377.856 L 44.622,121.566 L 117.876,121.566 L 96.434,-12.876 M 161.575,395.562 L 47.446,395.562 L 120.423,853.131 L 234.551,853.131 L 161.575,395.562"/>
    </clipPath>
    <clipPath id="clipPath2604" clipPathUnits="userSpaceOnUse">
      <path id="path2606" d="M 57.12,472.77 L 20.16,472.77 L 20.16,-13.47 L 57.12,-13.47 L 57.12,472.77 z"/>
    </clipPath>
    <clipPath id="clipPath2592" clipPathUnits="userSpaceOnUse">
      <path id="path2594" d="M 0.029999,841.86 L 237.69,841.86 L 237.69,0 L 0.029999,0 L 0.029999,841.86 z"/>
    </clipPath>
    <clipPath id="clipPath2586" clipPathUnits="userSpaceOnUse">
      <path id="path2588" d="M 96.434,-12.876 L -14.715,-12.876 L -14.715,5.811 L 44.622,377.856 L 44.622,121.566 L 117.876,121.566 L 96.434,-12.876 M 161.575,395.562 L 47.446,395.562 L 120.423,853.131 L 234.551,853.131 L 161.575,395.562"/>
    </clipPath>
    <clipPath id="clipPath2580" clipPathUnits="userSpaceOnUse">
      <path id="path2582" d="M 199.68,611.49 L 91.2,611.49 L 91.2,402.21 L 199.68,402.21 L 199.68,611.49 z"/>
    </clipPath>
    <clipPath id="clipPath2568" clipPathUnits="userSpaceOnUse">
      <path id="path2570" d="M 0.029999,841.86 L 237.69,841.86 L 237.69,0 L 0.029999,0 L 0.029999,841.86 z"/>
    </clipPath>
    <clipPath id="clipPath2562" clipPathUnits="userSpaceOnUse">
      <path id="path2564" d="M 96.434,-12.876 L -14.715,-12.876 L -14.715,5.811 L 44.622,377.856 L 44.622,121.566 L 117.876,121.566 L 96.434,-12.876 M 161.575,395.562 L 47.446,395.562 L 120.423,853.131 L 234.551,853.131 L 161.575,395.562"/>
    </clipPath>
    <clipPath id="clipPath2556" clipPathUnits="userSpaceOnUse">
      <path id="path2558" d="M 92.64,680.61 L 55.68,680.61 L 55.68,367.65 L 92.64,367.65 L 92.64,680.61 z"/>
    </clipPath>
    <clipPath id="clipPath2544" clipPathUnits="userSpaceOnUse">
      <path id="path2546" d="M 0.029999,841.86 L 237.69,841.86 L 237.69,0 L 0.029999,0 L 0.029999,841.86 z"/>
    </clipPath>
    <clipPath id="clipPath2538" clipPathUnits="userSpaceOnUse">
      <path id="path2540" d="M 96.434,-12.876 L -14.715,-12.876 L -14.715,5.811 L 44.622,377.856 L 44.622,121.566 L 117.876,121.566 L 96.434,-12.876 M 161.575,395.562 L 47.446,395.562 L 120.423,853.131 L 234.551,853.131 L 161.575,395.562"/>
    </clipPath>
    <clipPath id="clipPath2532" clipPathUnits="userSpaceOnUse">
      <path id="path2534" d="M 235.2,853.89 L 91.2,853.89 L 91.2,610.05 L 235.2,610.05 L 235.2,853.89 z"/>
    </clipPath>
    <linearGradient id="linearGradient2520" spreadMethod="pad" gradientTransform="matrix(184.895, -29.496, -52.851, -331.368, -25.76, 409.716)" gradientUnits="userSpaceOnUse" y2="0" x2="1" y1="0" x1="0">
      <stop id="stop2522" offset="0" style="stop-opacity: 1; stop-color: rgb(234, 227, 177);"/>
      <stop id="stop2524" offset="1" style="stop-opacity: 1; stop-color: rgb(234, 227, 177);"/>
    </linearGradient>
    <clipPath id="clipPath2508" clipPathUnits="userSpaceOnUse">
      <path id="path2510" d="M -14.715,5.811 L -14.715,38.469 L 115.206,853.131 L 120.423,853.131 L 47.446,395.562 L 44.622,395.562 L 44.622,377.856 L -14.715,5.811"/>
    </clipPath>
    <linearGradient id="linearGradient2496" spreadMethod="pad" gradientTransform="matrix(184.895, -29.496, -52.851, -331.368, -25.76, 409.716)" gradientUnits="userSpaceOnUse" y2="0" x2="1" y1="0" x1="0">
      <stop id="stop2498" offset="0" style="stop-opacity: 1; stop-color: rgb(234, 227, 177);"/>
      <stop id="stop2500" offset="1" style="stop-opacity: 1; stop-color: rgb(234, 227, 177);"/>
    </linearGradient>
    <clipPath id="clipPath2484" clipPathUnits="userSpaceOnUse">
      <path id="path2486" d="M -14.715,38.469 L -14.715,478.931 L 44.962,853.131 L 115.206,853.131 L -14.715,38.469"/>
    </clipPath>
    <clipPath id="clipPath2468" clipPathUnits="userSpaceOnUse">
      <path id="path2470" d="M 0.029999,841.86 L 237.69,841.86 L 237.69,0 L 0.029999,0 L 0.029999,841.86 z"/>
    </clipPath>
    <linearGradient id="linearGradient2456" spreadMethod="pad" gradientTransform="matrix(383.839, -61.2, -52.845, -331.33, 52.039, 424.408)" gradientUnits="userSpaceOnUse" y2="0" x2="1" y1="0" x1="0">
      <stop id="stop2458" offset="0" style="stop-opacity: 1; stop-color: rgb(234, 227, 177);"/>
      <stop id="stop2460" offset="1" style="stop-opacity: 1; stop-color: rgb(234, 227, 177);"/>
    </linearGradient>
    <clipPath id="clipPath2444" clipPathUnits="userSpaceOnUse">
      <path id="path2446" d="M 99.578,-12.876 L 96.434,-12.876 L 117.876,121.566 L 121.018,121.566 L 99.578,-12.876 M 164.715,395.562 L 161.575,395.562 L 234.551,853.131 L 237.687,853.131 L 164.715,395.562"/>
    </clipPath>
    <linearGradient id="linearGradient2432" spreadMethod="pad" gradientTransform="matrix(383.839, -61.2, -52.845, -331.33, 52.039, 424.408)" gradientUnits="userSpaceOnUse" y2="0" x2="1" y1="0" x1="0">
      <stop id="stop2434" offset="0" style="stop-opacity: 1; stop-color: rgb(234, 227, 177);"/>
      <stop id="stop2436" offset="1" style="stop-opacity: 1; stop-color: rgb(234, 227, 177);"/>
    </linearGradient>
    <clipPath id="clipPath2420" clipPathUnits="userSpaceOnUse">
      <path id="path2422" d="M 375.889,-12.876 L 352.74,-12.876 L 374.18,121.566 L 397.33,121.566 L 375.889,-12.876 M 326.973,-12.876 L 279.246,-12.876 L 300.686,121.566 L 348.414,121.566 L 326.973,-12.876 M 233.978,-12.876 L 99.578,-12.876 L 121.018,121.566 L 255.419,121.566 L 233.978,-12.876 M 441.026,395.562 L 417.877,395.562 L 439.694,532.362 L 462.843,532.362 L 441.026,395.562 M 392.11,395.562 L 344.383,395.562 L 366.2,532.362 L 413.927,532.362 L 392.11,395.562 M 299.115,395.562 L 164.715,395.562 L 237.69,853.149 L 372.088,853.131 L 361.075,784.074 L 359.766,784.074 L 359.766,775.867 L 299.115,395.562 M 502.986,784.074 L 479.836,784.074 L 488.789,840.214 L 511.365,836.613 L 502.986,784.074 M 454.07,784.074 L 406.342,784.074 L 417.118,851.644 L 463.662,844.221 L 454.07,784.074"/>
    </clipPath>
    <clipPath id="clipPath2408" clipPathUnits="userSpaceOnUse">
      <path id="path2410" d="M 0.029999,841.86 L 517.725,841.86 L 517.725,0 L 0.029999,0 L 0.029999,841.86 z"/>
    </clipPath>
    <clipPath id="clipPath2398" clipPathUnits="userSpaceOnUse">
      <path id="path2400" d="M 0.029999,841.86 L 595.275,841.86 L 595.275,0 L 0.029999,0 L 0.029999,841.86 z"/>
    </clipPath>
    <inkscape:perspective id="perspective2390" inkscape:persp3d-origin="372.04724 : 350.78739 : 1" inkscape:vp_z="744.09448 : 526.18109 : 1" inkscape:vp_y="0 : 1000 : 0" inkscape:vp_x="0 : 526.18109 : 1" sodipodi:type="inkscape:persp3d"/>
    <inkscape:perspective id="perspective20399" inkscape:persp3d-origin="372.04724 : 350.78739 : 1" inkscape:vp_z="744.09448 : 526.18109 : 1" inkscape:vp_y="0 : 1000 : 0" inkscape:vp_x="0 : 526.18109 : 1" sodipodi:type="inkscape:persp3d"/>
    <inkscape:perspective id="perspective20495" inkscape:persp3d-origin="372.04724 : 350.78739 : 1" inkscape:vp_z="744.09448 : 526.18109 : 1" inkscape:vp_y="0 : 1000 : 0" inkscape:vp_x="0 : 526.18109 : 1" sodipodi:type="inkscape:persp3d"/>
  </defs>
  <sodipodi:namedview id="base" pagecolor="#ffffff" bordercolor="#666666" borderopacity="1.0" gridtolerance="10000" guidetolerance="10" objecttolerance="10" inkscape:pageopacity="0.0" inkscape:pageshadow="2" inkscape:zoom="0.49497475" inkscape:cx="110.41773" inkscape:cy="118.52472" inkscape:document-units="px" inkscape:current-layer="layer1" showgrid="false" inkscape:window-width="640" inkscape:window-height="672" inkscape:window-x="66" inkscape:window-y="69"/>
  <metadata id="metadata7">
    <rdf:RDF>
      <cc:Work rdf:about="">
        <dc:format>image/svg+xml</dc:format>
        <dc:type rdf:resource="http://purl.org/dc/dcmitype/StillImage"/>
      </cc:Work>
    </rdf:RDF>
  </metadata>
  <g inkscape:label="Layer 1" inkscape:groupmode="layer" id="layer1" transform="translate(-89.0701, -575.693)">
    <g id="g20541" transform="matrix(0.55869, 0, 0, 0.55869, 39.3075, 254.059)">
      <path id="path20449" d="M 119.31842,835.22525 C 107.42843,832.02313 99.56308,825.87813 94.58021,815.89791 C 91.59269,809.91418 89.09766,799.52123 89.07123,792.95042 C 89.05465,788.8281 89.17753,788.64822 91.80387,788.95042 C 94.44077,789.25383 94.58332,789.56208 95.26997,796.44538 C 97.0145,813.93332 103.93084,823.96437 117.69931,828.97554 C 125.27681,831.73345 142.61781,831.96583 151.23743,829.42497 C 157.62948,827.54075 164.44991,822.78679 167.71743,817.93812 C 173.01061,810.08357 172.60227,797.7389 166.83189,791.1668 C 162.53666,786.27481 151.48329,781.39527 137.55387,778.24195 C 103.11195,770.44504 94.36653,764.31929 93.26934,747.22273 C 92.23322,731.07767 100.14695,720.50886 116.55387,716.12619 C 123.0306,714.39611 142.10949,714.40595 148.63153,716.14273 C 161.09076,719.46057 169.79545,728.9986 173.5622,743.46014 C 175.62527,751.38078 175.53749,751.9557 172.32196,751.58326 C 169.93548,751.30685 169.44764,750.63463 168.4637,746.26684 C 165.81679,734.51686 159.89299,726.67219 150.65269,722.68035 C 140.74057,718.39829 121.22827,719.04231 111.3461,723.97771 C 101.90308,728.69378 96.89784,738.88131 99.01449,749.07714 C 101.44811,760.79982 109.11246,765.54509 136.38762,772.21617 C 157.77806,777.44793 164.9629,780.58447 170.83305,787.25331 C 175.69344,792.77501 177.52875,799.26203 176.79981,808.34313 C 175.71394,821.87079 166.05445,831.19776 148.95636,835.22809 C 141.0124,837.10063 126.27677,837.09922 119.31842,835.22525 z" style="fill: rgb(0, 0, 0);"/>
      <path id="path20447" d="M 505.03551,835.73014 C 490.42287,832.25888 477.50424,821.08188 470.93205,806.22435 C 463.75918,790.00889 464.24563,761.01601 471.98221,743.63321 C 477.73341,730.71123 488.74611,720.79547 501.83708,716.75208 C 509.51755,714.37982 525.8124,714.05827 533.55387,716.12619 C 548.36414,720.08236 559.20647,730.78597 563.93859,746.12218 C 565.102,749.89261 566.05387,753.15511 566.05387,753.37218 C 566.05387,753.58924 564.7358,753.76684 563.12483,753.76684 C 560.42442,753.76684 560.06717,753.32441 558.54803,748.09874 C 553.02329,729.09432 537.25072,718.79875 515.55387,720.03424 C 503.37632,720.72767 496.46064,723.51933 488.52071,730.94674 C 481.59146,737.42871 477.33765,744.66898 473.93838,755.76684 C 472.07655,761.84529 471.63494,765.63609 471.60848,775.76684 C 471.56278,793.26172 474.77841,804.17662 483.3092,815.48299 C 498.46218,835.56612 532.75127,837.00826 549.8658,818.28224 C 555.63498,811.96984 560.93274,800.34063 561.7803,792.1285 C 562.30703,787.02504 562.47141,786.76684 565.19377,786.76684 C 567.65713,786.76684 568.05387,787.15384 568.05387,789.55674 C 568.05387,794.08437 565.23356,803.80866 561.98242,810.49078 C 555.93392,822.92235 545.13531,831.64373 531.40953,835.18265 C 524.90645,836.85933 511.00384,837.14793 505.03551,835.73014 z" style="fill: rgb(0, 0, 0);"/>
      <path id="path20445" d="M 188.0651,716.75851 L 188.0651,775.82101 L 188.0651,834.91476 L 190.8151,834.57101 L 193.5651,834.25851 L 193.8151,807.00851 L 194.09635,779.75851 L 215.8151,779.72726 C 227.76876,779.71382 239.52816,779.25206 241.9401,778.69601 C 249.14325,777.03539 257.0514,772.61241 260.53385,768.28976 C 265.79304,761.76172 267.36854,756.21157 266.8776,746.03976 C 266.23382,732.70123 262.81675,727.0205 251.8776,720.94601 C 245.87672,717.61372 237.98111,716.75851 212.3776,716.75851 L 188.0651,716.75851 z M 194.0651,721.57101 L 217.3151,722.00851 C 243.37338,722.47871 248.74069,723.52785 254.53385,729.32101 C 259.60052,734.38768 261.3151,739.07967 261.3151,747.94601 C 261.3151,754.27949 260.84856,756.67855 258.8776,760.50851 C 256.1657,765.77823 249.94821,771.05457 244.28385,772.88351 C 242.00664,773.61879 231.52955,774.253 217.3151,774.50851 L 194.0651,774.91476 L 194.0651,748.25851 L 194.0651,721.57101 z" style="fill: rgb(0, 0, 0);"/>
      <path id="path20441" d="M 278.05387,775.76684 L 278.05387,716.76684 L 315.55387,716.76684 L 353.05387,716.76684 L 353.05387,719.26684 L 353.05387,721.76684 L 318.05387,721.76684 L 283.05387,721.76684 L 283.05387,746.76684 L 283.05387,771.76684 L 315.55387,771.76684 L 348.05387,771.76684 L 348.05387,774.26684 L 348.05387,776.76684 L 315.55387,776.76684 L 283.05387,776.76684 L 283.05387,802.76684 L 283.05387,828.76684 L 318.05387,828.76684 L 353.05387,828.76684 L 353.05387,831.76684 L 353.05387,834.76684 L 315.55387,834.76684 L 278.05387,834.76684 L 278.05387,775.76684 z" style="fill: rgb(0, 0, 0);"/>
      <path id="path20439" d="M 364.72054,834.10017 C 364.35387,833.73351 364.05387,807.18351 364.05387,775.10017 L 364.05387,716.76684 L 367.45921,716.76684 C 371.31598,716.76684 368.88225,713.78051 396.6157,752.5437 C 405.3817,764.79598 413.45387,776.31464 414.55387,778.14073 C 415.65387,779.96683 423.75387,791.4992 432.55387,803.76824 L 448.55387,826.07558 L 448.81241,771.42121 L 449.07095,716.76684 L 451.56241,716.76684 L 454.05387,716.76684 L 454.05387,775.76684 L 454.05387,834.76684 L 451.14258,834.76684 C 448.495,834.76684 446.89501,832.8872 433.47966,814.01684 C 425.36627,802.60434 416.32635,790.01856 413.39096,786.04845 C 410.45556,782.07834 408.05387,778.5521 408.05387,778.21238 C 408.05387,777.87265 400.71449,767.39592 391.74414,754.93077 C 382.77378,742.46561 374.33628,730.46684 372.99414,728.26684 L 370.55387,724.26684 L 370.2954,779.51684 L 370.03694,834.76684 L 367.71207,834.76684 C 366.43339,834.76684 365.0872,834.46684 364.72054,834.10017 z" style="fill: rgb(0, 0, 0);"/>
      <path id="path20437" d="M 579.05387,775.76684 L 579.05387,716.76684 L 616.05387,716.76684 L 653.05387,716.76684 L 653.05387,719.26684 L 653.05387,721.76684 L 618.55387,721.76684 L 584.05387,721.76684 L 584.05387,746.76684 L 584.05387,771.76684 L 616.55387,771.76684 L 649.05387,771.76684 L 649.05387,774.26684 L 649.05387,776.76684 L 616.55387,776.76684 L 584.05387,776.76684 L 584.05387,802.76684 L 584.05387,828.76684 L 619.05387,828.76684 L 654.05387,828.76684 L 654.05387,831.76684 L 654.05387,834.76684 L 616.55387,834.76684 L 579.05387,834.76684 L 579.05387,775.76684 z" style="fill: rgb(0, 0, 0);"/>
      <path id="path20435" d="M 666.0651,716.63351 L 666.0651,775.69601 L 666.0651,834.75851 L 668.5651,834.75851 L 671.0651,834.75851 L 671.0651,805.75851 L 671.0651,776.75851 L 687.3151,776.75851 C 703.51606,776.76029 703.56963,776.76851 705.0651,779.22726 C 705.8901,780.58367 715.5651,793.63116 726.5651,808.19601 C 745.42795,833.17188 746.74989,834.67968 749.8151,834.72726 C 751.6026,834.75501 753.0651,834.56796 753.0651,834.32101 C 753.0651,834.07406 743.34941,821.02405 731.5026,805.32101 L 709.97135,776.75851 L 715.40885,776.75851 C 722.62134,776.75851 733.60806,773.27051 738.4401,769.44601 C 744.37538,764.7483 747.46948,757.17529 747.5026,747.25851 C 747.53833,736.55502 745.27616,730.15024 739.59635,724.91476 C 732.13671,718.03871 728.76328,717.43497 695.3151,717.00851 L 666.0651,716.63351 z M 671.5651,722.25851 L 697.0651,722.25851 C 725.71735,722.26082 730.07135,723.03646 735.7526,729.03976 C 740.27702,733.82064 741.19859,736.21983 741.78385,744.75851 C 742.2532,751.60613 742.02621,753.13605 739.7526,758.10226 C 736.76049,764.6379 730.97758,768.96558 722.90885,770.69601 C 715.49228,772.28658 672.12547,772.13176 671.5026,770.50851 C 671.23442,769.80963 671.13589,758.67213 671.28385,745.75851 L 671.5651,722.25851 z" style="fill: rgb(0, 0, 0);"/>
      <path id="path20431" d="M 574.28973,696.76392 C 557.1357,693.15294 546.87103,681.89084 543.49926,662.98148 C 541.35089,650.93311 541.48809,649.76684 545.05387,649.76684 C 547.9143,649.76684 548.05456,649.96457 548.06865,654.01684 C 548.08799,659.57826 550.5391,669.83749 553.00181,674.66479 C 559.89331,688.17325 575.5184,694.51639 595.73831,692.01405 C 615.13752,689.61328 625.25387,680.57883 625.25387,665.65505 C 625.25387,661.13421 624.65498,658.7619 622.65001,655.34068 C 617.88878,647.21626 612.72615,644.77979 586.44103,638.2521 C 559.71171,631.61409 551.26878,626.68421 547.69874,615.63021 C 543.09596,601.37853 549.29921,586.0779 562.1053,580.09567 C 574.35585,574.37296 598.41866,574.19839 609.1,579.75474 C 619.30426,585.06292 625.97738,595.14364 628.47057,609.01684 C 629.1198,612.62942 629.04023,612.76684 626.29926,612.76684 C 623.61521,612.76684 623.38131,612.41479 622.17046,606.55246 C 619.8759,595.44329 614.67593,588.80803 604.55387,584.07338 C 598.93694,581.44602 597.75581,581.27251 586.05387,581.35559 C 572.68476,581.45051 568.03295,582.54818 560.8184,587.31031 C 550.87714,593.87226 549.02438,611.66513 557.3516,620.60343 C 561.41285,624.9627 570.96814,628.82956 587.40651,632.76613 C 605.65936,637.13721 607.76544,637.75673 614.05387,640.60453 C 625.76936,645.91006 631.5881,655.32257 630.84537,667.76684 C 630.35989,675.90104 627.96064,680.96802 621.77516,686.92228 C 614.30287,694.11525 605.73285,696.98056 590.55387,697.36087 C 583.95387,697.52624 576.63501,697.25761 574.28973,696.76392 z" style="fill: rgb(0, 0, 0);"/>
      <path id="path20429" d="M 698.34635,575.75851 C 689.55912,575.75851 684.80009,577.35294 679.4401,582.07101 C 672.8003,587.9156 670.75518,592.59329 671.28385,600.66476 C 671.64543,606.18493 672.377,608.39198 675.8776,614.25851 C 678.17493,618.10851 681.62072,623.32337 683.53385,625.85226 L 687.03385,630.47726 L 679.1901,635.63351 C 669.71933,641.86613 662.49058,648.85837 659.97135,654.25851 C 657.59002,659.36314 657.38467,672.21522 659.59635,677.50851 C 663.6351,687.1746 672.06939,693.54231 685.5651,697.13351 C 686.6651,697.42622 691.1651,697.52966 695.5651,697.35226 C 705.94507,696.93375 714.21132,693.29589 722.6901,685.44601 C 726.06057,682.32555 729.2136,679.76702 729.6901,679.75851 C 730.16659,679.74999 733.9401,683.3695 738.0651,687.82101 C 744.6436,694.92021 745.81987,695.82481 747.8151,695.07101 C 750.05402,694.22515 750.02254,694.11201 745.8151,689.28976 C 743.46402,686.59514 739.62952,682.33423 737.28385,679.82101 C 734.93814,677.3078 733.22973,674.58351 733.47135,673.75851 C 733.713,672.93351 735.0929,669.37332 736.5651,665.85226 C 738.03728,662.33119 739.32695,657.38119 739.40885,654.85226 C 739.5365,650.90993 739.26754,650.25851 737.59635,650.25851 C 736.00498,650.25851 735.44683,651.35985 734.53385,656.25851 C 733.91879,659.55851 732.51787,664.19857 731.40885,666.57101 L 729.3776,670.88351 L 720.97135,661.57101 C 716.34244,656.44857 712.2822,652.03351 711.9401,651.75851 C 709.25253,649.59814 695.07619,632.19407 695.34635,631.38351 C 695.6949,630.33786 698.42742,628.51852 705.3776,624.72726 C 710.90013,621.71477 720.69729,611.88166 722.5026,607.53976 C 724.67577,602.31313 724.46962,594.63189 722.0026,589.38351 C 717.93707,580.73446 709.32316,575.75851 698.34635,575.75851 z M 698.0026,580.75851 C 704.13681,580.75851 705.67441,581.15546 710.15885,583.91476 C 716.06532,587.54904 718.99888,592.73885 719.03385,599.57101 C 719.07721,608.04051 713.12887,615.18537 699.15885,623.50851 C 695.23546,625.84601 691.89183,627.75851 691.72135,627.75851 C 690.57148,627.75851 682.23873,616.08346 679.4401,610.53976 C 675.40234,602.54162 675.06292,597.0931 678.1901,591.25851 C 682.07978,584.0012 688.19805,580.75851 698.0026,580.75851 z M 688.72135,634.44601 C 689.42443,634.02393 695.24127,639.8958 703.6901,649.50851 C 711.303,658.17011 719.33029,667.22255 721.53385,669.60226 C 723.73743,671.98197 725.69209,674.338 725.8776,674.85226 C 726.32976,676.10586 718.54886,683.83403 713.5651,687.07101 C 711.3651,688.49992 706.87439,690.37808 703.59635,691.22726 C 690.4492,694.633 678.39438,691.88715 670.1276,683.60226 C 665.53218,678.99676 662.97139,672.85127 662.8151,666.00851 C 662.55466,654.6051 669.78575,645.81366 688.72135,634.44601 z" style="fill: rgb(223, 210, 29); fill-opacity: 1;"/>
      <path id="path20423" d="M 94.05387,636.70934 L 94.05387,577.65184 L 98.10522,577.95934 L 102.15657,578.26684 L 106.68181,588.26684 C 112.96381,602.14899 125.53832,629.66967 129.98428,639.26684 C 132.02261,643.66684 137.9041,656.37934 143.05425,667.51684 C 148.2044,678.65434 152.75587,687.76684 153.16863,687.76684 C 153.58138,687.76684 154.23121,686.75434 154.61267,685.51684 C 154.99414,684.27934 164.40655,663.46684 175.52913,639.26684 C 186.65172,615.06684 197.50743,591.34087 199.65294,586.54247 C 203.54648,577.83464 203.56098,577.81806 207.30387,577.79247 L 211.05387,577.76684 L 211.05387,636.76684 L 211.05387,695.76684 L 208.56241,695.76684 L 206.07095,695.76684 L 205.81241,641.11594 L 205.55387,586.46504 L 202.55387,593.51351 C 200.90387,597.39018 189.65387,621.99519 177.55387,648.19133 L 155.55387,695.82066 L 152.60389,695.54375 C 149.83744,695.28407 149.22496,694.33361 142.75923,680.26684 C 138.96716,672.01684 133.7524,660.76684 131.17088,655.26684 C 128.58935,649.76684 120.41945,632.10618 113.01553,616.02093 L 99.55387,586.77501 L 99.29533,641.27093 L 99.03679,695.76684 L 96.54533,695.76684 L 94.05387,695.76684 L 94.05387,636.70934 z" style="fill: rgb(0, 0, 0);"/>
      <path id="path20421" d="M 278.03385,576.75851 C 275.91228,576.75851 274.91686,577.5204 273.72135,580.03976 C 271.96932,583.7319 269.87697,588.76318 269.47135,590.25851 C 269.32215,590.80851 265.30301,599.80851 260.53385,610.25851 C 255.76469,620.70851 250.59037,632.40851 249.03385,636.25851 C 247.47733,640.10851 241.2604,654.15419 235.22135,667.44601 C 229.18229,680.73783 223.92873,692.55034 223.5651,693.69601 C 222.99905,695.47948 223.33523,695.75851 225.8151,695.75851 C 229.04213,695.75851 227.84834,697.88047 239.1276,672.00851 L 245.34635,657.75851 L 277.97135,657.75851 L 310.5651,657.75851 L 315.0651,668.00851 C 317.52872,673.64601 321.10068,682.08351 323.03385,686.75851 C 326.37134,694.82958 326.74262,695.29837 329.90885,695.60226 C 334.11372,696.00584 334.67354,697.81055 320.8776,667.44601 C 314.83855,654.15419 308.63145,640.10851 307.0651,636.25851 C 305.49876,632.40851 300.32191,620.70851 295.5651,610.25851 C 290.8083,599.80851 286.81601,590.80851 286.6901,590.25851 C 286.56418,589.70851 285.18802,586.44601 283.6276,583.00851 C 281.14756,577.54519 280.43726,576.75851 278.03385,576.75851 z M 278.09635,584.75851 C 278.54011,584.75851 279.79532,587.12101 280.8776,590.00851 C 281.95988,592.89601 286.5621,603.58351 291.09635,613.75851 C 295.63061,623.93351 300.10712,634.28351 301.0651,636.75851 C 302.02307,639.23351 303.97578,643.84601 305.40885,647.00851 L 308.03385,652.75851 L 277.9401,652.75851 C 254.25612,652.75851 247.94034,652.49225 248.34635,651.50851 C 249.42662,648.89104 255.71864,634.46117 265.03385,613.25851 C 270.34989,601.15851 275.29247,589.79601 276.0026,588.00851 C 276.71273,586.22101 277.65259,584.75851 278.09635,584.75851 z" style="fill: rgb(0, 0, 0);"/>
      <path id="path20417" d="M 344.5651,577.75851 L 344.8151,636.75851 L 345.09635,695.75851 L 347.5651,695.75851 L 350.0651,695.75851 L 350.0651,666.75851 L 350.0651,637.75851 L 367.97135,637.75851 L 385.8776,637.75851 L 407.59635,666.75851 C 428.68082,694.92639 429.38181,695.75851 432.72135,695.75851 C 435.21691,695.75851 435.96907,695.4158 435.40885,694.50851 C 434.37954,692.84159 401.77518,649.61457 396.7526,643.25851 L 392.78385,638.25851 L 400.65885,637.63351 C 410.92865,636.82364 418.28032,633.5606 423.6901,627.41476 C 428.96825,621.41847 430.4187,616.20112 429.8776,604.88351 C 429.50719,597.13602 429.04404,595.29471 426.47135,591.13351 C 424.83878,588.49287 421.72161,585.10673 419.53385,583.60226 C 412.35657,578.66658 405.25498,577.75871 373.34635,577.75851 L 344.5651,577.75851 z M 350.0651,582.75851 L 374.3151,582.78976 C 391.7616,582.80226 400.48689,583.20258 405.47135,584.25851 C 419.31229,587.19061 424.32433,593.55474 424.47135,608.35226 C 424.54372,615.63677 424.27172,616.90807 421.5651,621.35226 C 419.21195,625.21604 417.27139,626.90537 412.5651,629.25851 L 406.5651,632.25851 L 378.3151,632.57101 L 350.0651,632.91476 L 350.0651,607.82101 L 350.0651,582.75851 z" style="fill: rgb(0, 0, 0);"/>
      <path id="path20411" d="M 449.05387,636.44003 L 449.05387,577.11323 L 451.80387,577.51638 L 454.55387,577.91954 L 454.27805,612.52155 L 454.00223,647.12355 L 456.27805,645.21568 C 457.52975,644.16636 462.15387,639.91469 466.55387,635.76754 C 470.95387,631.62038 479.71547,623.51117 486.0241,617.74705 C 492.33273,611.98293 504.55365,600.62934 513.1817,592.51684 C 528.10448,578.48574 529.0681,577.76684 532.95278,577.76684 L 537.03649,577.76684 L 530.79518,583.46955 C 527.36246,586.60604 523.42887,590.32218 522.05387,591.72765 C 520.67887,593.13312 512.01486,601.20647 502.80051,609.66843 C 491.79555,619.77479 486.34532,625.43348 486.91615,626.16033 C 489.26412,629.15 535.6794,685.88217 539.10751,689.95243 C 541.27801,692.52951 543.05387,694.89201 543.05387,695.20243 C 543.05387,695.51286 541.54286,695.76684 539.69606,695.76684 C 536.73545,695.76684 535.67618,694.93584 530.74114,688.74168 C 527.66272,684.87783 515.3858,669.7878 503.4591,655.20827 L 481.77419,628.70003 L 474.66403,635.518 C 464.3347,645.42285 458.38867,650.84404 456.08272,652.45918 C 454.15407,653.81006 454.05387,654.91459 454.05387,674.82354 L 454.05387,695.76684 L 451.55387,695.76684 L 449.05387,695.76684 L 449.05387,636.44003 z" style="fill: rgb(0, 0, 0);"/>
    </g>
  </g>
</svg>