<?xml version="1.0" encoding="utf-8"?>
<!-- Generator: Adobe Illustrator 21.0.2, SVG Export Plug-In . SVG Version: 6.00 Build 0)  -->
<svg version="1.1" id="Layer_1" xmlns="http://www.w3.org/2000/svg" xmlns:xlink="http://www.w3.org/1999/xlink" x="0px" y="0px"
	 viewBox="0 0 320 210" style="enable-background:new 0 0 320 210;" xml:space="preserve">
<style type="text/css">
	.st0{opacity:0.2;fill:#7FB7DD;enable-background:new    ;}
	.st1{fill:#007B67;}
</style>
<title>Logo</title>
<desc>Created with Sketch.</desc>
<g id="Success-stories">
	<g id="Desktop---Success-stories" transform="translate(-159.000000, -2027.000000)">
		<g id="Pivotal" transform="translate(159.000000, 2021.000000)">
			<g id="Logo" transform="translate(0.000000, 6.000000)">
				<polygon id="graphic" class="st0" points="0,0 175.8,209.7 320,209.7 138.5,0 				"/>
				<g id="Pivotal-OnLight" transform="translate(55.000000, 74.000000)">
					<path id="Fill-1" class="st1" d="M41,49h8V12.7h-8V49z M41,7.3h8V0h-8V7.3z"/>
					<path id="Fill-2" class="st1" d="M91,14L80.5,45.2c-1.8,5.1-5,5.8-7.6,5.8c-3.9,0-6.2-1.8-7.6-5.8l-8.8-25.9H53V14h9.1l9,29
						c0.4,1.2,0.6,2,1.7,2c1.1,0,1.4-0.8,1.7-2l9.2-29H91"/>
					<path id="Fill-3" class="st1" d="M111,45c6,0,9.7-4.4,9.7-9.7v-5.7c0-5.3-3.7-9.7-9.7-9.7c-6.3,0-9.7,4.4-9.7,9.7v5.7
						C101.3,40.6,104.8,45,111,45 M111,14c10,0,17,6.4,17,15.7v5.7c0,9.2-7,15.7-17,15.7c-10,0-17-6.4-17-15.7v-5.7
						C94,20.4,101,14,111,14"/>
					<path id="Fill-4" class="st1" d="M188.6,14.7c-4-1-10.1-1.7-14.7-1.7c-10.4,0-16.9,6.3-16.9,16.5v4c0,10.1,6.5,16.5,16.9,16.5
						c0.2,0,2.1,0,2.9-0.1v-6.1c-0.3,0-2.7,0.1-2.9,0.1c-5.7,0-9.5-4.2-9.5-10.4v-4c0-6.2,3.8-10.4,9.5-10.4c2.6,0,6.4,0.2,7.8,0.5
						l0.4,0.1l0,30.4h7.9V15.9C190,15.3,190,15,188.6,14.7"/>
					<polygon id="Fill-5" class="st1" points="196,49 204,49 204,0 196,0 					"/>
					<path id="Fill-6" class="st1" d="M13.5,0H0v49h8V6.8h4.7c1,0,1.8,0,2.7,0.1C22.4,7,25.8,9.7,25.8,15c0,0.2,0,0.4,0,0.6
						c0,4.9-2.7,8.2-10.3,8.2c-0.7,0-1.5,0-2.2,0c0,1.9,0,5.4,0,6.6c0.8,0,1.5,0.1,2.3,0.1c10.9,0,18.5-4.2,18.5-14.7
						c0-0.2,0-0.4,0-0.6C34,4.1,25.6,0,13.5,0"/>
					<path id="Fill-7" class="st1" d="M139.7,4v8H152v6h-12.3v21.6c0,3.4,2.1,3.5,5.2,3.5h7.1v6h-9.7c-7.1,0-10.3-2.9-10.3-9.5V5.1
						L139.7,4"/>
					<path id="Fill-8" class="st1" d="M210.9,46.1c0.5,0,0.9-0.3,0.9-0.7c0-0.5-0.3-0.7-0.9-0.7c0,0-0.6,0-0.6,0v1.4L210.9,46.1z
						 M210.3,47.6H210v-3.2c0,0,0.9,0,0.9,0c0.8,0,1.2,0.4,1.2,1c0,0.5-0.3,0.8-0.7,0.9l0.8,1.3h-0.4l-0.8-1.3l-0.8,0V47.6z
						 M211,43.4c-1.4,0-2.6,1.2-2.6,2.6c0,1.4,1.1,2.6,2.6,2.6c1.4,0,2.6-1.2,2.6-2.6C213.6,44.6,212.4,43.4,211,43.4z M208,46
						c0-1.7,1.3-3,3-3c1.7,0,3,1.3,3,3c0,1.6-1.3,3-3,3C209.3,49,208,47.7,208,46L208,46z"/>
				</g>
			</g>
		</g>
	</g>
</g>
</svg>
