<?xml version="1.0" encoding="UTF-8" standalone="no"?>
<svg
   xmlns:dc="http://purl.org/dc/elements/1.1/"
   xmlns:cc="http://creativecommons.org/ns#"
   xmlns:rdf="http://www.w3.org/1999/02/22-rdf-syntax-ns#"
   xmlns:svg="http://www.w3.org/2000/svg"
   xmlns="http://www.w3.org/2000/svg"
   xmlns:sodipodi="http://sodipodi.sourceforge.net/DTD/sodipodi-0.dtd"
   xmlns:inkscape="http://www.inkscape.org/namespaces/inkscape"
   width="320"
   height="80"
   viewBox="0 0 320 80"
   version="1.1"
   id="svg2"
   inkscape:version="0.91 r13725"
   sodipodi:docname="pivotal-logo-home.svg">
  <metadata
     id="metadata26">
    <rdf:RDF>
      <cc:Work
         rdf:about="">
        <dc:format>image/svg+xml</dc:format>
        <dc:type
           rdf:resource="http://purl.org/dc/dcmitype/StillImage" />
        <dc:title>Logo</dc:title>
      </cc:Work>
    </rdf:RDF>
  </metadata>
  <sodipodi:namedview
     pagecolor="#ffffff"
     bordercolor="#666666"
     borderopacity="1"
     objecttolerance="10"
     gridtolerance="10"
     guidetolerance="10"
     inkscape:pageopacity="0"
     inkscape:pageshadow="2"
     inkscape:window-width="1536"
     inkscape:window-height="801"
     id="namedview24"
     showgrid="false"
     inkscape:zoom="1.1238095"
     inkscape:cx="0.8309338"
     inkscape:cy="42.864777"
     inkscape:window-x="-8"
     inkscape:window-y="-8"
     inkscape:window-maximized="1"
     inkscape:current-layer="Logo" />
  <!-- Generator: Sketch 46.2 (44496) - http://www.bohemiancoding.com/sketch -->
  <title
     id="title4">Logo</title>
  <desc
     id="desc6">Created with Sketch.</desc>
  <defs
     id="defs8" />
  <g
     id="Success-stories"
     style="fill:none;fill-rule:evenodd;stroke:none;stroke-width:1"
     transform="translate(0,-130)">
    <g
       id="Desktop---Success-stories"
       transform="translate(-159,-2027)">
      <g
         id="Pivotal"
         transform="translate(159,2021)">
        <g
           id="Logo"
           transform="translate(0,6)">
          <g
             id="Pivotal-OnLight"
             transform="matrix(1.4864961,0,0,1.4864961,1.0349416,132.29305)"
             style="fill:#007b67">
            <path
               d="m 41,49 8,0 0,-36.323922 -8,0 L 41,49 Z m 0.0095,-41.6893993 7.980325,0 0,-7.3106007 -7.980325,0 0,7.3106007 z"
               id="Fill-1"
               inkscape:connector-curvature="0" />
            <path
               d="M 91,14 80.475769,45.236674 C 78.66654,50.344671 75.441183,51 72.830607,51 68.953295,51 66.618784,49.222231 65.243274,45.245605 L 56.471131,19.305831 53,19.305831 53,14 l 9.054405,0 9.040636,29.037818 c 0.395167,1.239218 0.638876,1.9811 1.735566,1.9811 1.138685,0 1.363806,-0.75356 1.731434,-1.9811 L 83.786492,14 91,14"
               id="Fill-2"
               inkscape:connector-curvature="0" />
            <path
               d="m 111.00493,45.048456 c 5.98951,0 9.7015,-4.414199 9.7015,-9.707666 l 0,-5.680894 c 0,-5.298962 -3.67956,-9.712474 -9.7015,-9.712474 -6.34195,0 -9.69656,4.413512 -9.69656,9.712474 l 0,5.680894 c 0,5.293467 3.50052,9.707666 9.69656,9.707666 M 111.00493,14 C 121.0187,14 128,20.437202 128,29.659896 l 0,5.680894 C 128,44.551807 121.0187,51 111.00493,51 100.9961,51 94,44.551807 94,35.34079 l 0,-5.680894 C 94,20.437202 100.9961,14 111.00493,14"
               id="Fill-3"
               inkscape:connector-curvature="0" />
            <path
               d="M 188.56154,14.681976 C 184.6103,13.706887 178.43526,13 173.87497,13 163.46186,13 157,19.299612 157,29.454532 l 0,3.998071 c 0,10.145217 6.46186,16.540467 16.87497,16.540467 0.24058,0 2.09085,0.0069 2.93399,-0.07208 l 0,-6.124277 c -0.32006,0 -2.69846,0.08109 -2.93399,0.08109 -5.66425,0 -9.47388,-4.19004 -9.47388,-10.4252 l 0,-3.998071 c 0,-6.235161 3.80963,-10.423121 9.47388,-10.423121 2.56336,0 6.43224,0.198899 7.76738,0.469179 l 0.4241,0.08801 L 182.07584,50 190,50 190,15.946056 c 0,-0.649366 0,-0.898855 -1.43846,-1.26408"
               id="Fill-4"
               inkscape:connector-curvature="0" />
            <polygon
               id="Fill-5"
               points="204,0 196,0 196,49 204,49 " />
            <path
               d="M 13.519282,0 0,0 l 0,49 8.01218,0 0,-42.1880035 4.697812,0 c 0.996697,0.0069 1.846697,0.048307 2.698802,0.06487 6.944592,0.1311194 10.343188,2.8397696 10.343188,8.1487235 0,0.213932 0.01404,0.354022 0.01404,0.574855 0,4.911456 -2.743724,8.170117 -10.315112,8.170117 -0.723658,0 -1.467671,-0.01656 -2.237654,-0.0097 0.0021,1.878457 -0.007,5.362092 -0.01193,6.586333 0.781916,0.03727 1.511891,0.06901 2.26152,0.06901 C 26.327539,30.416244 34,26.216974 34,15.674286 34,15.467255 33.98877,15.251254 33.98877,15.039392 33.98877,4.1123176 25.629851,0 13.519282,0"
               id="Fill-6"
               inkscape:connector-curvature="0" />
            <path
               d="m 139.66062,4 0,7.981432 12.33524,0 0,5.981151 -12.33524,0 0,21.573357 c 0,3.384443 2.122,3.475876 5.19633,3.475876 l 7.14305,0 L 152,49 142.33469,49 C 135.1875,49 132,46.084681 132,39.53594 L 132,5.0718807 139.66062,4"
               id="Fill-7"
               inkscape:connector-curvature="0" />
            <path
               d="m 210.92708,46.050428 c 0.54148,-0.01822 0.87107,-0.275241 0.87107,-0.705997 0,-0.457434 -0.29297,-0.686476 -0.91684,-0.686476 -0.009,0 -0.55063,0 -0.55063,0 l 0,1.419802 0.5964,-0.02733 z m -0.58724,1.538228 -0.34921,0 0,-3.242381 c 0,0 0.90833,0 0.91749,0 0.82659,0 1.23008,0.376098 1.23008,0.980588 0,0.476304 -0.28447,0.778223 -0.66964,0.924628 l 0.84359,1.337165 -0.41264,0 -0.78016,-1.254527 -0.77951,0.04555 0,1.208979 z m 0.66049,-4.159202 c -1.40861,0 -2.55237,1.167987 -2.55237,2.565666 0,1.397679 1.14376,2.556556 2.55237,2.556556 1.41776,0 2.56152,-1.158877 2.56152,-2.556556 0,-1.397679 -1.14376,-2.565666 -2.56152,-2.565666 z M 208,46.004229 C 208,44.346275 209.33929,43 211.00033,43 212.66071,43 214,44.346275 214,46.004229 214,47.653075 212.66071,49 211.00033,49 209.33929,49 208,47.653075 208,46.004229 l 0,0 z"
               id="Fill-8"
               inkscape:connector-curvature="0" />
          </g>
        </g>
      </g>
    </g>
  </g>
</svg>
