<?xml version="1.0" encoding="utf-8"?>
<svg version="1.0" width="1080px" height="520px" viewBox="212.388 223.75 739.844 571.256" preserveAspectRatio="xMidYMid meet" xmlns="http://www.w3.org/2000/svg">
  <g transform="translate(0,1040) scale(0.100000,-0.100000)" fill="#000000" stroke="none">
    <path d="M2970 5945 l0 -1485 375 0 375 0 0 764 c0 824 1 847 53 976 93 229 280 391 522 454 75 19 135 24 301 25 l130 1 160 232 c87 128 203 297 258 376 l98 144 -483 -5 c-442 -4 -492 -6 -579 -25 -141 -30 -222 -58 -347 -117 l-113 -54 0 100 0 99 -375 0 -375 0 0 -1485z"/>
    <path d="M5437 7338 c-171 -247 -447 -650 -447 -654 0 -2 273 -5 606 -6 l605 -3 -69 -100 c-37 -55 -177 -259 -311 -453 -133 -194 -241 -358 -238 -365 7 -18 343 -599 359 -620 12 -17 16 -17 80 13 191 90 444 85 641 -11 89 -43 190 -121 248 -193 59 -73 132 -216 156 -306 26 -97 23 -272 -6 -374 -60 -214 -200 -384 -396 -480 -114 -56 -210 -78 -341 -77 -291 3 -537 157 -665 416 -51 103 -79 204 -79 288 l0 47 -380 0 -379 0 5 -77 c28 -406 180 -733 467 -1010 219 -211 485 -345 792 -400 95 -17 334 -23 420 -11 403 58 738 238 980 529 220 264 338 570 352 914 28 701 -437 1332 -1115 1511 -53 15 -99 28 -101 29 -1 2 30 52 71 112 41 59 154 224 251 365 l177 257 0 375 0 376 -810 0 -809 0 -64 -92z"/>
    <path fill="#eb1c24" d="M8377 5199 c-108 -25 -200 -102 -250 -207 -29 -60 -32 -77 -32 -157 0 -80 3 -97 31 -155 39 -83 101 -145 184 -184 57 -27 76 -31 150 -30 118 0 185 27 266 108 79 80 107 148 107 261 0 101 -27 175 -90 245 -95 106 -232 151 -366 119z"/>
  </g>
</svg>
