<svg xmlns="http://www.w3.org/2000/svg" width="151px" height="31px" viewBox="0 0 151 31">
    <g fill="none" fill-rule="evenodd">
        <path fill="#121836" d="M113.936 10.378c1.139-2.04 3.743-3.514 7.63-3.514 3.241 0 6.002.985 8.083 2.426l-2.361 3.866c-1.16-1.061-3.361-2.009-5.682-2.009-1.44 0-2.44.455-2.44 1.251 0 .834 1.04 1.137 3.08 1.478 3.282.53 8.163 1.289 8.163 6.14 0 3.488-3.24 6.066-8.803 6.066-3.44 0-7.002-1.1-9.042-2.806l2.56-4.017c1.44 1.213 4.522 2.425 6.802 2.425 1.84 0 2.601-.568 2.601-1.364 0-.947-1.32-1.289-3.32-1.592-3.282-.53-7.923-1.175-7.923-5.837 0-.127.005-.254.014-.38a6.718 6.718 0 0 0-.901-.056c-1.62 0-3.767.66-4.577 1.747v11.88h-6.238V7.33h6.238v2.368c1.296-1.514 3.766-2.834 6.116-2.834v3.514zm-82.548 8.88c1.44 1.214 4.521 2.426 6.802 2.426 1.84 0 2.6-.568 2.6-1.364 0-.947-1.32-1.289-3.32-1.592-3.281-.53-7.922-1.175-7.922-5.837 0-3.222 2.92-6.027 8.282-6.027 3.24 0 6.002.985 8.082 2.426l-2.36 3.866c-1.16-1.061-3.361-2.009-5.682-2.009-1.44 0-2.44.455-2.44 1.251 0 .834 1.04 1.137 3.08 1.478 3.281.53 8.163 1.289 8.163 6.14 0 3.488-3.241 6.066-8.803 6.066-3.44 0-7.002-1.1-9.043-2.806l2.561-4.017zm39.697-4.59c0-1.437-.681-2.524-2.421-2.524-1.59 0-2.724 1.048-3.292 1.825v12.113h-5.826V14.668c0-1.437-.643-2.524-2.421-2.524-1.551 0-2.648 1.048-3.254 1.825v12.113h-5.826V7.33h5.826v2.29c.795-1.087 3.14-2.756 6.016-2.756 2.61 0 4.426 1.126 5.182 3.338 1.06-1.63 3.443-3.338 6.318-3.338 3.367 0 5.486 1.786 5.486 5.63v13.588h-5.788V14.668zm20.532 9.14c-1.14 1.364-3.342 2.274-5.696 2.274-2.81 0-6.303-1.895-6.303-6.027 0-4.435 3.493-5.762 6.303-5.762 2.43 0 4.595.758 5.696 2.123v-2.312c0-1.592-1.367-2.654-3.721-2.654-1.823 0-3.722.683-5.202 1.934l-2.088-3.677c2.354-2.01 5.505-2.843 8.315-2.843 4.404 0 8.543 1.63 8.543 7.316v11.447h-5.847v-1.82zm0-4.511c-.608-.835-1.975-1.289-3.265-1.289-1.557 0-2.924.682-2.924 2.123 0 1.44 1.367 2.122 2.924 2.122 1.29 0 2.657-.454 3.265-1.326v-1.63zm53.201-4.278c0-2.283-1.235-3.018-3.187-3.018-1.793 0-2.988.967-3.705 1.818v12.075h-6.135V.08h6.135v9.405c1.156-1.316 3.426-2.748 6.653-2.748 4.383 0 6.375 2.4 6.375 5.844v13.313h-6.136V15.02z"/>
        <path fill="#004EC3" d="M16.764 26.082a11.76 11.76 0 0 0 .186-2.09c0-6.46-5.237-11.697-11.698-11.697-.86 0-1.699.093-2.507.269v-5.7h19.219v19.218h-5.2z"/>
        <path fill="#009AFF" d="M6.117 30.2a6.117 6.117 0 1 0 0-12.234 6.117 6.117 0 0 0 0 12.234"/>
    </g>
</svg>
