<?xml version="1.0" encoding="utf-8"?>
<!-- Generator: Adobe Illustrator 21.0.2, SVG Export Plug-In . SVG Version: 6.00 Build 0)  -->
<svg version="1.1" id="Layer_1" xmlns="http://www.w3.org/2000/svg" xmlns:xlink="http://www.w3.org/1999/xlink" x="0px" y="0px"
	 viewBox="0 0 134.3 47" style="enable-background:new 0 0 134.3 47;" xml:space="preserve">
<style type="text/css">
	.st0{fill:#231F20;}
	.st1{fill:#37B677;}
	.st2{fill:none;stroke:#DEDEDD;stroke-linecap:round;stroke-miterlimit:10;}
</style>
<path class="st0" d="M48.4,41.1h-5.1c-0.4,0-0.7-0.3-0.7-0.7v-2.6h4.9c0.4,0,0.8-0.3,0.8-0.8c0-0.4-0.3-0.8-0.8-0.8h-4.9v-2.5
	c0-0.4,0.3-0.7,0.7-0.7h5.1c0.4,0,0.8-0.4,0.8-0.8c0-0.4-0.4-0.8-0.8-0.8h-5.1c-1.3,0-2.3,1-2.3,2.3v6.6c0,1.3,1,2.3,2.3,2.3h5.1
	c0.4,0,0.8-0.4,0.8-0.8C49.2,41.5,48.8,41.1,48.4,41.1 M33.4,36.3c-1.1-0.2-1.8-0.4-2.2-0.7c-0.4-0.3-0.6-0.6-0.6-1.1
	c0-0.5,0.2-0.9,0.6-1.2c0.4-0.3,1-0.5,1.8-0.5c0.8,0,1.4,0.2,1.9,0.5c0.3,0.2,0.5,0.4,0.7,0.7c0.3,0.4,0.9,0.5,1.3,0.1
	c0.4-0.3,0.4-0.9,0.1-1.2c-0.4-0.4-0.8-0.8-1.3-1c-0.7-0.4-1.6-0.6-2.6-0.6c-0.9,0-1.7,0.2-2.3,0.5c-0.7,0.3-1.2,0.7-1.5,1.2
	c-0.4,0.5-0.5,1.1-0.5,1.7c0,0.6,0.1,1.1,0.4,1.5c0.3,0.4,0.7,0.8,1.3,1.1c0.6,0.3,1.4,0.5,2.5,0.7c1,0.2,1.7,0.4,2.2,0.7
	c0.4,0.2,0.6,0.6,0.6,1c0,0.5-0.2,0.9-0.7,1.2c-0.5,0.3-1.1,0.4-1.9,0.4c-0.8,0-1.6-0.2-2.1-0.5c-0.3-0.2-0.6-0.4-0.9-0.7
	c-0.3-0.4-0.9-0.4-1.3,0l0,0c-0.3,0.3-0.3,0.8,0,1.2c1,1.1,2.4,1.6,4.3,1.6c0.9,0,1.7-0.1,2.3-0.4c0.7-0.3,1.2-0.6,1.6-1.1
	c0.4-0.5,0.6-1.1,0.6-1.7c0-0.6-0.1-1.1-0.4-1.5c-0.3-0.4-0.7-0.8-1.3-1C35.3,36.8,34.5,36.5,33.4,36.3 M8.4,36.4
	c-1.1-0.2-1.8-0.4-2.2-0.7c-0.4-0.3-0.6-0.6-0.6-1.1c0-0.5,0.2-0.9,0.6-1.2c0.4-0.3,1-0.5,1.8-0.5c0.8,0,1.4,0.2,1.9,0.5
	c0.3,0.2,0.5,0.4,0.7,0.7c0.3,0.4,0.9,0.5,1.3,0.1c0.4-0.3,0.4-0.9,0.1-1.2c-0.4-0.4-0.8-0.8-1.3-1C9.9,31.5,9,31.4,8,31.4
	c-0.9,0-1.7,0.2-2.3,0.5C5,32.1,4.5,32.5,4.2,33c-0.3,0.5-0.5,1.1-0.5,1.7c0,0.6,0.1,1.1,0.4,1.5c0.3,0.4,0.7,0.8,1.3,1.1
	c0.6,0.3,1.4,0.5,2.5,0.7c1,0.2,1.7,0.4,2.2,0.7c0.4,0.2,0.6,0.6,0.6,1c0,0.5-0.2,0.9-0.7,1.2c-0.5,0.3-1.1,0.4-1.9,0.4
	c-0.8,0-1.6-0.2-2.1-0.5c-0.3-0.2-0.6-0.4-0.9-0.7c-0.3-0.4-0.9-0.4-1.3,0l0,0c-0.3,0.3-0.3,0.8,0,1.2c1,1.1,2.4,1.6,4.3,1.6
	c0.9,0,1.7-0.1,2.3-0.4c0.7-0.3,1.2-0.6,1.6-1.1c0.4-0.5,0.6-1.1,0.6-1.7c0-0.6-0.1-1.1-0.4-1.5c-0.3-0.4-0.7-0.8-1.3-1
	C10.2,36.8,9.4,36.5,8.4,36.4 M25.1,32.3v6.2c0,1.5-0.4,2.6-1.2,3.3c-0.8,0.8-1.9,1.1-3.4,1.1c-1.5,0-2.6-0.4-3.4-1.1
	C16.4,41,16,39.9,16,38.4v-6.2c0-0.5,0.4-0.9,0.9-0.9c0.5,0,0.9,0.4,0.9,0.9v5.9c0,1.1,0.2,1.8,0.7,2.3c0.4,0.5,1.1,0.8,2.1,0.8
	c0.9,0,1.6-0.3,2.1-0.8c0.4-0.5,0.7-1.3,0.7-2.3v-5.9c0-0.5,0.4-0.9,0.9-0.9C24.7,31.3,25.1,31.8,25.1,32.3"/>
<path class="st1" d="M47,10c-0.3-0.3-0.8-0.3-1.1,0c-0.3,0.3-0.3,0.9,0.1,1.2c0.2,0.2,0.6,0.2,0.8,0C47.3,10.8,47.3,10.3,47,10
	 M46,7.4c-2-0.5-3.8,1.3-3.3,3.3c0.2,1,1,1.8,2.1,2.1c2,0.5,3.8-1.3,3.3-3.3C47.9,8.5,47.1,7.7,46,7.4 M32.9,18.7
	c-1.3-0.5-1.8-0.4-3.5-0.4c-1.2,0-1.2,0-2.5,0c-0.4,0-0.6,1.9,0.9,2.4c0.6,0.2,1.3,0.3,1.8,0.8c0.2,0.2,0.3,0.5-0.2,0.5h-3.6
	c-0.6,0-1.2,0-1.7-0.4c-0.7-0.6-1.1-1.5-1.4-2.3c-0.4-0.9-0.8-1.8-1.3-2.6c-1-1.7-2.2-3.2-3.9-4.1c-2.1-1.1-5.8-1.7-8.6,0.5
	c-3,2.3-2.4,6.7,0.3,8.8c1,0.8,2.4,1.2,3.7,1.1c2.6-0.2,4.5-2.1,4.1-4.4c-0.2-0.8-0.6-1.5-1.3-2c-0.5-0.3-1.1-0.4-1.7-0.4
	c-0.6,0-1.3,0.1-1.7,0.6c-0.5,0.5-0.6,1.4-0.2,2c0.2,0.3,0.6,0.6,0.5,1c0,0.3-0.3,0.5-0.6,0.6c-0.5,0.1-0.9-0.2-1.3-0.5
	C9.8,19,9.6,17.6,10,16.4c0.6-1.5,2.3-2.3,3.9-2.2c2.1,0.1,4,1.4,4.8,3.3c0.8,1.9,0.6,4.2-0.6,5.9c-2.6,3.8-9,3.3-11.9,0.1
	c-1.9-2-2.9-3.9-2.7-7.5c0.1-2.6,1.6-5.1,3.4-6.8c3.1-2.9,7.1-4.9,11.2-5.7c2.5-0.5,5.1-0.6,7.6-0.4c2.2,0.2,4.4,0.6,6.6,1.3
	c1.1,0.3,2.1,0.7,3.1,1.2c0.9,0.4,2.1,0.9,2.8,1.6c0-1.3,0-2.7,0-3.7c0-0.4,0.4-0.6,0.7-0.5c1.5,0.7,4.9,2.3,7.2,3.3
	c3.1,1.4,3.3,4.7,3.4,7.6c0,0.1,0,0.1,0,0.2c-0.1,0.2-0.6,0.1-0.8,0.1c-0.4,0-0.9,0-1.3,0c-0.7,0-1.4,0-2.2,0
	c-1.4-0.1-2.7-0.7-3.5-1.4c-0.1-0.1-0.4-0.2-0.5,0c-0.1,0.1-0.1,0.4,0,0.4c0.5,0.5,1,0.8,1.7,1.2c0.8,0.4,1.7,0.5,2.6,0.6
	c1,0.1,1.9,0,2.9-0.1c0.8-0.1,1-0.1,0.2,0.4c-0.7,0.5-1.5,0.9-2.3,1.2c-1.2,0.4-2.4,0.6-3.6,0.6c-0.7,0-1.5,0-2.2-0.1
	c-0.4,0-0.8-0.1-1.1-0.2c-0.3,0-0.6-0.1-0.9,0c-0.3,0.1-0.5,0.2-0.7,0.4c-0.2,0.3-0.3,1.2-0.2,1.6c0.3,0.7,0.9,1.2,1.5,1.5
	c0.7,0.4,1.6,0.5,1.7,1.3c0,0.2-1.4,0.2-1.6,0.2h-1.9c0,0-1,0-1.5-0.1c0,0,0,0,0,0c-0.2-0.1-0.3-0.4-0.4-0.6c-0.1-0.3-0.3-0.6-0.5-1
	C34.2,19.6,33.6,18.9,32.9,18.7 M47.5,10.1c0,1.1-0.9,2-2,2c-1.1,0-2-0.9-2-2c0-1.1,0.9-2,2-2C46.5,8.1,47.5,9,47.5,10.1"/>
<line class="st2" x1="61.2" y1="42.9" x2="61.2" y2="3.4"/>
<path class="st1" d="M80.5,15c-1.2-1.9-2.7-2.2-4.3-1.8c-1.3,0.3-1.9,1.5-1.3,2.5c0.3,0.5,0.8,0.7,1.4,0.9c0.9,0.2,1.7,0.4,2.6,0.6
	c0.3,0.1,0.6,0.2,0.9,0.3c1,0.3,1.8,1,1.9,2.1c0.2,1.2-0.3,2.2-1.3,2.9c-1.7,1.2-5.6,1.2-7.4-1.3c-0.2-0.3-0.2-0.5,0.1-0.7
	c0.3-0.2,0.5-0.5,0.8-0.5c0.3,0,0.4,0.4,0.5,0.7c1.1,1.3,3.5,1.8,5,1c0.6-0.3,0.9-0.8,0.9-1.5c0-0.7-0.4-1.1-1.1-1.3
	c-1-0.3-2.1-0.5-3.1-0.8c-0.4-0.1-0.7-0.2-1-0.3c-1-0.4-1.7-1.1-1.8-2.2c-0.1-1.2,0.3-2.2,1.3-2.9c2.1-1.5,5.3-0.9,6.8,1.1
	c0.3,0.3,0.3,0.5-0.1,0.8C81,14.6,80.8,14.8,80.5,15z"/>
<path class="st1" d="M107.8,34.7c1.1-1.3,2.5-1.5,3.9-1.1c1.3,0.4,2.1,1.4,2.1,2.7c0,1.7,0,3.5,0,5.2c0,0.4-0.1,0.5-0.5,0.4
	c-0.1,0-0.2,0-0.3,0c-0.4,0.1-0.6-0.1-0.6-0.6c0-1.5,0-2.9,0-4.4c0-1.5-0.6-2.3-1.9-2.4c-1.4-0.1-2.5,0.9-2.6,2.2
	c-0.1,1.5,0,3-0.1,4.5c0,0.2,0.1,0.5-0.1,0.6c-0.4,0.1-0.8,0.1-1.1,0c-0.1,0-0.1-0.2-0.1-0.3c0-2.6,0-5.1,0-7.7
	c0-0.4,0.2-0.4,0.4-0.4c0.3,0,0.7,0,0.8,0.4C107.8,34.2,107.8,34.4,107.8,34.7z"/>
<path class="st1" d="M100.2,35.3c0-0.4-0.1-0.5-0.5-0.5c-0.2,0-0.4,0-0.6,0c-0.5,0.1-0.6-0.1-0.6-0.6c0-0.5,0.2-0.6,0.6-0.6
	c1.1,0,1.1,0,1.1-1c0,0,0-0.1,0-0.1c0-0.8,0.3-1.1,1.2-1.2c0.3,0,0.2,0.2,0.2,0.3c0,0.5,0,1,0,1.6c0,0.4,0.1,0.5,0.5,0.5
	c0.7,0,1.4,0,2.1,0c0.5,0,0.4,0.3,0.4,0.6c0,0.3,0.1,0.6-0.4,0.6c-0.7,0-1.4,0-2.1,0c-0.5,0-0.5,0.1-0.5,0.6c0,1.4,0.1,2.7,0,4.1
	c-0.1,1.3,0.8,1.5,1.7,1.4c0.1,0,0.3-0.1,0.4-0.1c0.2-0.1,0.4-0.5,0.6-0.3c0.2,0.2,0.3,0.6,0.4,0.9c0.1,0.2-0.1,0.3-0.2,0.4
	c-0.8,0.6-2.5,0.7-3.4,0.2c-0.6-0.4-0.9-0.9-0.9-1.6c0-0.8,0-1.7,0-2.5C100.2,37.6,100.2,36.1,100.2,35.3z"/>
<path class="st1" d="M96.3,21.5c0.9-2.2,1.6-4.3,2.4-6.3c0.2-0.6,0.9-0.9,1.5-0.6c0.3,0.1,0.1,0.3,0,0.5c-0.6,1.6-2.8,6.6-3.1,7.5
	c-0.2,0.5-0.6,0.4-0.9,0.4c-0.3,0-0.6,0.1-0.8-0.4c-1-2.6-2.1-5.1-3.2-7.6c-0.2-0.4,0-0.4,0.3-0.4c1.1,0,1.1,0,1.5,1
	C94.6,17.2,96.1,21.1,96.3,21.5z"/>
<path class="st1" d="M92,21.7c0,0.1,0.1,0.1,0.1,0.1c-0.2,1.1-0.2,1.2-0.9,1.3c-1.1,0.2-2-0.2-2.3-0.9c-0.2-0.4-0.2-0.7-0.2-1.1
	c0-3.3,0-6.6,0-9.9c0-0.5,0.2-0.5,0.6-0.5c0.9,0,0.8-0.1,0.8,0.8c0,3,0,6,0,9c0,1.4,0.4,1.7,1.7,1.3C91.8,21.8,91.9,21.8,92,21.7z"
	/>
<path class="st1" d="M113.1,15.7c0.7-1.1,1.8-1.4,3-1.3c0.3,0,0.7,0,0.5,0.5c-0.1,0.3,0.2,1-0.6,0.8c-1.4-0.3-2.7,0.7-2.7,2.1
	c-0.1,1.5,0,2.9-0.1,4.4c0,0.2,0.1,0.6-0.2,0.7c-0.3,0.1-0.7,0-1.1,0c-0.1,0-0.1-0.2-0.1-0.3c0-2.6,0-5.1,0-7.7
	c0-0.2,0.1-0.4,0.3-0.4c0.3,0.1,0.7-0.2,0.8,0.3C113,15.1,112.9,15.4,113.1,15.7z"/>
<path class="st1" d="M94.5,34.8c0.8-1.2,1.9-1.5,3.1-1.4c0.3,0,0.5,0.1,0.4,0.5c0,0.4,0.2,0.9-0.6,0.8c-1.5-0.3-2.7,0.7-2.8,2.3
	c-0.1,1.4,0,2.9,0,4.3c0,0.4-0.1,0.6-0.5,0.6c-0.9,0-0.9,0-0.9-0.8c0-2.3,0-4.7,0-7c0-0.3-0.1-0.5,0.4-0.5c0.4,0,0.7-0.2,0.8,0.5
	C94.5,34.5,94.5,34.5,94.5,34.8z"/>
<path class="st1" d="M127.8,34.8c0.7-1.2,1.8-1.5,3-1.4c0.3,0,0.5,0,0.5,0.5c0,0.3,0.1,1-0.7,0.8c-1.5-0.3-2.7,0.8-2.8,2.4
	c0,1.6,0,2.9,0,4.3c0,0.4,0,0.6-0.6,0.6c-0.8,0-0.8,0-0.8-0.8c0-2.3,0-4.6,0-6.9c0-0.2,0-0.7,0.3-0.7c0.4,0,0.7-0.1,0.8,0.6
	C127.7,34.4,127.8,34.5,127.8,34.8z"/>
<path class="st1" d="M85.6,22.5c0,0.4,0,0.4-0.5,0.5c-0.1,0-0.2,0-0.2,0c-0.5,0.1-0.7-0.1-0.7-0.6c0-2.1,0-7,0-7.4
	c0-0.3,0.1-0.4,0.4-0.4c0.9,0,0.9,0,0.9,0.9C85.6,16.6,85.6,21.3,85.6,22.5z"/>
<path class="st1" d="M85.9,12c0,0.6-0.4,1-1,1c-0.6,0-1-0.4-1-1c0-0.6,0.5-1.1,1.1-1C85.5,11,85.9,11.4,85.9,12z"/>
<path class="st1" d="M77.8,30.9c-1.2,0-2.3,0-3.5,0c-0.4,0-0.5,0.1-0.5,0.5c0,1.7,0,3.4,0,5c0,1.5,0,3.1,0,4.6c0,0.9,0,0.8,0.9,0.9
	c0.4,0,0.5-0.1,0.5-0.5c0-1.1,0-2.2,0-3.2c0-0.5,0.1-0.6,0.6-0.6c0.7,0,1.4,0,2.1,0c2.2,0,3.6-1.4,3.6-3.4
	C81.5,32.3,80,31,77.8,30.9z M78.2,36.3c-0.9,0.1-1.8,0-2.7,0.1c-0.3,0-0.4-0.1-0.4-0.4c0-0.6,0-1.1,0-1.7c0-0.6,0-1.1,0-1.7
	c0-0.3,0.1-0.4,0.4-0.4c0.8,0,1.7,0,2.5,0c1.2,0.1,1.8,0.8,1.9,1.9C80.1,35.4,79.5,36.1,78.2,36.3z"/>
<path class="st1" d="M91.2,41.1c0-0.4-0.3-0.1-0.5-0.1c-0.5,0-0.8-0.2-0.8-0.8c0-1.3,0-2.7,0-4c0-0.8-0.3-1.5-0.9-2
	c-1.4-1.1-4.1-0.9-5.3,0.5c-0.6,0.7-0.6,0.9,0.2,1.4c0.3,0.2,0.4,0.2,0.5-0.1c0.3-0.6,0.8-1,1.4-1.1c1.2-0.3,2.2,0.1,2.6,1
	c0.3,0.9,0.2,1.1-0.7,1.3c-0.2,0-0.3,0.1-0.5,0.1c-1,0.3-2,0.3-2.9,0.8c-0.9,0.5-1.3,1.2-1.2,2.3c0.1,0.9,0.7,1.6,1.6,1.8
	c1.4,0.4,2.7,0.2,3.8-1c0.5,0.9,1.3,1.3,2.2,1.1C91.5,41.9,91.2,41.4,91.2,41.1z M88.6,38.7c0,1.7-1.8,2.9-3.3,2.1
	c-0.4-0.2-0.6-0.5-0.6-0.9c0-0.5,0.2-0.8,0.7-1c1-0.4,2-0.5,3.1-0.7C88.7,38,88.6,38.5,88.6,38.7z"/>
<path class="st1" d="M107.9,15.2c-1.2-1-2.6-1-4-0.5c-1.7,0.7-2.3,2.1-2.4,3.8c-0.2,2.6,1.5,4.6,4.3,4.6c1,0,2.1-0.4,2.9-1.4
	c0.1-0.2,0.5-0.4,0-0.6c-0.3-0.1-0.6-0.8-1-0.2c-0.8,1-1.8,1.2-3,0.9c-1.1-0.3-1.6-1.1-1.9-2.1c-0.1-0.5,0-0.6,0.5-0.6
	c1.8,0,3.5,0,5.3,0c0.2,0,0.5,0.1,0.5-0.3C109.3,17.4,109.1,16.1,107.9,15.2z M107.3,17.9c-0.6,0-1.3,0-1.9,0c-0.7,0-1.4,0-2.1,0
	c-0.2,0-0.4,0-0.3-0.3c0.2-1.1,1.2-1.9,2.4-2c1.2-0.1,2.1,0.6,2.4,1.7C107.9,17.8,107.8,18,107.3,17.9z"/>
<path class="st1" d="M122.5,34c-1.4-0.9-2.8-0.9-4.2-0.1c-1.6,0.9-2,2.5-1.9,4.2c0.1,2.6,2.1,4.5,5.1,3.9c0.9-0.2,1.7-0.7,2.2-1.4
	c0.1-0.1,0.2-0.3,0.1-0.3c-0.3-0.2-0.6-0.4-0.9-0.5c-0.2-0.1-0.3,0.2-0.4,0.3c-0.8,0.9-1.8,1.1-3,0.8c-1.1-0.3-1.6-1.1-1.8-2.1
	c-0.1-0.4,0-0.5,0.4-0.5c1,0,4.5,0,5.4,0c0.2,0,0.4,0,0.4-0.3C124.1,36.4,123.8,34.9,122.5,34z M121.9,37l-3.9,0
	c-0.2,0-0.3,0-0.3-0.3c0.1-1,1.1-1.9,2.2-2.1c1.3-0.1,2.2,0.4,2.6,1.5C122.7,36.9,122.7,37,121.9,37z"/>
</svg>
