<?xml version="1.0" encoding="UTF-8" standalone="no"?>
<!-- Generator: Adobe Illustrator 21.0.2, SVG Export Plug-In . SVG Version: 6.00 Build 0)  -->

<svg
   xmlns:dc="http://purl.org/dc/elements/1.1/"
   xmlns:cc="http://creativecommons.org/ns#"
   xmlns:rdf="http://www.w3.org/1999/02/22-rdf-syntax-ns#"
   xmlns:svg="http://www.w3.org/2000/svg"
   xmlns="http://www.w3.org/2000/svg"
   xmlns:sodipodi="http://sodipodi.sourceforge.net/DTD/sodipodi-0.dtd"
   xmlns:inkscape="http://www.inkscape.org/namespaces/inkscape"
   version="1.1"
   id="Layer_1"
   x="0px"
   y="0px"
   viewBox="0 0 266.81461 124.24427"
   xml:space="preserve"
   sodipodi:docname="suse-logo.svg"
   width="266.81461"
   height="124.24427"
   inkscape:version="0.92.2 (5c3e80d, 2017-08-06)"><metadata
     id="metadata21"><rdf:RDF><cc:Work
         rdf:about=""><dc:format>image/svg+xml</dc:format><dc:type
           rdf:resource="http://purl.org/dc/dcmitype/StillImage" /><dc:title></dc:title></cc:Work></rdf:RDF></metadata><defs
     id="defs19" /><sodipodi:namedview
     pagecolor="#ffffff"
     bordercolor="#666666"
     borderopacity="1"
     objecttolerance="10"
     gridtolerance="10"
     guidetolerance="10"
     inkscape:pageopacity="0"
     inkscape:pageshadow="2"
     inkscape:window-width="730"
     inkscape:window-height="480"
     id="namedview17"
     showgrid="false"
     fit-margin-top="0"
     fit-margin-left="0"
     fit-margin-right="0"
     fit-margin-bottom="0"
     inkscape:zoom="0.472"
     inkscape:cx="133.3146"
     inkscape:cy="62.1"
     inkscape:window-x="0"
     inkscape:window-y="0"
     inkscape:window-maximized="0"
     inkscape:current-layer="Layer_1" /><style
     type="text/css"
     id="style2">
	.st0{fill:#092C40;}
	.st1{fill:#4CB75D;}
</style><g
     id="g14"
     transform="translate(-116.6854,-187.85573)"><g
       id="g6"><path
         class="st0"
         d="m 319.5,295 c 0,8.3 -6.8,15.8 -16.7,15.8 -0.3,0 -31.1,0 -31.1,0 v -11.6 h 31.1 c 1.9,0 4.2,-1.5 4.2,-4.2 0,-2.7 -1.7,-4.3 -5,-4.8 -0.2,0 -19,-2.8 -19.2,-2.8 -10,-1.6 -14.4,-9.1 -14.4,-16.4 0,-8.3 6.8,-15.8 16.7,-15.8 0.3,0 31.1,0 31.1,0 v 11.6 h -31.1 c -1.9,0 -4.2,1.5 -4.2,4.2 0,2.7 1.7,4.3 5,4.8 0.2,0 19,2.8 19.2,2.8 10,1.5 14.4,9.1 14.4,16.4 z M 253,255.1 v 33.1 c 0,6.9 -5.6,12.5 -12.5,12.5 -6.9,0 -12.5,-5.6 -12.5,-12.5 v -33.1 h -12.1 v 32.4 c 0,13.6 11,24.6 24.6,24.6 13.6,0 24.6,-11 24.6,-24.6 V 255.1 Z M 383.5,307 c 0,-2.1 -1.7,-3.8 -3.8,-3.8 -2.2,0 -3.9,1.7 -3.9,3.8 0,2.1 1.7,3.8 3.8,3.8 2.2,0 3.9,-1.7 3.9,-3.8 z m -0.8,0 c 0,1.7 -1.3,3 -3.1,3 -1.7,0 -3,-1.3 -3,-3 0,-1.7 1.3,-3 3.1,-3 1.7,0 3,1.3 3,3 z m -1.4,-0.7 c 0,-0.7 -0.6,-1.2 -1.4,-1.2 h -1.6 v 3.6 h 0.8 v -1.2 h 0.6 l 0.8,1.2 h 0.9 l -0.9,-1.3 c 0.5,-0.1 0.8,-0.5 0.8,-1.1 z m -0.8,0 c 0,0.3 -0.2,0.5 -0.6,0.5 H 379 v -1.1 h 0.8 c 0.4,0.1 0.7,0.3 0.7,0.6 z m -16.9,-39.6 c 4.6,-0.1 9.5,-3.7 9.5,-10.6 0,-0.3 0,-0.6 0,-1 h -33.7 c -9.9,0 -16.7,7.5 -16.7,15.8 v 0 c 0,0 0,23.9 0,24 0,8.3 6.8,15.8 16.7,15.8 0.3,0 33.7,0 33.7,0 0,-0.4 0,-0.7 0,-1 0,-6.9 -4.9,-10.4 -9.5,-10.6 v 0 h -24.3 c -1.9,0 -4.2,-1.5 -4.2,-4.2 0,-2.7 1.8,-4.8 5,-4.8 3.2,0 10.3,0 10.5,0 9.3,-0.1 14.6,-5.7 16.3,-12.2 h -25.3 c -4.6,0 -6.5,3.6 -6.5,3.6 v -10.6 c 0,-2.7 2.3,-4.2 4.2,-4.2 z m -165.2,11.9 c -0.2,0 -19,-2.8 -19.2,-2.8 -3.3,-0.5 -5,-2.1 -5,-4.8 0,-2.7 2.3,-4.2 4.2,-4.2 h 31.1 v -11.6 c 0,0 -30.8,0 -31.1,0 -9.9,0 -16.7,7.5 -16.7,15.8 0,7.3 4.4,14.9 14.4,16.4 0.2,0 19,2.8 19.2,2.8 3.3,0.5 5,2.1 5,4.8 0,2.7 -2.3,4.2 -4.2,4.2 h -22.7 v 0 c -4.6,0.1 -9.5,3.7 -9.5,10.6 0,0.3 0,0.7 0,1 0,0 32,0 32.1,0 9.9,0 16.7,-7.5 16.7,-15.8 0.1,-7.3 -4.3,-14.9 -14.3,-16.4 z"
         id="path4"
         inkscape:connector-curvature="0"
         style="fill:#092c40" /></g><g
       id="g12"><path
         class="st1"
         d="m 229.7,189.5 c 0,0 -0.1,4.4 -0.1,4.9 -2.2,-0.7 -18,-5.8 -32.8,-6.4 -12.6,-0.4 -29.8,-1 -54,13.9 l -0.7,0.4 c -11.4,7.1 -19.3,15.9 -23.4,26.1 -1.3,3.2 -3,10.5 -1.3,17.3 0.7,3 2.1,6 4,8.7 4.2,6.1 11.3,10.1 18.9,10.8 10.8,1 18.9,-3.9 21.8,-12.9 2,-6.2 0,-15.4 -7.6,-20.1 -6.2,-3.8 -12.9,-2.9 -16.8,-0.4 -3.4,2.2 -5.3,5.7 -5.2,9.5 0.1,6.7 5.9,10.3 10.1,10.3 1.2,0 2.4,-0.2 3.8,-0.7 0.5,-0.1 0.9,-0.3 1.5,-0.6 l 0.2,-0.1 0.1,-0.1 v 0 c 1,-0.6 1.5,-1.7 1.5,-2.8 0,-0.3 -0.1,-0.6 -0.1,-0.9 -0.5,-1.7 -2.2,-2.7 -3.9,-2.4 h -0.2 l -0.3,0.1 -0.5,0.2 c -1,0.2 -1.7,0.3 -1.8,0.3 -0.5,0 -2.9,-0.8 -2.9,-3.4 v 0 c 0,-1 0.4,-1.6 0.6,-2 0.7,-1.2 2.8,-2.3 5.6,-2.1 3.6,0.3 6.3,2.2 8,5.7 1.6,3.3 1.2,7.3 -1.1,10.2 -2.3,2.9 -6.3,4.2 -11.6,3.6 -5.4,-0.6 -10,-3.7 -12.5,-8.5 -2.5,-4.7 -2.6,-10.3 -0.4,-14.6 5.5,-10.3 15.8,-10.2 21.4,-9.2 8,1.4 20.2,8.6 24.8,25.3 h 11.1 c -1.4,-4.3 -2.2,-16.6 10.4,-16.6 13.7,0 15.5,9.7 19.3,16.6 H 227 c -3.1,-4.4 -5.3,-9.4 -4.6,-13.5 1,-6.1 5.9,-5.6 12.6,-4.8 2.2,0.3 4.7,0.5 7.3,0.6 7.2,0 13.8,-1.3 18.6,-3.4 3.1,-1.4 5.1,-2.3 6.3,-3.4 0.4,-0.4 0.7,-1 0.9,-1.6 l 0.2,-0.4 c 0.2,-0.5 0.5,-1.6 0.6,-2.2 0.3,-1.2 -0.8,-0.6 -0.8,-0.6 -2.1,1.3 -7.4,3.7 -12.3,3.8 -6.1,0.1 -18.5,-6.2 -19.8,-6.8 l -0.1,-0.1 c -0.3,-0.7 -2.2,-5.1 -2.6,-6 8.9,5.9 16.3,9.1 21.9,9.6 6.3,0.6 11.2,-2.9 13.3,-4.3 0.2,-0.2 1.1,-0.7 0.9,-1.4 -0.8,-2.9 -3.6,-12.4 -6,-14.8 -0.7,-0.7 -1.2,-1.4 -2.3,-2 -9,-5.2 -30.3,-8.4 -31.3,-8.5 0.1,-0.5 -0.2,-0.6 -0.1,-0.3 z m 14.6,17.6 c 0.1,-2.4 1.1,-4.7 2.9,-6.4 1.8,-1.7 4.1,-2.5 6.5,-2.4 5,0.2 9,4.4 8.8,9.4 -0.1,2.4 -1.1,4.7 -2.9,6.3 -1.8,1.7 -4.1,2.5 -6.5,2.4 -5,0 -9,-4.3 -8.8,-9.3 z"
         id="path8"
         inkscape:connector-curvature="0"
         style="fill:#4cb75d" /><path
         class="st1"
         d="m 253.6,201 c -1.7,-0.1 -3.3,0.5 -4.6,1.7 -1.2,1.2 -2,2.7 -2,4.4 -0.1,3.5 2.6,6.5 6.1,6.6 1.7,0.1 3.3,-0.6 4.6,-1.7 1.2,-1.2 2,-2.7 2,-4.4 0.2,-3.5 -2.5,-6.5 -6.1,-6.6 z m 1.1,7 c -1.6,0 -2.8,-0.8 -2.8,-1.9 0,-1 1.3,-1.9 2.8,-1.9 1.6,0 2.8,0.8 2.8,1.9 0,1 -1.3,1.9 -2.8,1.9 z"
         id="path10"
         inkscape:connector-curvature="0"
         style="fill:#4cb75d" /></g></g></svg>