<svg xmlns="http://www.w3.org/2000/svg" xmlns:xlink="http://www.w3.org/1999/xlink" width="105" height="39.348" viewBox="0 0 105 39.348">
  <defs>
    <rect id="rect-1" width="105" height="39.348" x="0" y="0"/>
    <mask id="mask-2" maskContentUnits="userSpaceOnUse" maskUnits="userSpaceOnUse">
      <rect width="105" height="39.348" x="0" y="0" fill="black"/>
      <use fill="white" xlink:href="#rect-1"/>
    </mask>
    <linearGradient id="linearGradient-46" x1="1.835" x2="22.092" y1="35.323" y2="14.779" gradientUnits="userSpaceOnUse">
      <stop offset="0" stop-color="rgb(120,190,32)"/>
      <stop offset=".138" stop-color="rgb(99,182,64)"/>
      <stop offset=".44" stop-color="rgb(57,166,129)"/>
      <stop offset=".695" stop-color="rgb(27,155,176)"/>
      <stop offset=".889" stop-color="rgb(8,148,205)"/>
      <stop offset="1" stop-color="rgb(1,145,216)"/>
    </linearGradient>
    <linearGradient id="linearGradient-48" x1="-5.132" x2="14.616" y1="27.898" y2="7.869" gradientUnits="userSpaceOnUse">
      <stop offset="0" stop-color="rgb(120,190,32)"/>
      <stop offset=".138" stop-color="rgb(99,182,64)"/>
      <stop offset=".44" stop-color="rgb(57,166,129)"/>
      <stop offset=".695" stop-color="rgb(27,155,176)"/>
      <stop offset=".889" stop-color="rgb(8,148,205)"/>
      <stop offset="1" stop-color="rgb(1,145,216)"/>
    </linearGradient>
    <linearGradient id="linearGradient-50" x1="-4.328" x2="15.401" y1="28.709" y2="8.681" gradientUnits="userSpaceOnUse">
      <stop offset="0" stop-color="rgb(120,190,32)"/>
      <stop offset=".138" stop-color="rgb(99,182,64)"/>
      <stop offset=".44" stop-color="rgb(57,166,129)"/>
      <stop offset=".695" stop-color="rgb(27,155,176)"/>
      <stop offset=".889" stop-color="rgb(8,148,205)"/>
      <stop offset="1" stop-color="rgb(1,145,216)"/>
    </linearGradient>
  </defs>
  <g>
    <use fill="none" xlink:href="#rect-1"/>
    <g mask="url(#mask-2)">
      <g>
        <path fill="rgb(88,89,91)" fill-rule="evenodd" d="M39.38693118.01708328L36.57398 6.66817305h-1.06678787L32.68862628.01708328h1.06678787l2.27955724 5.39262158L38.31452863.01708328h1.07240255z"/>
        <path fill="rgb(88,89,91)" fill-rule="evenodd" d="M40.47056307.01708328h.96572376l2.30201593 4.34484717L46.0403187.01708328h.96572376v6.65108977h-.96572376V1.9361049l-2.30201594 4.34484717-2.30201593-4.34484717v4.73206815h-.96572376V.01708328z"/>
        <path fill="rgb(88,89,91)" fill-rule="evenodd" d="M48.10651837 1.66277244h.96572376l1.13416394 3.72415472 1.22399872-3.72415472h.80289824l1.22399872 3.72415472 1.12854927-3.72415472h.96572376l-1.6619432 5.0054006h-.87027433l-1.184696-3.71846028-1.19031068 3.71846029h-.87027432l-1.66755788-5.0054006z"/>
        <path fill="rgb(88,89,91)" fill-rule="evenodd" d="M60.62309346 6.66817293V3.63873852c0-1.24138508-.734826-2.08985458-2.05863746-2.08985458-.54410949 0-1.16113924.14236065-1.86792095.50110943l.34217186.70610898c.42631325-.22208281.90310877-.41569312 1.39112543-.41569312.9816396 0 1.26771435.66624764 1.26771435 1.29832929v.15944378c-.47679552-.16513834-.99846702-.27333247-1.48648368-.27333247-1.0882147 0-1.97449606.6662475-1.97449606 1.66277208 0 .97374744.7740914 1.59443944 1.82304497 1.59443944.60020233 0 1.27332492-.27902675 1.63793477-.802914v.68902558h.92554677zm-.92555105-2.23790911v.66624736c-.16267222.62069254-.84701166.93388609-1.4640457.93388609-.61702974 0-1.09382527-.33027668-1.09382527-.87124705 0-.54666494.55532635-.92249698 1.2116258-.92249698.48801238 0 .94798048.06833305 1.34624517.19361058z"/>
        <path fill="rgb(88,89,91)" fill-rule="evenodd" d="M64.81578525 1.54888392v.83138622c-1.02187049 0-1.7461633.56944262-1.8303834 1.44068982v2.84721309h-.94326507v-5.0054006h.94326507v.95666359c.31442169-.65485901.98256778-1.07055212 1.8303834-1.07055212z"/>
        <path fill="rgb(88,89,91)" fill-rule="evenodd" d="M70.00507895 6.00761958l-.58898547-.62069254c-.29729588.31319355-.89749821.54666494-1.41355915.54666494-.84701594 0-1.44721827-.60360941-1.57062507-1.43499566h3.8816867c0-1.78804933-.86384336-2.94971238-2.37276503-2.94971238-1.36868745 0-2.46251272 1.10471857-2.46251272 2.60235258 0 1.53749496 1.16113925 2.63082483 2.53543298 2.63082483.69556486 0 1.55379765-.30180444 1.99132776-.77444177zm-.61142346-2.27207604h-2.95613567c.15145109-.81430285.7740914-1.3381901 1.53696596-1.3381901.84701594 0 1.3125946.56374806 1.4191697 1.3381901z"/>
      </g>
      <g>
        <path fill="rgb(88,89,91)" fill-rule="evenodd" d="M33.27255227 10.26705039h.96572376l2.30201593 4.34484717 2.30201594-4.34484717h.96572376v6.65108977h-.96572376V12.186072l-2.30201594 4.34484717-2.30201593-4.34484717v4.73206815h-.96572376v-6.65108977z"/>
        <path fill="rgb(88,89,91)" fill-rule="evenodd" d="M45.44662871 16.91813964v-3.02943455c0-1.24138508-.734826-2.08985445-2.05863746-2.0841599-.54410949 0-1.16113924.14236066-1.86792095.50110903l.34217186.70610871c.42631325-.22208227.90310877-.41569285 1.39112543-.41569285.98163533 0 1.26771435.66624791 1.26771435 1.29832956v.15374977c-.47679552-.16513888-.99846702-.27333328-1.48648368-.27333328-1.0882147 0-1.97449606.6662479-1.97449606 1.66277248 0 .97374744.7740914 1.59443998 1.82304497 1.59443998.60020233 0 1.27332492-.27902783 1.63793477-.802914v.68902505h.92554677zm-.92554677-2.23790858v.6662479c-.16267222.62069255-.84701166.93388555-1.4640457.93388555-.61702974 0-1.09382527-.33027667-1.09382527-.8712465 0-.54666548.55532635-.92249752 1.2116258-.92249752.48801237 0 .94798048.06833359 1.34624517.19361057z"/>
        <path fill="rgb(88,89,91)" fill-rule="evenodd" d="M46.48949254 16.28605885l.44917384-.68902556c.52777926.38722097 1.08924657.6093036 1.66755789.6093036.55585262 0 .93765039-.2619436.93765039-.64916459 0-.46694294-.50532057-.6093036-1.11731993-.78583081-1.13416395-.31888787-1.70124592-.64916458-1.70124592-1.46346753-.01122935-.92249704.7467515-1.52041178 1.79669536-1.52041178.64007272 0 1.28576012.22208262 1.82476873.58083147l-.42110048.70610884c-.4772472-.30180459-.97133843-.46694295-1.40366825-.46694295-.48847655 0-.87027432.21069377-.87027432.59222033 0 .38722098.30319235.5011095 1.13416395.7630531.80851292.24486033 1.67878723.51249836 1.67878723 1.50902294 0 .95096917-.7916689 1.54888392-1.86968611 1.54888392-.71867815.01138885-1.51034704-.25055475-2.10550238-.73458098z"/>
        <path fill="rgb(88,89,91)" fill-rule="evenodd" d="M54.22089728 16.67327983c-.2695043.22208262-.62884338.35874885-.98256778.35874885-.76359553 0-1.29698946-.5637482-1.29698946-1.36666228v-2.94401833h-.74675152v-.81430294h.74675152v-1.37235671h.92642104v1.3723567h1.16223732v.81430295h-1.16223732v2.87568522c0 .34736.2302016.59791474.50532057.59791474.2077429 0 .39864179-.07972196.50532057-.18222163l.34249506.66055343z"/>
        <path fill="rgb(88,89,91)" fill-rule="evenodd" d="M59.4438761 16.25758629l-.58898547-.62069254c-.29168531.313193-.89188764.54666439-1.41355915.54666439-.84701594 0-1.44721827-.60360887-1.57062507-1.43499457h3.88168671c0-1.78805056-.86384336-2.94971293-2.37276504-2.94971293-1.36868744 0-2.46251272 1.10471898-2.46251272 2.60235258 0 1.5374955 1.16113925 2.63082537 2.53543298 2.63082537.69556486 0 1.55379765-.30180497 1.99132776-.7744423zm-.6058129-2.27207592h-2.95613566c.15145109-.81430311.7740914-1.33819036 1.53696595-1.33819036.84701595 0 1.31259461.56374806 1.41916972 1.33819036z"/>
        <path fill="rgb(88,89,91)" fill-rule="evenodd" d="M63.6816213 11.79885103v.83138622c-1.02187048 0-1.7461633.56944262-1.8303834 1.44068982v2.84721309h-.94326506v-5.0054006h.94326506v.95666359c.31442169-.65485901.98256778-1.07055212 1.8303834-1.07055212z"/>
        <path fill="rgb(88,89,91)" fill-rule="evenodd" d="M67.0111224 15.96147656l.583926-.72888655c.58392599.5637482 1.2689161.92819147 2.15603443.92819147.90396235 0 1.37559489-.48402623 1.37559489-1.01360786 0-.6320813-.54462328-.8712472-1.63948452-1.12180196-1.33629218-.31888786-2.22341051-.72888655-2.22341051-1.92471604 0-1.11610753.9544944-1.95318818 2.27394257-1.95318818 1.01064114 0 1.768622.37583213 2.39746537.93958032l-.55585263.73458097c-.55585262-.51249835-1.21276937-.81430294-1.88091546-.81430294-.73552216 0-1.25207208.47263737-1.25207208 1.00791343 0 .62069246.5614673.83138622 1.63948452 1.09332983 1.30821881.30749901 2.21218117.75735868 2.21218117 1.94749375 0 1.12180195-.84220095 1.97596588-2.38623603 1.97596588-1.09486124-.01138885-2.00443827-.39860983-2.70065772-1.07055212z"/>
        <path fill="rgb(88,89,91)" fill-rule="evenodd" d="M77.51189403 16.25758629l-.58897691-.62069254c-.2916896.313193-.8918962.54666439-1.41356343.54666439-.84701166 0-1.44721827-.60360887-1.57062508-1.43499457h3.88168244c0-1.78805056-.86383909-2.94971293-2.37276076-2.94971293-1.36868745 0-2.46251272 1.10471898-2.46251272 2.60235258 0 1.5374955 1.16114352 2.63082537 2.53543726 2.63082537.6955563 0 1.5537891-.30180497 1.9913192-.7744423zm-.60580433-2.27207592h-2.95613995c.15145536-.81430311.77409568-1.33819036 1.53697023-1.33819036.84701166 0 1.31259033.56374806 1.41916972 1.33819036z"/>
        <path fill="rgb(88,89,91)" fill-rule="evenodd" d="M81.74963906 11.79885103v.83138622c-1.0218705 0-1.74616331.56944262-1.8303834 1.44068982v2.84721309h-.94326507v-5.0054006h.94326506v.95666359c.3144217-.65485901.98256778-1.07055212 1.8303834-1.07055212z"/>
        <path fill="rgb(88,89,91)" fill-rule="evenodd" d="M82.1988129 11.91273955h1.02187049l1.5384204 3.88929308 1.51034704-3.88929308h1.02187049l-2.08304369 5.0054006h-.88711833l-2.1223464-5.0054006z"/>
        <path fill="rgb(88,89,91)" fill-rule="evenodd" d="M88.64953085 9.93107955c-.32534444 0-.57215805.26763764-.57215805.56944262 0 .30749844.24681361.58083173.57215805.58083173.30290217 0 .56093692-.27333329.56093692-.58083173 0-.29611043-.25803475-.56944262-.56093692-.56944262zm.4655701 1.98166005h-.9423699v5.00540004h.9423699V11.9127396z"/>
        <path fill="rgb(88,89,91)" fill-rule="evenodd" d="M90.21656596 14.41259264c0-1.42360654 1.19031068-2.61374161 2.60520828-2.61374161.7074488 0 1.34752152.30180459 1.81353938.77444196l-.64007272.59791475c-.29757767-.33597115-.72429282-.5409705-1.184696-.5409705-.8983477 0-1.63948453.81430295-1.63948453 1.7823554 0 .9794413.74675151 1.78804982 1.65071387 1.78804982.46040318 0 .89834768-.21069377 1.20154002-.5637482l.64007272.59222033c-.4772472.49541508-1.11731992.80291409-1.85284209.80291409-1.40366825 0-2.59397893-1.20152392-2.59397893-2.61943604z"/>
        <path fill="rgb(88,89,91)" fill-rule="evenodd" d="M99.9368994 16.25758629l-.58898547-.62069254c-.29729588.313193-.89750249.54666439-1.41916971.54666439-.84702022 0-1.44721827-.60360887-1.57062508-1.43499457h3.88168243c0-1.78805056-.86383908-2.94971293-2.37276075-2.94971293-1.36308116 0-2.45690644 1.10471898-2.45690644 2.60235258 0 1.5374955 1.16114353 2.63082537 2.53543726 2.63082537.6955563 0 1.5537891-.30180497 1.99132777-.7744423zm-.61141918-2.27207592h-2.95613994c.15706165-.81430311.77409568-1.33819036 1.53697023-1.33819036.84701166 0 1.31259033.56374806 1.41916971 1.33819036z"/>
        <path fill="rgb(88,89,91)" fill-rule="evenodd" d="M101.01919683 16.28605885l.44917385-.68902556c.52777926.38722097 1.08924656.6093036 1.66755788.6093036.55585263 0 .9376504-.2619436.9376504-.64916459 0-.46694294-.50532058-.6093036-1.11731994-.78583081-1.13416394-.31888787-1.70124592-.64916458-1.70124592-1.46346753-.01122935-.92249704.74675151-1.52041178 1.79669536-1.52041178.64007273 0 1.28576012.22208262 1.82476873.58083147l-.42110047.70610884c-.4772472-.30180459-.97133843-.46694295-1.40366826-.46694295-.48847655 0-.87027431.21069377-.87027431.59222033 0 .38722098.30319234.5011095 1.13416395.7630531.81412758.24486033 1.67878723.51249836 1.67878723 1.50902294 0 .95096917-.7916689 1.54888392-1.86968612 1.54888392-.71867814.01138885-1.51034704-.25055475-2.10550238-.73458098z"/>
      </g>
      <g>
        <path fill="rgb(88,89,91)" fill-rule="evenodd" d="M32.90198385 23.83686796c0-1.86777179 1.56649377-3.43373899 3.40810652-3.43373899.9376504 0 1.79669536.39860984 2.4143094 1.04777442l-.67937544.66055344c-.4379445-.48402623-1.0611732-.8029141-1.73493396-.8029141-1.30821881 0-2.4143094 1.16166294-2.4143094 2.53401965 0 1.38374556 1.10609059 2.5454085 2.4143094 2.5454085.67937543 0 1.29698947-.31888786 1.73493396-.80291409l.67937543.66055344c-.61761403.63777573-1.476659 1.04777441-2.4143094 1.04777441-1.84722741-.01138885-3.4081065-1.5887449-3.4081065-3.45651668z"/>
        <path fill="rgb(88,89,91)" fill-rule="evenodd" d="M42.00090645 22.04881883c-1.41355915 0-2.60274695 1.19013516-2.60274695 2.6137417 0 1.41791308 1.19479409 2.61943517 2.60274695 2.62513082 1.40234229 0 2.58591952-1.20152427 2.58591952-2.62513082 0-1.42360654-1.18357723-2.6137417-2.58591952-2.6137417zm.00561056.8313857c.88628136 0 1.63793477.81430312 1.63793477 1.782356 0 .97374636-.75726398 1.78804947-1.63793477 1.78804947-.90871934 0-1.66037275-.80860964-1.66037275-1.78804947 0-.96805288.75165341-1.782356 1.66037275-1.782356z"/>
        <path fill="rgb(88,89,91)" fill-rule="evenodd" d="M52.99128389 23.98492304v3.18318423h-.92642105v-3.04082358c0-.73458098-.42671515-1.24707933-1.04994385-1.24707933-.7074488 0-1.20154003.47263737-1.20154003 1.16166294v3.12623997h-.92642104v-3.04082358c0-.73458098-.43232983-1.24707933-1.04994386-1.24707933-.7074488 0-1.20154002.47263737-1.20154002 1.16166294v3.12623997h-.94326507v-5.0054006h.94326507v.69471998c.24704561-.49541507.76359553-.81430294 1.3924389-.81430294.71306348 0 1.29698947.38722098 1.5833378 1.00791343.23020159-.62069245.85904497-1.00791343 1.60579648-1.00791343 1.02748516.00569443 1.77423667.80860852 1.77423667 1.94179933z"/>
        <path fill="rgb(88,89,91)" fill-rule="evenodd" d="M57.08183792 27.28768917c1.30137348 0 2.27179194-1.0876353 2.27179194-2.6251308 0-1.53179987-.97602903-2.6137417-2.27179194-2.61943518-.76287455 0-1.37429801.37013857-1.75573529.979442v-.85985957h-.93676362v6.67386817h.93676362V26.3025537c.38143728.61499907.99286074.98513546 1.7557353.98513546zm-.22437562-4.40748464c.90310878 0 1.54257652.7345815 1.54257652 1.782356 0 1.04207886-.63946774 1.78804947-1.54257652 1.78804947-.88628136 0-1.5257491-.74027496-1.5257491-1.78804947 0-1.0477745.63946774-1.782356 1.5257491-1.782356z"/>
        <path fill="rgb(88,89,91)" fill-rule="evenodd" d="M64.76097213 26.50755557l-.58898547-.62069471c-.29168532.31319517-.89188764.54666656-1.41355915.54666656-.84701594 0-1.44721827-.60360996-1.57062508-1.43499566h3.88168672c0-1.78804947-.86384337-2.94971293-2.37276504-2.94971293-1.36868745 0-2.46251272 1.1047179-2.46251272 2.60235259 0 1.5374955 1.16113924 2.63082428 2.53543298 2.63082428.69556485 0 1.55379765-.30180389 1.99132776-.77444013zm-.6058129-2.27207917h-2.95613566c.15145108-.81430312.7740914-1.33818928 1.53696595-1.33818928.84701594 0 1.31259461.56374914 1.41916972 1.33818928z"/>
        <path fill="rgb(88,89,91)" fill-rule="evenodd" d="M68.82466178 26.92324694c-.2695043.22208262-.62884337.35874885-.98256777.35874885-.76359553 0-1.29698947-.5637482-1.29698947-1.36666228v-2.94401833h-.74675151v-.81430294h.74675151v-1.37235671h.92642105v1.3723567h1.16223731v.81430295h-1.16223731v2.87568521c0 .34736.23020159.59791475.50532057.59791475.2077429 0 .39864178-.07972196.50532057-.18222163l.34249505.66055343z"/>
        <path fill="rgb(88,89,91)" fill-rule="evenodd" d="M74.0476418 26.50755557l-.58898547-.62069471c-.29168103.31319517-.89188764.54666656-1.41355486.54666656-.84702022 0-1.44722255-.60360996-1.57062936-1.43499566h3.88168671c0-1.78804947-.86384764-2.94971293-2.37276076-2.94971293-1.36869172 0-2.462517 1.1047179-2.462517 2.60235259 0 1.5374955 1.16113925 2.63082428 2.53543298 2.63082428.69556486 0 1.55379766-.30180389 1.99132777-.77444013zm-.60581289-2.27207917h-2.95613566c.15145108-.81430312.7740914-1.33818928 1.53696595-1.33818928.84702022 0 1.31259033.56374914 1.41916971 1.33818928z"/>
        <path fill="rgb(88,89,91)" fill-rule="evenodd" d="M79.82380621 23.98492304v3.18318423h-.92642104V24.1500614c0-.74596983-.46601786-1.26985704-1.13416395-1.26985704-.6849901 0-1.28014545.4555541-1.3531362 1.04777441v3.2401285h-.94326506v-5.0054006h.94326506v.72319212c.29757767-.49541508.89834768-.84277508 1.56649377-.84277508 1.0836319.00569443 1.84722742.80860852 1.84722742 1.94179933z"/>
        <path fill="rgb(88,89,91)" fill-rule="evenodd" d="M80.91305278 24.66255975c0-1.42360654 1.19031068-2.61374161 2.60520828-2.61374161.7074488 0 1.34752152.30180459 1.81353938.77444196l-.64007272.59791475c-.29757767-.33597115-.72429282-.5409705-1.18469601-.5409705-.89834768 0-1.63948452.81430295-1.63948452 1.7823554 0 .9794413.74675151 1.78804982 1.65071387 1.78804982.46040318 0 .89834768-.21069377 1.20154002-.5637482l.64007272.59222033c-.4772472.49541508-1.11731993.80291409-1.85284209.80291409-1.40366825 0-2.59397893-1.20152392-2.59397893-2.61943604z"/>
        <path fill="rgb(88,89,91)" fill-rule="evenodd" d="M86.30313887 28.69421348l.2077429-.73458098c.19089888.1081941.40987113.15374951.60077001.15374951.30319235 0 .51654992-.09680524.67937544-.38722098l.24704561-.53527606-2.11673173-5.03387273h1.01064115l1.58333779 3.95193176 1.4991177-3.95193176h.98256777l-2.17849313 5.4609547c-.3537244.89971933-.875889 1.27555146-1.58333779 1.2869403-.3312657.00569444-.67376076-.07402753-.93203572-.21069376z"/>
      </g>
      <g>
        <path fill="rgb(88,89,91)" fill-rule="evenodd" d="M33.12657077 36.91696487c0-1.31541244 1.10609059-2.42582555 2.40308005-2.42582555.66253142 0 1.26330143.27902689 1.70124592.7402754l-.4772472.46694295c-.30880702-.34166557-.74675151-.56944261-1.22399872-.56944261-.92080637 0-1.70124592.81999736-1.70124592 1.78804981 0 .97374688.78043955 1.79374425 1.70124592 1.79374425.4772472 0 .9151917-.22777705 1.22399872-.56944262l.4772472.46694295c-.4379445.44985966-1.04432918.73458097-1.70124592.73458097-1.30260414.00569443-2.40308005-1.10471868-2.40308005-2.42582555z"/>
        <path fill="rgb(88,89,91)" fill-rule="evenodd" d="M37.9046575 34.49113932h.66253142v4.77192914h-.66253142v-4.77192914z"/>
        <path fill="rgb(88,89,91)" fill-rule="evenodd" d="M41.17627546 35.65280261c-.99285646 0-1.83426184.84277699-1.83426184 1.84499286 0 1.00222023.84140538 1.85068851 1.83426184 1.85068851.98725017 0 1.82304498-.84846828 1.82304498-1.8506885 0-1.00221588-.83579481-1.84499287-1.82304498-1.84499287zm.00561057.5865252c.62264031 0 1.15553295.57513826 1.15553295 1.25846766 0 .68902505-.53289264 1.2641633-1.15553295 1.2641633-.63946775 0-1.1723561-.57513825-1.1723561-1.2641633 0-.6833294.53288835-1.25846766 1.1723561-1.25846766z"/>
        <path fill="rgb(88,89,91)" fill-rule="evenodd" d="M46.85444629 35.73821866v3.53054422h-.6681461v-.51249835c-.2077429.34736-.63445804.59222032-1.10609058.59222032-.7692102 0-1.3082188-.56944262-1.3082188-1.36666228v-2.24929834h.65130206v2.12971539c0 .5238872.33126571.8940249.80289824.8940249.48286188 0 .90396236-.31888786.95449441-.73458097v-2.28915932h.67376077v.00569443z"/>
        <path fill="rgb(88,89,91)" fill-rule="evenodd" d="M51.16320402 39.26307106v-4.77762538h-.66190574v1.8506885c-.26924732-.42708196-.70117114-.68902504-1.23967007-.68902504-.91432563 0-1.59866935.76874666-1.59866935 1.84499504 0 1.08763314.68434372 1.8506885 1.59866935 1.8506885.53849893 0 .97042275-.25625178 1.23967007-.69472069v.61499907h.66190574zm-1.73890359-3.02374325c.6282466 0 1.07699785.52388617 1.07699785 1.25846766 0 .74027714-.44875124 1.2641633-1.07699785 1.2641633-.63946774 0-1.08821898-.52388616-1.08821898-1.2641633 0-.7402728.44875124-1.25846766 1.08821898-1.25846766z"/>
        <path fill="rgb(88,89,91)" fill-rule="evenodd" d="M54.19843859 34.57655572h.67937543l2.661355 3.55901635v-3.55901635h.67937544v4.69220716h-.67937543l-2.661355-3.55901636v3.55901636h-.67937544v-4.69220716z"/>
        <path fill="rgb(88,89,91)" fill-rule="evenodd" d="M62.20765627 39.26306672V37.1276569c0-.87124433-.5216715-1.47485429-1.45282884-1.46916082-.38143728 0-.81896739.10249985-1.3182009.35305599l.24120305.49541447c.30290644-.15944324.63946774-.29611043.9816396-.29611043.69556058 0 .8974982.47263625.8974982.9168008v.10819548c-.33656129-.11388678-.7067817-.1879171-1.04894929-.1879171-.76287454 0-1.39112543.46694277-1.39112543 1.17305474 0 .68902505.5441095 1.12749395 1.28454605 1.12749395.42070269 0 .89749821-.19930405 1.15552868-.56944262v.48402536h.65068888zm-.65068888-1.57735414v.47263841c-.11779624.4384689-.60020233.66055553-1.02651559.65485988-.4375301 0-.7740914-.23347355-.7740914-.61499907 0-.3815255.38704784-.64916423.85262223-.64916423.34217186 0 .6675163.04555645.94798476.13666501z"/>
        <path fill="rgb(88,89,91)" fill-rule="evenodd" d="M65.04598685 39.0979301c-.19089889.15944393-.44355917.25055475-.69621946.25055475-.5390086 0-.9151917-.39860983-.9151917-.96235802v-2.07846556h-.52777926v-.57513704h.52777926v-.96805245h.65130207v.96805245h.81974226v.57513704h-.81974226V38.334877c0 .24486033.16282552.42138754.35933907.42138754.1459815 0 .28073365-.05694427.35933908-.1309718l.24143094.47263737z"/>
        <path fill="rgb(88,89,91)" fill-rule="evenodd" d="M66.05624697 34.33738938c-.2299862 0-.40387527.19361058-.40387527.40430374 0 .2163888.17388908.40999938.40387527.40999938.21876505 0 .3982647-.19361058.3982647-.40999938 0-.21069316-.18511022-.40430374-.3982647-.40430374zm.330955 1.40082832h-.6675163v3.53054466h.6675163V35.7382177z"/>
        <path fill="rgb(88,89,91)" fill-rule="evenodd" d="M67.01673707 35.73821866h.71867815l1.08363189 2.74471341 1.06678787-2.74471341h.71867815l-1.46542966 3.53054422h-.62884338l-1.49350302-3.53054422z"/>
        <path fill="rgb(88,89,91)" fill-rule="evenodd" d="M74.01521215 38.80181959l-.4150964-.4384689c-.20754392.22208227-.63386145.38722115-.99846703.38722115-.6002066 0-1.02090501-.42708196-1.11065697-1.01360717h2.7373706c0-1.2641633-.61141918-2.08416206-1.6771959-2.08416206-.95920589 0-1.73329729.78013578-1.73329729 1.83930157 0 1.08763314.81896738 1.8563798 1.78938585 1.8563798.49362723 0 1.09944012-.21069099 1.40795714-.5466644zm-.42631753-1.605828h-2.08668174c.10657939-.56944263.54410522-.9395812 1.08260842-.94527467.60020661 0 .93115734.39861027 1.00407332.94527466z"/>
      </g>
      <g>
        <path fill-opacity="0" fill-rule="evenodd" stroke="rgb(114,113,117)" stroke-dasharray="0 0 0 0" stroke-linecap="butt" stroke-linejoin="miter" stroke-width=".451" d="M24.92914817 0v39.23459633"/>
        <g>
          <path fill="url(#linearGradient-46)" fill-rule="evenodd" d="M4.71632533 32.45822918v-8.484695h.67376076v7.23192124L8.81503663 29.155462l3.42495054 2.04999342v-7.23192124h.72990749v8.484695l-4.15485803-2.50554752-4.0987113 2.50554752z"/>
          <path fill="url(#linearGradient-48)" fill-rule="evenodd" d="M7.41136838 18.62077358l-3.42495054-3.47359996.50532057-.4555541 2.91962997 3.01804587 5.55852628-5.6374819.50532057.45555409-6.06384685 6.093036z"/>
          <path fill="url(#linearGradient-50)" fill-rule="evenodd" d="M8.7506161 7.0041443c.56093692 0 1.17796775-.4555542 1.73890466-.4555542h.22437456c.61703082.1708329 1.00968602 1.02499682 1.57062293 1.30971813.56093692.34166524 1.4584362.11388841 1.96327921.51249813.50484301.4555542.44875017 1.36666261.84140537 1.87916075.39265627.51249814 1.29015555.74027497 1.57062401 1.30971758.16056344.32599626.10051946.7453059.04088204 1.16177208-.04453575.31100772-.08884469.62043078-.04088204.88822156.11218674.6263871.84140538 1.13888524.84140538 1.82221681 0 .6263871-.72921864 1.19582972-.84140538 1.82221573-.07727797.28764841-.0244355.62333182.02815662.95741862.0619313.39342402.12351487.78463343-.02815662 1.0925761-.28046846.62638601-1.17796774.79721836-1.570624 1.30971759-.3926552.51249705-.33656237 1.48054993-.84140538 1.8791602-.50484301.45555366-1.4023423.22777792-1.9632792.51249922-.56093692.28472131-.95359212 1.13888524-1.57062294 1.30971759h-.22437456c-.56093691 0-1.17796774-.45555366-1.73890465-.45555366-.56093692 0-1.17796774.45555366-1.73890466.45555366H6.7873369c-.61703082-.17083235-1.00968656-1.02499628-1.57062347-1.30971759-.56093692-.34166687-1.4584362-.11388895-1.9632792-.51249922-.50484329-.45555366-.44874965-1.36666315-.84140538-1.8791602-.392656-.51249923-1.29015502-.74027497-1.57062348-1.30971759-.16056344-.32599625-.10051919-.7453059-.0408821-1.16177424.04453555-.31100772.08884408-.6204297.0408821-.88822048C.72921797 16.62772486 0 16.11522563 0 15.43189514c0-.6263871.72921796-1.19582971.84140537-1.8222168.07727784-.28764842.0244351-.62333183-.02815628-.95741755-.06193223-.39342293-.1235158-.78463234.02815628-1.0925761.28046846-.626386 1.17796748-.79721944 1.57062348-1.30971758.39265573-.51249814.3365621-1.48055102.84140537-1.87916075.50484301-.4555542 1.4023423-.22777683 1.9632792-.51249813.56093692-.28472131.95359266-1.13888524 1.57062348-1.30971813h.22437455c.56093692 0 1.17796774.4555542 1.73890466.4555542zm2.2998405.74027497c-.16828064-.22777683-.39265519-.45555366-.5609369-.51249814-.16828065 0-.3926552.05694448-.67312366.22777683-.33656237.11388896-.72921757.2847213-1.12187384.2847213-.39265627 0-.785312-.17083234-1.12187383-.2847213-.22437509-.05694394-.44874964-.17083235-.61703082-.17083235h-.0560939c-.16828065 0-.39265574.22777683-.56093692.45555366-.22437456.22777737-.50484301.56944262-.84140538.7402755-.33656183.1708329-.78531147.1708329-1.1218733.22777684-.28046845.05694448-.56093691.05694448-.67312446.17083344-.11218727.11388787-.22437455.39860918-.28046845.68333048-.11218728.3416658-.22437456.74027606-.44874938 1.08194185-.22437482.3416647-.61703082.56944261-.89749928.74027496-.22437468.17083235-.50484314.3416658-.56093691.45555366-.05609364.11388896 0 .39861027.05609377.68333158.0080133.04880831.0171714.09994202.02665648.15290042.05691144.31775907.12559797.70126242.0294373 1.0429282-.05609378.39861027-.28046847.74027606-.50484329 1.02499737-.16828105.2847213-.33656216.51249814-.33656216.68333049 0 .17083343.16828111.45555474.33656216.68333157.16828105.28472131.39265574.62638818.50484328 1.02499628.05609364.39861027 0 .85416392-.05609377 1.1958308-.05609377.22777574-.11218741.56944262-.05609377.68333157.05609377.17083235.33656223.28472131.56093691.45555366.28046846.22777575.67312446.39861027.89749928.74027497.22437482.3416647.3365621.74027497.44874938 1.08194184.11218754.28472131.16828118.56944262.28046845.6833294.11218755.11388896.392656.17083453.67312446.17083453.33656183 0 .72921757.0569434 1.1218733.22777574.33656237.17083235.61703082.45555366.84140538.74027497.22437508.17083452.39265627.39861027.56093691.45555583h.0560939c.16828119 0 .39265574-.05694556.61703083-.17083452.33656183-.11388679.72921756-.28472131 1.12187383-.28472131.39265627 0 .78531147.17083452 1.12187384.2847213.22437455.05694557.4487491.17083453.61703082.17083453h.05609283c.16828172 0 .39265627-.22777791.56093692-.45555583.22437562-.22777574.50484408-.56944262.84140537-.74027497.33656237-.17083235.78531254-.17083235 1.12187384-.22777574.28046845-.05694557.56093691-.05694557.67312472-.17083452.11218781-.1138868.22437456-.3986081.28046846-.6833294.11218781-.34166688.22437455-.74027715.4487491-1.08194185.22437563-.3416647.61703083-.56944262.89749929-.74027497.22437455-.17083235.504843-.34166687.56093691-.45555366.0560939-.11388895 0-.39861026-.0560939-.68333157-.00801357-.04881049-.01717193-.09994745-.02665769-.1529091-.05691024-.31775908-.12559582-.70125809-.02943515-1.0429217.05609284-.3986081.28046846-.74027497.50484301-1.02499628.16828065-.2847213.33656237-.51249814.33656237-.68333157 0-.17083235-.16828172-.45555366-.33656237-.6833305-.16828171-.2847213-.39265627-.62638709-.504843-1.02499735-.05609391-.39860918 0-.85416393.05609283-1.19582863.0560939-.22777792.1121878-.56944262.0560939-.68333158-.0560939-.17083235-.33656236-.2847213-.56093691-.45555366-.28046846-.22777683-.67312366-.39861026-.89749928-.74027496-.22437456-.3416658-.3365613-.74027606-.4487491-1.08194185-.11218782-.2847213-.16828066-.56944261-.28046847-.68333048-.1121878-.11388896-.39265627-.17083344-.67312472-.17083344-.3365613 0-.72921757-.05694394-1.12187384-.22777683-.33656129-.1708329-.61702975-.4555542-.84140537-.74027551z"/>
        </g>
      </g>
    </g>
  </g>
</svg>
